  0
SECTION
  2
HEADER
  9
$ACADVER
  1
AC1024
  9
$ACADMAINTVER
 70
6
  9
$DWGCODEPAGE
  3
ANSI_1252
  9
$LASTSAVEDBY
  1
ezdxf
  9
$INSBASE
 10
0.0
 20
0.0
 30
0.0
  9
$EXTMIN
 10
1e+20
 20
1e+20
 30
1e+20
  9
$EXTMAX
 10
-1e+20
 20
-1e+20
 30
-1e+20
  9
$LIMMIN
 10
0.0
 20
0.0
  9
$LIMMAX
 10
420.0
 20
297.0
  9
$ORTHOMODE
 70
0
  9
$REGENMODE
 70
1
  9
$FILLMODE
 70
1
  9
$QTEXTMODE
 70
0
  9
$MIRRTEXT
 70
1
  9
$LTSCALE
 40
1.0
  9
$ATTMODE
 70
1
  9
$TEXTSIZE
 40
2.5
  9
$TRACEWID
 40
1.0
  9
$TEXTSTYLE
  7
Standard
  9
$CLAYER
  8
0
  9
$CELTYPE
  6
ByLayer
  9
$CECOLOR
 62
256
  9
$CELTSCALE
 40
1.0
  9
$DISPSILH
 70
0
  9
$DIMSCALE
 40
1.0
  9
$DIMASZ
 40
2.5
  9
$DIMEXO
 40
0.625
  9
$DIMDLI
 40
3.75
  9
$DIMRND
 40
0.0
  9
$DIMDLE
 40
0.0
  9
$DIMEXE
 40
1.25
  9
$DIMTP
 40
0.0
  9
$DIMTM
 40
0.0
  9
$DIMTXT
 40
2.5
  9
$DIMCEN
 40
2.5
  9
$DIMTSZ
 40
0.0
  9
$DIMTOL
 70
0
  9
$DIMLIM
 70
0
  9
$DIMTIH
 70
0
  9
$DIMTOH
 70
0
  9
$DIMSE1
 70
0
  9
$DIMSE2
 70
0
  9
$DIMTAD
 70
1
  9
$DIMZIN
 70
8
  9
$DIMBLK
  1

  9
$DIMASO
 70
1
  9
$DIMSHO
 70
1
  9
$DIMPOST
  1

  9
$DIMAPOST
  1

  9
$DIMALT
 70
0
  9
$DIMALTD
 70
3
  9
$DIMALTF
 40
0.03937007874
  9
$DIMLFAC
 40
1.0
  9
$DIMTOFL
 70
1
  9
$DIMTVP
 40
0.0
  9
$DIMTIX
 70
0
  9
$DIMSOXD
 70
0
  9
$DIMSAH
 70
0
  9
$DIMBLK1
  1

  9
$DIMBLK2
  1

  9
$DIMSTYLE
  2
ISO-25
  9
$DIMCLRD
 70
0
  9
$DIMCLRE
 70
0
  9
$DIMCLRT
 70
0
  9
$DIMTFAC
 40
1.0
  9
$DIMGAP
 40
0.625
  9
$DIMJUST
 70
0
  9
$DIMSD1
 70
0
  9
$DIMSD2
 70
0
  9
$DIMTOLJ
 70
0
  9
$DIMTZIN
 70
8
  9
$DIMALTZ
 70
0
  9
$DIMALTTZ
 70
0
  9
$DIMUPT
 70
0
  9
$DIMDEC
 70
2
  9
$DIMTDEC
 70
2
  9
$DIMALTU
 70
2
  9
$DIMALTTD
 70
3
  9
$DIMTXSTY
  7
Standard
  9
$DIMAUNIT
 70
0
  9
$DIMADEC
 70
0
  9
$DIMALTRND
 40
0.0
  9
$DIMAZIN
 70
0
  9
$DIMDSEP
 70
44
  9
$DIMATFIT
 70
3
  9
$DIMFRAC
 70
0
  9
$DIMLDRBLK
  1

  9
$DIMLUNIT
 70
2
  9
$DIMLWD
 70
-2
  9
$DIMLWE
 70
-2
  9
$DIMTMOVE
 70
0
  9
$DIMFXL
 40
1.0
  9
$DIMFXLON
 70
0
  9
$DIMJOGANG
 40
0.785398163397
  9
$DIMTFILL
 70
0
  9
$DIMTFILLCLR
 70
0
  9
$DIMARCSYM
 70
0
  9
$DIMLTYPE
  6

  9
$DIMLTEX1
  6

  9
$DIMLTEX2
  6

  9
$DIMTXTDIRECTION
 70
0
  9
$LUNITS
 70
2
  9
$LUPREC
 70
4
  9
$SKETCHINC
 40
1.0
  9
$FILLETRAD
 40
10.0
  9
$AUNITS
 70
0
  9
$AUPREC
 70
2
  9
$MENU
  1
.
  9
$ELEVATION
 40
0.0
  9
$PELEVATION
 40
0.0
  9
$THICKNESS
 40
0.0
  9
$LIMCHECK
 70
0
  9
$CHAMFERA
 40
0.0
  9
$CHAMFERB
 40
0.0
  9
$CHAMFERC
 40
0.0
  9
$CHAMFERD
 40
0.0
  9
$SKPOLY
 70
0
  9
$TDCREATE
 40
2461276.503599537
  9
$TDUCREATE
 40
2458532.153996898
  9
$TDUPDATE
 40
2461276.503599537
  9
$TDUUPDATE
 40
2458532.1544311
  9
$TDINDWG
 40
0.0
  9
$TDUSRTIMER
 40
0.0
  9
$USRTIMER
 70
1
  9
$ANGBASE
 50
0.0
  9
$ANGDIR
 70
0
  9
$PDMODE
 70
0
  9
$PDSIZE
 40
0.0
  9
$PLINEWID
 40
0.0
  9
$SPLFRAME
 70
0
  9
$SPLINETYPE
 70
6
  9
$SPLINESEGS
 70
8
  9
$HANDSEED
  5
F5
  9
$SURFTAB1
 70
6
  9
$SURFTAB2
 70
6
  9
$SURFTYPE
 70
6
  9
$SURFU
 70
6
  9
$SURFV
 70
6
  9
$UCSBASE
  2

  9
$UCSNAME
  2

  9
$UCSORG
 10
0.0
 20
0.0
 30
0.0
  9
$UCSXDIR
 10
1.0
 20
0.0
 30
0.0
  9
$UCSYDIR
 10
0.0
 20
1.0
 30
0.0
  9
$UCSORTHOREF
  2

  9
$UCSORTHOVIEW
 70
0
  9
$UCSORGTOP
 10
0.0
 20
0.0
 30
0.0
  9
$UCSORGBOTTOM
 10
0.0
 20
0.0
 30
0.0
  9
$UCSORGLEFT
 10
0.0
 20
0.0
 30
0.0
  9
$UCSORGRIGHT
 10
0.0
 20
0.0
 30
0.0
  9
$UCSORGFRONT
 10
0.0
 20
0.0
 30
0.0
  9
$UCSORGBACK
 10
0.0
 20
0.0
 30
0.0
  9
$PUCSBASE
  2

  9
$PUCSNAME
  2

  9
$PUCSORG
 10
0.0
 20
0.0
 30
0.0
  9
$PUCSXDIR
 10
1.0
 20
0.0
 30
0.0
  9
$PUCSYDIR
 10
0.0
 20
1.0
 30
0.0
  9
$PUCSORTHOREF
  2

  9
$PUCSORTHOVIEW
 70
0
  9
$PUCSORGTOP
 10
0.0
 20
0.0
 30
0.0
  9
$PUCSORGBOTTOM
 10
0.0
 20
0.0
 30
0.0
  9
$PUCSORGLEFT
 10
0.0
 20
0.0
 30
0.0
  9
$PUCSORGRIGHT
 10
0.0
 20
0.0
 30
0.0
  9
$PUCSORGFRONT
 10
0.0
 20
0.0
 30
0.0
  9
$PUCSORGBACK
 10
0.0
 20
0.0
 30
0.0
  9
$USERI1
 70
0
  9
$USERI2
 70
0
  9
$USERI3
 70
0
  9
$USERI4
 70
0
  9
$USERI5
 70
0
  9
$USERR1
 40
0.0
  9
$USERR2
 40
0.0
  9
$USERR3
 40
0.0
  9
$USERR4
 40
0.0
  9
$USERR5
 40
0.0
  9
$WORLDVIEW
 70
1
  9
$SHADEDGE
 70
3
  9
$SHADEDIF
 70
70
  9
$TILEMODE
 70
1
  9
$MAXACTVP
 70
64
  9
$PINSBASE
 10
0.0
 20
0.0
 30
0.0
  9
$PLIMCHECK
 70
0
  9
$PEXTMIN
 10
1e+20
 20
1e+20
 30
1e+20
  9
$PEXTMAX
 10
-1e+20
 20
-1e+20
 30
-1e+20
  9
$PLIMMIN
 10
0.0
 20
0.0
  9
$PLIMMAX
 10
420.0
 20
297.0
  9
$UNITMODE
 70
0
  9
$VISRETAIN
 70
1
  9
$PLINEGEN
 70
0
  9
$PSLTSCALE
 70
1
  9
$TREEDEPTH
 70
3020
  9
$CMLSTYLE
  2
Standard
  9
$CMLJUST
 70
0
  9
$CMLSCALE
 40
20.0
  9
$PROXYGRAPHICS
 70
1
  9
$MEASUREMENT
 70
1
  9
$CELWEIGHT
370
-1
  9
$ENDCAPS
280
0
  9
$JOINSTYLE
280
0
  9
$LWDISPLAY
290
0
  9
$INSUNITS
 70
4
  9
$HYPERLINKBASE
  1

  9
$STYLESHEET
  1

  9
$XEDIT
290
1
  9
$CEPSNTYPE
380
0
  9
$PSTYLEMODE
290
1
  9
$FINGERPRINTGUID
  2
{EDCA3E5E-DCD2-4FD4-B38F-91D9D78591C7}
  9
$VERSIONGUID
  2
{E191D90E-ECBE-4F74-BAAC-6C6DFA491BEA}
  9
$EXTNAMES
290
1
  9
$PSVPSCALE
 40
0.0
  9
$OLESTARTUP
290
0
  9
$SORTENTS
280
127
  9
$INDEXCTL
280
0
  9
$HIDETEXT
280
1
  9
$XCLIPFRAME
280
1
  9
$HALOGAP
280
0
  9
$OBSCOLOR
 70
257
  9
$OBSLTYPE
280
0
  9
$INTERSECTIONDISPLAY
280
0
  9
$INTERSECTIONCOLOR
 70
257
  9
$DIMASSOC
280
2
  9
$PROJECTNAME
  1

  9
$CAMERADISPLAY
290
0
  9
$LENSLENGTH
 40
50.0
  9
$CAMERAHEIGHT
 40
0.0
  9
$STEPSPERSEC
 40
24.0
  9
$STEPSIZE
 40
100.0
  9
$3DDWFPREC
 40
2.0
  9
$PSOLWIDTH
 40
0.005
  9
$PSOLHEIGHT
 40
0.08
  9
$LOFTANG1
 40
1.570796326795
  9
$LOFTANG2
 40
1.570796326795
  9
$LOFTMAG1
 40
0.0
  9
$LOFTMAG2
 40
0.0
  9
$LOFTPARAM
 70
7
  9
$LOFTNORMALS
280
1
  9
$LATITUDE
 40
37.795
  9
$LONGITUDE
 40
-122.394
  9
$NORTHDIRECTION
 40
0.0
  9
$TIMEZONE
 70
-8000
  9
$LIGHTGLYPHDISPLAY
280
1
  9
$TILEMODELIGHTSYNCH
280
1
  9
$CMATERIAL
347
20
  9
$SOLIDHIST
280
0
  9
$SHOWHIST
280
1
  9
$DWFFRAME
280
2
  9
$DGNFRAME
280
2
  9
$REALWORLDSCALE
290
1
  9
$INTERFERECOLOR
 62
256
  9
$CSHADOW
280
0
  9
$SHADOWPLANELOCATION
 40
0.0
  0
ENDSEC
  0
SECTION
  2
CLASSES
  0
CLASS
  1
ACDBDICTIONARYWDFLT
  2
AcDbDictionaryWithDefault
  3
ObjectDBX Classes
 90
0
 91
0
280
0
281
0
  0
CLASS
  1
SUN
  2
AcDbSun
  3
SCENEOE
 90
1153
 91
0
280
0
281
0
  0
CLASS
  1
VISUALSTYLE
  2
AcDbVisualStyle
  3
ObjectDBX Classes
 90
4095
 91
0
280
0
281
0
  0
CLASS
  1
MATERIAL
  2
AcDbMaterial
  3
ObjectDBX Classes
 90
1153
 91
0
280
0
281
0
  0
CLASS
  1
SCALE
  2
AcDbScale
  3
ObjectDBX Classes
 90
1153
 91
0
280
0
281
0
  0
CLASS
  1
TABLESTYLE
  2
AcDbTableStyle
  3
ObjectDBX Classes
 90
4095
 91
0
280
0
281
0
  0
CLASS
  1
MLEADERSTYLE
  2
AcDbMLeaderStyle
  3
ACDB_MLEADERSTYLE_CLASS
 90
4095
 91
0
280
0
281
0
  0
CLASS
  1
DICTIONARYVAR
  2
AcDbDictionaryVar
  3
ObjectDBX Classes
 90
0
 91
0
280
0
281
0
  0
CLASS
  1
CELLSTYLEMAP
  2
AcDbCellStyleMap
  3
ObjectDBX Classes
 90
1152
 91
0
280
0
281
0
  0
CLASS
  1
MENTALRAYRENDERSETTINGS
  2
AcDbMentalRayRenderSettings
  3
SCENEOE
 90
1024
 91
0
280
0
281
0
  0
CLASS
  1
ACDBDETAILVIEWSTYLE
  2
AcDbDetailViewStyle
  3
ObjectDBX Classes
 90
1025
 91
0
280
0
281
0
  0
CLASS
  1
ACDBSECTIONVIEWSTYLE
  2
AcDbSectionViewStyle
  3
ObjectDBX Classes
 90
1025
 91
0
280
0
281
0
  0
CLASS
  1
RASTERVARIABLES
  2
AcDbRasterVariables
  3
ISM
 90
0
 91
0
280
0
281
0
  0
CLASS
  1
LAYOUT
  2
AcDbLayout
  3
ObjectDBX Classes
 90
0
 91
0
280
0
281
0
  0
CLASS
  1
ACDBPLACEHOLDER
  2
AcDbPlaceHolder
  3
ObjectDBX Classes
 90
0
 91
0
280
0
281
0
  0
ENDSEC
  0
SECTION
  2
TABLES
  0
TABLE
  2
VPORT
  5
8
330
0
100
AcDbSymbolTable
 70
1
  0
VPORT
  5
23
330
8
100
AcDbSymbolTableRecord
100
AcDbViewportTableRecord
  2
*Active
 70
0
 10
0.0
 20
0.0
 11
1.0
 21
1.0
 12
0.0
 22
0.0
 13
0.0
 23
0.0
 14
0.5
 24
0.5
 15
0.5
 25
0.5
 16
0.0
 26
0.0
 36
1.0
 17
0.0
 27
0.0
 37
0.0
 40
1000.0
 41
1.34
 42
50.0
 43
0.0
 44
0.0
 50
0.0
 51
0.0
 71
0
 72
1000
 73
1
 74
3
 75
0
 76
0
 77
0
 78
0
281
0
 65
0
146
0.0
  0
ENDTAB
  0
TABLE
  2
LTYPE
  5
2
330
0
100
AcDbSymbolTable
 70
3
  0
LTYPE
  5
24
330
2
100
AcDbSymbolTableRecord
100
AcDbLinetypeTableRecord
  2
ByBlock
 70
0
  3

 72
65
 73
0
 40
0.0
  0
LTYPE
  5
25
330
2
100
AcDbSymbolTableRecord
100
AcDbLinetypeTableRecord
  2
ByLayer
 70
0
  3

 72
65
 73
0
 40
0.0
  0
LTYPE
  5
26
330
2
100
AcDbSymbolTableRecord
100
AcDbLinetypeTableRecord
  2
Continuous
 70
0
  3

 72
65
 73
0
 40
0.0
  0
ENDTAB
  0
TABLE
  2
LAYER
  5
1
330
0
100
AcDbSymbolTable
 70
5
  0
LAYER
  5
27
330
1
100
AcDbSymbolTableRecord
100
AcDbLayerTableRecord
  2
0
 70
0
 62
7
  6
Continuous
370
-3
390
13
347
21
  0
LAYER
  5
28
330
1
100
AcDbSymbolTableRecord
100
AcDbLayerTableRecord
  2
Defpoints
 70
0
 62
7
  6
Continuous
290
0
370
-3
390
13
347
21
  0
LAYER
  5
2F
330
1
100
AcDbSymbolTableRecord
100
AcDbLayerTableRecord
  2
CUT
 70
0
 62
1
  6
Continuous
370
-3
390
13
347
21
  0
LAYER
  5
30
330
1
100
AcDbSymbolTableRecord
100
AcDbLayerTableRecord
  2
ENGRAVE
 70
0
 62
3
  6
Continuous
370
-3
390
13
347
21
  0
LAYER
  5
31
330
1
100
AcDbSymbolTableRecord
100
AcDbLayerTableRecord
  2
INFO
 70
0
 62
7
  6
Continuous
370
-3
390
13
347
21
  0
ENDTAB
  0
TABLE
  2
STYLE
  5
5
330
0
100
AcDbSymbolTable
 70
1
  0
STYLE
  5
29
330
5
100
AcDbSymbolTableRecord
100
AcDbTextStyleTableRecord
  2
Standard
 70
0
 40
0.0
 41
1.0
 50
0.0
 71
0
 42
2.5
  3
txt
  4

  0
ENDTAB
  0
TABLE
  2
VIEW
  5
7
330
0
100
AcDbSymbolTable
 70
0
  0
ENDTAB
  0
TABLE
  2
UCS
  5
6
330
0
100
AcDbSymbolTable
 70
0
  0
ENDTAB
  0
TABLE
  2
APPID
  5
3
330
0
100
AcDbSymbolTable
 70
3
  0
APPID
  5
2A
330
3
100
AcDbSymbolTableRecord
100
AcDbRegAppTableRecord
  2
ACAD
 70
0
  0
APPID
  5
F2
330
3
100
AcDbSymbolTableRecord
100
AcDbRegAppTableRecord
  2
HATCHBACKGROUNDCOLOR
 70
0
  0
APPID
  5
F3
330
3
100
AcDbSymbolTableRecord
100
AcDbRegAppTableRecord
  2
EZDXF
 70
0
  0
ENDTAB
  0
TABLE
  2
DIMSTYLE
  5
4
330
0
100
AcDbSymbolTable
 70
1
100
AcDbDimStyleTable
  0
DIMSTYLE
105
2B
330
4
100
AcDbSymbolTableRecord
100
AcDbDimStyleTableRecord
  2
Standard
 70
0
 40
1.0
 41
2.5
 42
0.625
 43
3.75
 44
1.25
 45
0.0
 46
0.0
 47
0.0
 48
0.0
 49
2.5
140
2.5
141
2.5
142
0.0
143
0.03937007874
144
1.0
145
0.0
146
1.0
147
0.625
148
0.0
 69
0
 70
0
 71
0
 72
0
 73
0
 74
0
 75
0
 76
0
 77
1
 78
8
 79
3
170
0
171
3
172
1
173
0
174
0
175
0
176
0
177
0
178
0
179
2
271
2
272
2
273
2
274
3
275
0
276
0
277
2
278
44
279
0
280
0
281
0
282
0
283
0
284
8
285
0
286
0
288
0
289
3
290
0
371
-2
372
-2
  0
ENDTAB
  0
TABLE
  2
BLOCK_RECORD
  5
9
330
0
100
AcDbSymbolTable
 70
2
  0
BLOCK_RECORD
  5
17
330
9
100
AcDbSymbolTableRecord
100
AcDbBlockTableRecord
  2
*Model_Space
340
1A
 70
0
280
1
281
0
  0
BLOCK_RECORD
  5
1B
330
9
100
AcDbSymbolTableRecord
100
AcDbBlockTableRecord
  2
*Paper_Space
340
1E
 70
0
280
1
281
0
  0
ENDTAB
  0
ENDSEC
  0
SECTION
  2
BLOCKS
  0
BLOCK
  5
18
330
17
100
AcDbEntity
  8
0
100
AcDbBlockBegin
  2
*Model_Space
 70
0
 10
0.0
 20
0.0
 30
0.0
  3
*Model_Space
  1

  0
ENDBLK
  5
19
330
17
100
AcDbEntity
  8
0
100
AcDbBlockEnd
  0
BLOCK
  5
1C
330
1B
100
AcDbEntity
  8
0
100
AcDbBlockBegin
  2
*Paper_Space
 70
0
 10
0.0
 20
0.0
 30
0.0
  3
*Paper_Space
  1

  0
ENDBLK
  5
1D
330
1B
100
AcDbEntity
  8
0
100
AcDbBlockEnd
  0
ENDSEC
  0
SECTION
  2
ENTITIES
  0
LWPOLYLINE
  5
32
330
17
100
AcDbEntity
  8
CUT
 62
1
100
AcDbPolyline
 90
69
 70
1
 10
20.0
 20
48.5
 10
20.0
 20
61.5
 10
26.5
 20
61.5
 10
26.5
 20
56.0
 10
33.5
 20
56.0
 10
33.5
 20
61.5
 10
65.0
 20
61.5
 10
65.0
 20
90.0
 10
154.46803743153546
 20
90.0
 10
156.23401871576775
 20
88.23401871576773
 10
157.15303513559928
 20
87.28885552364038
 10
158.0451817495088
 20
86.31828916374418
 10
158.90975666361555
 20
85.32308322647812
 10
159.7460796759974
 20
84.30402068736048
 10
160.5534928118377
 20
83.26190329102508
 10
161.33136084108523
 20
82.19755092045087
 10
162.07907177821963
 20
81.11180095192131
 10
162.79603736372934
 20
80.00550759622082
 10
163.4816935269232
 20
78.8795412265869
 10
164.13550082971142
 20
77.73478769394627
 10
164.75694489100698
 20
76.57214762997427
 10
165.3455367914137
 20
75.39253573852523
 10
165.90081345788198
 20
74.19688007599183
 10
166.42233802803048
 20
72.98612132115922
 10
166.9097001938462
 20
71.76121203512872
 10
167.3625165244933
 20
70.52311591189286
 10
167.78043076797613
 20
69.2728070201519
 10
168.16311413141966
 20
68.01126903696792
 10
168.51026553974629
 20
66.73949447385966
 10
168.8216118725457
 20
65.45848389594678
 10
169.09690817895182
 20
64.16924513475803
 10
169.3359378703571
 20
62.872792495322614
 10
169.53851289081294
 20
61.570145958168474
 10
169.7044738649824
 20
60.26233037685547
 10
169.8336902235281
 20
58.95037467167464
 10
169.92606030583738
 20
57.635311020148016
 10
169.9815114400035
 20
56.31817404496584
 10
170.0
 20
55.0
 10
169.9815114400035
 20
53.68182595503415
 10
169.92606030583738
 20
52.36468897985199
 10
169.8336902235281
 20
51.04962532832537
 10
169.7044738649824
 20
49.737669623144534
 10
169.53851289081294
 20
48.42985404183153
 10
169.3359378703571
 20
47.12720750467739
 10
169.09690817895182
 20
45.83075486524197
 10
168.8216118725457
 20
44.54151610405323
 10
168.51026553974629
 20
43.26050552614034
 10
168.1631141314197
 20
41.98873096303208
 10
167.78043076797613
 20
40.72719297984811
 10
167.3625165244933
 20
39.476884088107155
 10
166.9097001938462
 20
38.23878796487129
 10
166.42233802803048
 20
37.01387867884078
 10
165.90081345788198
 20
35.803119924008186
 10
165.3455367914137
 20
34.607464261474775
 10
164.756944891007
 20
33.42785237002575
 10
164.13550082971142
 20
32.26521230605373
 10
163.4816935269232
 20
31.120458773413112
 10
162.79603736372937
 20
29.994492403779187
 10
162.07907177821963
 20
28.888199048078707
 10
161.33136084108523
 20
27.80244907954913
 10
160.5534928118377
 20
26.738096708974922
 10
159.7460796759974
 20
25.695979312639526
 10
158.90975666361555
 20
24.676916773521892
 10
158.0451817495088
 20
23.681710836255817
 10
157.15303513559928
 20
22.71114447635962
 10
156.23401871576775
 20
21.765981284232268
 10
154.46803743153546
 20
20.0
 10
65.0
 20
20.0
 10
65.0
 20
48.5
  0
CIRCLE
  5
33
330
17
100
AcDbEntity
  8
CUT
 62
1
100
AcDbCircle
 10
115.0
 20
40.0
 30
0.0
 40
5.0
  0
CIRCLE
  5
34
330
17
100
AcDbEntity
  8
CUT
 62
1
100
AcDbCircle
 10
115.0
 20
70.0
 30
0.0
 40
5.0
  0
CIRCLE
  5
35
330
17
100
AcDbEntity
  8
CUT
 62
1
100
AcDbCircle
 10
80.0
 20
40.0
 30
0.0
 40
5.0
  0
CIRCLE
  5
36
330
17
100
AcDbEntity
  8
CUT
 62
1
100
AcDbCircle
 10
80.0
 20
70.0
 30
0.0
 40
5.0
  0
LWPOLYLINE
  5
37
330
17
100
AcDbEntity
  8
CUT
 62
1
100
AcDbPolyline
 90
69
 70
1
 10
174.0
 20
48.5
 10
174.0
 20
61.5
 10
180.5
 20
61.5
 10
180.5
 20
56.0
 10
187.5
 20
56.0
 10
187.5
 20
61.5
 10
219.0
 20
61.5
 10
219.0
 20
90.0
 10
308.46803743153544
 20
90.0
 10
310.2340187157678
 20
88.23401871576773
 10
311.1530351355993
 20
87.28885552364038
 10
312.0451817495088
 20
86.31828916374418
 10
312.90975666361555
 20
85.32308322647812
 10
313.7460796759974
 20
84.30402068736048
 10
314.5534928118377
 20
83.26190329102508
 10
315.33136084108526
 20
82.19755092045087
 10
316.0790717782196
 20
81.11180095192131
 10
316.79603736372934
 20
80.00550759622082
 10
317.4816935269232
 20
78.8795412265869
 10
318.1355008297114
 20
77.73478769394627
 10
318.756944891007
 20
76.57214762997427
 10
319.3455367914137
 20
75.39253573852523
 10
319.900813457882
 20
74.19688007599183
 10
320.4223380280305
 20
72.98612132115922
 10
320.9097001938462
 20
71.76121203512872
 10
321.3625165244933
 20
70.52311591189286
 10
321.7804307679761
 20
69.2728070201519
 10
322.16311413141966
 20
68.01126903696792
 10
322.5102655397463
 20
66.73949447385966
 10
322.8216118725457
 20
65.45848389594678
 10
323.0969081789518
 20
64.16924513475803
 10
323.3359378703571
 20
62.872792495322614
 10
323.53851289081297
 20
61.570145958168474
 10
323.7044738649824
 20
60.26233037685547
 10
323.8336902235281
 20
58.95037467167464
 10
323.9260603058374
 20
57.635311020148016
 10
323.9815114400035
 20
56.31817404496584
 10
324.0
 20
55.0
 10
323.9815114400035
 20
53.68182595503415
 10
323.9260603058374
 20
52.36468897985199
 10
323.8336902235281
 20
51.04962532832537
 10
323.7044738649824
 20
49.737669623144534
 10
323.53851289081297
 20
48.42985404183153
 10
323.3359378703571
 20
47.12720750467739
 10
323.0969081789518
 20
45.83075486524197
 10
322.8216118725457
 20
44.54151610405323
 10
322.5102655397463
 20
43.26050552614034
 10
322.16311413141966
 20
41.98873096303208
 10
321.7804307679761
 20
40.72719297984811
 10
321.3625165244933
 20
39.476884088107155
 10
320.9097001938462
 20
38.23878796487129
 10
320.4223380280305
 20
37.01387867884078
 10
319.900813457882
 20
35.803119924008186
 10
319.3455367914137
 20
34.607464261474775
 10
318.75694489100704
 20
33.42785237002575
 10
318.1355008297114
 20
32.26521230605373
 10
317.4816935269232
 20
31.120458773413112
 10
316.7960373637294
 20
29.994492403779187
 10
316.0790717782196
 20
28.888199048078707
 10
315.33136084108526
 20
27.80244907954913
 10
314.5534928118377
 20
26.738096708974922
 10
313.7460796759974
 20
25.695979312639526
 10
312.90975666361555
 20
24.676916773521892
 10
312.0451817495088
 20
23.681710836255817
 10
311.1530351355993
 20
22.71114447635962
 10
310.2340187157678
 20
21.765981284232268
 10
308.46803743153544
 20
20.0
 10
219.0
 20
20.0
 10
219.0
 20
48.5
  0
CIRCLE
  5
38
330
17
100
AcDbEntity
  8
CUT
 62
1
100
AcDbCircle
 10
269.0
 20
40.0
 30
0.0
 40
5.0
  0
CIRCLE
  5
39
330
17
100
AcDbEntity
  8
CUT
 62
1
100
AcDbCircle
 10
269.0
 20
70.0
 30
0.0
 40
5.0
  0
CIRCLE
  5
3A
330
17
100
AcDbEntity
  8
CUT
 62
1
100
AcDbCircle
 10
234.0
 20
40.0
 30
0.0
 40
5.0
  0
CIRCLE
  5
3B
330
17
100
AcDbEntity
  8
CUT
 62
1
100
AcDbCircle
 10
234.0
 20
70.0
 30
0.0
 40
5.0
  0
LWPOLYLINE
  5
3C
330
17
100
AcDbEntity
  8
CUT
 62
1
100
AcDbPolyline
 90
69
 70
1
 10
328.0
 20
48.5
 10
328.0
 20
61.5
 10
334.5
 20
61.5
 10
334.5
 20
56.0
 10
341.5
 20
56.0
 10
341.5
 20
61.5
 10
373.0
 20
61.5
 10
373.0
 20
90.0
 10
462.46803743153544
 20
90.0
 10
464.2340187157678
 20
88.23401871576773
 10
465.1530351355993
 20
87.28885552364038
 10
466.0451817495088
 20
86.31828916374418
 10
466.90975666361555
 20
85.32308322647812
 10
467.7460796759974
 20
84.30402068736048
 10
468.5534928118377
 20
83.26190329102508
 10
469.33136084108526
 20
82.19755092045087
 10
470.0790717782196
 20
81.11180095192131
 10
470.79603736372934
 20
80.00550759622082
 10
471.4816935269232
 20
78.8795412265869
 10
472.1355008297114
 20
77.73478769394627
 10
472.756944891007
 20
76.57214762997427
 10
473.3455367914137
 20
75.39253573852523
 10
473.900813457882
 20
74.19688007599183
 10
474.4223380280305
 20
72.98612132115922
 10
474.9097001938462
 20
71.76121203512872
 10
475.3625165244933
 20
70.52311591189286
 10
475.7804307679761
 20
69.2728070201519
 10
476.16311413141966
 20
68.01126903696792
 10
476.5102655397463
 20
66.73949447385966
 10
476.8216118725457
 20
65.45848389594678
 10
477.0969081789518
 20
64.16924513475803
 10
477.3359378703571
 20
62.872792495322614
 10
477.53851289081297
 20
61.570145958168474
 10
477.7044738649824
 20
60.26233037685547
 10
477.8336902235281
 20
58.95037467167464
 10
477.9260603058374
 20
57.635311020148016
 10
477.9815114400035
 20
56.31817404496584
 10
478.0
 20
55.0
 10
477.9815114400035
 20
53.68182595503415
 10
477.9260603058374
 20
52.36468897985199
 10
477.8336902235281
 20
51.04962532832537
 10
477.7044738649824
 20
49.737669623144534
 10
477.53851289081297
 20
48.42985404183153
 10
477.3359378703571
 20
47.12720750467739
 10
477.0969081789518
 20
45.83075486524197
 10
476.8216118725457
 20
44.54151610405323
 10
476.5102655397463
 20
43.26050552614034
 10
476.16311413141966
 20
41.98873096303208
 10
475.7804307679761
 20
40.72719297984811
 10
475.3625165244933
 20
39.476884088107155
 10
474.9097001938462
 20
38.23878796487129
 10
474.4223380280305
 20
37.01387867884078
 10
473.900813457882
 20
35.803119924008186
 10
473.3455367914137
 20
34.607464261474775
 10
472.75694489100704
 20
33.42785237002575
 10
472.1355008297114
 20
32.26521230605373
 10
471.4816935269232
 20
31.120458773413112
 10
470.7960373637294
 20
29.994492403779187
 10
470.0790717782196
 20
28.888199048078707
 10
469.33136084108526
 20
27.80244907954913
 10
468.5534928118377
 20
26.738096708974922
 10
467.7460796759974
 20
25.695979312639526
 10
466.90975666361555
 20
24.676916773521892
 10
466.0451817495088
 20
23.681710836255817
 10
465.1530351355993
 20
22.71114447635962
 10
464.2340187157678
 20
21.765981284232268
 10
462.46803743153544
 20
20.0
 10
373.0
 20
20.0
 10
373.0
 20
48.5
  0
CIRCLE
  5
3D
330
17
100
AcDbEntity
  8
CUT
 62
1
100
AcDbCircle
 10
423.0
 20
40.0
 30
0.0
 40
5.0
  0
CIRCLE
  5
3E
330
17
100
AcDbEntity
  8
CUT
 62
1
100
AcDbCircle
 10
423.0
 20
70.0
 30
0.0
 40
5.0
  0
CIRCLE
  5
3F
330
17
100
AcDbEntity
  8
CUT
 62
1
100
AcDbCircle
 10
388.0
 20
40.0
 30
0.0
 40
5.0
  0
CIRCLE
  5
40
330
17
100
AcDbEntity
  8
CUT
 62
1
100
AcDbCircle
 10
388.0
 20
70.0
 30
0.0
 40
5.0
  0
LWPOLYLINE
  5
41
330
17
100
AcDbEntity
  8
CUT
 62
1
100
AcDbPolyline
 90
69
 70
1
 10
482.0
 20
48.5
 10
482.0
 20
61.5
 10
488.5
 20
61.5
 10
488.5
 20
56.0
 10
495.5
 20
56.0
 10
495.5
 20
61.5
 10
527.0
 20
61.5
 10
527.0
 20
90.0
 10
616.4680374315354
 20
90.0
 10
618.2340187157678
 20
88.23401871576773
 10
619.1530351355993
 20
87.28885552364038
 10
620.0451817495089
 20
86.31828916374418
 10
620.9097566636156
 20
85.32308322647812
 10
621.7460796759974
 20
84.30402068736048
 10
622.5534928118377
 20
83.26190329102508
 10
623.3313608410853
 20
82.19755092045087
 10
624.0790717782196
 20
81.11180095192131
 10
624.7960373637293
 20
80.00550759622082
 10
625.4816935269232
 20
78.8795412265869
 10
626.1355008297114
 20
77.73478769394627
 10
626.7569448910069
 20
76.57214762997427
 10
627.3455367914137
 20
75.39253573852523
 10
627.900813457882
 20
74.19688007599183
 10
628.4223380280305
 20
72.98612132115922
 10
628.9097001938462
 20
71.76121203512872
 10
629.3625165244932
 20
70.52311591189286
 10
629.7804307679761
 20
69.2728070201519
 10
630.1631141314197
 20
68.01126903696792
 10
630.5102655397463
 20
66.73949447385966
 10
630.8216118725456
 20
65.45848389594678
 10
631.0969081789518
 20
64.16924513475803
 10
631.3359378703572
 20
62.872792495322614
 10
631.538512890813
 20
61.570145958168474
 10
631.7044738649824
 20
60.26233037685547
 10
631.833690223528
 20
58.95037467167464
 10
631.9260603058374
 20
57.635311020148016
 10
631.9815114400035
 20
56.31817404496584
 10
632.0
 20
55.0
 10
631.9815114400035
 20
53.68182595503415
 10
631.9260603058374
 20
52.36468897985199
 10
631.833690223528
 20
51.04962532832537
 10
631.7044738649824
 20
49.737669623144534
 10
631.538512890813
 20
48.42985404183153
 10
631.3359378703572
 20
47.12720750467739
 10
631.0969081789518
 20
45.83075486524197
 10
630.8216118725456
 20
44.54151610405323
 10
630.5102655397463
 20
43.26050552614034
 10
630.1631141314197
 20
41.98873096303208
 10
629.7804307679761
 20
40.72719297984811
 10
629.3625165244932
 20
39.476884088107155
 10
628.9097001938462
 20
38.23878796487129
 10
628.4223380280305
 20
37.01387867884078
 10
627.900813457882
 20
35.803119924008186
 10
627.3455367914137
 20
34.607464261474775
 10
626.756944891007
 20
33.42785237002575
 10
626.1355008297114
 20
32.26521230605373
 10
625.4816935269232
 20
31.120458773413112
 10
624.7960373637294
 20
29.994492403779187
 10
624.0790717782196
 20
28.888199048078707
 10
623.3313608410853
 20
27.80244907954913
 10
622.5534928118377
 20
26.738096708974922
 10
621.7460796759974
 20
25.695979312639526
 10
620.9097566636156
 20
24.676916773521892
 10
620.0451817495089
 20
23.681710836255817
 10
619.1530351355993
 20
22.71114447635962
 10
618.2340187157678
 20
21.765981284232268
 10
616.4680374315354
 20
20.0
 10
527.0
 20
20.0
 10
527.0
 20
48.5
  0
CIRCLE
  5
42
330
17
100
AcDbEntity
  8
CUT
 62
1
100
AcDbCircle
 10
577.0
 20
40.0
 30
0.0
 40
5.0
  0
CIRCLE
  5
43
330
17
100
AcDbEntity
  8
CUT
 62
1
100
AcDbCircle
 10
577.0
 20
70.0
 30
0.0
 40
5.0
  0
CIRCLE
  5
44
330
17
100
AcDbEntity
  8
CUT
 62
1
100
AcDbCircle
 10
542.0
 20
40.0
 30
0.0
 40
5.0
  0
CIRCLE
  5
45
330
17
100
AcDbEntity
  8
CUT
 62
1
100
AcDbCircle
 10
542.0
 20
70.0
 30
0.0
 40
5.0
  0
LWPOLYLINE
  5
46
330
17
100
AcDbEntity
  8
CUT
 62
1
100
AcDbPolyline
 90
69
 70
1
 10
636.0
 20
48.5
 10
636.0
 20
61.5
 10
642.5
 20
61.5
 10
642.5
 20
56.0
 10
649.5
 20
56.0
 10
649.5
 20
61.5
 10
681.0
 20
61.5
 10
681.0
 20
90.0
 10
770.4680374315354
 20
90.0
 10
772.2340187157678
 20
88.23401871576773
 10
773.1530351355993
 20
87.28885552364038
 10
774.0451817495089
 20
86.31828916374418
 10
774.9097566636156
 20
85.32308322647812
 10
775.7460796759974
 20
84.30402068736048
 10
776.5534928118377
 20
83.26190329102508
 10
777.3313608410853
 20
82.19755092045087
 10
778.0790717782196
 20
81.11180095192131
 10
778.7960373637293
 20
80.00550759622082
 10
779.4816935269232
 20
78.8795412265869
 10
780.1355008297114
 20
77.73478769394627
 10
780.7569448910069
 20
76.57214762997427
 10
781.3455367914137
 20
75.39253573852523
 10
781.900813457882
 20
74.19688007599183
 10
782.4223380280305
 20
72.98612132115922
 10
782.9097001938462
 20
71.76121203512872
 10
783.3625165244932
 20
70.52311591189286
 10
783.7804307679761
 20
69.2728070201519
 10
784.1631141314197
 20
68.01126903696792
 10
784.5102655397463
 20
66.73949447385966
 10
784.8216118725456
 20
65.45848389594678
 10
785.0969081789518
 20
64.16924513475803
 10
785.3359378703572
 20
62.872792495322614
 10
785.538512890813
 20
61.570145958168474
 10
785.7044738649824
 20
60.26233037685547
 10
785.833690223528
 20
58.95037467167464
 10
785.9260603058374
 20
57.635311020148016
 10
785.9815114400035
 20
56.31817404496584
 10
786.0
 20
55.0
 10
785.9815114400035
 20
53.68182595503415
 10
785.9260603058374
 20
52.36468897985199
 10
785.833690223528
 20
51.04962532832537
 10
785.7044738649824
 20
49.737669623144534
 10
785.538512890813
 20
48.42985404183153
 10
785.3359378703572
 20
47.12720750467739
 10
785.0969081789518
 20
45.83075486524197
 10
784.8216118725456
 20
44.54151610405323
 10
784.5102655397463
 20
43.26050552614034
 10
784.1631141314197
 20
41.98873096303208
 10
783.7804307679761
 20
40.72719297984811
 10
783.3625165244932
 20
39.476884088107155
 10
782.9097001938462
 20
38.23878796487129
 10
782.4223380280305
 20
37.01387867884078
 10
781.900813457882
 20
35.803119924008186
 10
781.3455367914137
 20
34.607464261474775
 10
780.756944891007
 20
33.42785237002575
 10
780.1355008297114
 20
32.26521230605373
 10
779.4816935269232
 20
31.120458773413112
 10
778.7960373637294
 20
29.994492403779187
 10
778.0790717782196
 20
28.888199048078707
 10
777.3313608410853
 20
27.80244907954913
 10
776.5534928118377
 20
26.738096708974922
 10
775.7460796759974
 20
25.695979312639526
 10
774.9097566636156
 20
24.676916773521892
 10
774.0451817495089
 20
23.681710836255817
 10
773.1530351355993
 20
22.71114447635962
 10
772.2340187157678
 20
21.765981284232268
 10
770.4680374315354
 20
20.0
 10
681.0
 20
20.0
 10
681.0
 20
48.5
  0
CIRCLE
  5
47
330
17
100
AcDbEntity
  8
CUT
 62
1
100
AcDbCircle
 10
731.0
 20
40.0
 30
0.0
 40
5.0
  0
CIRCLE
  5
48
330
17
100
AcDbEntity
  8
CUT
 62
1
100
AcDbCircle
 10
731.0
 20
70.0
 30
0.0
 40
5.0
  0
CIRCLE
  5
49
330
17
100
AcDbEntity
  8
CUT
 62
1
100
AcDbCircle
 10
696.0
 20
40.0
 30
0.0
 40
5.0
  0
CIRCLE
  5
4A
330
17
100
AcDbEntity
  8
CUT
 62
1
100
AcDbCircle
 10
696.0
 20
70.0
 30
0.0
 40
5.0
  0
LWPOLYLINE
  5
4B
330
17
100
AcDbEntity
  8
CUT
 62
1
100
AcDbPolyline
 90
69
 70
1
 10
790.0
 20
48.5
 10
790.0
 20
61.5
 10
796.5
 20
61.5
 10
796.5
 20
56.0
 10
803.5
 20
56.0
 10
803.5
 20
61.5
 10
835.0
 20
61.5
 10
835.0
 20
90.0
 10
924.4680374315354
 20
90.0
 10
926.2340187157678
 20
88.23401871576773
 10
927.1530351355993
 20
87.28885552364038
 10
928.0451817495089
 20
86.31828916374418
 10
928.9097566636156
 20
85.32308322647812
 10
929.7460796759974
 20
84.30402068736048
 10
930.5534928118377
 20
83.26190329102508
 10
931.3313608410853
 20
82.19755092045087
 10
932.0790717782196
 20
81.11180095192131
 10
932.7960373637293
 20
80.00550759622082
 10
933.4816935269232
 20
78.8795412265869
 10
934.1355008297114
 20
77.73478769394627
 10
934.7569448910069
 20
76.57214762997427
 10
935.3455367914137
 20
75.39253573852523
 10
935.900813457882
 20
74.19688007599183
 10
936.4223380280305
 20
72.98612132115922
 10
936.9097001938462
 20
71.76121203512872
 10
937.3625165244932
 20
70.52311591189286
 10
937.7804307679761
 20
69.2728070201519
 10
938.1631141314197
 20
68.01126903696792
 10
938.5102655397463
 20
66.73949447385966
 10
938.8216118725456
 20
65.45848389594678
 10
939.0969081789518
 20
64.16924513475803
 10
939.3359378703572
 20
62.872792495322614
 10
939.538512890813
 20
61.570145958168474
 10
939.7044738649824
 20
60.26233037685547
 10
939.833690223528
 20
58.95037467167464
 10
939.9260603058374
 20
57.635311020148016
 10
939.9815114400035
 20
56.31817404496584
 10
940.0
 20
55.0
 10
939.9815114400035
 20
53.68182595503415
 10
939.9260603058374
 20
52.36468897985199
 10
939.833690223528
 20
51.04962532832537
 10
939.7044738649824
 20
49.737669623144534
 10
939.538512890813
 20
48.42985404183153
 10
939.3359378703572
 20
47.12720750467739
 10
939.0969081789518
 20
45.83075486524197
 10
938.8216118725456
 20
44.54151610405323
 10
938.5102655397463
 20
43.26050552614034
 10
938.1631141314197
 20
41.98873096303208
 10
937.7804307679761
 20
40.72719297984811
 10
937.3625165244932
 20
39.476884088107155
 10
936.9097001938462
 20
38.23878796487129
 10
936.4223380280305
 20
37.01387867884078
 10
935.900813457882
 20
35.803119924008186
 10
935.3455367914137
 20
34.607464261474775
 10
934.756944891007
 20
33.42785237002575
 10
934.1355008297114
 20
32.26521230605373
 10
933.4816935269232
 20
31.120458773413112
 10
932.7960373637294
 20
29.994492403779187
 10
932.0790717782196
 20
28.888199048078707
 10
931.3313608410853
 20
27.80244907954913
 10
930.5534928118377
 20
26.738096708974922
 10
929.7460796759974
 20
25.695979312639526
 10
928.9097566636156
 20
24.676916773521892
 10
928.0451817495089
 20
23.681710836255817
 10
927.1530351355993
 20
22.71114447635962
 10
926.2340187157678
 20
21.765981284232268
 10
924.4680374315354
 20
20.0
 10
835.0
 20
20.0
 10
835.0
 20
48.5
  0
CIRCLE
  5
4C
330
17
100
AcDbEntity
  8
CUT
 62
1
100
AcDbCircle
 10
885.0
 20
40.0
 30
0.0
 40
5.0
  0
CIRCLE
  5
4D
330
17
100
AcDbEntity
  8
CUT
 62
1
100
AcDbCircle
 10
885.0
 20
70.0
 30
0.0
 40
5.0
  0
CIRCLE
  5
4E
330
17
100
AcDbEntity
  8
CUT
 62
1
100
AcDbCircle
 10
850.0
 20
40.0
 30
0.0
 40
5.0
  0
CIRCLE
  5
4F
330
17
100
AcDbEntity
  8
CUT
 62
1
100
AcDbCircle
 10
850.0
 20
70.0
 30
0.0
 40
5.0
  0
LWPOLYLINE
  5
50
330
17
100
AcDbEntity
  8
CUT
 62
1
100
AcDbPolyline
 90
69
 70
1
 10
944.0
 20
48.5
 10
944.0
 20
61.5
 10
950.5
 20
61.5
 10
950.5
 20
56.0
 10
957.5
 20
56.0
 10
957.5
 20
61.5
 10
989.0
 20
61.5
 10
989.0
 20
90.0
 10
1078.4680374315355
 20
90.0
 10
1080.2340187157677
 20
88.23401871576773
 10
1081.1530351355993
 20
87.28885552364038
 10
1082.0451817495089
 20
86.31828916374418
 10
1082.9097566636156
 20
85.32308322647812
 10
1083.7460796759974
 20
84.30402068736048
 10
1084.5534928118377
 20
83.26190329102508
 10
1085.3313608410851
 20
82.19755092045087
 10
1086.0790717782197
 20
81.11180095192131
 10
1086.7960373637293
 20
80.00550759622082
 10
1087.4816935269232
 20
78.8795412265869
 10
1088.1355008297114
 20
77.73478769394627
 10
1088.756944891007
 20
76.57214762997427
 10
1089.3455367914137
 20
75.39253573852523
 10
1089.900813457882
 20
74.19688007599183
 10
1090.4223380280305
 20
72.98612132115922
 10
1090.9097001938462
 20
71.76121203512872
 10
1091.3625165244932
 20
70.52311591189286
 10
1091.7804307679762
 20
69.2728070201519
 10
1092.1631141314197
 20
68.01126903696792
 10
1092.5102655397463
 20
66.73949447385966
 10
1092.8216118725456
 20
65.45848389594678
 10
1093.0969081789517
 20
64.16924513475803
 10
1093.3359378703572
 20
62.872792495322614
 10
1093.5385128908129
 20
61.570145958168474
 10
1093.7044738649824
 20
60.26233037685547
 10
1093.833690223528
 20
58.95037467167464
 10
1093.9260603058374
 20
57.635311020148016
 10
1093.9815114400035
 20
56.31817404496584
 10
1094.0
 20
55.0
 10
1093.9815114400035
 20
53.68182595503415
 10
1093.9260603058374
 20
52.36468897985199
 10
1093.833690223528
 20
51.04962532832537
 10
1093.7044738649824
 20
49.737669623144534
 10
1093.5385128908129
 20
48.42985404183153
 10
1093.3359378703572
 20
47.12720750467739
 10
1093.0969081789517
 20
45.83075486524197
 10
1092.8216118725456
 20
44.54151610405323
 10
1092.5102655397463
 20
43.26050552614034
 10
1092.1631141314197
 20
41.98873096303208
 10
1091.7804307679762
 20
40.72719297984811
 10
1091.3625165244932
 20
39.476884088107155
 10
1090.9097001938462
 20
38.23878796487129
 10
1090.4223380280305
 20
37.01387867884078
 10
1089.900813457882
 20
35.803119924008186
 10
1089.3455367914137
 20
34.607464261474775
 10
1088.756944891007
 20
33.42785237002575
 10
1088.1355008297114
 20
32.26521230605373
 10
1087.4816935269232
 20
31.120458773413112
 10
1086.7960373637293
 20
29.994492403779187
 10
1086.0790717782197
 20
28.888199048078707
 10
1085.3313608410851
 20
27.80244907954913
 10
1084.5534928118377
 20
26.738096708974922
 10
1083.7460796759974
 20
25.695979312639526
 10
1082.9097566636156
 20
24.676916773521892
 10
1082.0451817495089
 20
23.681710836255817
 10
1081.1530351355993
 20
22.71114447635962
 10
1080.2340187157677
 20
21.765981284232268
 10
1078.4680374315355
 20
20.0
 10
989.0
 20
20.0
 10
989.0
 20
48.5
  0
CIRCLE
  5
51
330
17
100
AcDbEntity
  8
CUT
 62
1
100
AcDbCircle
 10
1039.0
 20
40.0
 30
0.0
 40
5.0
  0
CIRCLE
  5
52
330
17
100
AcDbEntity
  8
CUT
 62
1
100
AcDbCircle
 10
1039.0
 20
70.0
 30
0.0
 40
5.0
  0
CIRCLE
  5
53
330
17
100
AcDbEntity
  8
CUT
 62
1
100
AcDbCircle
 10
1004.0
 20
40.0
 30
0.0
 40
5.0
  0
CIRCLE
  5
54
330
17
100
AcDbEntity
  8
CUT
 62
1
100
AcDbCircle
 10
1004.0
 20
70.0
 30
0.0
 40
5.0
  0
LWPOLYLINE
  5
55
330
17
100
AcDbEntity
  8
CUT
 62
1
100
AcDbPolyline
 90
69
 70
1
 10
1098.0
 20
48.5
 10
1098.0
 20
61.5
 10
1104.5
 20
61.5
 10
1104.5
 20
56.0
 10
1111.5
 20
56.0
 10
1111.5
 20
61.5
 10
1143.0
 20
61.5
 10
1143.0
 20
90.0
 10
1232.4680374315355
 20
90.0
 10
1234.2340187157677
 20
88.23401871576773
 10
1235.1530351355993
 20
87.28885552364038
 10
1236.0451817495089
 20
86.31828916374418
 10
1236.9097566636156
 20
85.32308322647812
 10
1237.7460796759974
 20
84.30402068736048
 10
1238.5534928118377
 20
83.26190329102508
 10
1239.3313608410851
 20
82.19755092045087
 10
1240.0790717782197
 20
81.11180095192131
 10
1240.7960373637293
 20
80.00550759622082
 10
1241.4816935269232
 20
78.8795412265869
 10
1242.1355008297114
 20
77.73478769394627
 10
1242.756944891007
 20
76.57214762997427
 10
1243.3455367914137
 20
75.39253573852523
 10
1243.900813457882
 20
74.19688007599183
 10
1244.4223380280305
 20
72.98612132115922
 10
1244.9097001938462
 20
71.76121203512872
 10
1245.3625165244932
 20
70.52311591189286
 10
1245.7804307679762
 20
69.2728070201519
 10
1246.1631141314197
 20
68.01126903696792
 10
1246.5102655397463
 20
66.73949447385966
 10
1246.8216118725456
 20
65.45848389594678
 10
1247.0969081789517
 20
64.16924513475803
 10
1247.3359378703572
 20
62.872792495322614
 10
1247.5385128908129
 20
61.570145958168474
 10
1247.7044738649824
 20
60.26233037685547
 10
1247.833690223528
 20
58.95037467167464
 10
1247.9260603058374
 20
57.635311020148016
 10
1247.9815114400035
 20
56.31817404496584
 10
1248.0
 20
55.0
 10
1247.9815114400035
 20
53.68182595503415
 10
1247.9260603058374
 20
52.36468897985199
 10
1247.833690223528
 20
51.04962532832537
 10
1247.7044738649824
 20
49.737669623144534
 10
1247.5385128908129
 20
48.42985404183153
 10
1247.3359378703572
 20
47.12720750467739
 10
1247.0969081789517
 20
45.83075486524197
 10
1246.8216118725456
 20
44.54151610405323
 10
1246.5102655397463
 20
43.26050552614034
 10
1246.1631141314197
 20
41.98873096303208
 10
1245.7804307679762
 20
40.72719297984811
 10
1245.3625165244932
 20
39.476884088107155
 10
1244.9097001938462
 20
38.23878796487129
 10
1244.4223380280305
 20
37.01387867884078
 10
1243.900813457882
 20
35.803119924008186
 10
1243.3455367914137
 20
34.607464261474775
 10
1242.756944891007
 20
33.42785237002575
 10
1242.1355008297114
 20
32.26521230605373
 10
1241.4816935269232
 20
31.120458773413112
 10
1240.7960373637293
 20
29.994492403779187
 10
1240.0790717782197
 20
28.888199048078707
 10
1239.3313608410851
 20
27.80244907954913
 10
1238.5534928118377
 20
26.738096708974922
 10
1237.7460796759974
 20
25.695979312639526
 10
1236.9097566636156
 20
24.676916773521892
 10
1236.0451817495089
 20
23.681710836255817
 10
1235.1530351355993
 20
22.71114447635962
 10
1234.2340187157677
 20
21.765981284232268
 10
1232.4680374315355
 20
20.0
 10
1143.0
 20
20.0
 10
1143.0
 20
48.5
  0
CIRCLE
  5
56
330
17
100
AcDbEntity
  8
CUT
 62
1
100
AcDbCircle
 10
1193.0
 20
40.0
 30
0.0
 40
5.0
  0
CIRCLE
  5
57
330
17
100
AcDbEntity
  8
CUT
 62
1
100
AcDbCircle
 10
1193.0
 20
70.0
 30
0.0
 40
5.0
  0
CIRCLE
  5
58
330
17
100
AcDbEntity
  8
CUT
 62
1
100
AcDbCircle
 10
1158.0
 20
40.0
 30
0.0
 40
5.0
  0
CIRCLE
  5
59
330
17
100
AcDbEntity
  8
CUT
 62
1
100
AcDbCircle
 10
1158.0
 20
70.0
 30
0.0
 40
5.0
  0
LWPOLYLINE
  5
5A
330
17
100
AcDbEntity
  8
CUT
 62
1
100
AcDbPolyline
 90
69
 70
1
 10
1252.0
 20
48.5
 10
1252.0
 20
61.5
 10
1258.5
 20
61.5
 10
1258.5
 20
56.0
 10
1265.5
 20
56.0
 10
1265.5
 20
61.5
 10
1297.0
 20
61.5
 10
1297.0
 20
90.0
 10
1386.4680374315355
 20
90.0
 10
1388.2340187157677
 20
88.23401871576773
 10
1389.1530351355993
 20
87.28885552364038
 10
1390.0451817495089
 20
86.31828916374418
 10
1390.9097566636156
 20
85.32308322647812
 10
1391.7460796759974
 20
84.30402068736048
 10
1392.5534928118377
 20
83.26190329102508
 10
1393.3313608410851
 20
82.19755092045087
 10
1394.0790717782197
 20
81.11180095192131
 10
1394.7960373637293
 20
80.00550759622082
 10
1395.4816935269232
 20
78.8795412265869
 10
1396.1355008297114
 20
77.73478769394627
 10
1396.756944891007
 20
76.57214762997427
 10
1397.3455367914137
 20
75.39253573852523
 10
1397.900813457882
 20
74.19688007599183
 10
1398.4223380280305
 20
72.98612132115922
 10
1398.9097001938462
 20
71.76121203512872
 10
1399.3625165244932
 20
70.52311591189286
 10
1399.7804307679762
 20
69.2728070201519
 10
1400.1631141314197
 20
68.01126903696792
 10
1400.5102655397463
 20
66.73949447385966
 10
1400.8216118725456
 20
65.45848389594678
 10
1401.0969081789517
 20
64.16924513475803
 10
1401.3359378703572
 20
62.872792495322614
 10
1401.5385128908129
 20
61.570145958168474
 10
1401.7044738649824
 20
60.26233037685547
 10
1401.833690223528
 20
58.95037467167464
 10
1401.9260603058374
 20
57.635311020148016
 10
1401.9815114400035
 20
56.31817404496584
 10
1402.0
 20
55.0
 10
1401.9815114400035
 20
53.68182595503415
 10
1401.9260603058374
 20
52.36468897985199
 10
1401.833690223528
 20
51.04962532832537
 10
1401.7044738649824
 20
49.737669623144534
 10
1401.5385128908129
 20
48.42985404183153
 10
1401.3359378703572
 20
47.12720750467739
 10
1401.0969081789517
 20
45.83075486524197
 10
1400.8216118725456
 20
44.54151610405323
 10
1400.5102655397463
 20
43.26050552614034
 10
1400.1631141314197
 20
41.98873096303208
 10
1399.7804307679762
 20
40.72719297984811
 10
1399.3625165244932
 20
39.476884088107155
 10
1398.9097001938462
 20
38.23878796487129
 10
1398.4223380280305
 20
37.01387867884078
 10
1397.900813457882
 20
35.803119924008186
 10
1397.3455367914137
 20
34.607464261474775
 10
1396.756944891007
 20
33.42785237002575
 10
1396.1355008297114
 20
32.26521230605373
 10
1395.4816935269232
 20
31.120458773413112
 10
1394.7960373637293
 20
29.994492403779187
 10
1394.0790717782197
 20
28.888199048078707
 10
1393.3313608410851
 20
27.80244907954913
 10
1392.5534928118377
 20
26.738096708974922
 10
1391.7460796759974
 20
25.695979312639526
 10
1390.9097566636156
 20
24.676916773521892
 10
1390.0451817495089
 20
23.681710836255817
 10
1389.1530351355993
 20
22.71114447635962
 10
1388.2340187157677
 20
21.765981284232268
 10
1386.4680374315355
 20
20.0
 10
1297.0
 20
20.0
 10
1297.0
 20
48.5
  0
CIRCLE
  5
5B
330
17
100
AcDbEntity
  8
CUT
 62
1
100
AcDbCircle
 10
1347.0
 20
40.0
 30
0.0
 40
5.0
  0
CIRCLE
  5
5C
330
17
100
AcDbEntity
  8
CUT
 62
1
100
AcDbCircle
 10
1347.0
 20
70.0
 30
0.0
 40
5.0
  0
CIRCLE
  5
5D
330
17
100
AcDbEntity
  8
CUT
 62
1
100
AcDbCircle
 10
1312.0
 20
40.0
 30
0.0
 40
5.0
  0
CIRCLE
  5
5E
330
17
100
AcDbEntity
  8
CUT
 62
1
100
AcDbCircle
 10
1312.0
 20
70.0
 30
0.0
 40
5.0
  0
LWPOLYLINE
  5
5F
330
17
100
AcDbEntity
  8
CUT
 62
1
100
AcDbPolyline
 90
69
 70
1
 10
1406.0
 20
48.5
 10
1406.0
 20
61.5
 10
1412.5
 20
61.5
 10
1412.5
 20
56.0
 10
1419.5
 20
56.0
 10
1419.5
 20
61.5
 10
1451.0
 20
61.5
 10
1451.0
 20
90.0
 10
1540.4680374315355
 20
90.0
 10
1542.2340187157677
 20
88.23401871576773
 10
1543.1530351355993
 20
87.28885552364038
 10
1544.0451817495089
 20
86.31828916374418
 10
1544.9097566636156
 20
85.32308322647812
 10
1545.7460796759974
 20
84.30402068736048
 10
1546.5534928118377
 20
83.26190329102508
 10
1547.3313608410851
 20
82.19755092045087
 10
1548.0790717782197
 20
81.11180095192131
 10
1548.7960373637293
 20
80.00550759622082
 10
1549.4816935269232
 20
78.8795412265869
 10
1550.1355008297114
 20
77.73478769394627
 10
1550.756944891007
 20
76.57214762997427
 10
1551.3455367914137
 20
75.39253573852523
 10
1551.900813457882
 20
74.19688007599183
 10
1552.4223380280305
 20
72.98612132115922
 10
1552.9097001938462
 20
71.76121203512872
 10
1553.3625165244932
 20
70.52311591189286
 10
1553.7804307679762
 20
69.2728070201519
 10
1554.1631141314197
 20
68.01126903696792
 10
1554.5102655397463
 20
66.73949447385966
 10
1554.8216118725456
 20
65.45848389594678
 10
1555.0969081789517
 20
64.16924513475803
 10
1555.3359378703572
 20
62.872792495322614
 10
1555.5385128908129
 20
61.570145958168474
 10
1555.7044738649824
 20
60.26233037685547
 10
1555.833690223528
 20
58.95037467167464
 10
1555.9260603058374
 20
57.635311020148016
 10
1555.9815114400035
 20
56.31817404496584
 10
1556.0
 20
55.0
 10
1555.9815114400035
 20
53.68182595503415
 10
1555.9260603058374
 20
52.36468897985199
 10
1555.833690223528
 20
51.04962532832537
 10
1555.7044738649824
 20
49.737669623144534
 10
1555.5385128908129
 20
48.42985404183153
 10
1555.3359378703572
 20
47.12720750467739
 10
1555.0969081789517
 20
45.83075486524197
 10
1554.8216118725456
 20
44.54151610405323
 10
1554.5102655397463
 20
43.26050552614034
 10
1554.1631141314197
 20
41.98873096303208
 10
1553.7804307679762
 20
40.72719297984811
 10
1553.3625165244932
 20
39.476884088107155
 10
1552.9097001938462
 20
38.23878796487129
 10
1552.4223380280305
 20
37.01387867884078
 10
1551.900813457882
 20
35.803119924008186
 10
1551.3455367914137
 20
34.607464261474775
 10
1550.756944891007
 20
33.42785237002575
 10
1550.1355008297114
 20
32.26521230605373
 10
1549.4816935269232
 20
31.120458773413112
 10
1548.7960373637293
 20
29.994492403779187
 10
1548.0790717782197
 20
28.888199048078707
 10
1547.3313608410851
 20
27.80244907954913
 10
1546.5534928118377
 20
26.738096708974922
 10
1545.7460796759974
 20
25.695979312639526
 10
1544.9097566636156
 20
24.676916773521892
 10
1544.0451817495089
 20
23.681710836255817
 10
1543.1530351355993
 20
22.71114447635962
 10
1542.2340187157677
 20
21.765981284232268
 10
1540.4680374315355
 20
20.0
 10
1451.0
 20
20.0
 10
1451.0
 20
48.5
  0
CIRCLE
  5
60
330
17
100
AcDbEntity
  8
CUT
 62
1
100
AcDbCircle
 10
1501.0
 20
40.0
 30
0.0
 40
5.0
  0
CIRCLE
  5
61
330
17
100
AcDbEntity
  8
CUT
 62
1
100
AcDbCircle
 10
1501.0
 20
70.0
 30
0.0
 40
5.0
  0
CIRCLE
  5
62
330
17
100
AcDbEntity
  8
CUT
 62
1
100
AcDbCircle
 10
1466.0
 20
40.0
 30
0.0
 40
5.0
  0
CIRCLE
  5
63
330
17
100
AcDbEntity
  8
CUT
 62
1
100
AcDbCircle
 10
1466.0
 20
70.0
 30
0.0
 40
5.0
  0
LWPOLYLINE
  5
64
330
17
100
AcDbEntity
  8
CUT
 62
1
100
AcDbPolyline
 90
69
 70
1
 10
1560.0
 20
48.5
 10
1560.0
 20
61.5
 10
1566.5
 20
61.5
 10
1566.5
 20
56.0
 10
1573.5
 20
56.0
 10
1573.5
 20
61.5
 10
1605.0
 20
61.5
 10
1605.0
 20
90.0
 10
1694.4680374315355
 20
90.0
 10
1696.2340187157677
 20
88.23401871576773
 10
1697.1530351355993
 20
87.28885552364038
 10
1698.0451817495089
 20
86.31828916374418
 10
1698.9097566636156
 20
85.32308322647812
 10
1699.7460796759974
 20
84.30402068736048
 10
1700.5534928118377
 20
83.26190329102508
 10
1701.3313608410851
 20
82.19755092045087
 10
1702.0790717782197
 20
81.11180095192131
 10
1702.7960373637293
 20
80.00550759622082
 10
1703.4816935269232
 20
78.8795412265869
 10
1704.1355008297114
 20
77.73478769394627
 10
1704.756944891007
 20
76.57214762997427
 10
1705.3455367914137
 20
75.39253573852523
 10
1705.900813457882
 20
74.19688007599183
 10
1706.4223380280305
 20
72.98612132115922
 10
1706.9097001938462
 20
71.76121203512872
 10
1707.3625165244932
 20
70.52311591189286
 10
1707.7804307679762
 20
69.2728070201519
 10
1708.1631141314197
 20
68.01126903696792
 10
1708.5102655397463
 20
66.73949447385966
 10
1708.8216118725456
 20
65.45848389594678
 10
1709.0969081789517
 20
64.16924513475803
 10
1709.3359378703572
 20
62.872792495322614
 10
1709.5385128908129
 20
61.570145958168474
 10
1709.7044738649824
 20
60.26233037685547
 10
1709.833690223528
 20
58.95037467167464
 10
1709.9260603058374
 20
57.635311020148016
 10
1709.9815114400035
 20
56.31817404496584
 10
1710.0
 20
55.0
 10
1709.9815114400035
 20
53.68182595503415
 10
1709.9260603058374
 20
52.36468897985199
 10
1709.833690223528
 20
51.04962532832537
 10
1709.7044738649824
 20
49.737669623144534
 10
1709.5385128908129
 20
48.42985404183153
 10
1709.3359378703572
 20
47.12720750467739
 10
1709.0969081789517
 20
45.83075486524197
 10
1708.8216118725456
 20
44.54151610405323
 10
1708.5102655397463
 20
43.26050552614034
 10
1708.1631141314197
 20
41.98873096303208
 10
1707.7804307679762
 20
40.72719297984811
 10
1707.3625165244932
 20
39.476884088107155
 10
1706.9097001938462
 20
38.23878796487129
 10
1706.4223380280305
 20
37.01387867884078
 10
1705.900813457882
 20
35.803119924008186
 10
1705.3455367914137
 20
34.607464261474775
 10
1704.756944891007
 20
33.42785237002575
 10
1704.1355008297114
 20
32.26521230605373
 10
1703.4816935269232
 20
31.120458773413112
 10
1702.7960373637293
 20
29.994492403779187
 10
1702.0790717782197
 20
28.888199048078707
 10
1701.3313608410851
 20
27.80244907954913
 10
1700.5534928118377
 20
26.738096708974922
 10
1699.7460796759974
 20
25.695979312639526
 10
1698.9097566636156
 20
24.676916773521892
 10
1698.0451817495089
 20
23.681710836255817
 10
1697.1530351355993
 20
22.71114447635962
 10
1696.2340187157677
 20
21.765981284232268
 10
1694.4680374315355
 20
20.0
 10
1605.0
 20
20.0
 10
1605.0
 20
48.5
  0
CIRCLE
  5
65
330
17
100
AcDbEntity
  8
CUT
 62
1
100
AcDbCircle
 10
1655.0
 20
40.0
 30
0.0
 40
5.0
  0
CIRCLE
  5
66
330
17
100
AcDbEntity
  8
CUT
 62
1
100
AcDbCircle
 10
1655.0
 20
70.0
 30
0.0
 40
5.0
  0
CIRCLE
  5
67
330
17
100
AcDbEntity
  8
CUT
 62
1
100
AcDbCircle
 10
1620.0
 20
40.0
 30
0.0
 40
5.0
  0
CIRCLE
  5
68
330
17
100
AcDbEntity
  8
CUT
 62
1
100
AcDbCircle
 10
1620.0
 20
70.0
 30
0.0
 40
5.0
  0
LWPOLYLINE
  5
69
330
17
100
AcDbEntity
  8
CUT
 62
1
100
AcDbPolyline
 90
69
 70
1
 10
1714.0
 20
48.5
 10
1714.0
 20
61.5
 10
1720.5
 20
61.5
 10
1720.5
 20
56.0
 10
1727.5
 20
56.0
 10
1727.5
 20
61.5
 10
1759.0
 20
61.5
 10
1759.0
 20
90.0
 10
1848.4680374315355
 20
90.0
 10
1850.2340187157677
 20
88.23401871576773
 10
1851.1530351355993
 20
87.28885552364038
 10
1852.0451817495089
 20
86.31828916374418
 10
1852.9097566636156
 20
85.32308322647812
 10
1853.7460796759974
 20
84.30402068736048
 10
1854.5534928118377
 20
83.26190329102508
 10
1855.3313608410851
 20
82.19755092045087
 10
1856.0790717782197
 20
81.11180095192131
 10
1856.7960373637293
 20
80.00550759622082
 10
1857.4816935269232
 20
78.8795412265869
 10
1858.1355008297114
 20
77.73478769394627
 10
1858.756944891007
 20
76.57214762997427
 10
1859.3455367914137
 20
75.39253573852523
 10
1859.900813457882
 20
74.19688007599183
 10
1860.4223380280305
 20
72.98612132115922
 10
1860.9097001938462
 20
71.76121203512872
 10
1861.3625165244932
 20
70.52311591189286
 10
1861.7804307679762
 20
69.2728070201519
 10
1862.1631141314197
 20
68.01126903696792
 10
1862.5102655397463
 20
66.73949447385966
 10
1862.8216118725456
 20
65.45848389594678
 10
1863.0969081789517
 20
64.16924513475803
 10
1863.3359378703572
 20
62.872792495322614
 10
1863.5385128908129
 20
61.570145958168474
 10
1863.7044738649824
 20
60.26233037685547
 10
1863.833690223528
 20
58.95037467167464
 10
1863.9260603058374
 20
57.635311020148016
 10
1863.9815114400035
 20
56.31817404496584
 10
1864.0
 20
55.0
 10
1863.9815114400035
 20
53.68182595503415
 10
1863.9260603058374
 20
52.36468897985199
 10
1863.833690223528
 20
51.04962532832537
 10
1863.7044738649824
 20
49.737669623144534
 10
1863.5385128908129
 20
48.42985404183153
 10
1863.3359378703572
 20
47.12720750467739
 10
1863.0969081789517
 20
45.83075486524197
 10
1862.8216118725456
 20
44.54151610405323
 10
1862.5102655397463
 20
43.26050552614034
 10
1862.1631141314197
 20
41.98873096303208
 10
1861.7804307679762
 20
40.72719297984811
 10
1861.3625165244932
 20
39.476884088107155
 10
1860.9097001938462
 20
38.23878796487129
 10
1860.4223380280305
 20
37.01387867884078
 10
1859.900813457882
 20
35.803119924008186
 10
1859.3455367914137
 20
34.607464261474775
 10
1858.756944891007
 20
33.42785237002575
 10
1858.1355008297114
 20
32.26521230605373
 10
1857.4816935269232
 20
31.120458773413112
 10
1856.7960373637293
 20
29.994492403779187
 10
1856.0790717782197
 20
28.888199048078707
 10
1855.3313608410851
 20
27.80244907954913
 10
1854.5534928118377
 20
26.738096708974922
 10
1853.7460796759974
 20
25.695979312639526
 10
1852.9097566636156
 20
24.676916773521892
 10
1852.0451817495089
 20
23.681710836255817
 10
1851.1530351355993
 20
22.71114447635962
 10
1850.2340187157677
 20
21.765981284232268
 10
1848.4680374315355
 20
20.0
 10
1759.0
 20
20.0
 10
1759.0
 20
48.5
  0
CIRCLE
  5
6A
330
17
100
AcDbEntity
  8
CUT
 62
1
100
AcDbCircle
 10
1809.0
 20
40.0
 30
0.0
 40
5.0
  0
CIRCLE
  5
6B
330
17
100
AcDbEntity
  8
CUT
 62
1
100
AcDbCircle
 10
1809.0
 20
70.0
 30
0.0
 40
5.0
  0
CIRCLE
  5
6C
330
17
100
AcDbEntity
  8
CUT
 62
1
100
AcDbCircle
 10
1774.0
 20
40.0
 30
0.0
 40
5.0
  0
CIRCLE
  5
6D
330
17
100
AcDbEntity
  8
CUT
 62
1
100
AcDbCircle
 10
1774.0
 20
70.0
 30
0.0
 40
5.0
  0
LWPOLYLINE
  5
6E
330
17
100
AcDbEntity
  8
CUT
 62
1
100
AcDbPolyline
 90
69
 70
1
 10
1868.0
 20
48.5
 10
1868.0
 20
61.5
 10
1874.5
 20
61.5
 10
1874.5
 20
56.0
 10
1881.5
 20
56.0
 10
1881.5
 20
61.5
 10
1913.0
 20
61.5
 10
1913.0
 20
90.0
 10
2002.4680374315355
 20
90.0
 10
2004.2340187157677
 20
88.23401871576773
 10
2005.1530351355993
 20
87.28885552364038
 10
2006.0451817495089
 20
86.31828916374418
 10
2006.9097566636156
 20
85.32308322647812
 10
2007.7460796759974
 20
84.30402068736048
 10
2008.5534928118377
 20
83.26190329102508
 10
2009.3313608410851
 20
82.19755092045087
 10
2010.0790717782197
 20
81.11180095192131
 10
2010.7960373637293
 20
80.00550759622082
 10
2011.4816935269232
 20
78.8795412265869
 10
2012.1355008297114
 20
77.73478769394627
 10
2012.756944891007
 20
76.57214762997427
 10
2013.3455367914137
 20
75.39253573852523
 10
2013.900813457882
 20
74.19688007599183
 10
2014.4223380280305
 20
72.98612132115922
 10
2014.9097001938462
 20
71.76121203512872
 10
2015.3625165244932
 20
70.52311591189286
 10
2015.7804307679762
 20
69.2728070201519
 10
2016.1631141314197
 20
68.01126903696792
 10
2016.5102655397463
 20
66.73949447385966
 10
2016.8216118725456
 20
65.45848389594678
 10
2017.0969081789517
 20
64.16924513475803
 10
2017.3359378703572
 20
62.872792495322614
 10
2017.5385128908129
 20
61.570145958168474
 10
2017.7044738649824
 20
60.26233037685547
 10
2017.833690223528
 20
58.95037467167464
 10
2017.9260603058374
 20
57.635311020148016
 10
2017.9815114400035
 20
56.31817404496584
 10
2018.0
 20
55.0
 10
2017.9815114400035
 20
53.68182595503415
 10
2017.9260603058374
 20
52.36468897985199
 10
2017.833690223528
 20
51.04962532832537
 10
2017.7044738649824
 20
49.737669623144534
 10
2017.5385128908129
 20
48.42985404183153
 10
2017.3359378703572
 20
47.12720750467739
 10
2017.0969081789517
 20
45.83075486524197
 10
2016.8216118725456
 20
44.54151610405323
 10
2016.5102655397463
 20
43.26050552614034
 10
2016.1631141314197
 20
41.98873096303208
 10
2015.7804307679762
 20
40.72719297984811
 10
2015.3625165244932
 20
39.476884088107155
 10
2014.9097001938462
 20
38.23878796487129
 10
2014.4223380280305
 20
37.01387867884078
 10
2013.900813457882
 20
35.803119924008186
 10
2013.3455367914137
 20
34.607464261474775
 10
2012.756944891007
 20
33.42785237002575
 10
2012.1355008297114
 20
32.26521230605373
 10
2011.4816935269232
 20
31.120458773413112
 10
2010.7960373637293
 20
29.994492403779187
 10
2010.0790717782197
 20
28.888199048078707
 10
2009.3313608410851
 20
27.80244907954913
 10
2008.5534928118377
 20
26.738096708974922
 10
2007.7460796759974
 20
25.695979312639526
 10
2006.9097566636156
 20
24.676916773521892
 10
2006.0451817495089
 20
23.681710836255817
 10
2005.1530351355993
 20
22.71114447635962
 10
2004.2340187157677
 20
21.765981284232268
 10
2002.4680374315355
 20
20.0
 10
1913.0
 20
20.0
 10
1913.0
 20
48.5
  0
CIRCLE
  5
6F
330
17
100
AcDbEntity
  8
CUT
 62
1
100
AcDbCircle
 10
1963.0
 20
40.0
 30
0.0
 40
5.0
  0
CIRCLE
  5
70
330
17
100
AcDbEntity
  8
CUT
 62
1
100
AcDbCircle
 10
1963.0
 20
70.0
 30
0.0
 40
5.0
  0
CIRCLE
  5
71
330
17
100
AcDbEntity
  8
CUT
 62
1
100
AcDbCircle
 10
1928.0
 20
40.0
 30
0.0
 40
5.0
  0
CIRCLE
  5
72
330
17
100
AcDbEntity
  8
CUT
 62
1
100
AcDbCircle
 10
1928.0
 20
70.0
 30
0.0
 40
5.0
  0
LWPOLYLINE
  5
73
330
17
100
AcDbEntity
  8
CUT
 62
1
100
AcDbPolyline
 90
69
 70
1
 10
2022.0
 20
48.5
 10
2022.0
 20
61.5
 10
2028.5
 20
61.5
 10
2028.5
 20
56.0
 10
2035.5
 20
56.0
 10
2035.5
 20
61.5
 10
2067.0
 20
61.5
 10
2067.0
 20
90.0
 10
2156.4680374315353
 20
90.0
 10
2158.234018715768
 20
88.23401871576773
 10
2159.153035135599
 20
87.28885552364038
 10
2160.0451817495086
 20
86.31828916374418
 10
2160.9097566636156
 20
85.32308322647812
 10
2161.7460796759974
 20
84.30402068736048
 10
2162.5534928118377
 20
83.26190329102508
 10
2163.3313608410854
 20
82.19755092045087
 10
2164.0790717782197
 20
81.11180095192131
 10
2164.7960373637293
 20
80.00550759622082
 10
2165.481693526923
 20
78.8795412265869
 10
2166.1355008297114
 20
77.73478769394627
 10
2166.756944891007
 20
76.57214762997427
 10
2167.345536791414
 20
75.39253573852523
 10
2167.900813457882
 20
74.19688007599183
 10
2168.4223380280305
 20
72.98612132115922
 10
2168.909700193846
 20
71.76121203512872
 10
2169.3625165244935
 20
70.52311591189286
 10
2169.780430767976
 20
69.2728070201519
 10
2170.1631141314197
 20
68.01126903696792
 10
2170.5102655397463
 20
66.73949447385966
 10
2170.821611872546
 20
65.45848389594678
 10
2171.0969081789517
 20
64.16924513475803
 10
2171.335937870357
 20
62.872792495322614
 10
2171.538512890813
 20
61.570145958168474
 10
2171.7044738649824
 20
60.26233037685547
 10
2171.8336902235283
 20
58.95037467167464
 10
2171.9260603058374
 20
57.635311020148016
 10
2171.9815114400035
 20
56.31817404496584
 10
2172.0
 20
55.0
 10
2171.9815114400035
 20
53.68182595503415
 10
2171.9260603058374
 20
52.36468897985199
 10
2171.8336902235283
 20
51.04962532832537
 10
2171.7044738649824
 20
49.737669623144534
 10
2171.538512890813
 20
48.42985404183153
 10
2171.335937870357
 20
47.12720750467739
 10
2171.0969081789517
 20
45.83075486524197
 10
2170.821611872546
 20
44.54151610405323
 10
2170.5102655397463
 20
43.26050552614034
 10
2170.1631141314197
 20
41.98873096303208
 10
2169.780430767976
 20
40.72719297984811
 10
2169.3625165244935
 20
39.476884088107155
 10
2168.909700193846
 20
38.23878796487129
 10
2168.4223380280305
 20
37.01387867884078
 10
2167.900813457882
 20
35.803119924008186
 10
2167.345536791414
 20
34.607464261474775
 10
2166.756944891007
 20
33.42785237002575
 10
2166.1355008297114
 20
32.26521230605373
 10
2165.481693526923
 20
31.120458773413112
 10
2164.7960373637293
 20
29.994492403779187
 10
2164.0790717782197
 20
28.888199048078707
 10
2163.3313608410854
 20
27.80244907954913
 10
2162.5534928118377
 20
26.738096708974922
 10
2161.7460796759974
 20
25.695979312639526
 10
2160.9097566636156
 20
24.676916773521892
 10
2160.0451817495086
 20
23.681710836255817
 10
2159.153035135599
 20
22.71114447635962
 10
2158.234018715768
 20
21.765981284232268
 10
2156.4680374315353
 20
20.0
 10
2067.0
 20
20.0
 10
2067.0
 20
48.5
  0
CIRCLE
  5
74
330
17
100
AcDbEntity
  8
CUT
 62
1
100
AcDbCircle
 10
2117.0
 20
40.0
 30
0.0
 40
5.0
  0
CIRCLE
  5
75
330
17
100
AcDbEntity
  8
CUT
 62
1
100
AcDbCircle
 10
2117.0
 20
70.0
 30
0.0
 40
5.0
  0
CIRCLE
  5
76
330
17
100
AcDbEntity
  8
CUT
 62
1
100
AcDbCircle
 10
2082.0
 20
40.0
 30
0.0
 40
5.0
  0
CIRCLE
  5
77
330
17
100
AcDbEntity
  8
CUT
 62
1
100
AcDbCircle
 10
2082.0
 20
70.0
 30
0.0
 40
5.0
  0
LWPOLYLINE
  5
78
330
17
100
AcDbEntity
  8
CUT
 62
1
100
AcDbPolyline
 90
69
 70
1
 10
2176.0
 20
48.5
 10
2176.0
 20
61.5
 10
2182.5
 20
61.5
 10
2182.5
 20
56.0
 10
2189.5
 20
56.0
 10
2189.5
 20
61.5
 10
2221.0
 20
61.5
 10
2221.0
 20
90.0
 10
2310.4680374315353
 20
90.0
 10
2312.234018715768
 20
88.23401871576773
 10
2313.153035135599
 20
87.28885552364038
 10
2314.0451817495086
 20
86.31828916374418
 10
2314.9097566636156
 20
85.32308322647812
 10
2315.7460796759974
 20
84.30402068736048
 10
2316.5534928118377
 20
83.26190329102508
 10
2317.3313608410854
 20
82.19755092045087
 10
2318.0790717782197
 20
81.11180095192131
 10
2318.7960373637293
 20
80.00550759622082
 10
2319.481693526923
 20
78.8795412265869
 10
2320.1355008297114
 20
77.73478769394627
 10
2320.756944891007
 20
76.57214762997427
 10
2321.345536791414
 20
75.39253573852523
 10
2321.900813457882
 20
74.19688007599183
 10
2322.4223380280305
 20
72.98612132115922
 10
2322.909700193846
 20
71.76121203512872
 10
2323.3625165244935
 20
70.52311591189286
 10
2323.780430767976
 20
69.2728070201519
 10
2324.1631141314197
 20
68.01126903696792
 10
2324.5102655397463
 20
66.73949447385966
 10
2324.821611872546
 20
65.45848389594678
 10
2325.0969081789517
 20
64.16924513475803
 10
2325.335937870357
 20
62.872792495322614
 10
2325.538512890813
 20
61.570145958168474
 10
2325.7044738649824
 20
60.26233037685547
 10
2325.8336902235283
 20
58.95037467167464
 10
2325.9260603058374
 20
57.635311020148016
 10
2325.9815114400035
 20
56.31817404496584
 10
2326.0
 20
55.0
 10
2325.9815114400035
 20
53.68182595503415
 10
2325.9260603058374
 20
52.36468897985199
 10
2325.8336902235283
 20
51.04962532832537
 10
2325.7044738649824
 20
49.737669623144534
 10
2325.538512890813
 20
48.42985404183153
 10
2325.335937870357
 20
47.12720750467739
 10
2325.0969081789517
 20
45.83075486524197
 10
2324.821611872546
 20
44.54151610405323
 10
2324.5102655397463
 20
43.26050552614034
 10
2324.1631141314197
 20
41.98873096303208
 10
2323.780430767976
 20
40.72719297984811
 10
2323.3625165244935
 20
39.476884088107155
 10
2322.909700193846
 20
38.23878796487129
 10
2322.4223380280305
 20
37.01387867884078
 10
2321.900813457882
 20
35.803119924008186
 10
2321.345536791414
 20
34.607464261474775
 10
2320.756944891007
 20
33.42785237002575
 10
2320.1355008297114
 20
32.26521230605373
 10
2319.481693526923
 20
31.120458773413112
 10
2318.7960373637293
 20
29.994492403779187
 10
2318.0790717782197
 20
28.888199048078707
 10
2317.3313608410854
 20
27.80244907954913
 10
2316.5534928118377
 20
26.738096708974922
 10
2315.7460796759974
 20
25.695979312639526
 10
2314.9097566636156
 20
24.676916773521892
 10
2314.0451817495086
 20
23.681710836255817
 10
2313.153035135599
 20
22.71114447635962
 10
2312.234018715768
 20
21.765981284232268
 10
2310.4680374315353
 20
20.0
 10
2221.0
 20
20.0
 10
2221.0
 20
48.5
  0
CIRCLE
  5
79
330
17
100
AcDbEntity
  8
CUT
 62
1
100
AcDbCircle
 10
2271.0
 20
40.0
 30
0.0
 40
5.0
  0
CIRCLE
  5
7A
330
17
100
AcDbEntity
  8
CUT
 62
1
100
AcDbCircle
 10
2271.0
 20
70.0
 30
0.0
 40
5.0
  0
CIRCLE
  5
7B
330
17
100
AcDbEntity
  8
CUT
 62
1
100
AcDbCircle
 10
2236.0
 20
40.0
 30
0.0
 40
5.0
  0
CIRCLE
  5
7C
330
17
100
AcDbEntity
  8
CUT
 62
1
100
AcDbCircle
 10
2236.0
 20
70.0
 30
0.0
 40
5.0
  0
LWPOLYLINE
  5
7D
330
17
100
AcDbEntity
  8
CUT
 62
1
100
AcDbPolyline
 90
69
 70
1
 10
2330.0
 20
48.5
 10
2330.0
 20
61.5
 10
2336.5
 20
61.5
 10
2336.5
 20
56.0
 10
2343.5
 20
56.0
 10
2343.5
 20
61.5
 10
2375.0
 20
61.5
 10
2375.0
 20
90.0
 10
2464.4680374315353
 20
90.0
 10
2466.234018715768
 20
88.23401871576773
 10
2467.153035135599
 20
87.28885552364038
 10
2468.0451817495086
 20
86.31828916374418
 10
2468.9097566636156
 20
85.32308322647812
 10
2469.7460796759974
 20
84.30402068736048
 10
2470.5534928118377
 20
83.26190329102508
 10
2471.3313608410854
 20
82.19755092045087
 10
2472.0790717782197
 20
81.11180095192131
 10
2472.7960373637293
 20
80.00550759622082
 10
2473.481693526923
 20
78.8795412265869
 10
2474.1355008297114
 20
77.73478769394627
 10
2474.756944891007
 20
76.57214762997427
 10
2475.345536791414
 20
75.39253573852523
 10
2475.900813457882
 20
74.19688007599183
 10
2476.4223380280305
 20
72.98612132115922
 10
2476.909700193846
 20
71.76121203512872
 10
2477.3625165244935
 20
70.52311591189286
 10
2477.780430767976
 20
69.2728070201519
 10
2478.1631141314197
 20
68.01126903696792
 10
2478.5102655397463
 20
66.73949447385966
 10
2478.821611872546
 20
65.45848389594678
 10
2479.0969081789517
 20
64.16924513475803
 10
2479.335937870357
 20
62.872792495322614
 10
2479.538512890813
 20
61.570145958168474
 10
2479.7044738649824
 20
60.26233037685547
 10
2479.8336902235283
 20
58.95037467167464
 10
2479.9260603058374
 20
57.635311020148016
 10
2479.9815114400035
 20
56.31817404496584
 10
2480.0
 20
55.0
 10
2479.9815114400035
 20
53.68182595503415
 10
2479.9260603058374
 20
52.36468897985199
 10
2479.8336902235283
 20
51.04962532832537
 10
2479.7044738649824
 20
49.737669623144534
 10
2479.538512890813
 20
48.42985404183153
 10
2479.335937870357
 20
47.12720750467739
 10
2479.0969081789517
 20
45.83075486524197
 10
2478.821611872546
 20
44.54151610405323
 10
2478.5102655397463
 20
43.26050552614034
 10
2478.1631141314197
 20
41.98873096303208
 10
2477.780430767976
 20
40.72719297984811
 10
2477.3625165244935
 20
39.476884088107155
 10
2476.909700193846
 20
38.23878796487129
 10
2476.4223380280305
 20
37.01387867884078
 10
2475.900813457882
 20
35.803119924008186
 10
2475.345536791414
 20
34.607464261474775
 10
2474.756944891007
 20
33.42785237002575
 10
2474.1355008297114
 20
32.26521230605373
 10
2473.481693526923
 20
31.120458773413112
 10
2472.7960373637293
 20
29.994492403779187
 10
2472.0790717782197
 20
28.888199048078707
 10
2471.3313608410854
 20
27.80244907954913
 10
2470.5534928118377
 20
26.738096708974922
 10
2469.7460796759974
 20
25.695979312639526
 10
2468.9097566636156
 20
24.676916773521892
 10
2468.0451817495086
 20
23.681710836255817
 10
2467.153035135599
 20
22.71114447635962
 10
2466.234018715768
 20
21.765981284232268
 10
2464.4680374315353
 20
20.0
 10
2375.0
 20
20.0
 10
2375.0
 20
48.5
  0
CIRCLE
  5
7E
330
17
100
AcDbEntity
  8
CUT
 62
1
100
AcDbCircle
 10
2425.0
 20
40.0
 30
0.0
 40
5.0
  0
CIRCLE
  5
7F
330
17
100
AcDbEntity
  8
CUT
 62
1
100
AcDbCircle
 10
2425.0
 20
70.0
 30
0.0
 40
5.0
  0
CIRCLE
  5
80
330
17
100
AcDbEntity
  8
CUT
 62
1
100
AcDbCircle
 10
2390.0
 20
40.0
 30
0.0
 40
5.0
  0
CIRCLE
  5
81
330
17
100
AcDbEntity
  8
CUT
 62
1
100
AcDbCircle
 10
2390.0
 20
70.0
 30
0.0
 40
5.0
  0
LWPOLYLINE
  5
82
330
17
100
AcDbEntity
  8
CUT
 62
1
100
AcDbPolyline
 90
69
 70
1
 10
2484.0
 20
48.5
 10
2484.0
 20
61.5
 10
2490.5
 20
61.5
 10
2490.5
 20
56.0
 10
2497.5
 20
56.0
 10
2497.5
 20
61.5
 10
2529.0
 20
61.5
 10
2529.0
 20
90.0
 10
2618.4680374315353
 20
90.0
 10
2620.234018715768
 20
88.23401871576773
 10
2621.153035135599
 20
87.28885552364038
 10
2622.0451817495086
 20
86.31828916374418
 10
2622.9097566636156
 20
85.32308322647812
 10
2623.7460796759974
 20
84.30402068736048
 10
2624.5534928118377
 20
83.26190329102508
 10
2625.3313608410854
 20
82.19755092045087
 10
2626.0790717782197
 20
81.11180095192131
 10
2626.7960373637293
 20
80.00550759622082
 10
2627.481693526923
 20
78.8795412265869
 10
2628.1355008297114
 20
77.73478769394627
 10
2628.756944891007
 20
76.57214762997427
 10
2629.345536791414
 20
75.39253573852523
 10
2629.900813457882
 20
74.19688007599183
 10
2630.4223380280305
 20
72.98612132115922
 10
2630.909700193846
 20
71.76121203512872
 10
2631.3625165244935
 20
70.52311591189286
 10
2631.780430767976
 20
69.2728070201519
 10
2632.1631141314197
 20
68.01126903696792
 10
2632.5102655397463
 20
66.73949447385966
 10
2632.821611872546
 20
65.45848389594678
 10
2633.0969081789517
 20
64.16924513475803
 10
2633.335937870357
 20
62.872792495322614
 10
2633.538512890813
 20
61.570145958168474
 10
2633.7044738649824
 20
60.26233037685547
 10
2633.8336902235283
 20
58.95037467167464
 10
2633.9260603058374
 20
57.635311020148016
 10
2633.9815114400035
 20
56.31817404496584
 10
2634.0
 20
55.0
 10
2633.9815114400035
 20
53.68182595503415
 10
2633.9260603058374
 20
52.36468897985199
 10
2633.8336902235283
 20
51.04962532832537
 10
2633.7044738649824
 20
49.737669623144534
 10
2633.538512890813
 20
48.42985404183153
 10
2633.335937870357
 20
47.12720750467739
 10
2633.0969081789517
 20
45.83075486524197
 10
2632.821611872546
 20
44.54151610405323
 10
2632.5102655397463
 20
43.26050552614034
 10
2632.1631141314197
 20
41.98873096303208
 10
2631.780430767976
 20
40.72719297984811
 10
2631.3625165244935
 20
39.476884088107155
 10
2630.909700193846
 20
38.23878796487129
 10
2630.4223380280305
 20
37.01387867884078
 10
2629.900813457882
 20
35.803119924008186
 10
2629.345536791414
 20
34.607464261474775
 10
2628.756944891007
 20
33.42785237002575
 10
2628.1355008297114
 20
32.26521230605373
 10
2627.481693526923
 20
31.120458773413112
 10
2626.7960373637293
 20
29.994492403779187
 10
2626.0790717782197
 20
28.888199048078707
 10
2625.3313608410854
 20
27.80244907954913
 10
2624.5534928118377
 20
26.738096708974922
 10
2623.7460796759974
 20
25.695979312639526
 10
2622.9097566636156
 20
24.676916773521892
 10
2622.0451817495086
 20
23.681710836255817
 10
2621.153035135599
 20
22.71114447635962
 10
2620.234018715768
 20
21.765981284232268
 10
2618.4680374315353
 20
20.0
 10
2529.0
 20
20.0
 10
2529.0
 20
48.5
  0
CIRCLE
  5
83
330
17
100
AcDbEntity
  8
CUT
 62
1
100
AcDbCircle
 10
2579.0
 20
40.0
 30
0.0
 40
5.0
  0
CIRCLE
  5
84
330
17
100
AcDbEntity
  8
CUT
 62
1
100
AcDbCircle
 10
2579.0
 20
70.0
 30
0.0
 40
5.0
  0
CIRCLE
  5
85
330
17
100
AcDbEntity
  8
CUT
 62
1
100
AcDbCircle
 10
2544.0
 20
40.0
 30
0.0
 40
5.0
  0
CIRCLE
  5
86
330
17
100
AcDbEntity
  8
CUT
 62
1
100
AcDbCircle
 10
2544.0
 20
70.0
 30
0.0
 40
5.0
  0
LWPOLYLINE
  5
87
330
17
100
AcDbEntity
  8
CUT
 62
1
100
AcDbPolyline
 90
69
 70
1
 10
2638.0
 20
48.5
 10
2638.0
 20
61.5
 10
2644.5
 20
61.5
 10
2644.5
 20
56.0
 10
2651.5
 20
56.0
 10
2651.5
 20
61.5
 10
2683.0
 20
61.5
 10
2683.0
 20
90.0
 10
2772.4680374315353
 20
90.0
 10
2774.234018715768
 20
88.23401871576773
 10
2775.153035135599
 20
87.28885552364038
 10
2776.0451817495086
 20
86.31828916374418
 10
2776.9097566636156
 20
85.32308322647812
 10
2777.7460796759974
 20
84.30402068736048
 10
2778.5534928118377
 20
83.26190329102508
 10
2779.3313608410854
 20
82.19755092045087
 10
2780.0790717782197
 20
81.11180095192131
 10
2780.7960373637293
 20
80.00550759622082
 10
2781.481693526923
 20
78.8795412265869
 10
2782.1355008297114
 20
77.73478769394627
 10
2782.756944891007
 20
76.57214762997427
 10
2783.345536791414
 20
75.39253573852523
 10
2783.900813457882
 20
74.19688007599183
 10
2784.4223380280305
 20
72.98612132115922
 10
2784.909700193846
 20
71.76121203512872
 10
2785.3625165244935
 20
70.52311591189286
 10
2785.780430767976
 20
69.2728070201519
 10
2786.1631141314197
 20
68.01126903696792
 10
2786.5102655397463
 20
66.73949447385966
 10
2786.821611872546
 20
65.45848389594678
 10
2787.0969081789517
 20
64.16924513475803
 10
2787.335937870357
 20
62.872792495322614
 10
2787.538512890813
 20
61.570145958168474
 10
2787.7044738649824
 20
60.26233037685547
 10
2787.8336902235283
 20
58.95037467167464
 10
2787.9260603058374
 20
57.635311020148016
 10
2787.9815114400035
 20
56.31817404496584
 10
2788.0
 20
55.0
 10
2787.9815114400035
 20
53.68182595503415
 10
2787.9260603058374
 20
52.36468897985199
 10
2787.8336902235283
 20
51.04962532832537
 10
2787.7044738649824
 20
49.737669623144534
 10
2787.538512890813
 20
48.42985404183153
 10
2787.335937870357
 20
47.12720750467739
 10
2787.0969081789517
 20
45.83075486524197
 10
2786.821611872546
 20
44.54151610405323
 10
2786.5102655397463
 20
43.26050552614034
 10
2786.1631141314197
 20
41.98873096303208
 10
2785.780430767976
 20
40.72719297984811
 10
2785.3625165244935
 20
39.476884088107155
 10
2784.909700193846
 20
38.23878796487129
 10
2784.4223380280305
 20
37.01387867884078
 10
2783.900813457882
 20
35.803119924008186
 10
2783.345536791414
 20
34.607464261474775
 10
2782.756944891007
 20
33.42785237002575
 10
2782.1355008297114
 20
32.26521230605373
 10
2781.481693526923
 20
31.120458773413112
 10
2780.7960373637293
 20
29.994492403779187
 10
2780.0790717782197
 20
28.888199048078707
 10
2779.3313608410854
 20
27.80244907954913
 10
2778.5534928118377
 20
26.738096708974922
 10
2777.7460796759974
 20
25.695979312639526
 10
2776.9097566636156
 20
24.676916773521892
 10
2776.0451817495086
 20
23.681710836255817
 10
2775.153035135599
 20
22.71114447635962
 10
2774.234018715768
 20
21.765981284232268
 10
2772.4680374315353
 20
20.0
 10
2683.0
 20
20.0
 10
2683.0
 20
48.5
  0
CIRCLE
  5
88
330
17
100
AcDbEntity
  8
CUT
 62
1
100
AcDbCircle
 10
2733.0
 20
40.0
 30
0.0
 40
5.0
  0
CIRCLE
  5
89
330
17
100
AcDbEntity
  8
CUT
 62
1
100
AcDbCircle
 10
2733.0
 20
70.0
 30
0.0
 40
5.0
  0
CIRCLE
  5
8A
330
17
100
AcDbEntity
  8
CUT
 62
1
100
AcDbCircle
 10
2698.0
 20
40.0
 30
0.0
 40
5.0
  0
CIRCLE
  5
8B
330
17
100
AcDbEntity
  8
CUT
 62
1
100
AcDbCircle
 10
2698.0
 20
70.0
 30
0.0
 40
5.0
  0
LWPOLYLINE
  5
8C
330
17
100
AcDbEntity
  8
CUT
 62
1
100
AcDbPolyline
 90
69
 70
1
 10
2792.0
 20
48.5
 10
2792.0
 20
61.5
 10
2798.5
 20
61.5
 10
2798.5
 20
56.0
 10
2805.5
 20
56.0
 10
2805.5
 20
61.5
 10
2837.0
 20
61.5
 10
2837.0
 20
90.0
 10
2926.4680374315353
 20
90.0
 10
2928.234018715768
 20
88.23401871576773
 10
2929.153035135599
 20
87.28885552364038
 10
2930.0451817495086
 20
86.31828916374418
 10
2930.9097566636156
 20
85.32308322647812
 10
2931.7460796759974
 20
84.30402068736048
 10
2932.5534928118377
 20
83.26190329102508
 10
2933.3313608410854
 20
82.19755092045087
 10
2934.0790717782197
 20
81.11180095192131
 10
2934.7960373637293
 20
80.00550759622082
 10
2935.481693526923
 20
78.8795412265869
 10
2936.1355008297114
 20
77.73478769394627
 10
2936.756944891007
 20
76.57214762997427
 10
2937.345536791414
 20
75.39253573852523
 10
2937.900813457882
 20
74.19688007599183
 10
2938.4223380280305
 20
72.98612132115922
 10
2938.909700193846
 20
71.76121203512872
 10
2939.3625165244935
 20
70.52311591189286
 10
2939.780430767976
 20
69.2728070201519
 10
2940.1631141314197
 20
68.01126903696792
 10
2940.5102655397463
 20
66.73949447385966
 10
2940.821611872546
 20
65.45848389594678
 10
2941.0969081789517
 20
64.16924513475803
 10
2941.335937870357
 20
62.872792495322614
 10
2941.538512890813
 20
61.570145958168474
 10
2941.7044738649824
 20
60.26233037685547
 10
2941.8336902235283
 20
58.95037467167464
 10
2941.9260603058374
 20
57.635311020148016
 10
2941.9815114400035
 20
56.31817404496584
 10
2942.0
 20
55.0
 10
2941.9815114400035
 20
53.68182595503415
 10
2941.9260603058374
 20
52.36468897985199
 10
2941.8336902235283
 20
51.04962532832537
 10
2941.7044738649824
 20
49.737669623144534
 10
2941.538512890813
 20
48.42985404183153
 10
2941.335937870357
 20
47.12720750467739
 10
2941.0969081789517
 20
45.83075486524197
 10
2940.821611872546
 20
44.54151610405323
 10
2940.5102655397463
 20
43.26050552614034
 10
2940.1631141314197
 20
41.98873096303208
 10
2939.780430767976
 20
40.72719297984811
 10
2939.3625165244935
 20
39.476884088107155
 10
2938.909700193846
 20
38.23878796487129
 10
2938.4223380280305
 20
37.01387867884078
 10
2937.900813457882
 20
35.803119924008186
 10
2937.345536791414
 20
34.607464261474775
 10
2936.756944891007
 20
33.42785237002575
 10
2936.1355008297114
 20
32.26521230605373
 10
2935.481693526923
 20
31.120458773413112
 10
2934.7960373637293
 20
29.994492403779187
 10
2934.0790717782197
 20
28.888199048078707
 10
2933.3313608410854
 20
27.80244907954913
 10
2932.5534928118377
 20
26.738096708974922
 10
2931.7460796759974
 20
25.695979312639526
 10
2930.9097566636156
 20
24.676916773521892
 10
2930.0451817495086
 20
23.681710836255817
 10
2929.153035135599
 20
22.71114447635962
 10
2928.234018715768
 20
21.765981284232268
 10
2926.4680374315353
 20
20.0
 10
2837.0
 20
20.0
 10
2837.0
 20
48.5
  0
CIRCLE
  5
8D
330
17
100
AcDbEntity
  8
CUT
 62
1
100
AcDbCircle
 10
2887.0
 20
40.0
 30
0.0
 40
5.0
  0
CIRCLE
  5
8E
330
17
100
AcDbEntity
  8
CUT
 62
1
100
AcDbCircle
 10
2887.0
 20
70.0
 30
0.0
 40
5.0
  0
CIRCLE
  5
8F
330
17
100
AcDbEntity
  8
CUT
 62
1
100
AcDbCircle
 10
2852.0
 20
40.0
 30
0.0
 40
5.0
  0
CIRCLE
  5
90
330
17
100
AcDbEntity
  8
CUT
 62
1
100
AcDbCircle
 10
2852.0
 20
70.0
 30
0.0
 40
5.0
  0
LWPOLYLINE
  5
91
330
17
100
AcDbEntity
  8
CUT
 62
1
100
AcDbPolyline
 90
69
 70
1
 10
20.0
 20
122.5
 10
20.0
 20
135.5
 10
26.5
 20
135.5
 10
26.5
 20
130.0
 10
33.5
 20
130.0
 10
33.5
 20
135.5
 10
65.0
 20
135.5
 10
65.0
 20
164.0
 10
154.46803743153546
 20
164.0
 10
156.23401871576775
 20
162.23401871576772
 10
157.15303513559928
 20
161.2888555236404
 10
158.0451817495088
 20
160.31828916374417
 10
158.90975666361555
 20
159.3230832264781
 10
159.7460796759974
 20
158.3040206873605
 10
160.5534928118377
 20
157.26190329102508
 10
161.33136084108523
 20
156.19755092045085
 10
162.07907177821963
 20
155.1118009519213
 10
162.79603736372934
 20
154.0055075962208
 10
163.4816935269232
 20
152.8795412265869
 10
164.13550082971142
 20
151.73478769394626
 10
164.75694489100698
 20
150.57214762997427
 10
165.3455367914137
 20
149.39253573852523
 10
165.90081345788198
 20
148.19688007599183
 10
166.42233802803048
 20
146.9861213211592
 10
166.9097001938462
 20
145.76121203512872
 10
167.3625165244933
 20
144.52311591189286
 10
167.78043076797613
 20
143.2728070201519
 10
168.16311413141966
 20
142.01126903696792
 10
168.51026553974629
 20
140.73949447385968
 10
168.8216118725457
 20
139.45848389594678
 10
169.09690817895182
 20
138.16924513475803
 10
169.3359378703571
 20
136.8727924953226
 10
169.53851289081294
 20
135.57014595816847
 10
169.7044738649824
 20
134.26233037685546
 10
169.8336902235281
 20
132.95037467167464
 10
169.92606030583738
 20
131.635311020148
 10
169.9815114400035
 20
130.31817404496584
 10
170.0
 20
129.0
 10
169.9815114400035
 20
127.68182595503416
 10
169.92606030583738
 20
126.36468897985199
 10
169.8336902235281
 20
125.04962532832536
 10
169.7044738649824
 20
123.73766962314454
 10
169.53851289081294
 20
122.42985404183153
 10
169.3359378703571
 20
121.12720750467739
 10
169.09690817895182
 20
119.83075486524197
 10
168.8216118725457
 20
118.54151610405323
 10
168.51026553974629
 20
117.26050552614035
 10
168.1631141314197
 20
115.98873096303208
 10
167.78043076797613
 20
114.72719297984811
 10
167.3625165244933
 20
113.47688408810716
 10
166.9097001938462
 20
112.23878796487129
 10
166.42233802803048
 20
111.01387867884078
 10
165.90081345788198
 20
109.80311992400819
 10
165.3455367914137
 20
108.60746426147477
 10
164.756944891007
 20
107.42785237002575
 10
164.13550082971142
 20
106.26521230605374
 10
163.4816935269232
 20
105.1204587734131
 10
162.79603736372937
 20
103.99449240377919
 10
162.07907177821963
 20
102.8881990480787
 10
161.33136084108523
 20
101.80244907954913
 10
160.5534928118377
 20
100.73809670897492
 10
159.7460796759974
 20
99.69597931263952
 10
158.90975666361555
 20
98.6769167735219
 10
158.0451817495088
 20
97.68171083625582
 10
157.15303513559928
 20
96.71114447635962
 10
156.23401871576775
 20
95.76598128423227
 10
154.46803743153546
 20
94.0
 10
65.0
 20
94.0
 10
65.0
 20
122.5
  0
CIRCLE
  5
92
330
17
100
AcDbEntity
  8
CUT
 62
1
100
AcDbCircle
 10
115.0
 20
114.0
 30
0.0
 40
5.0
  0
CIRCLE
  5
93
330
17
100
AcDbEntity
  8
CUT
 62
1
100
AcDbCircle
 10
115.0
 20
144.0
 30
0.0
 40
5.0
  0
CIRCLE
  5
94
330
17
100
AcDbEntity
  8
CUT
 62
1
100
AcDbCircle
 10
80.0
 20
114.0
 30
0.0
 40
5.0
  0
CIRCLE
  5
95
330
17
100
AcDbEntity
  8
CUT
 62
1
100
AcDbCircle
 10
80.0
 20
144.0
 30
0.0
 40
5.0
  0
LWPOLYLINE
  5
96
330
17
100
AcDbEntity
  8
CUT
 62
1
100
AcDbPolyline
 90
69
 70
1
 10
174.0
 20
122.5
 10
174.0
 20
135.5
 10
180.5
 20
135.5
 10
180.5
 20
130.0
 10
187.5
 20
130.0
 10
187.5
 20
135.5
 10
219.0
 20
135.5
 10
219.0
 20
164.0
 10
308.46803743153544
 20
164.0
 10
310.2340187157678
 20
162.23401871576772
 10
311.1530351355993
 20
161.2888555236404
 10
312.0451817495088
 20
160.31828916374417
 10
312.90975666361555
 20
159.3230832264781
 10
313.7460796759974
 20
158.3040206873605
 10
314.5534928118377
 20
157.26190329102508
 10
315.33136084108526
 20
156.19755092045085
 10
316.0790717782196
 20
155.1118009519213
 10
316.79603736372934
 20
154.0055075962208
 10
317.4816935269232
 20
152.8795412265869
 10
318.1355008297114
 20
151.73478769394626
 10
318.756944891007
 20
150.57214762997427
 10
319.3455367914137
 20
149.39253573852523
 10
319.900813457882
 20
148.19688007599183
 10
320.4223380280305
 20
146.9861213211592
 10
320.9097001938462
 20
145.76121203512872
 10
321.3625165244933
 20
144.52311591189286
 10
321.7804307679761
 20
143.2728070201519
 10
322.16311413141966
 20
142.01126903696792
 10
322.5102655397463
 20
140.73949447385968
 10
322.8216118725457
 20
139.45848389594678
 10
323.0969081789518
 20
138.16924513475803
 10
323.3359378703571
 20
136.8727924953226
 10
323.53851289081297
 20
135.57014595816847
 10
323.7044738649824
 20
134.26233037685546
 10
323.8336902235281
 20
132.95037467167464
 10
323.9260603058374
 20
131.635311020148
 10
323.9815114400035
 20
130.31817404496584
 10
324.0
 20
129.0
 10
323.9815114400035
 20
127.68182595503416
 10
323.9260603058374
 20
126.36468897985199
 10
323.8336902235281
 20
125.04962532832536
 10
323.7044738649824
 20
123.73766962314454
 10
323.53851289081297
 20
122.42985404183153
 10
323.3359378703571
 20
121.12720750467739
 10
323.0969081789518
 20
119.83075486524197
 10
322.8216118725457
 20
118.54151610405323
 10
322.5102655397463
 20
117.26050552614035
 10
322.16311413141966
 20
115.98873096303208
 10
321.7804307679761
 20
114.72719297984811
 10
321.3625165244933
 20
113.47688408810716
 10
320.9097001938462
 20
112.23878796487129
 10
320.4223380280305
 20
111.01387867884078
 10
319.900813457882
 20
109.80311992400819
 10
319.3455367914137
 20
108.60746426147477
 10
318.75694489100704
 20
107.42785237002575
 10
318.1355008297114
 20
106.26521230605374
 10
317.4816935269232
 20
105.1204587734131
 10
316.7960373637294
 20
103.99449240377919
 10
316.0790717782196
 20
102.8881990480787
 10
315.33136084108526
 20
101.80244907954913
 10
314.5534928118377
 20
100.73809670897492
 10
313.7460796759974
 20
99.69597931263952
 10
312.90975666361555
 20
98.6769167735219
 10
312.0451817495088
 20
97.68171083625582
 10
311.1530351355993
 20
96.71114447635962
 10
310.2340187157678
 20
95.76598128423227
 10
308.46803743153544
 20
94.0
 10
219.0
 20
94.0
 10
219.0
 20
122.5
  0
CIRCLE
  5
97
330
17
100
AcDbEntity
  8
CUT
 62
1
100
AcDbCircle
 10
269.0
 20
114.0
 30
0.0
 40
5.0
  0
CIRCLE
  5
98
330
17
100
AcDbEntity
  8
CUT
 62
1
100
AcDbCircle
 10
269.0
 20
144.0
 30
0.0
 40
5.0
  0
CIRCLE
  5
99
330
17
100
AcDbEntity
  8
CUT
 62
1
100
AcDbCircle
 10
234.0
 20
114.0
 30
0.0
 40
5.0
  0
CIRCLE
  5
9A
330
17
100
AcDbEntity
  8
CUT
 62
1
100
AcDbCircle
 10
234.0
 20
144.0
 30
0.0
 40
5.0
  0
LWPOLYLINE
  5
9B
330
17
100
AcDbEntity
  8
CUT
 62
1
100
AcDbPolyline
 90
69
 70
1
 10
328.0
 20
122.5
 10
328.0
 20
135.5
 10
334.5
 20
135.5
 10
334.5
 20
130.0
 10
341.5
 20
130.0
 10
341.5
 20
135.5
 10
373.0
 20
135.5
 10
373.0
 20
164.0
 10
462.46803743153544
 20
164.0
 10
464.2340187157678
 20
162.23401871576772
 10
465.1530351355993
 20
161.2888555236404
 10
466.0451817495088
 20
160.31828916374417
 10
466.90975666361555
 20
159.3230832264781
 10
467.7460796759974
 20
158.3040206873605
 10
468.5534928118377
 20
157.26190329102508
 10
469.33136084108526
 20
156.19755092045085
 10
470.0790717782196
 20
155.1118009519213
 10
470.79603736372934
 20
154.0055075962208
 10
471.4816935269232
 20
152.8795412265869
 10
472.1355008297114
 20
151.73478769394626
 10
472.756944891007
 20
150.57214762997427
 10
473.3455367914137
 20
149.39253573852523
 10
473.900813457882
 20
148.19688007599183
 10
474.4223380280305
 20
146.9861213211592
 10
474.9097001938462
 20
145.76121203512872
 10
475.3625165244933
 20
144.52311591189286
 10
475.7804307679761
 20
143.2728070201519
 10
476.16311413141966
 20
142.01126903696792
 10
476.5102655397463
 20
140.73949447385968
 10
476.8216118725457
 20
139.45848389594678
 10
477.0969081789518
 20
138.16924513475803
 10
477.3359378703571
 20
136.8727924953226
 10
477.53851289081297
 20
135.57014595816847
 10
477.7044738649824
 20
134.26233037685546
 10
477.8336902235281
 20
132.95037467167464
 10
477.9260603058374
 20
131.635311020148
 10
477.9815114400035
 20
130.31817404496584
 10
478.0
 20
129.0
 10
477.9815114400035
 20
127.68182595503416
 10
477.9260603058374
 20
126.36468897985199
 10
477.8336902235281
 20
125.04962532832536
 10
477.7044738649824
 20
123.73766962314454
 10
477.53851289081297
 20
122.42985404183153
 10
477.3359378703571
 20
121.12720750467739
 10
477.0969081789518
 20
119.83075486524197
 10
476.8216118725457
 20
118.54151610405323
 10
476.5102655397463
 20
117.26050552614035
 10
476.16311413141966
 20
115.98873096303208
 10
475.7804307679761
 20
114.72719297984811
 10
475.3625165244933
 20
113.47688408810716
 10
474.9097001938462
 20
112.23878796487129
 10
474.4223380280305
 20
111.01387867884078
 10
473.900813457882
 20
109.80311992400819
 10
473.3455367914137
 20
108.60746426147477
 10
472.75694489100704
 20
107.42785237002575
 10
472.1355008297114
 20
106.26521230605374
 10
471.4816935269232
 20
105.1204587734131
 10
470.7960373637294
 20
103.99449240377919
 10
470.0790717782196
 20
102.8881990480787
 10
469.33136084108526
 20
101.80244907954913
 10
468.5534928118377
 20
100.73809670897492
 10
467.7460796759974
 20
99.69597931263952
 10
466.90975666361555
 20
98.6769167735219
 10
466.0451817495088
 20
97.68171083625582
 10
465.1530351355993
 20
96.71114447635962
 10
464.2340187157678
 20
95.76598128423227
 10
462.46803743153544
 20
94.0
 10
373.0
 20
94.0
 10
373.0
 20
122.5
  0
CIRCLE
  5
9C
330
17
100
AcDbEntity
  8
CUT
 62
1
100
AcDbCircle
 10
423.0
 20
114.0
 30
0.0
 40
5.0
  0
CIRCLE
  5
9D
330
17
100
AcDbEntity
  8
CUT
 62
1
100
AcDbCircle
 10
423.0
 20
144.0
 30
0.0
 40
5.0
  0
CIRCLE
  5
9E
330
17
100
AcDbEntity
  8
CUT
 62
1
100
AcDbCircle
 10
388.0
 20
114.0
 30
0.0
 40
5.0
  0
CIRCLE
  5
9F
330
17
100
AcDbEntity
  8
CUT
 62
1
100
AcDbCircle
 10
388.0
 20
144.0
 30
0.0
 40
5.0
  0
LWPOLYLINE
  5
A0
330
17
100
AcDbEntity
  8
CUT
 62
1
100
AcDbPolyline
 90
69
 70
1
 10
482.0
 20
122.5
 10
482.0
 20
135.5
 10
488.5
 20
135.5
 10
488.5
 20
130.0
 10
495.5
 20
130.0
 10
495.5
 20
135.5
 10
527.0
 20
135.5
 10
527.0
 20
164.0
 10
616.4680374315354
 20
164.0
 10
618.2340187157678
 20
162.23401871576772
 10
619.1530351355993
 20
161.2888555236404
 10
620.0451817495089
 20
160.31828916374417
 10
620.9097566636156
 20
159.3230832264781
 10
621.7460796759974
 20
158.3040206873605
 10
622.5534928118377
 20
157.26190329102508
 10
623.3313608410853
 20
156.19755092045085
 10
624.0790717782196
 20
155.1118009519213
 10
624.7960373637293
 20
154.0055075962208
 10
625.4816935269232
 20
152.8795412265869
 10
626.1355008297114
 20
151.73478769394626
 10
626.7569448910069
 20
150.57214762997427
 10
627.3455367914137
 20
149.39253573852523
 10
627.900813457882
 20
148.19688007599183
 10
628.4223380280305
 20
146.9861213211592
 10
628.9097001938462
 20
145.76121203512872
 10
629.3625165244932
 20
144.52311591189286
 10
629.7804307679761
 20
143.2728070201519
 10
630.1631141314197
 20
142.01126903696792
 10
630.5102655397463
 20
140.73949447385968
 10
630.8216118725456
 20
139.45848389594678
 10
631.0969081789518
 20
138.16924513475803
 10
631.3359378703572
 20
136.8727924953226
 10
631.538512890813
 20
135.57014595816847
 10
631.7044738649824
 20
134.26233037685546
 10
631.833690223528
 20
132.95037467167464
 10
631.9260603058374
 20
131.635311020148
 10
631.9815114400035
 20
130.31817404496584
 10
632.0
 20
129.0
 10
631.9815114400035
 20
127.68182595503416
 10
631.9260603058374
 20
126.36468897985199
 10
631.833690223528
 20
125.04962532832536
 10
631.7044738649824
 20
123.73766962314454
 10
631.538512890813
 20
122.42985404183153
 10
631.3359378703572
 20
121.12720750467739
 10
631.0969081789518
 20
119.83075486524197
 10
630.8216118725456
 20
118.54151610405323
 10
630.5102655397463
 20
117.26050552614035
 10
630.1631141314197
 20
115.98873096303208
 10
629.7804307679761
 20
114.72719297984811
 10
629.3625165244932
 20
113.47688408810716
 10
628.9097001938462
 20
112.23878796487129
 10
628.4223380280305
 20
111.01387867884078
 10
627.900813457882
 20
109.80311992400819
 10
627.3455367914137
 20
108.60746426147477
 10
626.756944891007
 20
107.42785237002575
 10
626.1355008297114
 20
106.26521230605374
 10
625.4816935269232
 20
105.1204587734131
 10
624.7960373637294
 20
103.99449240377919
 10
624.0790717782196
 20
102.8881990480787
 10
623.3313608410853
 20
101.80244907954913
 10
622.5534928118377
 20
100.73809670897492
 10
621.7460796759974
 20
99.69597931263952
 10
620.9097566636156
 20
98.6769167735219
 10
620.0451817495089
 20
97.68171083625582
 10
619.1530351355993
 20
96.71114447635962
 10
618.2340187157678
 20
95.76598128423227
 10
616.4680374315354
 20
94.0
 10
527.0
 20
94.0
 10
527.0
 20
122.5
  0
CIRCLE
  5
A1
330
17
100
AcDbEntity
  8
CUT
 62
1
100
AcDbCircle
 10
577.0
 20
114.0
 30
0.0
 40
5.0
  0
CIRCLE
  5
A2
330
17
100
AcDbEntity
  8
CUT
 62
1
100
AcDbCircle
 10
577.0
 20
144.0
 30
0.0
 40
5.0
  0
CIRCLE
  5
A3
330
17
100
AcDbEntity
  8
CUT
 62
1
100
AcDbCircle
 10
542.0
 20
114.0
 30
0.0
 40
5.0
  0
CIRCLE
  5
A4
330
17
100
AcDbEntity
  8
CUT
 62
1
100
AcDbCircle
 10
542.0
 20
144.0
 30
0.0
 40
5.0
  0
LWPOLYLINE
  5
A5
330
17
100
AcDbEntity
  8
CUT
 62
1
100
AcDbPolyline
 90
69
 70
1
 10
636.0
 20
122.5
 10
636.0
 20
135.5
 10
642.5
 20
135.5
 10
642.5
 20
130.0
 10
649.5
 20
130.0
 10
649.5
 20
135.5
 10
681.0
 20
135.5
 10
681.0
 20
164.0
 10
770.4680374315354
 20
164.0
 10
772.2340187157678
 20
162.23401871576772
 10
773.1530351355993
 20
161.2888555236404
 10
774.0451817495089
 20
160.31828916374417
 10
774.9097566636156
 20
159.3230832264781
 10
775.7460796759974
 20
158.3040206873605
 10
776.5534928118377
 20
157.26190329102508
 10
777.3313608410853
 20
156.19755092045085
 10
778.0790717782196
 20
155.1118009519213
 10
778.7960373637293
 20
154.0055075962208
 10
779.4816935269232
 20
152.8795412265869
 10
780.1355008297114
 20
151.73478769394626
 10
780.7569448910069
 20
150.57214762997427
 10
781.3455367914137
 20
149.39253573852523
 10
781.900813457882
 20
148.19688007599183
 10
782.4223380280305
 20
146.9861213211592
 10
782.9097001938462
 20
145.76121203512872
 10
783.3625165244932
 20
144.52311591189286
 10
783.7804307679761
 20
143.2728070201519
 10
784.1631141314197
 20
142.01126903696792
 10
784.5102655397463
 20
140.73949447385968
 10
784.8216118725456
 20
139.45848389594678
 10
785.0969081789518
 20
138.16924513475803
 10
785.3359378703572
 20
136.8727924953226
 10
785.538512890813
 20
135.57014595816847
 10
785.7044738649824
 20
134.26233037685546
 10
785.833690223528
 20
132.95037467167464
 10
785.9260603058374
 20
131.635311020148
 10
785.9815114400035
 20
130.31817404496584
 10
786.0
 20
129.0
 10
785.9815114400035
 20
127.68182595503416
 10
785.9260603058374
 20
126.36468897985199
 10
785.833690223528
 20
125.04962532832536
 10
785.7044738649824
 20
123.73766962314454
 10
785.538512890813
 20
122.42985404183153
 10
785.3359378703572
 20
121.12720750467739
 10
785.0969081789518
 20
119.83075486524197
 10
784.8216118725456
 20
118.54151610405323
 10
784.5102655397463
 20
117.26050552614035
 10
784.1631141314197
 20
115.98873096303208
 10
783.7804307679761
 20
114.72719297984811
 10
783.3625165244932
 20
113.47688408810716
 10
782.9097001938462
 20
112.23878796487129
 10
782.4223380280305
 20
111.01387867884078
 10
781.900813457882
 20
109.80311992400819
 10
781.3455367914137
 20
108.60746426147477
 10
780.756944891007
 20
107.42785237002575
 10
780.1355008297114
 20
106.26521230605374
 10
779.4816935269232
 20
105.1204587734131
 10
778.7960373637294
 20
103.99449240377919
 10
778.0790717782196
 20
102.8881990480787
 10
777.3313608410853
 20
101.80244907954913
 10
776.5534928118377
 20
100.73809670897492
 10
775.7460796759974
 20
99.69597931263952
 10
774.9097566636156
 20
98.6769167735219
 10
774.0451817495089
 20
97.68171083625582
 10
773.1530351355993
 20
96.71114447635962
 10
772.2340187157678
 20
95.76598128423227
 10
770.4680374315354
 20
94.0
 10
681.0
 20
94.0
 10
681.0
 20
122.5
  0
CIRCLE
  5
A6
330
17
100
AcDbEntity
  8
CUT
 62
1
100
AcDbCircle
 10
731.0
 20
114.0
 30
0.0
 40
5.0
  0
CIRCLE
  5
A7
330
17
100
AcDbEntity
  8
CUT
 62
1
100
AcDbCircle
 10
731.0
 20
144.0
 30
0.0
 40
5.0
  0
CIRCLE
  5
A8
330
17
100
AcDbEntity
  8
CUT
 62
1
100
AcDbCircle
 10
696.0
 20
114.0
 30
0.0
 40
5.0
  0
CIRCLE
  5
A9
330
17
100
AcDbEntity
  8
CUT
 62
1
100
AcDbCircle
 10
696.0
 20
144.0
 30
0.0
 40
5.0
  0
LWPOLYLINE
  5
AA
330
17
100
AcDbEntity
  8
CUT
 62
1
100
AcDbPolyline
 90
69
 70
1
 10
790.0
 20
122.5
 10
790.0
 20
135.5
 10
796.5
 20
135.5
 10
796.5
 20
130.0
 10
803.5
 20
130.0
 10
803.5
 20
135.5
 10
835.0
 20
135.5
 10
835.0
 20
164.0
 10
924.4680374315354
 20
164.0
 10
926.2340187157678
 20
162.23401871576772
 10
927.1530351355993
 20
161.2888555236404
 10
928.0451817495089
 20
160.31828916374417
 10
928.9097566636156
 20
159.3230832264781
 10
929.7460796759974
 20
158.3040206873605
 10
930.5534928118377
 20
157.26190329102508
 10
931.3313608410853
 20
156.19755092045085
 10
932.0790717782196
 20
155.1118009519213
 10
932.7960373637293
 20
154.0055075962208
 10
933.4816935269232
 20
152.8795412265869
 10
934.1355008297114
 20
151.73478769394626
 10
934.7569448910069
 20
150.57214762997427
 10
935.3455367914137
 20
149.39253573852523
 10
935.900813457882
 20
148.19688007599183
 10
936.4223380280305
 20
146.9861213211592
 10
936.9097001938462
 20
145.76121203512872
 10
937.3625165244932
 20
144.52311591189286
 10
937.7804307679761
 20
143.2728070201519
 10
938.1631141314197
 20
142.01126903696792
 10
938.5102655397463
 20
140.73949447385968
 10
938.8216118725456
 20
139.45848389594678
 10
939.0969081789518
 20
138.16924513475803
 10
939.3359378703572
 20
136.8727924953226
 10
939.538512890813
 20
135.57014595816847
 10
939.7044738649824
 20
134.26233037685546
 10
939.833690223528
 20
132.95037467167464
 10
939.9260603058374
 20
131.635311020148
 10
939.9815114400035
 20
130.31817404496584
 10
940.0
 20
129.0
 10
939.9815114400035
 20
127.68182595503416
 10
939.9260603058374
 20
126.36468897985199
 10
939.833690223528
 20
125.04962532832536
 10
939.7044738649824
 20
123.73766962314454
 10
939.538512890813
 20
122.42985404183153
 10
939.3359378703572
 20
121.12720750467739
 10
939.0969081789518
 20
119.83075486524197
 10
938.8216118725456
 20
118.54151610405323
 10
938.5102655397463
 20
117.26050552614035
 10
938.1631141314197
 20
115.98873096303208
 10
937.7804307679761
 20
114.72719297984811
 10
937.3625165244932
 20
113.47688408810716
 10
936.9097001938462
 20
112.23878796487129
 10
936.4223380280305
 20
111.01387867884078
 10
935.900813457882
 20
109.80311992400819
 10
935.3455367914137
 20
108.60746426147477
 10
934.756944891007
 20
107.42785237002575
 10
934.1355008297114
 20
106.26521230605374
 10
933.4816935269232
 20
105.1204587734131
 10
932.7960373637294
 20
103.99449240377919
 10
932.0790717782196
 20
102.8881990480787
 10
931.3313608410853
 20
101.80244907954913
 10
930.5534928118377
 20
100.73809670897492
 10
929.7460796759974
 20
99.69597931263952
 10
928.9097566636156
 20
98.6769167735219
 10
928.0451817495089
 20
97.68171083625582
 10
927.1530351355993
 20
96.71114447635962
 10
926.2340187157678
 20
95.76598128423227
 10
924.4680374315354
 20
94.0
 10
835.0
 20
94.0
 10
835.0
 20
122.5
  0
CIRCLE
  5
AB
330
17
100
AcDbEntity
  8
CUT
 62
1
100
AcDbCircle
 10
885.0
 20
114.0
 30
0.0
 40
5.0
  0
CIRCLE
  5
AC
330
17
100
AcDbEntity
  8
CUT
 62
1
100
AcDbCircle
 10
885.0
 20
144.0
 30
0.0
 40
5.0
  0
CIRCLE
  5
AD
330
17
100
AcDbEntity
  8
CUT
 62
1
100
AcDbCircle
 10
850.0
 20
114.0
 30
0.0
 40
5.0
  0
CIRCLE
  5
AE
330
17
100
AcDbEntity
  8
CUT
 62
1
100
AcDbCircle
 10
850.0
 20
144.0
 30
0.0
 40
5.0
  0
LWPOLYLINE
  5
AF
330
17
100
AcDbEntity
  8
CUT
 62
1
100
AcDbPolyline
 90
69
 70
1
 10
944.0
 20
122.5
 10
944.0
 20
135.5
 10
950.5
 20
135.5
 10
950.5
 20
130.0
 10
957.5
 20
130.0
 10
957.5
 20
135.5
 10
989.0
 20
135.5
 10
989.0
 20
164.0
 10
1078.4680374315355
 20
164.0
 10
1080.2340187157677
 20
162.23401871576772
 10
1081.1530351355993
 20
161.2888555236404
 10
1082.0451817495089
 20
160.31828916374417
 10
1082.9097566636156
 20
159.3230832264781
 10
1083.7460796759974
 20
158.3040206873605
 10
1084.5534928118377
 20
157.26190329102508
 10
1085.3313608410851
 20
156.19755092045085
 10
1086.0790717782197
 20
155.1118009519213
 10
1086.7960373637293
 20
154.0055075962208
 10
1087.4816935269232
 20
152.8795412265869
 10
1088.1355008297114
 20
151.73478769394626
 10
1088.756944891007
 20
150.57214762997427
 10
1089.3455367914137
 20
149.39253573852523
 10
1089.900813457882
 20
148.19688007599183
 10
1090.4223380280305
 20
146.9861213211592
 10
1090.9097001938462
 20
145.76121203512872
 10
1091.3625165244932
 20
144.52311591189286
 10
1091.7804307679762
 20
143.2728070201519
 10
1092.1631141314197
 20
142.01126903696792
 10
1092.5102655397463
 20
140.73949447385968
 10
1092.8216118725456
 20
139.45848389594678
 10
1093.0969081789517
 20
138.16924513475803
 10
1093.3359378703572
 20
136.8727924953226
 10
1093.5385128908129
 20
135.57014595816847
 10
1093.7044738649824
 20
134.26233037685546
 10
1093.833690223528
 20
132.95037467167464
 10
1093.9260603058374
 20
131.635311020148
 10
1093.9815114400035
 20
130.31817404496584
 10
1094.0
 20
129.0
 10
1093.9815114400035
 20
127.68182595503416
 10
1093.9260603058374
 20
126.36468897985199
 10
1093.833690223528
 20
125.04962532832536
 10
1093.7044738649824
 20
123.73766962314454
 10
1093.5385128908129
 20
122.42985404183153
 10
1093.3359378703572
 20
121.12720750467739
 10
1093.0969081789517
 20
119.83075486524197
 10
1092.8216118725456
 20
118.54151610405323
 10
1092.5102655397463
 20
117.26050552614035
 10
1092.1631141314197
 20
115.98873096303208
 10
1091.7804307679762
 20
114.72719297984811
 10
1091.3625165244932
 20
113.47688408810716
 10
1090.9097001938462
 20
112.23878796487129
 10
1090.4223380280305
 20
111.01387867884078
 10
1089.900813457882
 20
109.80311992400819
 10
1089.3455367914137
 20
108.60746426147477
 10
1088.756944891007
 20
107.42785237002575
 10
1088.1355008297114
 20
106.26521230605374
 10
1087.4816935269232
 20
105.1204587734131
 10
1086.7960373637293
 20
103.99449240377919
 10
1086.0790717782197
 20
102.8881990480787
 10
1085.3313608410851
 20
101.80244907954913
 10
1084.5534928118377
 20
100.73809670897492
 10
1083.7460796759974
 20
99.69597931263952
 10
1082.9097566636156
 20
98.6769167735219
 10
1082.0451817495089
 20
97.68171083625582
 10
1081.1530351355993
 20
96.71114447635962
 10
1080.2340187157677
 20
95.76598128423227
 10
1078.4680374315355
 20
94.0
 10
989.0
 20
94.0
 10
989.0
 20
122.5
  0
CIRCLE
  5
B0
330
17
100
AcDbEntity
  8
CUT
 62
1
100
AcDbCircle
 10
1039.0
 20
114.0
 30
0.0
 40
5.0
  0
CIRCLE
  5
B1
330
17
100
AcDbEntity
  8
CUT
 62
1
100
AcDbCircle
 10
1039.0
 20
144.0
 30
0.0
 40
5.0
  0
CIRCLE
  5
B2
330
17
100
AcDbEntity
  8
CUT
 62
1
100
AcDbCircle
 10
1004.0
 20
114.0
 30
0.0
 40
5.0
  0
CIRCLE
  5
B3
330
17
100
AcDbEntity
  8
CUT
 62
1
100
AcDbCircle
 10
1004.0
 20
144.0
 30
0.0
 40
5.0
  0
LWPOLYLINE
  5
B4
330
17
100
AcDbEntity
  8
CUT
 62
1
100
AcDbPolyline
 90
69
 70
1
 10
1098.0
 20
122.5
 10
1098.0
 20
135.5
 10
1104.5
 20
135.5
 10
1104.5
 20
130.0
 10
1111.5
 20
130.0
 10
1111.5
 20
135.5
 10
1143.0
 20
135.5
 10
1143.0
 20
164.0
 10
1232.4680374315355
 20
164.0
 10
1234.2340187157677
 20
162.23401871576772
 10
1235.1530351355993
 20
161.2888555236404
 10
1236.0451817495089
 20
160.31828916374417
 10
1236.9097566636156
 20
159.3230832264781
 10
1237.7460796759974
 20
158.3040206873605
 10
1238.5534928118377
 20
157.26190329102508
 10
1239.3313608410851
 20
156.19755092045085
 10
1240.0790717782197
 20
155.1118009519213
 10
1240.7960373637293
 20
154.0055075962208
 10
1241.4816935269232
 20
152.8795412265869
 10
1242.1355008297114
 20
151.73478769394626
 10
1242.756944891007
 20
150.57214762997427
 10
1243.3455367914137
 20
149.39253573852523
 10
1243.900813457882
 20
148.19688007599183
 10
1244.4223380280305
 20
146.9861213211592
 10
1244.9097001938462
 20
145.76121203512872
 10
1245.3625165244932
 20
144.52311591189286
 10
1245.7804307679762
 20
143.2728070201519
 10
1246.1631141314197
 20
142.01126903696792
 10
1246.5102655397463
 20
140.73949447385968
 10
1246.8216118725456
 20
139.45848389594678
 10
1247.0969081789517
 20
138.16924513475803
 10
1247.3359378703572
 20
136.8727924953226
 10
1247.5385128908129
 20
135.57014595816847
 10
1247.7044738649824
 20
134.26233037685546
 10
1247.833690223528
 20
132.95037467167464
 10
1247.9260603058374
 20
131.635311020148
 10
1247.9815114400035
 20
130.31817404496584
 10
1248.0
 20
129.0
 10
1247.9815114400035
 20
127.68182595503416
 10
1247.9260603058374
 20
126.36468897985199
 10
1247.833690223528
 20
125.04962532832536
 10
1247.7044738649824
 20
123.73766962314454
 10
1247.5385128908129
 20
122.42985404183153
 10
1247.3359378703572
 20
121.12720750467739
 10
1247.0969081789517
 20
119.83075486524197
 10
1246.8216118725456
 20
118.54151610405323
 10
1246.5102655397463
 20
117.26050552614035
 10
1246.1631141314197
 20
115.98873096303208
 10
1245.7804307679762
 20
114.72719297984811
 10
1245.3625165244932
 20
113.47688408810716
 10
1244.9097001938462
 20
112.23878796487129
 10
1244.4223380280305
 20
111.01387867884078
 10
1243.900813457882
 20
109.80311992400819
 10
1243.3455367914137
 20
108.60746426147477
 10
1242.756944891007
 20
107.42785237002575
 10
1242.1355008297114
 20
106.26521230605374
 10
1241.4816935269232
 20
105.1204587734131
 10
1240.7960373637293
 20
103.99449240377919
 10
1240.0790717782197
 20
102.8881990480787
 10
1239.3313608410851
 20
101.80244907954913
 10
1238.5534928118377
 20
100.73809670897492
 10
1237.7460796759974
 20
99.69597931263952
 10
1236.9097566636156
 20
98.6769167735219
 10
1236.0451817495089
 20
97.68171083625582
 10
1235.1530351355993
 20
96.71114447635962
 10
1234.2340187157677
 20
95.76598128423227
 10
1232.4680374315355
 20
94.0
 10
1143.0
 20
94.0
 10
1143.0
 20
122.5
  0
CIRCLE
  5
B5
330
17
100
AcDbEntity
  8
CUT
 62
1
100
AcDbCircle
 10
1193.0
 20
114.0
 30
0.0
 40
5.0
  0
CIRCLE
  5
B6
330
17
100
AcDbEntity
  8
CUT
 62
1
100
AcDbCircle
 10
1193.0
 20
144.0
 30
0.0
 40
5.0
  0
CIRCLE
  5
B7
330
17
100
AcDbEntity
  8
CUT
 62
1
100
AcDbCircle
 10
1158.0
 20
114.0
 30
0.0
 40
5.0
  0
CIRCLE
  5
B8
330
17
100
AcDbEntity
  8
CUT
 62
1
100
AcDbCircle
 10
1158.0
 20
144.0
 30
0.0
 40
5.0
  0
LWPOLYLINE
  5
B9
330
17
100
AcDbEntity
  8
CUT
 62
1
100
AcDbPolyline
 90
69
 70
1
 10
1252.0
 20
122.5
 10
1252.0
 20
135.5
 10
1258.5
 20
135.5
 10
1258.5
 20
130.0
 10
1265.5
 20
130.0
 10
1265.5
 20
135.5
 10
1297.0
 20
135.5
 10
1297.0
 20
164.0
 10
1386.4680374315355
 20
164.0
 10
1388.2340187157677
 20
162.23401871576772
 10
1389.1530351355993
 20
161.2888555236404
 10
1390.0451817495089
 20
160.31828916374417
 10
1390.9097566636156
 20
159.3230832264781
 10
1391.7460796759974
 20
158.3040206873605
 10
1392.5534928118377
 20
157.26190329102508
 10
1393.3313608410851
 20
156.19755092045085
 10
1394.0790717782197
 20
155.1118009519213
 10
1394.7960373637293
 20
154.0055075962208
 10
1395.4816935269232
 20
152.8795412265869
 10
1396.1355008297114
 20
151.73478769394626
 10
1396.756944891007
 20
150.57214762997427
 10
1397.3455367914137
 20
149.39253573852523
 10
1397.900813457882
 20
148.19688007599183
 10
1398.4223380280305
 20
146.9861213211592
 10
1398.9097001938462
 20
145.76121203512872
 10
1399.3625165244932
 20
144.52311591189286
 10
1399.7804307679762
 20
143.2728070201519
 10
1400.1631141314197
 20
142.01126903696792
 10
1400.5102655397463
 20
140.73949447385968
 10
1400.8216118725456
 20
139.45848389594678
 10
1401.0969081789517
 20
138.16924513475803
 10
1401.3359378703572
 20
136.8727924953226
 10
1401.5385128908129
 20
135.57014595816847
 10
1401.7044738649824
 20
134.26233037685546
 10
1401.833690223528
 20
132.95037467167464
 10
1401.9260603058374
 20
131.635311020148
 10
1401.9815114400035
 20
130.31817404496584
 10
1402.0
 20
129.0
 10
1401.9815114400035
 20
127.68182595503416
 10
1401.9260603058374
 20
126.36468897985199
 10
1401.833690223528
 20
125.04962532832536
 10
1401.7044738649824
 20
123.73766962314454
 10
1401.5385128908129
 20
122.42985404183153
 10
1401.3359378703572
 20
121.12720750467739
 10
1401.0969081789517
 20
119.83075486524197
 10
1400.8216118725456
 20
118.54151610405323
 10
1400.5102655397463
 20
117.26050552614035
 10
1400.1631141314197
 20
115.98873096303208
 10
1399.7804307679762
 20
114.72719297984811
 10
1399.3625165244932
 20
113.47688408810716
 10
1398.9097001938462
 20
112.23878796487129
 10
1398.4223380280305
 20
111.01387867884078
 10
1397.900813457882
 20
109.80311992400819
 10
1397.3455367914137
 20
108.60746426147477
 10
1396.756944891007
 20
107.42785237002575
 10
1396.1355008297114
 20
106.26521230605374
 10
1395.4816935269232
 20
105.1204587734131
 10
1394.7960373637293
 20
103.99449240377919
 10
1394.0790717782197
 20
102.8881990480787
 10
1393.3313608410851
 20
101.80244907954913
 10
1392.5534928118377
 20
100.73809670897492
 10
1391.7460796759974
 20
99.69597931263952
 10
1390.9097566636156
 20
98.6769167735219
 10
1390.0451817495089
 20
97.68171083625582
 10
1389.1530351355993
 20
96.71114447635962
 10
1388.2340187157677
 20
95.76598128423227
 10
1386.4680374315355
 20
94.0
 10
1297.0
 20
94.0
 10
1297.0
 20
122.5
  0
CIRCLE
  5
BA
330
17
100
AcDbEntity
  8
CUT
 62
1
100
AcDbCircle
 10
1347.0
 20
114.0
 30
0.0
 40
5.0
  0
CIRCLE
  5
BB
330
17
100
AcDbEntity
  8
CUT
 62
1
100
AcDbCircle
 10
1347.0
 20
144.0
 30
0.0
 40
5.0
  0
CIRCLE
  5
BC
330
17
100
AcDbEntity
  8
CUT
 62
1
100
AcDbCircle
 10
1312.0
 20
114.0
 30
0.0
 40
5.0
  0
CIRCLE
  5
BD
330
17
100
AcDbEntity
  8
CUT
 62
1
100
AcDbCircle
 10
1312.0
 20
144.0
 30
0.0
 40
5.0
  0
LWPOLYLINE
  5
BE
330
17
100
AcDbEntity
  8
CUT
 62
1
100
AcDbPolyline
 90
69
 70
1
 10
1406.0
 20
122.5
 10
1406.0
 20
135.5
 10
1412.5
 20
135.5
 10
1412.5
 20
130.0
 10
1419.5
 20
130.0
 10
1419.5
 20
135.5
 10
1451.0
 20
135.5
 10
1451.0
 20
164.0
 10
1540.4680374315355
 20
164.0
 10
1542.2340187157677
 20
162.23401871576772
 10
1543.1530351355993
 20
161.2888555236404
 10
1544.0451817495089
 20
160.31828916374417
 10
1544.9097566636156
 20
159.3230832264781
 10
1545.7460796759974
 20
158.3040206873605
 10
1546.5534928118377
 20
157.26190329102508
 10
1547.3313608410851
 20
156.19755092045085
 10
1548.0790717782197
 20
155.1118009519213
 10
1548.7960373637293
 20
154.0055075962208
 10
1549.4816935269232
 20
152.8795412265869
 10
1550.1355008297114
 20
151.73478769394626
 10
1550.756944891007
 20
150.57214762997427
 10
1551.3455367914137
 20
149.39253573852523
 10
1551.900813457882
 20
148.19688007599183
 10
1552.4223380280305
 20
146.9861213211592
 10
1552.9097001938462
 20
145.76121203512872
 10
1553.3625165244932
 20
144.52311591189286
 10
1553.7804307679762
 20
143.2728070201519
 10
1554.1631141314197
 20
142.01126903696792
 10
1554.5102655397463
 20
140.73949447385968
 10
1554.8216118725456
 20
139.45848389594678
 10
1555.0969081789517
 20
138.16924513475803
 10
1555.3359378703572
 20
136.8727924953226
 10
1555.5385128908129
 20
135.57014595816847
 10
1555.7044738649824
 20
134.26233037685546
 10
1555.833690223528
 20
132.95037467167464
 10
1555.9260603058374
 20
131.635311020148
 10
1555.9815114400035
 20
130.31817404496584
 10
1556.0
 20
129.0
 10
1555.9815114400035
 20
127.68182595503416
 10
1555.9260603058374
 20
126.36468897985199
 10
1555.833690223528
 20
125.04962532832536
 10
1555.7044738649824
 20
123.73766962314454
 10
1555.5385128908129
 20
122.42985404183153
 10
1555.3359378703572
 20
121.12720750467739
 10
1555.0969081789517
 20
119.83075486524197
 10
1554.8216118725456
 20
118.54151610405323
 10
1554.5102655397463
 20
117.26050552614035
 10
1554.1631141314197
 20
115.98873096303208
 10
1553.7804307679762
 20
114.72719297984811
 10
1553.3625165244932
 20
113.47688408810716
 10
1552.9097001938462
 20
112.23878796487129
 10
1552.4223380280305
 20
111.01387867884078
 10
1551.900813457882
 20
109.80311992400819
 10
1551.3455367914137
 20
108.60746426147477
 10
1550.756944891007
 20
107.42785237002575
 10
1550.1355008297114
 20
106.26521230605374
 10
1549.4816935269232
 20
105.1204587734131
 10
1548.7960373637293
 20
103.99449240377919
 10
1548.0790717782197
 20
102.8881990480787
 10
1547.3313608410851
 20
101.80244907954913
 10
1546.5534928118377
 20
100.73809670897492
 10
1545.7460796759974
 20
99.69597931263952
 10
1544.9097566636156
 20
98.6769167735219
 10
1544.0451817495089
 20
97.68171083625582
 10
1543.1530351355993
 20
96.71114447635962
 10
1542.2340187157677
 20
95.76598128423227
 10
1540.4680374315355
 20
94.0
 10
1451.0
 20
94.0
 10
1451.0
 20
122.5
  0
CIRCLE
  5
BF
330
17
100
AcDbEntity
  8
CUT
 62
1
100
AcDbCircle
 10
1501.0
 20
114.0
 30
0.0
 40
5.0
  0
CIRCLE
  5
C0
330
17
100
AcDbEntity
  8
CUT
 62
1
100
AcDbCircle
 10
1501.0
 20
144.0
 30
0.0
 40
5.0
  0
CIRCLE
  5
C1
330
17
100
AcDbEntity
  8
CUT
 62
1
100
AcDbCircle
 10
1466.0
 20
114.0
 30
0.0
 40
5.0
  0
CIRCLE
  5
C2
330
17
100
AcDbEntity
  8
CUT
 62
1
100
AcDbCircle
 10
1466.0
 20
144.0
 30
0.0
 40
5.0
  0
LWPOLYLINE
  5
C3
330
17
100
AcDbEntity
  8
CUT
 62
1
100
AcDbPolyline
 90
69
 70
1
 10
1560.0
 20
122.5
 10
1560.0
 20
135.5
 10
1566.5
 20
135.5
 10
1566.5
 20
130.0
 10
1573.5
 20
130.0
 10
1573.5
 20
135.5
 10
1605.0
 20
135.5
 10
1605.0
 20
164.0
 10
1694.4680374315355
 20
164.0
 10
1696.2340187157677
 20
162.23401871576772
 10
1697.1530351355993
 20
161.2888555236404
 10
1698.0451817495089
 20
160.31828916374417
 10
1698.9097566636156
 20
159.3230832264781
 10
1699.7460796759974
 20
158.3040206873605
 10
1700.5534928118377
 20
157.26190329102508
 10
1701.3313608410851
 20
156.19755092045085
 10
1702.0790717782197
 20
155.1118009519213
 10
1702.7960373637293
 20
154.0055075962208
 10
1703.4816935269232
 20
152.8795412265869
 10
1704.1355008297114
 20
151.73478769394626
 10
1704.756944891007
 20
150.57214762997427
 10
1705.3455367914137
 20
149.39253573852523
 10
1705.900813457882
 20
148.19688007599183
 10
1706.4223380280305
 20
146.9861213211592
 10
1706.9097001938462
 20
145.76121203512872
 10
1707.3625165244932
 20
144.52311591189286
 10
1707.7804307679762
 20
143.2728070201519
 10
1708.1631141314197
 20
142.01126903696792
 10
1708.5102655397463
 20
140.73949447385968
 10
1708.8216118725456
 20
139.45848389594678
 10
1709.0969081789517
 20
138.16924513475803
 10
1709.3359378703572
 20
136.8727924953226
 10
1709.5385128908129
 20
135.57014595816847
 10
1709.7044738649824
 20
134.26233037685546
 10
1709.833690223528
 20
132.95037467167464
 10
1709.9260603058374
 20
131.635311020148
 10
1709.9815114400035
 20
130.31817404496584
 10
1710.0
 20
129.0
 10
1709.9815114400035
 20
127.68182595503416
 10
1709.9260603058374
 20
126.36468897985199
 10
1709.833690223528
 20
125.04962532832536
 10
1709.7044738649824
 20
123.73766962314454
 10
1709.5385128908129
 20
122.42985404183153
 10
1709.3359378703572
 20
121.12720750467739
 10
1709.0969081789517
 20
119.83075486524197
 10
1708.8216118725456
 20
118.54151610405323
 10
1708.5102655397463
 20
117.26050552614035
 10
1708.1631141314197
 20
115.98873096303208
 10
1707.7804307679762
 20
114.72719297984811
 10
1707.3625165244932
 20
113.47688408810716
 10
1706.9097001938462
 20
112.23878796487129
 10
1706.4223380280305
 20
111.01387867884078
 10
1705.900813457882
 20
109.80311992400819
 10
1705.3455367914137
 20
108.60746426147477
 10
1704.756944891007
 20
107.42785237002575
 10
1704.1355008297114
 20
106.26521230605374
 10
1703.4816935269232
 20
105.1204587734131
 10
1702.7960373637293
 20
103.99449240377919
 10
1702.0790717782197
 20
102.8881990480787
 10
1701.3313608410851
 20
101.80244907954913
 10
1700.5534928118377
 20
100.73809670897492
 10
1699.7460796759974
 20
99.69597931263952
 10
1698.9097566636156
 20
98.6769167735219
 10
1698.0451817495089
 20
97.68171083625582
 10
1697.1530351355993
 20
96.71114447635962
 10
1696.2340187157677
 20
95.76598128423227
 10
1694.4680374315355
 20
94.0
 10
1605.0
 20
94.0
 10
1605.0
 20
122.5
  0
CIRCLE
  5
C4
330
17
100
AcDbEntity
  8
CUT
 62
1
100
AcDbCircle
 10
1655.0
 20
114.0
 30
0.0
 40
5.0
  0
CIRCLE
  5
C5
330
17
100
AcDbEntity
  8
CUT
 62
1
100
AcDbCircle
 10
1655.0
 20
144.0
 30
0.0
 40
5.0
  0
CIRCLE
  5
C6
330
17
100
AcDbEntity
  8
CUT
 62
1
100
AcDbCircle
 10
1620.0
 20
114.0
 30
0.0
 40
5.0
  0
CIRCLE
  5
C7
330
17
100
AcDbEntity
  8
CUT
 62
1
100
AcDbCircle
 10
1620.0
 20
144.0
 30
0.0
 40
5.0
  0
LWPOLYLINE
  5
C8
330
17
100
AcDbEntity
  8
CUT
 62
1
100
AcDbPolyline
 90
69
 70
1
 10
1714.0
 20
122.5
 10
1714.0
 20
135.5
 10
1720.5
 20
135.5
 10
1720.5
 20
130.0
 10
1727.5
 20
130.0
 10
1727.5
 20
135.5
 10
1759.0
 20
135.5
 10
1759.0
 20
164.0
 10
1848.4680374315355
 20
164.0
 10
1850.2340187157677
 20
162.23401871576772
 10
1851.1530351355993
 20
161.2888555236404
 10
1852.0451817495089
 20
160.31828916374417
 10
1852.9097566636156
 20
159.3230832264781
 10
1853.7460796759974
 20
158.3040206873605
 10
1854.5534928118377
 20
157.26190329102508
 10
1855.3313608410851
 20
156.19755092045085
 10
1856.0790717782197
 20
155.1118009519213
 10
1856.7960373637293
 20
154.0055075962208
 10
1857.4816935269232
 20
152.8795412265869
 10
1858.1355008297114
 20
151.73478769394626
 10
1858.756944891007
 20
150.57214762997427
 10
1859.3455367914137
 20
149.39253573852523
 10
1859.900813457882
 20
148.19688007599183
 10
1860.4223380280305
 20
146.9861213211592
 10
1860.9097001938462
 20
145.76121203512872
 10
1861.3625165244932
 20
144.52311591189286
 10
1861.7804307679762
 20
143.2728070201519
 10
1862.1631141314197
 20
142.01126903696792
 10
1862.5102655397463
 20
140.73949447385968
 10
1862.8216118725456
 20
139.45848389594678
 10
1863.0969081789517
 20
138.16924513475803
 10
1863.3359378703572
 20
136.8727924953226
 10
1863.5385128908129
 20
135.57014595816847
 10
1863.7044738649824
 20
134.26233037685546
 10
1863.833690223528
 20
132.95037467167464
 10
1863.9260603058374
 20
131.635311020148
 10
1863.9815114400035
 20
130.31817404496584
 10
1864.0
 20
129.0
 10
1863.9815114400035
 20
127.68182595503416
 10
1863.9260603058374
 20
126.36468897985199
 10
1863.833690223528
 20
125.04962532832536
 10
1863.7044738649824
 20
123.73766962314454
 10
1863.5385128908129
 20
122.42985404183153
 10
1863.3359378703572
 20
121.12720750467739
 10
1863.0969081789517
 20
119.83075486524197
 10
1862.8216118725456
 20
118.54151610405323
 10
1862.5102655397463
 20
117.26050552614035
 10
1862.1631141314197
 20
115.98873096303208
 10
1861.7804307679762
 20
114.72719297984811
 10
1861.3625165244932
 20
113.47688408810716
 10
1860.9097001938462
 20
112.23878796487129
 10
1860.4223380280305
 20
111.01387867884078
 10
1859.900813457882
 20
109.80311992400819
 10
1859.3455367914137
 20
108.60746426147477
 10
1858.756944891007
 20
107.42785237002575
 10
1858.1355008297114
 20
106.26521230605374
 10
1857.4816935269232
 20
105.1204587734131
 10
1856.7960373637293
 20
103.99449240377919
 10
1856.0790717782197
 20
102.8881990480787
 10
1855.3313608410851
 20
101.80244907954913
 10
1854.5534928118377
 20
100.73809670897492
 10
1853.7460796759974
 20
99.69597931263952
 10
1852.9097566636156
 20
98.6769167735219
 10
1852.0451817495089
 20
97.68171083625582
 10
1851.1530351355993
 20
96.71114447635962
 10
1850.2340187157677
 20
95.76598128423227
 10
1848.4680374315355
 20
94.0
 10
1759.0
 20
94.0
 10
1759.0
 20
122.5
  0
CIRCLE
  5
C9
330
17
100
AcDbEntity
  8
CUT
 62
1
100
AcDbCircle
 10
1809.0
 20
114.0
 30
0.0
 40
5.0
  0
CIRCLE
  5
CA
330
17
100
AcDbEntity
  8
CUT
 62
1
100
AcDbCircle
 10
1809.0
 20
144.0
 30
0.0
 40
5.0
  0
CIRCLE
  5
CB
330
17
100
AcDbEntity
  8
CUT
 62
1
100
AcDbCircle
 10
1774.0
 20
114.0
 30
0.0
 40
5.0
  0
CIRCLE
  5
CC
330
17
100
AcDbEntity
  8
CUT
 62
1
100
AcDbCircle
 10
1774.0
 20
144.0
 30
0.0
 40
5.0
  0
LWPOLYLINE
  5
CD
330
17
100
AcDbEntity
  8
CUT
 62
1
100
AcDbPolyline
 90
69
 70
1
 10
1868.0
 20
122.5
 10
1868.0
 20
135.5
 10
1874.5
 20
135.5
 10
1874.5
 20
130.0
 10
1881.5
 20
130.0
 10
1881.5
 20
135.5
 10
1913.0
 20
135.5
 10
1913.0
 20
164.0
 10
2002.4680374315355
 20
164.0
 10
2004.2340187157677
 20
162.23401871576772
 10
2005.1530351355993
 20
161.2888555236404
 10
2006.0451817495089
 20
160.31828916374417
 10
2006.9097566636156
 20
159.3230832264781
 10
2007.7460796759974
 20
158.3040206873605
 10
2008.5534928118377
 20
157.26190329102508
 10
2009.3313608410851
 20
156.19755092045085
 10
2010.0790717782197
 20
155.1118009519213
 10
2010.7960373637293
 20
154.0055075962208
 10
2011.4816935269232
 20
152.8795412265869
 10
2012.1355008297114
 20
151.73478769394626
 10
2012.756944891007
 20
150.57214762997427
 10
2013.3455367914137
 20
149.39253573852523
 10
2013.900813457882
 20
148.19688007599183
 10
2014.4223380280305
 20
146.9861213211592
 10
2014.9097001938462
 20
145.76121203512872
 10
2015.3625165244932
 20
144.52311591189286
 10
2015.7804307679762
 20
143.2728070201519
 10
2016.1631141314197
 20
142.01126903696792
 10
2016.5102655397463
 20
140.73949447385968
 10
2016.8216118725456
 20
139.45848389594678
 10
2017.0969081789517
 20
138.16924513475803
 10
2017.3359378703572
 20
136.8727924953226
 10
2017.5385128908129
 20
135.57014595816847
 10
2017.7044738649824
 20
134.26233037685546
 10
2017.833690223528
 20
132.95037467167464
 10
2017.9260603058374
 20
131.635311020148
 10
2017.9815114400035
 20
130.31817404496584
 10
2018.0
 20
129.0
 10
2017.9815114400035
 20
127.68182595503416
 10
2017.9260603058374
 20
126.36468897985199
 10
2017.833690223528
 20
125.04962532832536
 10
2017.7044738649824
 20
123.73766962314454
 10
2017.5385128908129
 20
122.42985404183153
 10
2017.3359378703572
 20
121.12720750467739
 10
2017.0969081789517
 20
119.83075486524197
 10
2016.8216118725456
 20
118.54151610405323
 10
2016.5102655397463
 20
117.26050552614035
 10
2016.1631141314197
 20
115.98873096303208
 10
2015.7804307679762
 20
114.72719297984811
 10
2015.3625165244932
 20
113.47688408810716
 10
2014.9097001938462
 20
112.23878796487129
 10
2014.4223380280305
 20
111.01387867884078
 10
2013.900813457882
 20
109.80311992400819
 10
2013.3455367914137
 20
108.60746426147477
 10
2012.756944891007
 20
107.42785237002575
 10
2012.1355008297114
 20
106.26521230605374
 10
2011.4816935269232
 20
105.1204587734131
 10
2010.7960373637293
 20
103.99449240377919
 10
2010.0790717782197
 20
102.8881990480787
 10
2009.3313608410851
 20
101.80244907954913
 10
2008.5534928118377
 20
100.73809670897492
 10
2007.7460796759974
 20
99.69597931263952
 10
2006.9097566636156
 20
98.6769167735219
 10
2006.0451817495089
 20
97.68171083625582
 10
2005.1530351355993
 20
96.71114447635962
 10
2004.2340187157677
 20
95.76598128423227
 10
2002.4680374315355
 20
94.0
 10
1913.0
 20
94.0
 10
1913.0
 20
122.5
  0
CIRCLE
  5
CE
330
17
100
AcDbEntity
  8
CUT
 62
1
100
AcDbCircle
 10
1963.0
 20
114.0
 30
0.0
 40
5.0
  0
CIRCLE
  5
CF
330
17
100
AcDbEntity
  8
CUT
 62
1
100
AcDbCircle
 10
1963.0
 20
144.0
 30
0.0
 40
5.0
  0
CIRCLE
  5
D0
330
17
100
AcDbEntity
  8
CUT
 62
1
100
AcDbCircle
 10
1928.0
 20
114.0
 30
0.0
 40
5.0
  0
CIRCLE
  5
D1
330
17
100
AcDbEntity
  8
CUT
 62
1
100
AcDbCircle
 10
1928.0
 20
144.0
 30
0.0
 40
5.0
  0
LWPOLYLINE
  5
D2
330
17
100
AcDbEntity
  8
CUT
 62
1
100
AcDbPolyline
 90
69
 70
1
 10
2022.0
 20
122.5
 10
2022.0
 20
135.5
 10
2028.5
 20
135.5
 10
2028.5
 20
130.0
 10
2035.5
 20
130.0
 10
2035.5
 20
135.5
 10
2067.0
 20
135.5
 10
2067.0
 20
164.0
 10
2156.4680374315353
 20
164.0
 10
2158.234018715768
 20
162.23401871576772
 10
2159.153035135599
 20
161.2888555236404
 10
2160.0451817495086
 20
160.31828916374417
 10
2160.9097566636156
 20
159.3230832264781
 10
2161.7460796759974
 20
158.3040206873605
 10
2162.5534928118377
 20
157.26190329102508
 10
2163.3313608410854
 20
156.19755092045085
 10
2164.0790717782197
 20
155.1118009519213
 10
2164.7960373637293
 20
154.0055075962208
 10
2165.481693526923
 20
152.8795412265869
 10
2166.1355008297114
 20
151.73478769394626
 10
2166.756944891007
 20
150.57214762997427
 10
2167.345536791414
 20
149.39253573852523
 10
2167.900813457882
 20
148.19688007599183
 10
2168.4223380280305
 20
146.9861213211592
 10
2168.909700193846
 20
145.76121203512872
 10
2169.3625165244935
 20
144.52311591189286
 10
2169.780430767976
 20
143.2728070201519
 10
2170.1631141314197
 20
142.01126903696792
 10
2170.5102655397463
 20
140.73949447385968
 10
2170.821611872546
 20
139.45848389594678
 10
2171.0969081789517
 20
138.16924513475803
 10
2171.335937870357
 20
136.8727924953226
 10
2171.538512890813
 20
135.57014595816847
 10
2171.7044738649824
 20
134.26233037685546
 10
2171.8336902235283
 20
132.95037467167464
 10
2171.9260603058374
 20
131.635311020148
 10
2171.9815114400035
 20
130.31817404496584
 10
2172.0
 20
129.0
 10
2171.9815114400035
 20
127.68182595503416
 10
2171.9260603058374
 20
126.36468897985199
 10
2171.8336902235283
 20
125.04962532832536
 10
2171.7044738649824
 20
123.73766962314454
 10
2171.538512890813
 20
122.42985404183153
 10
2171.335937870357
 20
121.12720750467739
 10
2171.0969081789517
 20
119.83075486524197
 10
2170.821611872546
 20
118.54151610405323
 10
2170.5102655397463
 20
117.26050552614035
 10
2170.1631141314197
 20
115.98873096303208
 10
2169.780430767976
 20
114.72719297984811
 10
2169.3625165244935
 20
113.47688408810716
 10
2168.909700193846
 20
112.23878796487129
 10
2168.4223380280305
 20
111.01387867884078
 10
2167.900813457882
 20
109.80311992400819
 10
2167.345536791414
 20
108.60746426147477
 10
2166.756944891007
 20
107.42785237002575
 10
2166.1355008297114
 20
106.26521230605374
 10
2165.481693526923
 20
105.1204587734131
 10
2164.7960373637293
 20
103.99449240377919
 10
2164.0790717782197
 20
102.8881990480787
 10
2163.3313608410854
 20
101.80244907954913
 10
2162.5534928118377
 20
100.73809670897492
 10
2161.7460796759974
 20
99.69597931263952
 10
2160.9097566636156
 20
98.6769167735219
 10
2160.0451817495086
 20
97.68171083625582
 10
2159.153035135599
 20
96.71114447635962
 10
2158.234018715768
 20
95.76598128423227
 10
2156.4680374315353
 20
94.0
 10
2067.0
 20
94.0
 10
2067.0
 20
122.5
  0
CIRCLE
  5
D3
330
17
100
AcDbEntity
  8
CUT
 62
1
100
AcDbCircle
 10
2117.0
 20
114.0
 30
0.0
 40
5.0
  0
CIRCLE
  5
D4
330
17
100
AcDbEntity
  8
CUT
 62
1
100
AcDbCircle
 10
2117.0
 20
144.0
 30
0.0
 40
5.0
  0
CIRCLE
  5
D5
330
17
100
AcDbEntity
  8
CUT
 62
1
100
AcDbCircle
 10
2082.0
 20
114.0
 30
0.0
 40
5.0
  0
CIRCLE
  5
D6
330
17
100
AcDbEntity
  8
CUT
 62
1
100
AcDbCircle
 10
2082.0
 20
144.0
 30
0.0
 40
5.0
  0
LWPOLYLINE
  5
D7
330
17
100
AcDbEntity
  8
CUT
 62
1
100
AcDbPolyline
 90
69
 70
1
 10
2176.0
 20
122.5
 10
2176.0
 20
135.5
 10
2182.5
 20
135.5
 10
2182.5
 20
130.0
 10
2189.5
 20
130.0
 10
2189.5
 20
135.5
 10
2221.0
 20
135.5
 10
2221.0
 20
164.0
 10
2310.4680374315353
 20
164.0
 10
2312.234018715768
 20
162.23401871576772
 10
2313.153035135599
 20
161.2888555236404
 10
2314.0451817495086
 20
160.31828916374417
 10
2314.9097566636156
 20
159.3230832264781
 10
2315.7460796759974
 20
158.3040206873605
 10
2316.5534928118377
 20
157.26190329102508
 10
2317.3313608410854
 20
156.19755092045085
 10
2318.0790717782197
 20
155.1118009519213
 10
2318.7960373637293
 20
154.0055075962208
 10
2319.481693526923
 20
152.8795412265869
 10
2320.1355008297114
 20
151.73478769394626
 10
2320.756944891007
 20
150.57214762997427
 10
2321.345536791414
 20
149.39253573852523
 10
2321.900813457882
 20
148.19688007599183
 10
2322.4223380280305
 20
146.9861213211592
 10
2322.909700193846
 20
145.76121203512872
 10
2323.3625165244935
 20
144.52311591189286
 10
2323.780430767976
 20
143.2728070201519
 10
2324.1631141314197
 20
142.01126903696792
 10
2324.5102655397463
 20
140.73949447385968
 10
2324.821611872546
 20
139.45848389594678
 10
2325.0969081789517
 20
138.16924513475803
 10
2325.335937870357
 20
136.8727924953226
 10
2325.538512890813
 20
135.57014595816847
 10
2325.7044738649824
 20
134.26233037685546
 10
2325.8336902235283
 20
132.95037467167464
 10
2325.9260603058374
 20
131.635311020148
 10
2325.9815114400035
 20
130.31817404496584
 10
2326.0
 20
129.0
 10
2325.9815114400035
 20
127.68182595503416
 10
2325.9260603058374
 20
126.36468897985199
 10
2325.8336902235283
 20
125.04962532832536
 10
2325.7044738649824
 20
123.73766962314454
 10
2325.538512890813
 20
122.42985404183153
 10
2325.335937870357
 20
121.12720750467739
 10
2325.0969081789517
 20
119.83075486524197
 10
2324.821611872546
 20
118.54151610405323
 10
2324.5102655397463
 20
117.26050552614035
 10
2324.1631141314197
 20
115.98873096303208
 10
2323.780430767976
 20
114.72719297984811
 10
2323.3625165244935
 20
113.47688408810716
 10
2322.909700193846
 20
112.23878796487129
 10
2322.4223380280305
 20
111.01387867884078
 10
2321.900813457882
 20
109.80311992400819
 10
2321.345536791414
 20
108.60746426147477
 10
2320.756944891007
 20
107.42785237002575
 10
2320.1355008297114
 20
106.26521230605374
 10
2319.481693526923
 20
105.1204587734131
 10
2318.7960373637293
 20
103.99449240377919
 10
2318.0790717782197
 20
102.8881990480787
 10
2317.3313608410854
 20
101.80244907954913
 10
2316.5534928118377
 20
100.73809670897492
 10
2315.7460796759974
 20
99.69597931263952
 10
2314.9097566636156
 20
98.6769167735219
 10
2314.0451817495086
 20
97.68171083625582
 10
2313.153035135599
 20
96.71114447635962
 10
2312.234018715768
 20
95.76598128423227
 10
2310.4680374315353
 20
94.0
 10
2221.0
 20
94.0
 10
2221.0
 20
122.5
  0
CIRCLE
  5
D8
330
17
100
AcDbEntity
  8
CUT
 62
1
100
AcDbCircle
 10
2271.0
 20
114.0
 30
0.0
 40
5.0
  0
CIRCLE
  5
D9
330
17
100
AcDbEntity
  8
CUT
 62
1
100
AcDbCircle
 10
2271.0
 20
144.0
 30
0.0
 40
5.0
  0
CIRCLE
  5
DA
330
17
100
AcDbEntity
  8
CUT
 62
1
100
AcDbCircle
 10
2236.0
 20
114.0
 30
0.0
 40
5.0
  0
CIRCLE
  5
DB
330
17
100
AcDbEntity
  8
CUT
 62
1
100
AcDbCircle
 10
2236.0
 20
144.0
 30
0.0
 40
5.0
  0
LWPOLYLINE
  5
DC
330
17
100
AcDbEntity
  8
CUT
 62
1
100
AcDbPolyline
 90
69
 70
1
 10
2330.0
 20
122.5
 10
2330.0
 20
135.5
 10
2336.5
 20
135.5
 10
2336.5
 20
130.0
 10
2343.5
 20
130.0
 10
2343.5
 20
135.5
 10
2375.0
 20
135.5
 10
2375.0
 20
164.0
 10
2464.4680374315353
 20
164.0
 10
2466.234018715768
 20
162.23401871576772
 10
2467.153035135599
 20
161.2888555236404
 10
2468.0451817495086
 20
160.31828916374417
 10
2468.9097566636156
 20
159.3230832264781
 10
2469.7460796759974
 20
158.3040206873605
 10
2470.5534928118377
 20
157.26190329102508
 10
2471.3313608410854
 20
156.19755092045085
 10
2472.0790717782197
 20
155.1118009519213
 10
2472.7960373637293
 20
154.0055075962208
 10
2473.481693526923
 20
152.8795412265869
 10
2474.1355008297114
 20
151.73478769394626
 10
2474.756944891007
 20
150.57214762997427
 10
2475.345536791414
 20
149.39253573852523
 10
2475.900813457882
 20
148.19688007599183
 10
2476.4223380280305
 20
146.9861213211592
 10
2476.909700193846
 20
145.76121203512872
 10
2477.3625165244935
 20
144.52311591189286
 10
2477.780430767976
 20
143.2728070201519
 10
2478.1631141314197
 20
142.01126903696792
 10
2478.5102655397463
 20
140.73949447385968
 10
2478.821611872546
 20
139.45848389594678
 10
2479.0969081789517
 20
138.16924513475803
 10
2479.335937870357
 20
136.8727924953226
 10
2479.538512890813
 20
135.57014595816847
 10
2479.7044738649824
 20
134.26233037685546
 10
2479.8336902235283
 20
132.95037467167464
 10
2479.9260603058374
 20
131.635311020148
 10
2479.9815114400035
 20
130.31817404496584
 10
2480.0
 20
129.0
 10
2479.9815114400035
 20
127.68182595503416
 10
2479.9260603058374
 20
126.36468897985199
 10
2479.8336902235283
 20
125.04962532832536
 10
2479.7044738649824
 20
123.73766962314454
 10
2479.538512890813
 20
122.42985404183153
 10
2479.335937870357
 20
121.12720750467739
 10
2479.0969081789517
 20
119.83075486524197
 10
2478.821611872546
 20
118.54151610405323
 10
2478.5102655397463
 20
117.26050552614035
 10
2478.1631141314197
 20
115.98873096303208
 10
2477.780430767976
 20
114.72719297984811
 10
2477.3625165244935
 20
113.47688408810716
 10
2476.909700193846
 20
112.23878796487129
 10
2476.4223380280305
 20
111.01387867884078
 10
2475.900813457882
 20
109.80311992400819
 10
2475.345536791414
 20
108.60746426147477
 10
2474.756944891007
 20
107.42785237002575
 10
2474.1355008297114
 20
106.26521230605374
 10
2473.481693526923
 20
105.1204587734131
 10
2472.7960373637293
 20
103.99449240377919
 10
2472.0790717782197
 20
102.8881990480787
 10
2471.3313608410854
 20
101.80244907954913
 10
2470.5534928118377
 20
100.73809670897492
 10
2469.7460796759974
 20
99.69597931263952
 10
2468.9097566636156
 20
98.6769167735219
 10
2468.0451817495086
 20
97.68171083625582
 10
2467.153035135599
 20
96.71114447635962
 10
2466.234018715768
 20
95.76598128423227
 10
2464.4680374315353
 20
94.0
 10
2375.0
 20
94.0
 10
2375.0
 20
122.5
  0
CIRCLE
  5
DD
330
17
100
AcDbEntity
  8
CUT
 62
1
100
AcDbCircle
 10
2425.0
 20
114.0
 30
0.0
 40
5.0
  0
CIRCLE
  5
DE
330
17
100
AcDbEntity
  8
CUT
 62
1
100
AcDbCircle
 10
2425.0
 20
144.0
 30
0.0
 40
5.0
  0
CIRCLE
  5
DF
330
17
100
AcDbEntity
  8
CUT
 62
1
100
AcDbCircle
 10
2390.0
 20
114.0
 30
0.0
 40
5.0
  0
CIRCLE
  5
E0
330
17
100
AcDbEntity
  8
CUT
 62
1
100
AcDbCircle
 10
2390.0
 20
144.0
 30
0.0
 40
5.0
  0
LWPOLYLINE
  5
E1
330
17
100
AcDbEntity
  8
CUT
 62
1
100
AcDbPolyline
 90
69
 70
1
 10
2484.0
 20
122.5
 10
2484.0
 20
135.5
 10
2490.5
 20
135.5
 10
2490.5
 20
130.0
 10
2497.5
 20
130.0
 10
2497.5
 20
135.5
 10
2529.0
 20
135.5
 10
2529.0
 20
164.0
 10
2618.4680374315353
 20
164.0
 10
2620.234018715768
 20
162.23401871576772
 10
2621.153035135599
 20
161.2888555236404
 10
2622.0451817495086
 20
160.31828916374417
 10
2622.9097566636156
 20
159.3230832264781
 10
2623.7460796759974
 20
158.3040206873605
 10
2624.5534928118377
 20
157.26190329102508
 10
2625.3313608410854
 20
156.19755092045085
 10
2626.0790717782197
 20
155.1118009519213
 10
2626.7960373637293
 20
154.0055075962208
 10
2627.481693526923
 20
152.8795412265869
 10
2628.1355008297114
 20
151.73478769394626
 10
2628.756944891007
 20
150.57214762997427
 10
2629.345536791414
 20
149.39253573852523
 10
2629.900813457882
 20
148.19688007599183
 10
2630.4223380280305
 20
146.9861213211592
 10
2630.909700193846
 20
145.76121203512872
 10
2631.3625165244935
 20
144.52311591189286
 10
2631.780430767976
 20
143.2728070201519
 10
2632.1631141314197
 20
142.01126903696792
 10
2632.5102655397463
 20
140.73949447385968
 10
2632.821611872546
 20
139.45848389594678
 10
2633.0969081789517
 20
138.16924513475803
 10
2633.335937870357
 20
136.8727924953226
 10
2633.538512890813
 20
135.57014595816847
 10
2633.7044738649824
 20
134.26233037685546
 10
2633.8336902235283
 20
132.95037467167464
 10
2633.9260603058374
 20
131.635311020148
 10
2633.9815114400035
 20
130.31817404496584
 10
2634.0
 20
129.0
 10
2633.9815114400035
 20
127.68182595503416
 10
2633.9260603058374
 20
126.36468897985199
 10
2633.8336902235283
 20
125.04962532832536
 10
2633.7044738649824
 20
123.73766962314454
 10
2633.538512890813
 20
122.42985404183153
 10
2633.335937870357
 20
121.12720750467739
 10
2633.0969081789517
 20
119.83075486524197
 10
2632.821611872546
 20
118.54151610405323
 10
2632.5102655397463
 20
117.26050552614035
 10
2632.1631141314197
 20
115.98873096303208
 10
2631.780430767976
 20
114.72719297984811
 10
2631.3625165244935
 20
113.47688408810716
 10
2630.909700193846
 20
112.23878796487129
 10
2630.4223380280305
 20
111.01387867884078
 10
2629.900813457882
 20
109.80311992400819
 10
2629.345536791414
 20
108.60746426147477
 10
2628.756944891007
 20
107.42785237002575
 10
2628.1355008297114
 20
106.26521230605374
 10
2627.481693526923
 20
105.1204587734131
 10
2626.7960373637293
 20
103.99449240377919
 10
2626.0790717782197
 20
102.8881990480787
 10
2625.3313608410854
 20
101.80244907954913
 10
2624.5534928118377
 20
100.73809670897492
 10
2623.7460796759974
 20
99.69597931263952
 10
2622.9097566636156
 20
98.6769167735219
 10
2622.0451817495086
 20
97.68171083625582
 10
2621.153035135599
 20
96.71114447635962
 10
2620.234018715768
 20
95.76598128423227
 10
2618.4680374315353
 20
94.0
 10
2529.0
 20
94.0
 10
2529.0
 20
122.5
  0
CIRCLE
  5
E2
330
17
100
AcDbEntity
  8
CUT
 62
1
100
AcDbCircle
 10
2579.0
 20
114.0
 30
0.0
 40
5.0
  0
CIRCLE
  5
E3
330
17
100
AcDbEntity
  8
CUT
 62
1
100
AcDbCircle
 10
2579.0
 20
144.0
 30
0.0
 40
5.0
  0
CIRCLE
  5
E4
330
17
100
AcDbEntity
  8
CUT
 62
1
100
AcDbCircle
 10
2544.0
 20
114.0
 30
0.0
 40
5.0
  0
CIRCLE
  5
E5
330
17
100
AcDbEntity
  8
CUT
 62
1
100
AcDbCircle
 10
2544.0
 20
144.0
 30
0.0
 40
5.0
  0
LWPOLYLINE
  5
E6
330
17
100
AcDbEntity
  8
CUT
 62
1
100
AcDbPolyline
 90
69
 70
1
 10
2638.0
 20
122.5
 10
2638.0
 20
135.5
 10
2644.5
 20
135.5
 10
2644.5
 20
130.0
 10
2651.5
 20
130.0
 10
2651.5
 20
135.5
 10
2683.0
 20
135.5
 10
2683.0
 20
164.0
 10
2772.4680374315353
 20
164.0
 10
2774.234018715768
 20
162.23401871576772
 10
2775.153035135599
 20
161.2888555236404
 10
2776.0451817495086
 20
160.31828916374417
 10
2776.9097566636156
 20
159.3230832264781
 10
2777.7460796759974
 20
158.3040206873605
 10
2778.5534928118377
 20
157.26190329102508
 10
2779.3313608410854
 20
156.19755092045085
 10
2780.0790717782197
 20
155.1118009519213
 10
2780.7960373637293
 20
154.0055075962208
 10
2781.481693526923
 20
152.8795412265869
 10
2782.1355008297114
 20
151.73478769394626
 10
2782.756944891007
 20
150.57214762997427
 10
2783.345536791414
 20
149.39253573852523
 10
2783.900813457882
 20
148.19688007599183
 10
2784.4223380280305
 20
146.9861213211592
 10
2784.909700193846
 20
145.76121203512872
 10
2785.3625165244935
 20
144.52311591189286
 10
2785.780430767976
 20
143.2728070201519
 10
2786.1631141314197
 20
142.01126903696792
 10
2786.5102655397463
 20
140.73949447385968
 10
2786.821611872546
 20
139.45848389594678
 10
2787.0969081789517
 20
138.16924513475803
 10
2787.335937870357
 20
136.8727924953226
 10
2787.538512890813
 20
135.57014595816847
 10
2787.7044738649824
 20
134.26233037685546
 10
2787.8336902235283
 20
132.95037467167464
 10
2787.9260603058374
 20
131.635311020148
 10
2787.9815114400035
 20
130.31817404496584
 10
2788.0
 20
129.0
 10
2787.9815114400035
 20
127.68182595503416
 10
2787.9260603058374
 20
126.36468897985199
 10
2787.8336902235283
 20
125.04962532832536
 10
2787.7044738649824
 20
123.73766962314454
 10
2787.538512890813
 20
122.42985404183153
 10
2787.335937870357
 20
121.12720750467739
 10
2787.0969081789517
 20
119.83075486524197
 10
2786.821611872546
 20
118.54151610405323
 10
2786.5102655397463
 20
117.26050552614035
 10
2786.1631141314197
 20
115.98873096303208
 10
2785.780430767976
 20
114.72719297984811
 10
2785.3625165244935
 20
113.47688408810716
 10
2784.909700193846
 20
112.23878796487129
 10
2784.4223380280305
 20
111.01387867884078
 10
2783.900813457882
 20
109.80311992400819
 10
2783.345536791414
 20
108.60746426147477
 10
2782.756944891007
 20
107.42785237002575
 10
2782.1355008297114
 20
106.26521230605374
 10
2781.481693526923
 20
105.1204587734131
 10
2780.7960373637293
 20
103.99449240377919
 10
2780.0790717782197
 20
102.8881990480787
 10
2779.3313608410854
 20
101.80244907954913
 10
2778.5534928118377
 20
100.73809670897492
 10
2777.7460796759974
 20
99.69597931263952
 10
2776.9097566636156
 20
98.6769167735219
 10
2776.0451817495086
 20
97.68171083625582
 10
2775.153035135599
 20
96.71114447635962
 10
2774.234018715768
 20
95.76598128423227
 10
2772.4680374315353
 20
94.0
 10
2683.0
 20
94.0
 10
2683.0
 20
122.5
  0
CIRCLE
  5
E7
330
17
100
AcDbEntity
  8
CUT
 62
1
100
AcDbCircle
 10
2733.0
 20
114.0
 30
0.0
 40
5.0
  0
CIRCLE
  5
E8
330
17
100
AcDbEntity
  8
CUT
 62
1
100
AcDbCircle
 10
2733.0
 20
144.0
 30
0.0
 40
5.0
  0
CIRCLE
  5
E9
330
17
100
AcDbEntity
  8
CUT
 62
1
100
AcDbCircle
 10
2698.0
 20
114.0
 30
0.0
 40
5.0
  0
CIRCLE
  5
EA
330
17
100
AcDbEntity
  8
CUT
 62
1
100
AcDbCircle
 10
2698.0
 20
144.0
 30
0.0
 40
5.0
  0
LWPOLYLINE
  5
EB
330
17
100
AcDbEntity
  8
CUT
 62
1
100
AcDbPolyline
 90
69
 70
1
 10
2792.0
 20
122.5
 10
2792.0
 20
135.5
 10
2798.5
 20
135.5
 10
2798.5
 20
130.0
 10
2805.5
 20
130.0
 10
2805.5
 20
135.5
 10
2837.0
 20
135.5
 10
2837.0
 20
164.0
 10
2926.4680374315353
 20
164.0
 10
2928.234018715768
 20
162.23401871576772
 10
2929.153035135599
 20
161.2888555236404
 10
2930.0451817495086
 20
160.31828916374417
 10
2930.9097566636156
 20
159.3230832264781
 10
2931.7460796759974
 20
158.3040206873605
 10
2932.5534928118377
 20
157.26190329102508
 10
2933.3313608410854
 20
156.19755092045085
 10
2934.0790717782197
 20
155.1118009519213
 10
2934.7960373637293
 20
154.0055075962208
 10
2935.481693526923
 20
152.8795412265869
 10
2936.1355008297114
 20
151.73478769394626
 10
2936.756944891007
 20
150.57214762997427
 10
2937.345536791414
 20
149.39253573852523
 10
2937.900813457882
 20
148.19688007599183
 10
2938.4223380280305
 20
146.9861213211592
 10
2938.909700193846
 20
145.76121203512872
 10
2939.3625165244935
 20
144.52311591189286
 10
2939.780430767976
 20
143.2728070201519
 10
2940.1631141314197
 20
142.01126903696792
 10
2940.5102655397463
 20
140.73949447385968
 10
2940.821611872546
 20
139.45848389594678
 10
2941.0969081789517
 20
138.16924513475803
 10
2941.335937870357
 20
136.8727924953226
 10
2941.538512890813
 20
135.57014595816847
 10
2941.7044738649824
 20
134.26233037685546
 10
2941.8336902235283
 20
132.95037467167464
 10
2941.9260603058374
 20
131.635311020148
 10
2941.9815114400035
 20
130.31817404496584
 10
2942.0
 20
129.0
 10
2941.9815114400035
 20
127.68182595503416
 10
2941.9260603058374
 20
126.36468897985199
 10
2941.8336902235283
 20
125.04962532832536
 10
2941.7044738649824
 20
123.73766962314454
 10
2941.538512890813
 20
122.42985404183153
 10
2941.335937870357
 20
121.12720750467739
 10
2941.0969081789517
 20
119.83075486524197
 10
2940.821611872546
 20
118.54151610405323
 10
2940.5102655397463
 20
117.26050552614035
 10
2940.1631141314197
 20
115.98873096303208
 10
2939.780430767976
 20
114.72719297984811
 10
2939.3625165244935
 20
113.47688408810716
 10
2938.909700193846
 20
112.23878796487129
 10
2938.4223380280305
 20
111.01387867884078
 10
2937.900813457882
 20
109.80311992400819
 10
2937.345536791414
 20
108.60746426147477
 10
2936.756944891007
 20
107.42785237002575
 10
2936.1355008297114
 20
106.26521230605374
 10
2935.481693526923
 20
105.1204587734131
 10
2934.7960373637293
 20
103.99449240377919
 10
2934.0790717782197
 20
102.8881990480787
 10
2933.3313608410854
 20
101.80244907954913
 10
2932.5534928118377
 20
100.73809670897492
 10
2931.7460796759974
 20
99.69597931263952
 10
2930.9097566636156
 20
98.6769167735219
 10
2930.0451817495086
 20
97.68171083625582
 10
2929.153035135599
 20
96.71114447635962
 10
2928.234018715768
 20
95.76598128423227
 10
2926.4680374315353
 20
94.0
 10
2837.0
 20
94.0
 10
2837.0
 20
122.5
  0
CIRCLE
  5
EC
330
17
100
AcDbEntity
  8
CUT
 62
1
100
AcDbCircle
 10
2887.0
 20
114.0
 30
0.0
 40
5.0
  0
CIRCLE
  5
ED
330
17
100
AcDbEntity
  8
CUT
 62
1
100
AcDbCircle
 10
2887.0
 20
144.0
 30
0.0
 40
5.0
  0
CIRCLE
  5
EE
330
17
100
AcDbEntity
  8
CUT
 62
1
100
AcDbCircle
 10
2852.0
 20
114.0
 30
0.0
 40
5.0
  0
CIRCLE
  5
EF
330
17
100
AcDbEntity
  8
CUT
 62
1
100
AcDbCircle
 10
2852.0
 20
144.0
 30
0.0
 40
5.0
  0
LWPOLYLINE
  5
F0
330
17
100
AcDbEntity
  8
INFO
 62
8
100
AcDbPolyline
 90
4
 70
1
 10
0.0
 20
0.0
 10
3000.0
 20
0.0
 10
3000.0
 20
1500.0
 10
0.0
 20
1500.0
  0
TEXT
  5
F1
330
17
100
AcDbEntity
  8
INFO
 62
7
100
AcDbText
 10
12.0
 20
1518.0
 30
0.0
 40
14.0
  1
R47 Amada nest 38pcs t5 3000x1500 gap4 rot90
 11
12.0
 21
1518.0
 31
0.0
100
AcDbText
  0
ENDSEC
  0
SECTION
  2
OBJECTS
  0
DICTIONARY
  5
A
330
0
100
AcDbDictionary
281
1
  3
ACAD_COLOR
350
B
  3
ACAD_GROUP
350
C
  3
ACAD_LAYOUT
350
D
  3
ACAD_MATERIAL
350
E
  3
ACAD_MLEADERSTYLE
350
F
  3
ACAD_MLINESTYLE
350
10
  3
ACAD_PLOTSETTINGS
350
11
  3
ACAD_PLOTSTYLENAME
350
12
  3
ACAD_SCALELIST
350
14
  3
ACAD_TABLESTYLE
350
15
  3
ACAD_VISUALSTYLE
350
16
  3
EZDXF_META
350
2D
  0
DICTIONARY
  5
B
330
A
100
AcDbDictionary
281
1
  0
DICTIONARY
  5
C
330
A
100
AcDbDictionary
281
1
  0
DICTIONARY
  5
D
330
A
100
AcDbDictionary
281
1
  3
Model
350
1A
  3
Layout1
350
1E
  0
DICTIONARY
  5
E
330
A
100
AcDbDictionary
281
1
  3
ByBlock
350
1F
  3
ByLayer
350
20
  3
Global
350
21
  0
DICTIONARY
  5
F
330
A
100
AcDbDictionary
281
1
  3
Standard
350
2C
  0
DICTIONARY
  5
10
330
A
100
AcDbDictionary
281
1
  3
Standard
350
22
  0
DICTIONARY
  5
11
330
A
100
AcDbDictionary
281
1
  0
ACDBDICTIONARYWDFLT
  5
12
330
A
100
AcDbDictionary
281
1
  3
Normal
350
13
100
AcDbDictionaryWithDefault
340
13
  0
ACDBPLACEHOLDER
  5
13
330
12
  0
DICTIONARY
  5
14
330
A
100
AcDbDictionary
281
1
  0
DICTIONARY
  5
15
330
A
100
AcDbDictionary
281
1
  0
DICTIONARY
  5
16
330
A
100
AcDbDictionary
281
1
  0
LAYOUT
  5
1A
330
D
100
AcDbPlotSettings
  1

  4
A3
  6

 40
7.5
 41
20.0
 42
7.5
 43
20.0
 44
420.0
 45
297.0
 46
0.0
 47
0.0
 48
0.0
 49
0.0
140
0.0
141
0.0
142
1.0
143
1.0
 70
1024
 72
1
 73
0
 74
5
  7

 75
16
 76
0
 77
2
 78
300
147
1.0
148
0.0
149
0.0
100
AcDbLayout
  1
Model
 70
1
 71
0
 10
0.0
 20
0.0
 11
420.0
 21
297.0
 12
0.0
 22
0.0
 32
0.0
 14
1e+20
 24
1e+20
 34
1e+20
 15
-1e+20
 25
-1e+20
 35
-1e+20
146
0.0
 13
0.0
 23
0.0
 33
0.0
 16
1.0
 26
0.0
 36
0.0
 17
0.0
 27
1.0
 37
0.0
 76
1
330
17
  0
LAYOUT
  5
1E
330
D
100
AcDbPlotSettings
  1

  4
A3
  6

 40
7.5
 41
20.0
 42
7.5
 43
20.0
 44
420.0
 45
297.0
 46
0.0
 47
0.0
 48
0.0
 49
0.0
140
0.0
141
0.0
142
1.0
143
1.0
 70
0
 72
1
 73
0
 74
5
  7

 75
16
 76
0
 77
2
 78
300
147
1.0
148
0.0
149
0.0
100
AcDbLayout
  1
Layout1
 70
1
 71
1
 10
0.0
 20
0.0
 11
420.0
 21
297.0
 12
0.0
 22
0.0
 32
0.0
 14
1e+20
 24
1e+20
 34
1e+20
 15
-1e+20
 25
-1e+20
 35
-1e+20
146
0.0
 13
0.0
 23
0.0
 33
0.0
 16
1.0
 26
0.0
 36
0.0
 17
0.0
 27
1.0
 37
0.0
 76
1
330
1B
  0
MATERIAL
  5
1F
102
{ACAD_REACTORS
330
E
102
}
330
E
100
AcDbMaterial
  1
ByBlock
  2

 70
0
 40
1.0
 71
1
 41
1.0
 91
-1023410177
 42
1.0
 72
1
  3

 73
1
 74
1
 75
1
 44
0.5
 73
0
 45
1.0
 46
1.0
 77
1
  4

 78
1
 79
1
170
1
 48
1.0
171
1
  6

172
1
173
1
174
1
140
1.0
141
1.0
175
1
  7

176
1
177
1
178
1
143
1.0
179
1
  8

270
1
271
1
272
1
145
1.0
146
1.0
273
1
  9

274
1
275
1
276
1
 42
1.0
 72
1
  3

 73
1
 74
1
 75
1
 94
63
  0
MATERIAL
  5
20
102
{ACAD_REACTORS
330
E
102
}
330
E
100
AcDbMaterial
  1
ByLayer
  2

 70
0
 40
1.0
 71
1
 41
1.0
 91
-1023410177
 42
1.0
 72
1
  3

 73
1
 74
1
 75
1
 44
0.5
 73
0
 45
1.0
 46
1.0
 77
1
  4

 78
1
 79
1
170
1
 48
1.0
171
1
  6

172
1
173
1
174
1
140
1.0
141
1.0
175
1
  7

176
1
177
1
178
1
143
1.0
179
1
  8

270
1
271
1
272
1
145
1.0
146
1.0
273
1
  9

274
1
275
1
276
1
 42
1.0
 72
1
  3

 73
1
 74
1
 75
1
 94
63
  0
MATERIAL
  5
21
102
{ACAD_REACTORS
330
E
102
}
330
E
100
AcDbMaterial
  1
Global
  2

 70
0
 40
1.0
 71
1
 41
1.0
 91
-1023410177
 42
1.0
 72
1
  3

 73
1
 74
1
 75
1
 44
0.5
 73
0
 45
1.0
 46
1.0
 77
1
  4

 78
1
 79
1
170
1
 48
1.0
171
1
  6

172
1
173
1
174
1
140
1.0
141
1.0
175
1
  7

176
1
177
1
178
1
143
1.0
179
1
  8

270
1
271
1
272
1
145
1.0
146
1.0
273
1
  9

274
1
275
1
276
1
 42
1.0
 72
1
  3

 73
1
 74
1
 75
1
 94
63
  0
MLINESTYLE
  5
22
102
{ACAD_REACTORS
330
10
102
}
330
10
100
AcDbMlineStyle
  2
Standard
 70
0
  3

 62
256
 51
90.0
 52
90.0
 71
2
 49
0.5
 62
256
  6
BYLAYER
 49
-0.5
 62
256
  6
BYLAYER
  0
MLEADERSTYLE
  5
2C
102
{ACAD_REACTORS
330
F
102
}
330
F
100
AcDbMLeaderStyle
179
2
170
2
171
1
172
0
 90
2
 40
0.0
 41
0.0
173
1
 91
-1056964608
 92
-2
290
1
 42
2.0
291
1
 43
8.0
  3
Standard
 44
4.0
300

342
29
174
1
175
1
176
0
178
1
 93
-1056964608
 45
4.0
292
0
297
0
 46
4.0
 94
-1056964608
 47
1.0
 49
1.0
140
1.0
294
1
141
0.0
177
0
142
1.0
295
0
296
0
143
3.75
271
0
272
9
273
9
  0
DICTIONARY
  5
2D
330
A
100
AcDbDictionary
280
1
281
1
  3
CREATED_BY_EZDXF
350
2E
  3
WRITTEN_BY_EZDXF
350
F4
  0
DICTIONARYVAR
  5
2E
330
2D
100
DictionaryVariables
280
0
  1
1.4.4 @ 2026-08-23T12:05:11.227836+00:00
  0
DICTIONARYVAR
  5
F4
330
2D
100
DictionaryVariables
280
0
  1
1.4.4 @ 2026-08-23T12:05:11.237261+00:00
  0
ENDSEC
  0
EOF
