  0
SECTION
  2
HEADER
  9
$ACADVER
  1
AC1024
  9
$ACADMAINTVER
 70
6
  9
$DWGCODEPAGE
  3
ANSI_1252
  9
$LASTSAVEDBY
  1
ezdxf
  9
$INSBASE
 10
0.0
 20
0.0
 30
0.0
  9
$EXTMIN
 10
1e+20
 20
1e+20
 30
1e+20
  9
$EXTMAX
 10
-1e+20
 20
-1e+20
 30
-1e+20
  9
$LIMMIN
 10
0.0
 20
0.0
  9
$LIMMAX
 10
420.0
 20
297.0
  9
$ORTHOMODE
 70
0
  9
$REGENMODE
 70
1
  9
$FILLMODE
 70
1
  9
$QTEXTMODE
 70
0
  9
$MIRRTEXT
 70
1
  9
$LTSCALE
 40
1.0
  9
$ATTMODE
 70
1
  9
$TEXTSIZE
 40
2.5
  9
$TRACEWID
 40
1.0
  9
$TEXTSTYLE
  7
Standard
  9
$CLAYER
  8
0
  9
$CELTYPE
  6
ByLayer
  9
$CECOLOR
 62
256
  9
$CELTSCALE
 40
1.0
  9
$DISPSILH
 70
0
  9
$DIMSCALE
 40
1.0
  9
$DIMASZ
 40
2.5
  9
$DIMEXO
 40
0.625
  9
$DIMDLI
 40
3.75
  9
$DIMRND
 40
0.0
  9
$DIMDLE
 40
0.0
  9
$DIMEXE
 40
1.25
  9
$DIMTP
 40
0.0
  9
$DIMTM
 40
0.0
  9
$DIMTXT
 40
2.5
  9
$DIMCEN
 40
2.5
  9
$DIMTSZ
 40
0.0
  9
$DIMTOL
 70
0
  9
$DIMLIM
 70
0
  9
$DIMTIH
 70
0
  9
$DIMTOH
 70
0
  9
$DIMSE1
 70
0
  9
$DIMSE2
 70
0
  9
$DIMTAD
 70
1
  9
$DIMZIN
 70
8
  9
$DIMBLK
  1

  9
$DIMASO
 70
1
  9
$DIMSHO
 70
1
  9
$DIMPOST
  1

  9
$DIMAPOST
  1

  9
$DIMALT
 70
0
  9
$DIMALTD
 70
3
  9
$DIMALTF
 40
0.03937007874
  9
$DIMLFAC
 40
1.0
  9
$DIMTOFL
 70
1
  9
$DIMTVP
 40
0.0
  9
$DIMTIX
 70
0
  9
$DIMSOXD
 70
0
  9
$DIMSAH
 70
0
  9
$DIMBLK1
  1

  9
$DIMBLK2
  1

  9
$DIMSTYLE
  2
ISO-25
  9
$DIMCLRD
 70
0
  9
$DIMCLRE
 70
0
  9
$DIMCLRT
 70
0
  9
$DIMTFAC
 40
1.0
  9
$DIMGAP
 40
0.625
  9
$DIMJUST
 70
0
  9
$DIMSD1
 70
0
  9
$DIMSD2
 70
0
  9
$DIMTOLJ
 70
0
  9
$DIMTZIN
 70
8
  9
$DIMALTZ
 70
0
  9
$DIMALTTZ
 70
0
  9
$DIMUPT
 70
0
  9
$DIMDEC
 70
2
  9
$DIMTDEC
 70
2
  9
$DIMALTU
 70
2
  9
$DIMALTTD
 70
3
  9
$DIMTXSTY
  7
Standard
  9
$DIMAUNIT
 70
0
  9
$DIMADEC
 70
0
  9
$DIMALTRND
 40
0.0
  9
$DIMAZIN
 70
0
  9
$DIMDSEP
 70
44
  9
$DIMATFIT
 70
3
  9
$DIMFRAC
 70
0
  9
$DIMLDRBLK
  1

  9
$DIMLUNIT
 70
2
  9
$DIMLWD
 70
-2
  9
$DIMLWE
 70
-2
  9
$DIMTMOVE
 70
0
  9
$DIMFXL
 40
1.0
  9
$DIMFXLON
 70
0
  9
$DIMJOGANG
 40
0.785398163397
  9
$DIMTFILL
 70
0
  9
$DIMTFILLCLR
 70
0
  9
$DIMARCSYM
 70
0
  9
$DIMLTYPE
  6

  9
$DIMLTEX1
  6

  9
$DIMLTEX2
  6

  9
$DIMTXTDIRECTION
 70
0
  9
$LUNITS
 70
2
  9
$LUPREC
 70
4
  9
$SKETCHINC
 40
1.0
  9
$FILLETRAD
 40
10.0
  9
$AUNITS
 70
0
  9
$AUPREC
 70
2
  9
$MENU
  1
.
  9
$ELEVATION
 40
0.0
  9
$PELEVATION
 40
0.0
  9
$THICKNESS
 40
0.0
  9
$LIMCHECK
 70
0
  9
$CHAMFERA
 40
0.0
  9
$CHAMFERB
 40
0.0
  9
$CHAMFERC
 40
0.0
  9
$CHAMFERD
 40
0.0
  9
$SKPOLY
 70
0
  9
$TDCREATE
 40
2461252.538900463
  9
$TDUCREATE
 40
2458532.153996898
  9
$TDUPDATE
 40
2461252.538900463
  9
$TDUUPDATE
 40
2458532.1544311
  9
$TDINDWG
 40
0.0
  9
$TDUSRTIMER
 40
0.0
  9
$USRTIMER
 70
1
  9
$ANGBASE
 50
0.0
  9
$ANGDIR
 70
0
  9
$PDMODE
 70
0
  9
$PDSIZE
 40
0.0
  9
$PLINEWID
 40
0.0
  9
$SPLFRAME
 70
0
  9
$SPLINETYPE
 70
6
  9
$SPLINESEGS
 70
8
  9
$HANDSEED
  5
D7
  9
$SURFTAB1
 70
6
  9
$SURFTAB2
 70
6
  9
$SURFTYPE
 70
6
  9
$SURFU
 70
6
  9
$SURFV
 70
6
  9
$UCSBASE
  2

  9
$UCSNAME
  2

  9
$UCSORG
 10
0.0
 20
0.0
 30
0.0
  9
$UCSXDIR
 10
1.0
 20
0.0
 30
0.0
  9
$UCSYDIR
 10
0.0
 20
1.0
 30
0.0
  9
$UCSORTHOREF
  2

  9
$UCSORTHOVIEW
 70
0
  9
$UCSORGTOP
 10
0.0
 20
0.0
 30
0.0
  9
$UCSORGBOTTOM
 10
0.0
 20
0.0
 30
0.0
  9
$UCSORGLEFT
 10
0.0
 20
0.0
 30
0.0
  9
$UCSORGRIGHT
 10
0.0
 20
0.0
 30
0.0
  9
$UCSORGFRONT
 10
0.0
 20
0.0
 30
0.0
  9
$UCSORGBACK
 10
0.0
 20
0.0
 30
0.0
  9
$PUCSBASE
  2

  9
$PUCSNAME
  2

  9
$PUCSORG
 10
0.0
 20
0.0
 30
0.0
  9
$PUCSXDIR
 10
1.0
 20
0.0
 30
0.0
  9
$PUCSYDIR
 10
0.0
 20
1.0
 30
0.0
  9
$PUCSORTHOREF
  2

  9
$PUCSORTHOVIEW
 70
0
  9
$PUCSORGTOP
 10
0.0
 20
0.0
 30
0.0
  9
$PUCSORGBOTTOM
 10
0.0
 20
0.0
 30
0.0
  9
$PUCSORGLEFT
 10
0.0
 20
0.0
 30
0.0
  9
$PUCSORGRIGHT
 10
0.0
 20
0.0
 30
0.0
  9
$PUCSORGFRONT
 10
0.0
 20
0.0
 30
0.0
  9
$PUCSORGBACK
 10
0.0
 20
0.0
 30
0.0
  9
$USERI1
 70
0
  9
$USERI2
 70
0
  9
$USERI3
 70
0
  9
$USERI4
 70
0
  9
$USERI5
 70
0
  9
$USERR1
 40
0.0
  9
$USERR2
 40
0.0
  9
$USERR3
 40
0.0
  9
$USERR4
 40
0.0
  9
$USERR5
 40
0.0
  9
$WORLDVIEW
 70
1
  9
$SHADEDGE
 70
3
  9
$SHADEDIF
 70
70
  9
$TILEMODE
 70
1
  9
$MAXACTVP
 70
64
  9
$PINSBASE
 10
0.0
 20
0.0
 30
0.0
  9
$PLIMCHECK
 70
0
  9
$PEXTMIN
 10
1e+20
 20
1e+20
 30
1e+20
  9
$PEXTMAX
 10
-1e+20
 20
-1e+20
 30
-1e+20
  9
$PLIMMIN
 10
0.0
 20
0.0
  9
$PLIMMAX
 10
420.0
 20
297.0
  9
$UNITMODE
 70
0
  9
$VISRETAIN
 70
1
  9
$PLINEGEN
 70
0
  9
$PSLTSCALE
 70
1
  9
$TREEDEPTH
 70
3020
  9
$CMLSTYLE
  2
Standard
  9
$CMLJUST
 70
0
  9
$CMLSCALE
 40
20.0
  9
$PROXYGRAPHICS
 70
1
  9
$MEASUREMENT
 70
1
  9
$CELWEIGHT
370
-1
  9
$ENDCAPS
280
0
  9
$JOINSTYLE
280
0
  9
$LWDISPLAY
290
0
  9
$INSUNITS
 70
4
  9
$HYPERLINKBASE
  1

  9
$STYLESHEET
  1

  9
$XEDIT
290
1
  9
$CEPSNTYPE
380
0
  9
$PSTYLEMODE
290
1
  9
$FINGERPRINTGUID
  2
{30DF7E15-4FA7-4292-8BCE-55850ED9D4F7}
  9
$VERSIONGUID
  2
{EF679EB8-79C5-4044-A2EF-D3F713FFDCBA}
  9
$EXTNAMES
290
1
  9
$PSVPSCALE
 40
0.0
  9
$OLESTARTUP
290
0
  9
$SORTENTS
280
127
  9
$INDEXCTL
280
0
  9
$HIDETEXT
280
1
  9
$XCLIPFRAME
280
1
  9
$HALOGAP
280
0
  9
$OBSCOLOR
 70
257
  9
$OBSLTYPE
280
0
  9
$INTERSECTIONDISPLAY
280
0
  9
$INTERSECTIONCOLOR
 70
257
  9
$DIMASSOC
280
2
  9
$PROJECTNAME
  1

  9
$CAMERADISPLAY
290
0
  9
$LENSLENGTH
 40
50.0
  9
$CAMERAHEIGHT
 40
0.0
  9
$STEPSPERSEC
 40
24.0
  9
$STEPSIZE
 40
100.0
  9
$3DDWFPREC
 40
2.0
  9
$PSOLWIDTH
 40
0.005
  9
$PSOLHEIGHT
 40
0.08
  9
$LOFTANG1
 40
1.570796326795
  9
$LOFTANG2
 40
1.570796326795
  9
$LOFTMAG1
 40
0.0
  9
$LOFTMAG2
 40
0.0
  9
$LOFTPARAM
 70
7
  9
$LOFTNORMALS
280
1
  9
$LATITUDE
 40
37.795
  9
$LONGITUDE
 40
-122.394
  9
$NORTHDIRECTION
 40
0.0
  9
$TIMEZONE
 70
-8000
  9
$LIGHTGLYPHDISPLAY
280
1
  9
$TILEMODELIGHTSYNCH
280
1
  9
$CMATERIAL
347
20
  9
$SOLIDHIST
280
0
  9
$SHOWHIST
280
1
  9
$DWFFRAME
280
2
  9
$DGNFRAME
280
2
  9
$REALWORLDSCALE
290
1
  9
$INTERFERECOLOR
 62
256
  9
$CSHADOW
280
0
  9
$SHADOWPLANELOCATION
 40
0.0
  0
ENDSEC
  0
SECTION
  2
CLASSES
  0
CLASS
  1
ACDBDICTIONARYWDFLT
  2
AcDbDictionaryWithDefault
  3
ObjectDBX Classes
 90
0
 91
0
280
0
281
0
  0
CLASS
  1
SUN
  2
AcDbSun
  3
SCENEOE
 90
1153
 91
0
280
0
281
0
  0
CLASS
  1
VISUALSTYLE
  2
AcDbVisualStyle
  3
ObjectDBX Classes
 90
4095
 91
0
280
0
281
0
  0
CLASS
  1
MATERIAL
  2
AcDbMaterial
  3
ObjectDBX Classes
 90
1153
 91
0
280
0
281
0
  0
CLASS
  1
SCALE
  2
AcDbScale
  3
ObjectDBX Classes
 90
1153
 91
0
280
0
281
0
  0
CLASS
  1
TABLESTYLE
  2
AcDbTableStyle
  3
ObjectDBX Classes
 90
4095
 91
0
280
0
281
0
  0
CLASS
  1
MLEADERSTYLE
  2
AcDbMLeaderStyle
  3
ACDB_MLEADERSTYLE_CLASS
 90
4095
 91
0
280
0
281
0
  0
CLASS
  1
DICTIONARYVAR
  2
AcDbDictionaryVar
  3
ObjectDBX Classes
 90
0
 91
0
280
0
281
0
  0
CLASS
  1
CELLSTYLEMAP
  2
AcDbCellStyleMap
  3
ObjectDBX Classes
 90
1152
 91
0
280
0
281
0
  0
CLASS
  1
MENTALRAYRENDERSETTINGS
  2
AcDbMentalRayRenderSettings
  3
SCENEOE
 90
1024
 91
0
280
0
281
0
  0
CLASS
  1
ACDBDETAILVIEWSTYLE
  2
AcDbDetailViewStyle
  3
ObjectDBX Classes
 90
1025
 91
0
280
0
281
0
  0
CLASS
  1
ACDBSECTIONVIEWSTYLE
  2
AcDbSectionViewStyle
  3
ObjectDBX Classes
 90
1025
 91
0
280
0
281
0
  0
CLASS
  1
RASTERVARIABLES
  2
AcDbRasterVariables
  3
ISM
 90
0
 91
0
280
0
281
0
  0
CLASS
  1
ACDBPLACEHOLDER
  2
AcDbPlaceHolder
  3
ObjectDBX Classes
 90
0
 91
0
280
0
281
0
  0
CLASS
  1
LAYOUT
  2
AcDbLayout
  3
ObjectDBX Classes
 90
0
 91
0
280
0
281
0
  0
ENDSEC
  0
SECTION
  2
TABLES
  0
TABLE
  2
VPORT
  5
8
330
0
100
AcDbSymbolTable
 70
1
  0
VPORT
  5
23
330
8
100
AcDbSymbolTableRecord
100
AcDbViewportTableRecord
  2
*Active
 70
0
 10
0.0
 20
0.0
 11
1.0
 21
1.0
 12
0.0
 22
0.0
 13
0.0
 23
0.0
 14
0.5
 24
0.5
 15
0.5
 25
0.5
 16
0.0
 26
0.0
 36
1.0
 17
0.0
 27
0.0
 37
0.0
 40
1000.0
 41
1.34
 42
50.0
 43
0.0
 44
0.0
 50
0.0
 51
0.0
 71
0
 72
1000
 73
1
 74
3
 75
0
 76
0
 77
0
 78
0
281
0
 65
0
146
0.0
  0
ENDTAB
  0
TABLE
  2
LTYPE
  5
2
330
0
100
AcDbSymbolTable
 70
3
  0
LTYPE
  5
24
330
2
100
AcDbSymbolTableRecord
100
AcDbLinetypeTableRecord
  2
ByBlock
 70
0
  3

 72
65
 73
0
 40
0.0
  0
LTYPE
  5
25
330
2
100
AcDbSymbolTableRecord
100
AcDbLinetypeTableRecord
  2
ByLayer
 70
0
  3

 72
65
 73
0
 40
0.0
  0
LTYPE
  5
26
330
2
100
AcDbSymbolTableRecord
100
AcDbLinetypeTableRecord
  2
Continuous
 70
0
  3

 72
65
 73
0
 40
0.0
  0
ENDTAB
  0
TABLE
  2
LAYER
  5
1
330
0
100
AcDbSymbolTable
 70
5
  0
LAYER
  5
27
330
1
100
AcDbSymbolTableRecord
100
AcDbLayerTableRecord
  2
0
 70
0
 62
7
  6
Continuous
370
-3
390
13
347
21
  0
LAYER
  5
28
330
1
100
AcDbSymbolTableRecord
100
AcDbLayerTableRecord
  2
Defpoints
 70
0
 62
7
  6
Continuous
290
0
370
-3
390
13
347
21
  0
LAYER
  5
2F
330
1
100
AcDbSymbolTableRecord
100
AcDbLayerTableRecord
  2
CUT
 70
0
 62
1
  6
Continuous
370
-3
390
13
347
21
  0
LAYER
  5
30
330
1
100
AcDbSymbolTableRecord
100
AcDbLayerTableRecord
  2
ENGRAVE
 70
0
 62
3
  6
Continuous
370
-3
390
13
347
21
  0
LAYER
  5
31
330
1
100
AcDbSymbolTableRecord
100
AcDbLayerTableRecord
  2
INFO
 70
0
 62
7
  6
Continuous
370
-3
390
13
347
21
  0
ENDTAB
  0
TABLE
  2
STYLE
  5
5
330
0
100
AcDbSymbolTable
 70
1
  0
STYLE
  5
29
330
5
100
AcDbSymbolTableRecord
100
AcDbTextStyleTableRecord
  2
Standard
 70
0
 40
0.0
 41
1.0
 50
0.0
 71
0
 42
2.5
  3
txt
  4

  0
ENDTAB
  0
TABLE
  2
VIEW
  5
7
330
0
100
AcDbSymbolTable
 70
0
  0
ENDTAB
  0
TABLE
  2
UCS
  5
6
330
0
100
AcDbSymbolTable
 70
0
  0
ENDTAB
  0
TABLE
  2
APPID
  5
3
330
0
100
AcDbSymbolTable
 70
3
  0
APPID
  5
2A
330
3
100
AcDbSymbolTableRecord
100
AcDbRegAppTableRecord
  2
ACAD
 70
0
  0
APPID
  5
D4
330
3
100
AcDbSymbolTableRecord
100
AcDbRegAppTableRecord
  2
HATCHBACKGROUNDCOLOR
 70
0
  0
APPID
  5
D5
330
3
100
AcDbSymbolTableRecord
100
AcDbRegAppTableRecord
  2
EZDXF
 70
0
  0
ENDTAB
  0
TABLE
  2
DIMSTYLE
  5
4
330
0
100
AcDbSymbolTable
 70
1
100
AcDbDimStyleTable
  0
DIMSTYLE
105
2B
330
4
100
AcDbSymbolTableRecord
100
AcDbDimStyleTableRecord
  2
Standard
 70
0
 40
1.0
 41
2.5
 42
0.625
 43
3.75
 44
1.25
 45
0.0
 46
0.0
 47
0.0
 48
0.0
 49
2.5
140
2.5
141
2.5
142
0.0
143
0.03937007874
144
1.0
145
0.0
146
1.0
147
0.625
148
0.0
 69
0
 70
0
 71
0
 72
0
 73
0
 74
0
 75
0
 76
0
 77
1
 78
8
 79
3
170
0
171
3
172
1
173
0
174
0
175
0
176
0
177
0
178
0
179
2
271
2
272
2
273
2
274
3
275
0
276
0
277
2
278
44
279
0
280
0
281
0
282
0
283
0
284
8
285
0
286
0
288
0
289
3
290
0
371
-2
372
-2
  0
ENDTAB
  0
TABLE
  2
BLOCK_RECORD
  5
9
330
0
100
AcDbSymbolTable
 70
2
  0
BLOCK_RECORD
  5
17
330
9
100
AcDbSymbolTableRecord
100
AcDbBlockTableRecord
  2
*Model_Space
340
1A
 70
0
280
1
281
0
  0
BLOCK_RECORD
  5
1B
330
9
100
AcDbSymbolTableRecord
100
AcDbBlockTableRecord
  2
*Paper_Space
340
1E
 70
0
280
1
281
0
  0
ENDTAB
  0
ENDSEC
  0
SECTION
  2
BLOCKS
  0
BLOCK
  5
18
330
17
100
AcDbEntity
  8
0
100
AcDbBlockBegin
  2
*Model_Space
 70
0
 10
0.0
 20
0.0
 30
0.0
  3
*Model_Space
  1

  0
ENDBLK
  5
19
330
17
100
AcDbEntity
  8
0
100
AcDbBlockEnd
  0
BLOCK
  5
1C
330
1B
100
AcDbEntity
  8
0
100
AcDbBlockBegin
  2
*Paper_Space
 70
0
 10
0.0
 20
0.0
 30
0.0
  3
*Paper_Space
  1

  0
ENDBLK
  5
1D
330
1B
100
AcDbEntity
  8
0
100
AcDbBlockEnd
  0
ENDSEC
  0
SECTION
  2
ENTITIES
  0
LWPOLYLINE
  5
32
330
17
100
AcDbEntity
  8
CUT
 62
1
100
AcDbPolyline
 90
53
 70
1
 10
0.0
 20
120.0
 10
80.0
 20
120.0
 10
80.0
 20
20.531962568464536
 10
73.23401871576773
 20
13.765981284232264
 10
72.12883819507496
 20
12.696388583201724
 10
70.98925330970323
 20
11.663529048488066
 10
69.81648435569133
 20
10.66850869195136
 10
68.61178716340987
 20
9.712393006311949
 10
67.37645175278669
 20
8.796205824194082
 10
66.11180095192131
 20
7.920928221780372
 10
64.8191889805673
 20
7.087497468250795
 10
63.5
 20
6.296806022131385
 10
62.1556466308219
 20
5.54970057562732
 10
60.78756844029306
 20
4.846981147963646
 10
59.39723040080655
 20
4.189400228704741
 10
57.98612132115922
 20
3.577661971969526
 10
56.55575225229798
 20
3.012421442405696
 10
55.1076548692486
 20
2.4942839137300368
 10
53.64337983095973
 20
2.023804220586179
 10
52.16449511981848
 20
1.6014861644137923
 10
50.67258436261554
 20
1.227781973965321
 10
49.16924513475803
 20
0.9030918210481715
 10
47.65608724954568
 20
0.6277633920106851
 10
46.13473103434242
 20
0.4020915154309108
 10
44.606805595489355
 20
0.2263178464067508
 10
43.073947073816726
 20
0.10063060778563937
 10
41.53779689262348
 20
0.025164388610811272
 10
40.0
 20
0.0
 10
38.46220310737652
 20
0.025164388610811272
 10
36.92605292618328
 20
0.10063060778563937
 10
35.39319440451065
 20
0.22631784640674368
 10
33.86526896565758
 20
0.4020915154309108
 10
32.34391275045433
 20
0.6277633920106851
 10
30.830754865241975
 20
0.9030918210481715
 10
29.327415637384462
 20
1.227781973965321
 10
27.83550488018153
 20
1.6014861644137923
 10
26.356620169040276
 20
2.023804220586179
 10
24.892345130751405
 20
2.4942839137300297
 10
23.444247747702025
 20
3.0124214424056888
 10
22.013878678840783
 20
3.577661971969526
 10
20.602769599193454
 20
4.189400228704734
 10
19.212431559706946
 20
4.846981147963646
 10
17.84435336917811
 20
5.549700575627313
 10
16.49999999999999
 20
6.296806022131392
 10
15.180811019432703
 20
7.087497468250795
 10
13.888199048078707
 20
7.920928221780365
 10
12.623548247213304
 20
8.796205824194082
 10
11.388212836590128
 20
9.712393006311949
 10
10.183515644308667
 20
10.66850869195136
 10
9.010746690296763
 20
11.663529048488066
 10
7.871161804925059
 20
12.696388583201717
 10
6.765981284232268
 20
13.765981284232264
 10
0.0
 20
20.531962568464536
  0
CIRCLE
  5
33
330
17
100
AcDbEntity
  8
CUT
 62
1
100
AcDbCircle
 10
22.0
 20
55.0
 30
0.0
 40
5.0
  0
CIRCLE
  5
34
330
17
100
AcDbEntity
  8
CUT
 62
1
100
AcDbCircle
 10
58.0
 20
55.0
 30
0.0
 40
5.0
  0
CIRCLE
  5
35
330
17
100
AcDbEntity
  8
CUT
 62
1
100
AcDbCircle
 10
22.0
 20
95.0
 30
0.0
 40
5.0
  0
CIRCLE
  5
36
330
17
100
AcDbEntity
  8
CUT
 62
1
100
AcDbCircle
 10
58.0
 20
95.0
 30
0.0
 40
5.0
  0
LWPOLYLINE
  5
37
330
17
100
AcDbEntity
  8
CUT
 62
1
100
AcDbPolyline
 90
53
 70
1
 10
83.0
 20
120.0
 10
163.0
 20
120.0
 10
163.0
 20
20.531962568464536
 10
156.23401871576772
 20
13.765981284232264
 10
155.12883819507496
 20
12.696388583201724
 10
153.98925330970323
 20
11.663529048488066
 10
152.81648435569133
 20
10.66850869195136
 10
151.61178716340987
 20
9.712393006311949
 10
150.3764517527867
 20
8.796205824194082
 10
149.1118009519213
 20
7.920928221780372
 10
147.8191889805673
 20
7.087497468250795
 10
146.5
 20
6.296806022131385
 10
145.1556466308219
 20
5.54970057562732
 10
143.78756844029306
 20
4.846981147963646
 10
142.39723040080656
 20
4.189400228704741
 10
140.98612132115923
 20
3.577661971969526
 10
139.55575225229796
 20
3.012421442405696
 10
138.1076548692486
 20
2.4942839137300368
 10
136.64337983095973
 20
2.023804220586179
 10
135.1644951198185
 20
1.6014861644137923
 10
133.67258436261554
 20
1.227781973965321
 10
132.16924513475803
 20
0.9030918210481715
 10
130.65608724954566
 20
0.6277633920106851
 10
129.13473103434242
 20
0.4020915154309108
 10
127.60680559548936
 20
0.2263178464067508
 10
126.07394707381673
 20
0.10063060778563937
 10
124.53779689262348
 20
0.025164388610811272
 10
123.0
 20
0.0
 10
121.46220310737651
 20
0.025164388610811272
 10
119.92605292618329
 20
0.10063060778563937
 10
118.39319440451065
 20
0.22631784640674368
 10
116.86526896565758
 20
0.4020915154309108
 10
115.34391275045434
 20
0.6277633920106851
 10
113.83075486524197
 20
0.9030918210481715
 10
112.32741563738446
 20
1.227781973965321
 10
110.83550488018153
 20
1.6014861644137923
 10
109.35662016904028
 20
2.023804220586179
 10
107.89234513075141
 20
2.4942839137300297
 10
106.44424774770202
 20
3.0124214424056888
 10
105.01387867884078
 20
3.577661971969526
 10
103.60276959919345
 20
4.189400228704734
 10
102.21243155970694
 20
4.846981147963646
 10
100.84435336917811
 20
5.549700575627313
 10
99.49999999999999
 20
6.296806022131392
 10
98.1808110194327
 20
7.087497468250795
 10
96.8881990480787
 20
7.920928221780365
 10
95.62354824721331
 20
8.796205824194082
 10
94.38821283659013
 20
9.712393006311949
 10
93.18351564430867
 20
10.66850869195136
 10
92.01074669029677
 20
11.663529048488066
 10
90.87116180492507
 20
12.696388583201717
 10
89.76598128423227
 20
13.765981284232264
 10
83.0
 20
20.531962568464536
  0
CIRCLE
  5
38
330
17
100
AcDbEntity
  8
CUT
 62
1
100
AcDbCircle
 10
105.0
 20
55.0
 30
0.0
 40
5.0
  0
CIRCLE
  5
39
330
17
100
AcDbEntity
  8
CUT
 62
1
100
AcDbCircle
 10
141.0
 20
55.0
 30
0.0
 40
5.0
  0
CIRCLE
  5
3A
330
17
100
AcDbEntity
  8
CUT
 62
1
100
AcDbCircle
 10
105.0
 20
95.0
 30
0.0
 40
5.0
  0
CIRCLE
  5
3B
330
17
100
AcDbEntity
  8
CUT
 62
1
100
AcDbCircle
 10
141.0
 20
95.0
 30
0.0
 40
5.0
  0
LWPOLYLINE
  5
3C
330
17
100
AcDbEntity
  8
CUT
 62
1
100
AcDbPolyline
 90
53
 70
1
 10
166.0
 20
120.0
 10
246.0
 20
120.0
 10
246.0
 20
20.531962568464536
 10
239.23401871576772
 20
13.765981284232264
 10
238.12883819507496
 20
12.696388583201724
 10
236.98925330970323
 20
11.663529048488066
 10
235.81648435569133
 20
10.66850869195136
 10
234.61178716340987
 20
9.712393006311949
 10
233.3764517527867
 20
8.796205824194082
 10
232.1118009519213
 20
7.920928221780372
 10
230.8191889805673
 20
7.087497468250795
 10
229.5
 20
6.296806022131385
 10
228.1556466308219
 20
5.54970057562732
 10
226.78756844029306
 20
4.846981147963646
 10
225.39723040080656
 20
4.189400228704741
 10
223.98612132115923
 20
3.577661971969526
 10
222.55575225229796
 20
3.012421442405696
 10
221.1076548692486
 20
2.4942839137300368
 10
219.64337983095973
 20
2.023804220586179
 10
218.1644951198185
 20
1.6014861644137923
 10
216.67258436261554
 20
1.227781973965321
 10
215.16924513475803
 20
0.9030918210481715
 10
213.65608724954566
 20
0.6277633920106851
 10
212.13473103434242
 20
0.4020915154309108
 10
210.60680559548936
 20
0.2263178464067508
 10
209.07394707381673
 20
0.10063060778563937
 10
207.53779689262348
 20
0.025164388610811272
 10
206.0
 20
0.0
 10
204.46220310737652
 20
0.025164388610811272
 10
202.92605292618327
 20
0.10063060778563937
 10
201.39319440451064
 20
0.22631784640674368
 10
199.86526896565758
 20
0.4020915154309108
 10
198.34391275045434
 20
0.6277633920106851
 10
196.83075486524197
 20
0.9030918210481715
 10
195.32741563738446
 20
1.227781973965321
 10
193.83550488018153
 20
1.6014861644137923
 10
192.35662016904027
 20
2.023804220586179
 10
190.8923451307514
 20
2.4942839137300297
 10
189.44424774770204
 20
3.0124214424056888
 10
188.0138786788408
 20
3.577661971969526
 10
186.60276959919346
 20
4.189400228704734
 10
185.21243155970694
 20
4.846981147963646
 10
183.84435336917812
 20
5.549700575627313
 10
182.5
 20
6.296806022131392
 10
181.1808110194327
 20
7.087497468250795
 10
179.88819904807872
 20
7.920928221780365
 10
178.6235482472133
 20
8.796205824194082
 10
177.38821283659013
 20
9.712393006311949
 10
176.18351564430867
 20
10.66850869195136
 10
175.01074669029677
 20
11.663529048488066
 10
173.87116180492507
 20
12.696388583201717
 10
172.76598128423228
 20
13.765981284232264
 10
166.0
 20
20.531962568464536
  0
CIRCLE
  5
3D
330
17
100
AcDbEntity
  8
CUT
 62
1
100
AcDbCircle
 10
188.0
 20
55.0
 30
0.0
 40
5.0
  0
CIRCLE
  5
3E
330
17
100
AcDbEntity
  8
CUT
 62
1
100
AcDbCircle
 10
224.0
 20
55.0
 30
0.0
 40
5.0
  0
CIRCLE
  5
3F
330
17
100
AcDbEntity
  8
CUT
 62
1
100
AcDbCircle
 10
188.0
 20
95.0
 30
0.0
 40
5.0
  0
CIRCLE
  5
40
330
17
100
AcDbEntity
  8
CUT
 62
1
100
AcDbCircle
 10
224.0
 20
95.0
 30
0.0
 40
5.0
  0
LWPOLYLINE
  5
41
330
17
100
AcDbEntity
  8
CUT
 62
1
100
AcDbPolyline
 90
53
 70
1
 10
249.0
 20
120.0
 10
329.0
 20
120.0
 10
329.0
 20
20.531962568464536
 10
322.2340187157677
 20
13.765981284232264
 10
321.12883819507493
 20
12.696388583201724
 10
319.98925330970326
 20
11.663529048488066
 10
318.81648435569133
 20
10.66850869195136
 10
317.6117871634099
 20
9.712393006311949
 10
316.3764517527867
 20
8.796205824194082
 10
315.1118009519213
 20
7.920928221780372
 10
313.8191889805673
 20
7.087497468250795
 10
312.5
 20
6.296806022131385
 10
311.1556466308219
 20
5.54970057562732
 10
309.78756844029306
 20
4.846981147963646
 10
308.39723040080656
 20
4.189400228704741
 10
306.9861213211592
 20
3.577661971969526
 10
305.55575225229796
 20
3.012421442405696
 10
304.1076548692486
 20
2.4942839137300368
 10
302.6433798309597
 20
2.023804220586179
 10
301.16449511981847
 20
1.6014861644137923
 10
299.67258436261557
 20
1.227781973965321
 10
298.16924513475806
 20
0.9030918210481715
 10
296.6560872495457
 20
0.6277633920106851
 10
295.1347310343424
 20
0.4020915154309108
 10
293.60680559548933
 20
0.2263178464067508
 10
292.0739470738167
 20
0.10063060778563937
 10
290.5377968926235
 20
0.025164388610811272
 10
289.0
 20
0.0
 10
287.4622031073765
 20
0.025164388610811272
 10
285.9260529261833
 20
0.10063060778563937
 10
284.39319440451067
 20
0.22631784640674368
 10
282.86526896565755
 20
0.4020915154309108
 10
281.3439127504543
 20
0.6277633920106851
 10
279.830754865242
 20
0.9030918210481715
 10
278.3274156373845
 20
1.227781973965321
 10
276.83550488018153
 20
1.6014861644137923
 10
275.3566201690403
 20
2.023804220586179
 10
273.8923451307514
 20
2.4942839137300297
 10
272.44424774770204
 20
3.0124214424056888
 10
271.0138786788408
 20
3.577661971969526
 10
269.60276959919344
 20
4.189400228704734
 10
268.21243155970694
 20
4.846981147963646
 10
266.8443533691781
 20
5.549700575627313
 10
265.5
 20
6.296806022131392
 10
264.1808110194327
 20
7.087497468250795
 10
262.8881990480787
 20
7.920928221780365
 10
261.6235482472133
 20
8.796205824194082
 10
260.3882128365901
 20
9.712393006311949
 10
259.18351564430867
 20
10.66850869195136
 10
258.01074669029674
 20
11.663529048488066
 10
256.87116180492507
 20
12.696388583201717
 10
255.76598128423228
 20
13.765981284232264
 10
249.0
 20
20.531962568464536
  0
CIRCLE
  5
42
330
17
100
AcDbEntity
  8
CUT
 62
1
100
AcDbCircle
 10
271.0
 20
55.0
 30
0.0
 40
5.0
  0
CIRCLE
  5
43
330
17
100
AcDbEntity
  8
CUT
 62
1
100
AcDbCircle
 10
307.0
 20
55.0
 30
0.0
 40
5.0
  0
CIRCLE
  5
44
330
17
100
AcDbEntity
  8
CUT
 62
1
100
AcDbCircle
 10
271.0
 20
95.0
 30
0.0
 40
5.0
  0
CIRCLE
  5
45
330
17
100
AcDbEntity
  8
CUT
 62
1
100
AcDbCircle
 10
307.0
 20
95.0
 30
0.0
 40
5.0
  0
LWPOLYLINE
  5
46
330
17
100
AcDbEntity
  8
CUT
 62
1
100
AcDbPolyline
 90
53
 70
1
 10
332.0
 20
120.0
 10
412.0
 20
120.0
 10
412.0
 20
20.531962568464536
 10
405.2340187157677
 20
13.765981284232264
 10
404.12883819507493
 20
12.696388583201724
 10
402.98925330970326
 20
11.663529048488066
 10
401.81648435569133
 20
10.66850869195136
 10
400.6117871634099
 20
9.712393006311949
 10
399.3764517527867
 20
8.796205824194082
 10
398.1118009519213
 20
7.920928221780372
 10
396.8191889805673
 20
7.087497468250795
 10
395.5
 20
6.296806022131385
 10
394.1556466308219
 20
5.54970057562732
 10
392.78756844029306
 20
4.846981147963646
 10
391.39723040080656
 20
4.189400228704741
 10
389.9861213211592
 20
3.577661971969526
 10
388.55575225229796
 20
3.012421442405696
 10
387.1076548692486
 20
2.4942839137300368
 10
385.6433798309597
 20
2.023804220586179
 10
384.16449511981847
 20
1.6014861644137923
 10
382.67258436261557
 20
1.227781973965321
 10
381.16924513475806
 20
0.9030918210481715
 10
379.6560872495457
 20
0.6277633920106851
 10
378.1347310343424
 20
0.4020915154309108
 10
376.60680559548933
 20
0.2263178464067508
 10
375.0739470738167
 20
0.10063060778563937
 10
373.5377968926235
 20
0.025164388610811272
 10
372.0
 20
0.0
 10
370.4622031073765
 20
0.025164388610811272
 10
368.9260529261833
 20
0.10063060778563937
 10
367.39319440451067
 20
0.22631784640674368
 10
365.86526896565755
 20
0.4020915154309108
 10
364.3439127504543
 20
0.6277633920106851
 10
362.830754865242
 20
0.9030918210481715
 10
361.3274156373845
 20
1.227781973965321
 10
359.83550488018153
 20
1.6014861644137923
 10
358.3566201690403
 20
2.023804220586179
 10
356.8923451307514
 20
2.4942839137300297
 10
355.44424774770204
 20
3.0124214424056888
 10
354.0138786788408
 20
3.577661971969526
 10
352.60276959919344
 20
4.189400228704734
 10
351.21243155970694
 20
4.846981147963646
 10
349.8443533691781
 20
5.549700575627313
 10
348.5
 20
6.296806022131392
 10
347.1808110194327
 20
7.087497468250795
 10
345.8881990480787
 20
7.920928221780365
 10
344.6235482472133
 20
8.796205824194082
 10
343.3882128365901
 20
9.712393006311949
 10
342.18351564430867
 20
10.66850869195136
 10
341.01074669029674
 20
11.663529048488066
 10
339.87116180492507
 20
12.696388583201717
 10
338.7659812842323
 20
13.765981284232264
 10
332.0
 20
20.531962568464536
  0
CIRCLE
  5
47
330
17
100
AcDbEntity
  8
CUT
 62
1
100
AcDbCircle
 10
354.0
 20
55.0
 30
0.0
 40
5.0
  0
CIRCLE
  5
48
330
17
100
AcDbEntity
  8
CUT
 62
1
100
AcDbCircle
 10
390.0
 20
55.0
 30
0.0
 40
5.0
  0
CIRCLE
  5
49
330
17
100
AcDbEntity
  8
CUT
 62
1
100
AcDbCircle
 10
354.0
 20
95.0
 30
0.0
 40
5.0
  0
CIRCLE
  5
4A
330
17
100
AcDbEntity
  8
CUT
 62
1
100
AcDbCircle
 10
390.0
 20
95.0
 30
0.0
 40
5.0
  0
LWPOLYLINE
  5
4B
330
17
100
AcDbEntity
  8
CUT
 62
1
100
AcDbPolyline
 90
53
 70
1
 10
415.0
 20
120.0
 10
495.0
 20
120.0
 10
495.0
 20
20.531962568464536
 10
488.2340187157677
 20
13.765981284232264
 10
487.12883819507493
 20
12.696388583201724
 10
485.98925330970326
 20
11.663529048488066
 10
484.81648435569133
 20
10.66850869195136
 10
483.6117871634099
 20
9.712393006311949
 10
482.3764517527867
 20
8.796205824194082
 10
481.1118009519213
 20
7.920928221780372
 10
479.8191889805673
 20
7.087497468250795
 10
478.5
 20
6.296806022131385
 10
477.1556466308219
 20
5.54970057562732
 10
475.78756844029306
 20
4.846981147963646
 10
474.39723040080656
 20
4.189400228704741
 10
472.9861213211592
 20
3.577661971969526
 10
471.55575225229796
 20
3.012421442405696
 10
470.1076548692486
 20
2.4942839137300368
 10
468.6433798309597
 20
2.023804220586179
 10
467.16449511981847
 20
1.6014861644137923
 10
465.67258436261557
 20
1.227781973965321
 10
464.16924513475806
 20
0.9030918210481715
 10
462.6560872495457
 20
0.6277633920106851
 10
461.1347310343424
 20
0.4020915154309108
 10
459.60680559548933
 20
0.2263178464067508
 10
458.0739470738167
 20
0.10063060778563937
 10
456.5377968926235
 20
0.025164388610811272
 10
455.0
 20
0.0
 10
453.4622031073765
 20
0.025164388610811272
 10
451.9260529261833
 20
0.10063060778563937
 10
450.39319440451067
 20
0.22631784640674368
 10
448.86526896565755
 20
0.4020915154309108
 10
447.3439127504543
 20
0.6277633920106851
 10
445.830754865242
 20
0.9030918210481715
 10
444.3274156373845
 20
1.227781973965321
 10
442.83550488018153
 20
1.6014861644137923
 10
441.3566201690403
 20
2.023804220586179
 10
439.8923451307514
 20
2.4942839137300297
 10
438.44424774770204
 20
3.0124214424056888
 10
437.0138786788408
 20
3.577661971969526
 10
435.60276959919344
 20
4.189400228704734
 10
434.21243155970694
 20
4.846981147963646
 10
432.8443533691781
 20
5.549700575627313
 10
431.5
 20
6.296806022131392
 10
430.1808110194327
 20
7.087497468250795
 10
428.8881990480787
 20
7.920928221780365
 10
427.6235482472133
 20
8.796205824194082
 10
426.3882128365901
 20
9.712393006311949
 10
425.18351564430867
 20
10.66850869195136
 10
424.01074669029674
 20
11.663529048488066
 10
422.87116180492507
 20
12.696388583201717
 10
421.7659812842323
 20
13.765981284232264
 10
415.0
 20
20.531962568464536
  0
CIRCLE
  5
4C
330
17
100
AcDbEntity
  8
CUT
 62
1
100
AcDbCircle
 10
437.0
 20
55.0
 30
0.0
 40
5.0
  0
CIRCLE
  5
4D
330
17
100
AcDbEntity
  8
CUT
 62
1
100
AcDbCircle
 10
473.0
 20
55.0
 30
0.0
 40
5.0
  0
CIRCLE
  5
4E
330
17
100
AcDbEntity
  8
CUT
 62
1
100
AcDbCircle
 10
437.0
 20
95.0
 30
0.0
 40
5.0
  0
CIRCLE
  5
4F
330
17
100
AcDbEntity
  8
CUT
 62
1
100
AcDbCircle
 10
473.0
 20
95.0
 30
0.0
 40
5.0
  0
LWPOLYLINE
  5
50
330
17
100
AcDbEntity
  8
CUT
 62
1
100
AcDbPolyline
 90
53
 70
1
 10
498.0
 20
120.0
 10
578.0
 20
120.0
 10
578.0
 20
20.531962568464536
 10
571.2340187157678
 20
13.765981284232264
 10
570.128838195075
 20
12.696388583201724
 10
568.9892533097033
 20
11.663529048488066
 10
567.8164843556914
 20
10.66850869195136
 10
566.6117871634099
 20
9.712393006311949
 10
565.3764517527867
 20
8.796205824194082
 10
564.1118009519213
 20
7.920928221780372
 10
562.8191889805673
 20
7.087497468250795
 10
561.5
 20
6.296806022131385
 10
560.1556466308219
 20
5.54970057562732
 10
558.7875684402931
 20
4.846981147963646
 10
557.3972304008065
 20
4.189400228704741
 10
555.9861213211592
 20
3.577661971969526
 10
554.555752252298
 20
3.012421442405696
 10
553.1076548692486
 20
2.4942839137300368
 10
551.6433798309597
 20
2.023804220586179
 10
550.1644951198185
 20
1.6014861644137923
 10
548.6725843626156
 20
1.227781973965321
 10
547.1692451347581
 20
0.9030918210481715
 10
545.6560872495456
 20
0.6277633920106851
 10
544.1347310343424
 20
0.4020915154309108
 10
542.6068055954894
 20
0.2263178464067508
 10
541.0739470738167
 20
0.10063060778563937
 10
539.5377968926235
 20
0.025164388610811272
 10
538.0
 20
0.0
 10
536.4622031073765
 20
0.025164388610811272
 10
534.9260529261833
 20
0.10063060778563937
 10
533.3931944045106
 20
0.22631784640674368
 10
531.8652689656576
 20
0.4020915154309108
 10
530.3439127504544
 20
0.6277633920106851
 10
528.8307548652419
 20
0.9030918210481715
 10
527.3274156373844
 20
1.227781973965321
 10
525.8355048801815
 20
1.6014861644137923
 10
524.3566201690403
 20
2.023804220586179
 10
522.8923451307514
 20
2.4942839137300297
 10
521.444247747702
 20
3.0124214424056888
 10
520.0138786788408
 20
3.577661971969526
 10
518.6027695991935
 20
4.189400228704734
 10
517.2124315597069
 20
4.846981147963646
 10
515.8443533691781
 20
5.549700575627313
 10
514.5
 20
6.296806022131392
 10
513.1808110194327
 20
7.087497468250795
 10
511.8881990480787
 20
7.920928221780365
 10
510.6235482472133
 20
8.796205824194082
 10
509.3882128365901
 20
9.712393006311949
 10
508.18351564430867
 20
10.66850869195136
 10
507.01074669029674
 20
11.663529048488066
 10
505.87116180492507
 20
12.696388583201717
 10
504.7659812842323
 20
13.765981284232264
 10
498.0
 20
20.531962568464536
  0
CIRCLE
  5
51
330
17
100
AcDbEntity
  8
CUT
 62
1
100
AcDbCircle
 10
520.0
 20
55.0
 30
0.0
 40
5.0
  0
CIRCLE
  5
52
330
17
100
AcDbEntity
  8
CUT
 62
1
100
AcDbCircle
 10
556.0
 20
55.0
 30
0.0
 40
5.0
  0
CIRCLE
  5
53
330
17
100
AcDbEntity
  8
CUT
 62
1
100
AcDbCircle
 10
520.0
 20
95.0
 30
0.0
 40
5.0
  0
CIRCLE
  5
54
330
17
100
AcDbEntity
  8
CUT
 62
1
100
AcDbCircle
 10
556.0
 20
95.0
 30
0.0
 40
5.0
  0
LWPOLYLINE
  5
55
330
17
100
AcDbEntity
  8
CUT
 62
1
100
AcDbPolyline
 90
53
 70
1
 10
581.0
 20
120.0
 10
661.0
 20
120.0
 10
661.0
 20
20.531962568464536
 10
654.2340187157678
 20
13.765981284232264
 10
653.128838195075
 20
12.696388583201724
 10
651.9892533097033
 20
11.663529048488066
 10
650.8164843556914
 20
10.66850869195136
 10
649.6117871634099
 20
9.712393006311949
 10
648.3764517527867
 20
8.796205824194082
 10
647.1118009519213
 20
7.920928221780372
 10
645.8191889805673
 20
7.087497468250795
 10
644.5
 20
6.296806022131385
 10
643.1556466308219
 20
5.54970057562732
 10
641.7875684402931
 20
4.846981147963646
 10
640.3972304008065
 20
4.189400228704741
 10
638.9861213211592
 20
3.577661971969526
 10
637.555752252298
 20
3.012421442405696
 10
636.1076548692486
 20
2.4942839137300368
 10
634.6433798309597
 20
2.023804220586179
 10
633.1644951198185
 20
1.6014861644137923
 10
631.6725843626156
 20
1.227781973965321
 10
630.1692451347581
 20
0.9030918210481715
 10
628.6560872495456
 20
0.6277633920106851
 10
627.1347310343424
 20
0.4020915154309108
 10
625.6068055954894
 20
0.2263178464067508
 10
624.0739470738167
 20
0.10063060778563937
 10
622.5377968926235
 20
0.025164388610811272
 10
621.0
 20
0.0
 10
619.4622031073765
 20
0.025164388610811272
 10
617.9260529261833
 20
0.10063060778563937
 10
616.3931944045106
 20
0.22631784640674368
 10
614.8652689656576
 20
0.4020915154309108
 10
613.3439127504544
 20
0.6277633920106851
 10
611.8307548652419
 20
0.9030918210481715
 10
610.3274156373844
 20
1.227781973965321
 10
608.8355048801815
 20
1.6014861644137923
 10
607.3566201690403
 20
2.023804220586179
 10
605.8923451307514
 20
2.4942839137300297
 10
604.444247747702
 20
3.0124214424056888
 10
603.0138786788408
 20
3.577661971969526
 10
601.6027695991935
 20
4.189400228704734
 10
600.2124315597069
 20
4.846981147963646
 10
598.8443533691781
 20
5.549700575627313
 10
597.5
 20
6.296806022131392
 10
596.1808110194327
 20
7.087497468250795
 10
594.8881990480787
 20
7.920928221780365
 10
593.6235482472133
 20
8.796205824194082
 10
592.3882128365901
 20
9.712393006311949
 10
591.1835156443086
 20
10.66850869195136
 10
590.0107466902967
 20
11.663529048488066
 10
588.871161804925
 20
12.696388583201717
 10
587.7659812842322
 20
13.765981284232264
 10
581.0
 20
20.531962568464536
  0
CIRCLE
  5
56
330
17
100
AcDbEntity
  8
CUT
 62
1
100
AcDbCircle
 10
603.0
 20
55.0
 30
0.0
 40
5.0
  0
CIRCLE
  5
57
330
17
100
AcDbEntity
  8
CUT
 62
1
100
AcDbCircle
 10
639.0
 20
55.0
 30
0.0
 40
5.0
  0
CIRCLE
  5
58
330
17
100
AcDbEntity
  8
CUT
 62
1
100
AcDbCircle
 10
603.0
 20
95.0
 30
0.0
 40
5.0
  0
CIRCLE
  5
59
330
17
100
AcDbEntity
  8
CUT
 62
1
100
AcDbCircle
 10
639.0
 20
95.0
 30
0.0
 40
5.0
  0
LWPOLYLINE
  5
5A
330
17
100
AcDbEntity
  8
CUT
 62
1
100
AcDbPolyline
 90
53
 70
1
 10
0.0
 20
243.0
 10
80.0
 20
243.0
 10
80.0
 20
143.53196256846454
 10
73.23401871576773
 20
136.76598128423225
 10
72.12883819507496
 20
135.69638858320172
 10
70.98925330970323
 20
134.66352904848807
 10
69.81648435569133
 20
133.66850869195136
 10
68.61178716340987
 20
132.71239300631194
 10
67.37645175278669
 20
131.7962058241941
 10
66.11180095192131
 20
130.92092822178037
 10
64.8191889805673
 20
130.0874974682508
 10
63.5
 20
129.2968060221314
 10
62.1556466308219
 20
128.54970057562733
 10
60.78756844029306
 20
127.84698114796365
 10
59.39723040080655
 20
127.18940022870474
 10
57.98612132115922
 20
126.57766197196952
 10
56.55575225229798
 20
126.0124214424057
 10
55.1076548692486
 20
125.49428391373004
 10
53.64337983095973
 20
125.02380422058619
 10
52.16449511981848
 20
124.60148616441379
 10
50.67258436261554
 20
124.22778197396532
 10
49.16924513475803
 20
123.90309182104818
 10
47.65608724954568
 20
123.62776339201068
 10
46.13473103434242
 20
123.40209151543091
 10
44.606805595489355
 20
123.22631784640674
 10
43.073947073816726
 20
123.10063060778563
 10
41.53779689262348
 20
123.02516438861082
 10
40.0
 20
123.0
 10
38.46220310737652
 20
123.02516438861082
 10
36.92605292618328
 20
123.10063060778563
 10
35.39319440451065
 20
123.22631784640674
 10
33.86526896565758
 20
123.40209151543091
 10
32.34391275045433
 20
123.62776339201068
 10
30.830754865241975
 20
123.90309182104818
 10
29.327415637384462
 20
124.22778197396532
 10
27.83550488018153
 20
124.60148616441379
 10
26.356620169040276
 20
125.02380422058619
 10
24.892345130751405
 20
125.49428391373003
 10
23.444247747702025
 20
126.0124214424057
 10
22.013878678840783
 20
126.57766197196952
 10
20.602769599193454
 20
127.18940022870473
 10
19.212431559706946
 20
127.84698114796365
 10
17.84435336917811
 20
128.5497005756273
 10
16.49999999999999
 20
129.2968060221314
 10
15.180811019432703
 20
130.0874974682508
 10
13.888199048078707
 20
130.92092822178037
 10
12.623548247213304
 20
131.7962058241941
 10
11.388212836590128
 20
132.71239300631194
 10
10.183515644308667
 20
133.66850869195136
 10
9.010746690296763
 20
134.66352904848807
 10
7.871161804925059
 20
135.69638858320172
 10
6.765981284232268
 20
136.76598128423225
 10
0.0
 20
143.53196256846454
  0
CIRCLE
  5
5B
330
17
100
AcDbEntity
  8
CUT
 62
1
100
AcDbCircle
 10
22.0
 20
178.0
 30
0.0
 40
5.0
  0
CIRCLE
  5
5C
330
17
100
AcDbEntity
  8
CUT
 62
1
100
AcDbCircle
 10
58.0
 20
178.0
 30
0.0
 40
5.0
  0
CIRCLE
  5
5D
330
17
100
AcDbEntity
  8
CUT
 62
1
100
AcDbCircle
 10
22.0
 20
218.0
 30
0.0
 40
5.0
  0
CIRCLE
  5
5E
330
17
100
AcDbEntity
  8
CUT
 62
1
100
AcDbCircle
 10
58.0
 20
218.0
 30
0.0
 40
5.0
  0
LWPOLYLINE
  5
5F
330
17
100
AcDbEntity
  8
CUT
 62
1
100
AcDbPolyline
 90
53
 70
1
 10
83.0
 20
243.0
 10
163.0
 20
243.0
 10
163.0
 20
143.53196256846454
 10
156.23401871576772
 20
136.76598128423225
 10
155.12883819507496
 20
135.69638858320172
 10
153.98925330970323
 20
134.66352904848807
 10
152.81648435569133
 20
133.66850869195136
 10
151.61178716340987
 20
132.71239300631194
 10
150.3764517527867
 20
131.7962058241941
 10
149.1118009519213
 20
130.92092822178037
 10
147.8191889805673
 20
130.0874974682508
 10
146.5
 20
129.2968060221314
 10
145.1556466308219
 20
128.54970057562733
 10
143.78756844029306
 20
127.84698114796365
 10
142.39723040080656
 20
127.18940022870474
 10
140.98612132115923
 20
126.57766197196952
 10
139.55575225229796
 20
126.0124214424057
 10
138.1076548692486
 20
125.49428391373004
 10
136.64337983095973
 20
125.02380422058619
 10
135.1644951198185
 20
124.60148616441379
 10
133.67258436261554
 20
124.22778197396532
 10
132.16924513475803
 20
123.90309182104818
 10
130.65608724954566
 20
123.62776339201068
 10
129.13473103434242
 20
123.40209151543091
 10
127.60680559548936
 20
123.22631784640674
 10
126.07394707381673
 20
123.10063060778563
 10
124.53779689262348
 20
123.02516438861082
 10
123.0
 20
123.0
 10
121.46220310737651
 20
123.02516438861082
 10
119.92605292618329
 20
123.10063060778563
 10
118.39319440451065
 20
123.22631784640674
 10
116.86526896565758
 20
123.40209151543091
 10
115.34391275045434
 20
123.62776339201068
 10
113.83075486524197
 20
123.90309182104818
 10
112.32741563738446
 20
124.22778197396532
 10
110.83550488018153
 20
124.60148616441379
 10
109.35662016904028
 20
125.02380422058619
 10
107.89234513075141
 20
125.49428391373003
 10
106.44424774770202
 20
126.0124214424057
 10
105.01387867884078
 20
126.57766197196952
 10
103.60276959919345
 20
127.18940022870473
 10
102.21243155970694
 20
127.84698114796365
 10
100.84435336917811
 20
128.5497005756273
 10
99.49999999999999
 20
129.2968060221314
 10
98.1808110194327
 20
130.0874974682508
 10
96.8881990480787
 20
130.92092822178037
 10
95.62354824721331
 20
131.7962058241941
 10
94.38821283659013
 20
132.71239300631194
 10
93.18351564430867
 20
133.66850869195136
 10
92.01074669029677
 20
134.66352904848807
 10
90.87116180492507
 20
135.69638858320172
 10
89.76598128423227
 20
136.76598128423225
 10
83.0
 20
143.53196256846454
  0
CIRCLE
  5
60
330
17
100
AcDbEntity
  8
CUT
 62
1
100
AcDbCircle
 10
105.0
 20
178.0
 30
0.0
 40
5.0
  0
CIRCLE
  5
61
330
17
100
AcDbEntity
  8
CUT
 62
1
100
AcDbCircle
 10
141.0
 20
178.0
 30
0.0
 40
5.0
  0
CIRCLE
  5
62
330
17
100
AcDbEntity
  8
CUT
 62
1
100
AcDbCircle
 10
105.0
 20
218.0
 30
0.0
 40
5.0
  0
CIRCLE
  5
63
330
17
100
AcDbEntity
  8
CUT
 62
1
100
AcDbCircle
 10
141.0
 20
218.0
 30
0.0
 40
5.0
  0
LWPOLYLINE
  5
64
330
17
100
AcDbEntity
  8
CUT
 62
1
100
AcDbPolyline
 90
53
 70
1
 10
166.0
 20
243.0
 10
246.0
 20
243.0
 10
246.0
 20
143.53196256846454
 10
239.23401871576772
 20
136.76598128423225
 10
238.12883819507496
 20
135.69638858320172
 10
236.98925330970323
 20
134.66352904848807
 10
235.81648435569133
 20
133.66850869195136
 10
234.61178716340987
 20
132.71239300631194
 10
233.3764517527867
 20
131.7962058241941
 10
232.1118009519213
 20
130.92092822178037
 10
230.8191889805673
 20
130.0874974682508
 10
229.5
 20
129.2968060221314
 10
228.1556466308219
 20
128.54970057562733
 10
226.78756844029306
 20
127.84698114796365
 10
225.39723040080656
 20
127.18940022870474
 10
223.98612132115923
 20
126.57766197196952
 10
222.55575225229796
 20
126.0124214424057
 10
221.1076548692486
 20
125.49428391373004
 10
219.64337983095973
 20
125.02380422058619
 10
218.1644951198185
 20
124.60148616441379
 10
216.67258436261554
 20
124.22778197396532
 10
215.16924513475803
 20
123.90309182104818
 10
213.65608724954566
 20
123.62776339201068
 10
212.13473103434242
 20
123.40209151543091
 10
210.60680559548936
 20
123.22631784640674
 10
209.07394707381673
 20
123.10063060778563
 10
207.53779689262348
 20
123.02516438861082
 10
206.0
 20
123.0
 10
204.46220310737652
 20
123.02516438861082
 10
202.92605292618327
 20
123.10063060778563
 10
201.39319440451064
 20
123.22631784640674
 10
199.86526896565758
 20
123.40209151543091
 10
198.34391275045434
 20
123.62776339201068
 10
196.83075486524197
 20
123.90309182104818
 10
195.32741563738446
 20
124.22778197396532
 10
193.83550488018153
 20
124.60148616441379
 10
192.35662016904027
 20
125.02380422058619
 10
190.8923451307514
 20
125.49428391373003
 10
189.44424774770204
 20
126.0124214424057
 10
188.0138786788408
 20
126.57766197196952
 10
186.60276959919346
 20
127.18940022870473
 10
185.21243155970694
 20
127.84698114796365
 10
183.84435336917812
 20
128.5497005756273
 10
182.5
 20
129.2968060221314
 10
181.1808110194327
 20
130.0874974682508
 10
179.88819904807872
 20
130.92092822178037
 10
178.6235482472133
 20
131.7962058241941
 10
177.38821283659013
 20
132.71239300631194
 10
176.18351564430867
 20
133.66850869195136
 10
175.01074669029677
 20
134.66352904848807
 10
173.87116180492507
 20
135.69638858320172
 10
172.76598128423228
 20
136.76598128423225
 10
166.0
 20
143.53196256846454
  0
CIRCLE
  5
65
330
17
100
AcDbEntity
  8
CUT
 62
1
100
AcDbCircle
 10
188.0
 20
178.0
 30
0.0
 40
5.0
  0
CIRCLE
  5
66
330
17
100
AcDbEntity
  8
CUT
 62
1
100
AcDbCircle
 10
224.0
 20
178.0
 30
0.0
 40
5.0
  0
CIRCLE
  5
67
330
17
100
AcDbEntity
  8
CUT
 62
1
100
AcDbCircle
 10
188.0
 20
218.0
 30
0.0
 40
5.0
  0
CIRCLE
  5
68
330
17
100
AcDbEntity
  8
CUT
 62
1
100
AcDbCircle
 10
224.0
 20
218.0
 30
0.0
 40
5.0
  0
LWPOLYLINE
  5
69
330
17
100
AcDbEntity
  8
CUT
 62
1
100
AcDbPolyline
 90
53
 70
1
 10
249.0
 20
243.0
 10
329.0
 20
243.0
 10
329.0
 20
143.53196256846454
 10
322.2340187157677
 20
136.76598128423225
 10
321.12883819507493
 20
135.69638858320172
 10
319.98925330970326
 20
134.66352904848807
 10
318.81648435569133
 20
133.66850869195136
 10
317.6117871634099
 20
132.71239300631194
 10
316.3764517527867
 20
131.7962058241941
 10
315.1118009519213
 20
130.92092822178037
 10
313.8191889805673
 20
130.0874974682508
 10
312.5
 20
129.2968060221314
 10
311.1556466308219
 20
128.54970057562733
 10
309.78756844029306
 20
127.84698114796365
 10
308.39723040080656
 20
127.18940022870474
 10
306.9861213211592
 20
126.57766197196952
 10
305.55575225229796
 20
126.0124214424057
 10
304.1076548692486
 20
125.49428391373004
 10
302.6433798309597
 20
125.02380422058619
 10
301.16449511981847
 20
124.60148616441379
 10
299.67258436261557
 20
124.22778197396532
 10
298.16924513475806
 20
123.90309182104818
 10
296.6560872495457
 20
123.62776339201068
 10
295.1347310343424
 20
123.40209151543091
 10
293.60680559548933
 20
123.22631784640674
 10
292.0739470738167
 20
123.10063060778563
 10
290.5377968926235
 20
123.02516438861082
 10
289.0
 20
123.0
 10
287.4622031073765
 20
123.02516438861082
 10
285.9260529261833
 20
123.10063060778563
 10
284.39319440451067
 20
123.22631784640674
 10
282.86526896565755
 20
123.40209151543091
 10
281.3439127504543
 20
123.62776339201068
 10
279.830754865242
 20
123.90309182104818
 10
278.3274156373845
 20
124.22778197396532
 10
276.83550488018153
 20
124.60148616441379
 10
275.3566201690403
 20
125.02380422058619
 10
273.8923451307514
 20
125.49428391373003
 10
272.44424774770204
 20
126.0124214424057
 10
271.0138786788408
 20
126.57766197196952
 10
269.60276959919344
 20
127.18940022870473
 10
268.21243155970694
 20
127.84698114796365
 10
266.8443533691781
 20
128.5497005756273
 10
265.5
 20
129.2968060221314
 10
264.1808110194327
 20
130.0874974682508
 10
262.8881990480787
 20
130.92092822178037
 10
261.6235482472133
 20
131.7962058241941
 10
260.3882128365901
 20
132.71239300631194
 10
259.18351564430867
 20
133.66850869195136
 10
258.01074669029674
 20
134.66352904848807
 10
256.87116180492507
 20
135.69638858320172
 10
255.76598128423228
 20
136.76598128423225
 10
249.0
 20
143.53196256846454
  0
CIRCLE
  5
6A
330
17
100
AcDbEntity
  8
CUT
 62
1
100
AcDbCircle
 10
271.0
 20
178.0
 30
0.0
 40
5.0
  0
CIRCLE
  5
6B
330
17
100
AcDbEntity
  8
CUT
 62
1
100
AcDbCircle
 10
307.0
 20
178.0
 30
0.0
 40
5.0
  0
CIRCLE
  5
6C
330
17
100
AcDbEntity
  8
CUT
 62
1
100
AcDbCircle
 10
271.0
 20
218.0
 30
0.0
 40
5.0
  0
CIRCLE
  5
6D
330
17
100
AcDbEntity
  8
CUT
 62
1
100
AcDbCircle
 10
307.0
 20
218.0
 30
0.0
 40
5.0
  0
LWPOLYLINE
  5
6E
330
17
100
AcDbEntity
  8
CUT
 62
1
100
AcDbPolyline
 90
53
 70
1
 10
332.0
 20
243.0
 10
412.0
 20
243.0
 10
412.0
 20
143.53196256846454
 10
405.2340187157677
 20
136.76598128423225
 10
404.12883819507493
 20
135.69638858320172
 10
402.98925330970326
 20
134.66352904848807
 10
401.81648435569133
 20
133.66850869195136
 10
400.6117871634099
 20
132.71239300631194
 10
399.3764517527867
 20
131.7962058241941
 10
398.1118009519213
 20
130.92092822178037
 10
396.8191889805673
 20
130.0874974682508
 10
395.5
 20
129.2968060221314
 10
394.1556466308219
 20
128.54970057562733
 10
392.78756844029306
 20
127.84698114796365
 10
391.39723040080656
 20
127.18940022870474
 10
389.9861213211592
 20
126.57766197196952
 10
388.55575225229796
 20
126.0124214424057
 10
387.1076548692486
 20
125.49428391373004
 10
385.6433798309597
 20
125.02380422058619
 10
384.16449511981847
 20
124.60148616441379
 10
382.67258436261557
 20
124.22778197396532
 10
381.16924513475806
 20
123.90309182104818
 10
379.6560872495457
 20
123.62776339201068
 10
378.1347310343424
 20
123.40209151543091
 10
376.60680559548933
 20
123.22631784640674
 10
375.0739470738167
 20
123.10063060778563
 10
373.5377968926235
 20
123.02516438861082
 10
372.0
 20
123.0
 10
370.4622031073765
 20
123.02516438861082
 10
368.9260529261833
 20
123.10063060778563
 10
367.39319440451067
 20
123.22631784640674
 10
365.86526896565755
 20
123.40209151543091
 10
364.3439127504543
 20
123.62776339201068
 10
362.830754865242
 20
123.90309182104818
 10
361.3274156373845
 20
124.22778197396532
 10
359.83550488018153
 20
124.60148616441379
 10
358.3566201690403
 20
125.02380422058619
 10
356.8923451307514
 20
125.49428391373003
 10
355.44424774770204
 20
126.0124214424057
 10
354.0138786788408
 20
126.57766197196952
 10
352.60276959919344
 20
127.18940022870473
 10
351.21243155970694
 20
127.84698114796365
 10
349.8443533691781
 20
128.5497005756273
 10
348.5
 20
129.2968060221314
 10
347.1808110194327
 20
130.0874974682508
 10
345.8881990480787
 20
130.92092822178037
 10
344.6235482472133
 20
131.7962058241941
 10
343.3882128365901
 20
132.71239300631194
 10
342.18351564430867
 20
133.66850869195136
 10
341.01074669029674
 20
134.66352904848807
 10
339.87116180492507
 20
135.69638858320172
 10
338.7659812842323
 20
136.76598128423225
 10
332.0
 20
143.53196256846454
  0
CIRCLE
  5
6F
330
17
100
AcDbEntity
  8
CUT
 62
1
100
AcDbCircle
 10
354.0
 20
178.0
 30
0.0
 40
5.0
  0
CIRCLE
  5
70
330
17
100
AcDbEntity
  8
CUT
 62
1
100
AcDbCircle
 10
390.0
 20
178.0
 30
0.0
 40
5.0
  0
CIRCLE
  5
71
330
17
100
AcDbEntity
  8
CUT
 62
1
100
AcDbCircle
 10
354.0
 20
218.0
 30
0.0
 40
5.0
  0
CIRCLE
  5
72
330
17
100
AcDbEntity
  8
CUT
 62
1
100
AcDbCircle
 10
390.0
 20
218.0
 30
0.0
 40
5.0
  0
LWPOLYLINE
  5
73
330
17
100
AcDbEntity
  8
CUT
 62
1
100
AcDbPolyline
 90
53
 70
1
 10
415.0
 20
243.0
 10
495.0
 20
243.0
 10
495.0
 20
143.53196256846454
 10
488.2340187157677
 20
136.76598128423225
 10
487.12883819507493
 20
135.69638858320172
 10
485.98925330970326
 20
134.66352904848807
 10
484.81648435569133
 20
133.66850869195136
 10
483.6117871634099
 20
132.71239300631194
 10
482.3764517527867
 20
131.7962058241941
 10
481.1118009519213
 20
130.92092822178037
 10
479.8191889805673
 20
130.0874974682508
 10
478.5
 20
129.2968060221314
 10
477.1556466308219
 20
128.54970057562733
 10
475.78756844029306
 20
127.84698114796365
 10
474.39723040080656
 20
127.18940022870474
 10
472.9861213211592
 20
126.57766197196952
 10
471.55575225229796
 20
126.0124214424057
 10
470.1076548692486
 20
125.49428391373004
 10
468.6433798309597
 20
125.02380422058619
 10
467.16449511981847
 20
124.60148616441379
 10
465.67258436261557
 20
124.22778197396532
 10
464.16924513475806
 20
123.90309182104818
 10
462.6560872495457
 20
123.62776339201068
 10
461.1347310343424
 20
123.40209151543091
 10
459.60680559548933
 20
123.22631784640674
 10
458.0739470738167
 20
123.10063060778563
 10
456.5377968926235
 20
123.02516438861082
 10
455.0
 20
123.0
 10
453.4622031073765
 20
123.02516438861082
 10
451.9260529261833
 20
123.10063060778563
 10
450.39319440451067
 20
123.22631784640674
 10
448.86526896565755
 20
123.40209151543091
 10
447.3439127504543
 20
123.62776339201068
 10
445.830754865242
 20
123.90309182104818
 10
444.3274156373845
 20
124.22778197396532
 10
442.83550488018153
 20
124.60148616441379
 10
441.3566201690403
 20
125.02380422058619
 10
439.8923451307514
 20
125.49428391373003
 10
438.44424774770204
 20
126.0124214424057
 10
437.0138786788408
 20
126.57766197196952
 10
435.60276959919344
 20
127.18940022870473
 10
434.21243155970694
 20
127.84698114796365
 10
432.8443533691781
 20
128.5497005756273
 10
431.5
 20
129.2968060221314
 10
430.1808110194327
 20
130.0874974682508
 10
428.8881990480787
 20
130.92092822178037
 10
427.6235482472133
 20
131.7962058241941
 10
426.3882128365901
 20
132.71239300631194
 10
425.18351564430867
 20
133.66850869195136
 10
424.01074669029674
 20
134.66352904848807
 10
422.87116180492507
 20
135.69638858320172
 10
421.7659812842323
 20
136.76598128423225
 10
415.0
 20
143.53196256846454
  0
CIRCLE
  5
74
330
17
100
AcDbEntity
  8
CUT
 62
1
100
AcDbCircle
 10
437.0
 20
178.0
 30
0.0
 40
5.0
  0
CIRCLE
  5
75
330
17
100
AcDbEntity
  8
CUT
 62
1
100
AcDbCircle
 10
473.0
 20
178.0
 30
0.0
 40
5.0
  0
CIRCLE
  5
76
330
17
100
AcDbEntity
  8
CUT
 62
1
100
AcDbCircle
 10
437.0
 20
218.0
 30
0.0
 40
5.0
  0
CIRCLE
  5
77
330
17
100
AcDbEntity
  8
CUT
 62
1
100
AcDbCircle
 10
473.0
 20
218.0
 30
0.0
 40
5.0
  0
LWPOLYLINE
  5
78
330
17
100
AcDbEntity
  8
CUT
 62
1
100
AcDbPolyline
 90
53
 70
1
 10
498.0
 20
243.0
 10
578.0
 20
243.0
 10
578.0
 20
143.53196256846454
 10
571.2340187157678
 20
136.76598128423225
 10
570.128838195075
 20
135.69638858320172
 10
568.9892533097033
 20
134.66352904848807
 10
567.8164843556914
 20
133.66850869195136
 10
566.6117871634099
 20
132.71239300631194
 10
565.3764517527867
 20
131.7962058241941
 10
564.1118009519213
 20
130.92092822178037
 10
562.8191889805673
 20
130.0874974682508
 10
561.5
 20
129.2968060221314
 10
560.1556466308219
 20
128.54970057562733
 10
558.7875684402931
 20
127.84698114796365
 10
557.3972304008065
 20
127.18940022870474
 10
555.9861213211592
 20
126.57766197196952
 10
554.555752252298
 20
126.0124214424057
 10
553.1076548692486
 20
125.49428391373004
 10
551.6433798309597
 20
125.02380422058619
 10
550.1644951198185
 20
124.60148616441379
 10
548.6725843626156
 20
124.22778197396532
 10
547.1692451347581
 20
123.90309182104818
 10
545.6560872495456
 20
123.62776339201068
 10
544.1347310343424
 20
123.40209151543091
 10
542.6068055954894
 20
123.22631784640674
 10
541.0739470738167
 20
123.10063060778563
 10
539.5377968926235
 20
123.02516438861082
 10
538.0
 20
123.0
 10
536.4622031073765
 20
123.02516438861082
 10
534.9260529261833
 20
123.10063060778563
 10
533.3931944045106
 20
123.22631784640674
 10
531.8652689656576
 20
123.40209151543091
 10
530.3439127504544
 20
123.62776339201068
 10
528.8307548652419
 20
123.90309182104818
 10
527.3274156373844
 20
124.22778197396532
 10
525.8355048801815
 20
124.60148616441379
 10
524.3566201690403
 20
125.02380422058619
 10
522.8923451307514
 20
125.49428391373003
 10
521.444247747702
 20
126.0124214424057
 10
520.0138786788408
 20
126.57766197196952
 10
518.6027695991935
 20
127.18940022870473
 10
517.2124315597069
 20
127.84698114796365
 10
515.8443533691781
 20
128.5497005756273
 10
514.5
 20
129.2968060221314
 10
513.1808110194327
 20
130.0874974682508
 10
511.8881990480787
 20
130.92092822178037
 10
510.6235482472133
 20
131.7962058241941
 10
509.3882128365901
 20
132.71239300631194
 10
508.18351564430867
 20
133.66850869195136
 10
507.01074669029674
 20
134.66352904848807
 10
505.87116180492507
 20
135.69638858320172
 10
504.7659812842323
 20
136.76598128423225
 10
498.0
 20
143.53196256846454
  0
CIRCLE
  5
79
330
17
100
AcDbEntity
  8
CUT
 62
1
100
AcDbCircle
 10
520.0
 20
178.0
 30
0.0
 40
5.0
  0
CIRCLE
  5
7A
330
17
100
AcDbEntity
  8
CUT
 62
1
100
AcDbCircle
 10
556.0
 20
178.0
 30
0.0
 40
5.0
  0
CIRCLE
  5
7B
330
17
100
AcDbEntity
  8
CUT
 62
1
100
AcDbCircle
 10
520.0
 20
218.0
 30
0.0
 40
5.0
  0
CIRCLE
  5
7C
330
17
100
AcDbEntity
  8
CUT
 62
1
100
AcDbCircle
 10
556.0
 20
218.0
 30
0.0
 40
5.0
  0
LWPOLYLINE
  5
7D
330
17
100
AcDbEntity
  8
CUT
 62
1
100
AcDbPolyline
 90
53
 70
1
 10
581.0
 20
243.0
 10
661.0
 20
243.0
 10
661.0
 20
143.53196256846454
 10
654.2340187157678
 20
136.76598128423225
 10
653.128838195075
 20
135.69638858320172
 10
651.9892533097033
 20
134.66352904848807
 10
650.8164843556914
 20
133.66850869195136
 10
649.6117871634099
 20
132.71239300631194
 10
648.3764517527867
 20
131.7962058241941
 10
647.1118009519213
 20
130.92092822178037
 10
645.8191889805673
 20
130.0874974682508
 10
644.5
 20
129.2968060221314
 10
643.1556466308219
 20
128.54970057562733
 10
641.7875684402931
 20
127.84698114796365
 10
640.3972304008065
 20
127.18940022870474
 10
638.9861213211592
 20
126.57766197196952
 10
637.555752252298
 20
126.0124214424057
 10
636.1076548692486
 20
125.49428391373004
 10
634.6433798309597
 20
125.02380422058619
 10
633.1644951198185
 20
124.60148616441379
 10
631.6725843626156
 20
124.22778197396532
 10
630.1692451347581
 20
123.90309182104818
 10
628.6560872495456
 20
123.62776339201068
 10
627.1347310343424
 20
123.40209151543091
 10
625.6068055954894
 20
123.22631784640674
 10
624.0739470738167
 20
123.10063060778563
 10
622.5377968926235
 20
123.02516438861082
 10
621.0
 20
123.0
 10
619.4622031073765
 20
123.02516438861082
 10
617.9260529261833
 20
123.10063060778563
 10
616.3931944045106
 20
123.22631784640674
 10
614.8652689656576
 20
123.40209151543091
 10
613.3439127504544
 20
123.62776339201068
 10
611.8307548652419
 20
123.90309182104818
 10
610.3274156373844
 20
124.22778197396532
 10
608.8355048801815
 20
124.60148616441379
 10
607.3566201690403
 20
125.02380422058619
 10
605.8923451307514
 20
125.49428391373003
 10
604.444247747702
 20
126.0124214424057
 10
603.0138786788408
 20
126.57766197196952
 10
601.6027695991935
 20
127.18940022870473
 10
600.2124315597069
 20
127.84698114796365
 10
598.8443533691781
 20
128.5497005756273
 10
597.5
 20
129.2968060221314
 10
596.1808110194327
 20
130.0874974682508
 10
594.8881990480787
 20
130.92092822178037
 10
593.6235482472133
 20
131.7962058241941
 10
592.3882128365901
 20
132.71239300631194
 10
591.1835156443086
 20
133.66850869195136
 10
590.0107466902967
 20
134.66352904848807
 10
588.871161804925
 20
135.69638858320172
 10
587.7659812842322
 20
136.76598128423225
 10
581.0
 20
143.53196256846454
  0
CIRCLE
  5
7E
330
17
100
AcDbEntity
  8
CUT
 62
1
100
AcDbCircle
 10
603.0
 20
178.0
 30
0.0
 40
5.0
  0
CIRCLE
  5
7F
330
17
100
AcDbEntity
  8
CUT
 62
1
100
AcDbCircle
 10
639.0
 20
178.0
 30
0.0
 40
5.0
  0
CIRCLE
  5
80
330
17
100
AcDbEntity
  8
CUT
 62
1
100
AcDbCircle
 10
603.0
 20
218.0
 30
0.0
 40
5.0
  0
CIRCLE
  5
81
330
17
100
AcDbEntity
  8
CUT
 62
1
100
AcDbCircle
 10
639.0
 20
218.0
 30
0.0
 40
5.0
  0
LWPOLYLINE
  5
82
330
17
100
AcDbEntity
  8
CUT
 62
1
100
AcDbPolyline
 90
53
 70
1
 10
0.0
 20
366.0
 10
80.0
 20
366.0
 10
80.0
 20
266.53196256846456
 10
73.23401871576773
 20
259.7659812842323
 10
72.12883819507496
 20
258.6963885832017
 10
70.98925330970323
 20
257.66352904848804
 10
69.81648435569133
 20
256.6685086919514
 10
68.61178716340987
 20
255.71239300631194
 10
67.37645175278669
 20
254.7962058241941
 10
66.11180095192131
 20
253.92092822178037
 10
64.8191889805673
 20
253.0874974682508
 10
63.5
 20
252.2968060221314
 10
62.1556466308219
 20
251.54970057562733
 10
60.78756844029306
 20
250.84698114796365
 10
59.39723040080655
 20
250.18940022870476
 10
57.98612132115922
 20
249.57766197196952
 10
56.55575225229798
 20
249.0124214424057
 10
55.1076548692486
 20
248.49428391373004
 10
53.64337983095973
 20
248.0238042205862
 10
52.16449511981848
 20
247.60148616441379
 10
50.67258436261554
 20
247.2277819739653
 10
49.16924513475803
 20
246.90309182104818
 10
47.65608724954568
 20
246.62776339201068
 10
46.13473103434242
 20
246.40209151543093
 10
44.606805595489355
 20
246.22631784640674
 10
43.073947073816726
 20
246.10063060778563
 10
41.53779689262348
 20
246.02516438861082
 10
40.0
 20
246.0
 10
38.46220310737652
 20
246.02516438861082
 10
36.92605292618328
 20
246.10063060778563
 10
35.39319440451065
 20
246.22631784640674
 10
33.86526896565758
 20
246.40209151543093
 10
32.34391275045433
 20
246.62776339201068
 10
30.830754865241975
 20
246.90309182104818
 10
29.327415637384462
 20
247.2277819739653
 10
27.83550488018153
 20
247.60148616441379
 10
26.356620169040276
 20
248.0238042205862
 10
24.892345130751405
 20
248.49428391373004
 10
23.444247747702025
 20
249.0124214424057
 10
22.013878678840783
 20
249.57766197196952
 10
20.602769599193454
 20
250.18940022870473
 10
19.212431559706946
 20
250.84698114796365
 10
17.84435336917811
 20
251.5497005756273
 10
16.49999999999999
 20
252.2968060221314
 10
15.180811019432703
 20
253.0874974682508
 10
13.888199048078707
 20
253.92092822178037
 10
12.623548247213304
 20
254.7962058241941
 10
11.388212836590128
 20
255.71239300631194
 10
10.183515644308667
 20
256.6685086919514
 10
9.010746690296763
 20
257.66352904848804
 10
7.871161804925059
 20
258.6963885832017
 10
6.765981284232268
 20
259.7659812842323
 10
0.0
 20
266.53196256846456
  0
CIRCLE
  5
83
330
17
100
AcDbEntity
  8
CUT
 62
1
100
AcDbCircle
 10
22.0
 20
301.0
 30
0.0
 40
5.0
  0
CIRCLE
  5
84
330
17
100
AcDbEntity
  8
CUT
 62
1
100
AcDbCircle
 10
58.0
 20
301.0
 30
0.0
 40
5.0
  0
CIRCLE
  5
85
330
17
100
AcDbEntity
  8
CUT
 62
1
100
AcDbCircle
 10
22.0
 20
341.0
 30
0.0
 40
5.0
  0
CIRCLE
  5
86
330
17
100
AcDbEntity
  8
CUT
 62
1
100
AcDbCircle
 10
58.0
 20
341.0
 30
0.0
 40
5.0
  0
LWPOLYLINE
  5
87
330
17
100
AcDbEntity
  8
CUT
 62
1
100
AcDbPolyline
 90
53
 70
1
 10
83.0
 20
366.0
 10
163.0
 20
366.0
 10
163.0
 20
266.53196256846456
 10
156.23401871576772
 20
259.7659812842323
 10
155.12883819507496
 20
258.6963885832017
 10
153.98925330970323
 20
257.66352904848804
 10
152.81648435569133
 20
256.6685086919514
 10
151.61178716340987
 20
255.71239300631194
 10
150.3764517527867
 20
254.7962058241941
 10
149.1118009519213
 20
253.92092822178037
 10
147.8191889805673
 20
253.0874974682508
 10
146.5
 20
252.2968060221314
 10
145.1556466308219
 20
251.54970057562733
 10
143.78756844029306
 20
250.84698114796365
 10
142.39723040080656
 20
250.18940022870476
 10
140.98612132115923
 20
249.57766197196952
 10
139.55575225229796
 20
249.0124214424057
 10
138.1076548692486
 20
248.49428391373004
 10
136.64337983095973
 20
248.0238042205862
 10
135.1644951198185
 20
247.60148616441379
 10
133.67258436261554
 20
247.2277819739653
 10
132.16924513475803
 20
246.90309182104818
 10
130.65608724954566
 20
246.62776339201068
 10
129.13473103434242
 20
246.40209151543093
 10
127.60680559548936
 20
246.22631784640674
 10
126.07394707381673
 20
246.10063060778563
 10
124.53779689262348
 20
246.02516438861082
 10
123.0
 20
246.0
 10
121.46220310737651
 20
246.02516438861082
 10
119.92605292618329
 20
246.10063060778563
 10
118.39319440451065
 20
246.22631784640674
 10
116.86526896565758
 20
246.40209151543093
 10
115.34391275045434
 20
246.62776339201068
 10
113.83075486524197
 20
246.90309182104818
 10
112.32741563738446
 20
247.2277819739653
 10
110.83550488018153
 20
247.60148616441379
 10
109.35662016904028
 20
248.0238042205862
 10
107.89234513075141
 20
248.49428391373004
 10
106.44424774770202
 20
249.0124214424057
 10
105.01387867884078
 20
249.57766197196952
 10
103.60276959919345
 20
250.18940022870473
 10
102.21243155970694
 20
250.84698114796365
 10
100.84435336917811
 20
251.5497005756273
 10
99.49999999999999
 20
252.2968060221314
 10
98.1808110194327
 20
253.0874974682508
 10
96.8881990480787
 20
253.92092822178037
 10
95.62354824721331
 20
254.7962058241941
 10
94.38821283659013
 20
255.71239300631194
 10
93.18351564430867
 20
256.6685086919514
 10
92.01074669029677
 20
257.66352904848804
 10
90.87116180492507
 20
258.6963885832017
 10
89.76598128423227
 20
259.7659812842323
 10
83.0
 20
266.53196256846456
  0
CIRCLE
  5
88
330
17
100
AcDbEntity
  8
CUT
 62
1
100
AcDbCircle
 10
105.0
 20
301.0
 30
0.0
 40
5.0
  0
CIRCLE
  5
89
330
17
100
AcDbEntity
  8
CUT
 62
1
100
AcDbCircle
 10
141.0
 20
301.0
 30
0.0
 40
5.0
  0
CIRCLE
  5
8A
330
17
100
AcDbEntity
  8
CUT
 62
1
100
AcDbCircle
 10
105.0
 20
341.0
 30
0.0
 40
5.0
  0
CIRCLE
  5
8B
330
17
100
AcDbEntity
  8
CUT
 62
1
100
AcDbCircle
 10
141.0
 20
341.0
 30
0.0
 40
5.0
  0
LWPOLYLINE
  5
8C
330
17
100
AcDbEntity
  8
CUT
 62
1
100
AcDbPolyline
 90
53
 70
1
 10
166.0
 20
366.0
 10
246.0
 20
366.0
 10
246.0
 20
266.53196256846456
 10
239.23401871576772
 20
259.7659812842323
 10
238.12883819507496
 20
258.6963885832017
 10
236.98925330970323
 20
257.66352904848804
 10
235.81648435569133
 20
256.6685086919514
 10
234.61178716340987
 20
255.71239300631194
 10
233.3764517527867
 20
254.7962058241941
 10
232.1118009519213
 20
253.92092822178037
 10
230.8191889805673
 20
253.0874974682508
 10
229.5
 20
252.2968060221314
 10
228.1556466308219
 20
251.54970057562733
 10
226.78756844029306
 20
250.84698114796365
 10
225.39723040080656
 20
250.18940022870476
 10
223.98612132115923
 20
249.57766197196952
 10
222.55575225229796
 20
249.0124214424057
 10
221.1076548692486
 20
248.49428391373004
 10
219.64337983095973
 20
248.0238042205862
 10
218.1644951198185
 20
247.60148616441379
 10
216.67258436261554
 20
247.2277819739653
 10
215.16924513475803
 20
246.90309182104818
 10
213.65608724954566
 20
246.62776339201068
 10
212.13473103434242
 20
246.40209151543093
 10
210.60680559548936
 20
246.22631784640674
 10
209.07394707381673
 20
246.10063060778563
 10
207.53779689262348
 20
246.02516438861082
 10
206.0
 20
246.0
 10
204.46220310737652
 20
246.02516438861082
 10
202.92605292618327
 20
246.10063060778563
 10
201.39319440451064
 20
246.22631784640674
 10
199.86526896565758
 20
246.40209151543093
 10
198.34391275045434
 20
246.62776339201068
 10
196.83075486524197
 20
246.90309182104818
 10
195.32741563738446
 20
247.2277819739653
 10
193.83550488018153
 20
247.60148616441379
 10
192.35662016904027
 20
248.0238042205862
 10
190.8923451307514
 20
248.49428391373004
 10
189.44424774770204
 20
249.0124214424057
 10
188.0138786788408
 20
249.57766197196952
 10
186.60276959919346
 20
250.18940022870473
 10
185.21243155970694
 20
250.84698114796365
 10
183.84435336917812
 20
251.5497005756273
 10
182.5
 20
252.2968060221314
 10
181.1808110194327
 20
253.0874974682508
 10
179.88819904807872
 20
253.92092822178037
 10
178.6235482472133
 20
254.7962058241941
 10
177.38821283659013
 20
255.71239300631194
 10
176.18351564430867
 20
256.6685086919514
 10
175.01074669029677
 20
257.66352904848804
 10
173.87116180492507
 20
258.6963885832017
 10
172.76598128423228
 20
259.7659812842323
 10
166.0
 20
266.53196256846456
  0
CIRCLE
  5
8D
330
17
100
AcDbEntity
  8
CUT
 62
1
100
AcDbCircle
 10
188.0
 20
301.0
 30
0.0
 40
5.0
  0
CIRCLE
  5
8E
330
17
100
AcDbEntity
  8
CUT
 62
1
100
AcDbCircle
 10
224.0
 20
301.0
 30
0.0
 40
5.0
  0
CIRCLE
  5
8F
330
17
100
AcDbEntity
  8
CUT
 62
1
100
AcDbCircle
 10
188.0
 20
341.0
 30
0.0
 40
5.0
  0
CIRCLE
  5
90
330
17
100
AcDbEntity
  8
CUT
 62
1
100
AcDbCircle
 10
224.0
 20
341.0
 30
0.0
 40
5.0
  0
LWPOLYLINE
  5
91
330
17
100
AcDbEntity
  8
CUT
 62
1
100
AcDbPolyline
 90
53
 70
1
 10
249.0
 20
366.0
 10
329.0
 20
366.0
 10
329.0
 20
266.53196256846456
 10
322.2340187157677
 20
259.7659812842323
 10
321.12883819507493
 20
258.6963885832017
 10
319.98925330970326
 20
257.66352904848804
 10
318.81648435569133
 20
256.6685086919514
 10
317.6117871634099
 20
255.71239300631194
 10
316.3764517527867
 20
254.7962058241941
 10
315.1118009519213
 20
253.92092822178037
 10
313.8191889805673
 20
253.0874974682508
 10
312.5
 20
252.2968060221314
 10
311.1556466308219
 20
251.54970057562733
 10
309.78756844029306
 20
250.84698114796365
 10
308.39723040080656
 20
250.18940022870476
 10
306.9861213211592
 20
249.57766197196952
 10
305.55575225229796
 20
249.0124214424057
 10
304.1076548692486
 20
248.49428391373004
 10
302.6433798309597
 20
248.0238042205862
 10
301.16449511981847
 20
247.60148616441379
 10
299.67258436261557
 20
247.2277819739653
 10
298.16924513475806
 20
246.90309182104818
 10
296.6560872495457
 20
246.62776339201068
 10
295.1347310343424
 20
246.40209151543093
 10
293.60680559548933
 20
246.22631784640674
 10
292.0739470738167
 20
246.10063060778563
 10
290.5377968926235
 20
246.02516438861082
 10
289.0
 20
246.0
 10
287.4622031073765
 20
246.02516438861082
 10
285.9260529261833
 20
246.10063060778563
 10
284.39319440451067
 20
246.22631784640674
 10
282.86526896565755
 20
246.40209151543093
 10
281.3439127504543
 20
246.62776339201068
 10
279.830754865242
 20
246.90309182104818
 10
278.3274156373845
 20
247.2277819739653
 10
276.83550488018153
 20
247.60148616441379
 10
275.3566201690403
 20
248.0238042205862
 10
273.8923451307514
 20
248.49428391373004
 10
272.44424774770204
 20
249.0124214424057
 10
271.0138786788408
 20
249.57766197196952
 10
269.60276959919344
 20
250.18940022870473
 10
268.21243155970694
 20
250.84698114796365
 10
266.8443533691781
 20
251.5497005756273
 10
265.5
 20
252.2968060221314
 10
264.1808110194327
 20
253.0874974682508
 10
262.8881990480787
 20
253.92092822178037
 10
261.6235482472133
 20
254.7962058241941
 10
260.3882128365901
 20
255.71239300631194
 10
259.18351564430867
 20
256.6685086919514
 10
258.01074669029674
 20
257.66352904848804
 10
256.87116180492507
 20
258.6963885832017
 10
255.76598128423228
 20
259.7659812842323
 10
249.0
 20
266.53196256846456
  0
CIRCLE
  5
92
330
17
100
AcDbEntity
  8
CUT
 62
1
100
AcDbCircle
 10
271.0
 20
301.0
 30
0.0
 40
5.0
  0
CIRCLE
  5
93
330
17
100
AcDbEntity
  8
CUT
 62
1
100
AcDbCircle
 10
307.0
 20
301.0
 30
0.0
 40
5.0
  0
CIRCLE
  5
94
330
17
100
AcDbEntity
  8
CUT
 62
1
100
AcDbCircle
 10
271.0
 20
341.0
 30
0.0
 40
5.0
  0
CIRCLE
  5
95
330
17
100
AcDbEntity
  8
CUT
 62
1
100
AcDbCircle
 10
307.0
 20
341.0
 30
0.0
 40
5.0
  0
LWPOLYLINE
  5
96
330
17
100
AcDbEntity
  8
CUT
 62
1
100
AcDbPolyline
 90
53
 70
1
 10
332.0
 20
366.0
 10
412.0
 20
366.0
 10
412.0
 20
266.53196256846456
 10
405.2340187157677
 20
259.7659812842323
 10
404.12883819507493
 20
258.6963885832017
 10
402.98925330970326
 20
257.66352904848804
 10
401.81648435569133
 20
256.6685086919514
 10
400.6117871634099
 20
255.71239300631194
 10
399.3764517527867
 20
254.7962058241941
 10
398.1118009519213
 20
253.92092822178037
 10
396.8191889805673
 20
253.0874974682508
 10
395.5
 20
252.2968060221314
 10
394.1556466308219
 20
251.54970057562733
 10
392.78756844029306
 20
250.84698114796365
 10
391.39723040080656
 20
250.18940022870476
 10
389.9861213211592
 20
249.57766197196952
 10
388.55575225229796
 20
249.0124214424057
 10
387.1076548692486
 20
248.49428391373004
 10
385.6433798309597
 20
248.0238042205862
 10
384.16449511981847
 20
247.60148616441379
 10
382.67258436261557
 20
247.2277819739653
 10
381.16924513475806
 20
246.90309182104818
 10
379.6560872495457
 20
246.62776339201068
 10
378.1347310343424
 20
246.40209151543093
 10
376.60680559548933
 20
246.22631784640674
 10
375.0739470738167
 20
246.10063060778563
 10
373.5377968926235
 20
246.02516438861082
 10
372.0
 20
246.0
 10
370.4622031073765
 20
246.02516438861082
 10
368.9260529261833
 20
246.10063060778563
 10
367.39319440451067
 20
246.22631784640674
 10
365.86526896565755
 20
246.40209151543093
 10
364.3439127504543
 20
246.62776339201068
 10
362.830754865242
 20
246.90309182104818
 10
361.3274156373845
 20
247.2277819739653
 10
359.83550488018153
 20
247.60148616441379
 10
358.3566201690403
 20
248.0238042205862
 10
356.8923451307514
 20
248.49428391373004
 10
355.44424774770204
 20
249.0124214424057
 10
354.0138786788408
 20
249.57766197196952
 10
352.60276959919344
 20
250.18940022870473
 10
351.21243155970694
 20
250.84698114796365
 10
349.8443533691781
 20
251.5497005756273
 10
348.5
 20
252.2968060221314
 10
347.1808110194327
 20
253.0874974682508
 10
345.8881990480787
 20
253.92092822178037
 10
344.6235482472133
 20
254.7962058241941
 10
343.3882128365901
 20
255.71239300631194
 10
342.18351564430867
 20
256.6685086919514
 10
341.01074669029674
 20
257.66352904848804
 10
339.87116180492507
 20
258.6963885832017
 10
338.7659812842323
 20
259.7659812842323
 10
332.0
 20
266.53196256846456
  0
CIRCLE
  5
97
330
17
100
AcDbEntity
  8
CUT
 62
1
100
AcDbCircle
 10
354.0
 20
301.0
 30
0.0
 40
5.0
  0
CIRCLE
  5
98
330
17
100
AcDbEntity
  8
CUT
 62
1
100
AcDbCircle
 10
390.0
 20
301.0
 30
0.0
 40
5.0
  0
CIRCLE
  5
99
330
17
100
AcDbEntity
  8
CUT
 62
1
100
AcDbCircle
 10
354.0
 20
341.0
 30
0.0
 40
5.0
  0
CIRCLE
  5
9A
330
17
100
AcDbEntity
  8
CUT
 62
1
100
AcDbCircle
 10
390.0
 20
341.0
 30
0.0
 40
5.0
  0
LWPOLYLINE
  5
9B
330
17
100
AcDbEntity
  8
CUT
 62
1
100
AcDbPolyline
 90
53
 70
1
 10
415.0
 20
366.0
 10
495.0
 20
366.0
 10
495.0
 20
266.53196256846456
 10
488.2340187157677
 20
259.7659812842323
 10
487.12883819507493
 20
258.6963885832017
 10
485.98925330970326
 20
257.66352904848804
 10
484.81648435569133
 20
256.6685086919514
 10
483.6117871634099
 20
255.71239300631194
 10
482.3764517527867
 20
254.7962058241941
 10
481.1118009519213
 20
253.92092822178037
 10
479.8191889805673
 20
253.0874974682508
 10
478.5
 20
252.2968060221314
 10
477.1556466308219
 20
251.54970057562733
 10
475.78756844029306
 20
250.84698114796365
 10
474.39723040080656
 20
250.18940022870476
 10
472.9861213211592
 20
249.57766197196952
 10
471.55575225229796
 20
249.0124214424057
 10
470.1076548692486
 20
248.49428391373004
 10
468.6433798309597
 20
248.0238042205862
 10
467.16449511981847
 20
247.60148616441379
 10
465.67258436261557
 20
247.2277819739653
 10
464.16924513475806
 20
246.90309182104818
 10
462.6560872495457
 20
246.62776339201068
 10
461.1347310343424
 20
246.40209151543093
 10
459.60680559548933
 20
246.22631784640674
 10
458.0739470738167
 20
246.10063060778563
 10
456.5377968926235
 20
246.02516438861082
 10
455.0
 20
246.0
 10
453.4622031073765
 20
246.02516438861082
 10
451.9260529261833
 20
246.10063060778563
 10
450.39319440451067
 20
246.22631784640674
 10
448.86526896565755
 20
246.40209151543093
 10
447.3439127504543
 20
246.62776339201068
 10
445.830754865242
 20
246.90309182104818
 10
444.3274156373845
 20
247.2277819739653
 10
442.83550488018153
 20
247.60148616441379
 10
441.3566201690403
 20
248.0238042205862
 10
439.8923451307514
 20
248.49428391373004
 10
438.44424774770204
 20
249.0124214424057
 10
437.0138786788408
 20
249.57766197196952
 10
435.60276959919344
 20
250.18940022870473
 10
434.21243155970694
 20
250.84698114796365
 10
432.8443533691781
 20
251.5497005756273
 10
431.5
 20
252.2968060221314
 10
430.1808110194327
 20
253.0874974682508
 10
428.8881990480787
 20
253.92092822178037
 10
427.6235482472133
 20
254.7962058241941
 10
426.3882128365901
 20
255.71239300631194
 10
425.18351564430867
 20
256.6685086919514
 10
424.01074669029674
 20
257.66352904848804
 10
422.87116180492507
 20
258.6963885832017
 10
421.7659812842323
 20
259.7659812842323
 10
415.0
 20
266.53196256846456
  0
CIRCLE
  5
9C
330
17
100
AcDbEntity
  8
CUT
 62
1
100
AcDbCircle
 10
437.0
 20
301.0
 30
0.0
 40
5.0
  0
CIRCLE
  5
9D
330
17
100
AcDbEntity
  8
CUT
 62
1
100
AcDbCircle
 10
473.0
 20
301.0
 30
0.0
 40
5.0
  0
CIRCLE
  5
9E
330
17
100
AcDbEntity
  8
CUT
 62
1
100
AcDbCircle
 10
437.0
 20
341.0
 30
0.0
 40
5.0
  0
CIRCLE
  5
9F
330
17
100
AcDbEntity
  8
CUT
 62
1
100
AcDbCircle
 10
473.0
 20
341.0
 30
0.0
 40
5.0
  0
LWPOLYLINE
  5
A0
330
17
100
AcDbEntity
  8
CUT
 62
1
100
AcDbPolyline
 90
53
 70
1
 10
498.0
 20
366.0
 10
578.0
 20
366.0
 10
578.0
 20
266.53196256846456
 10
571.2340187157678
 20
259.7659812842323
 10
570.128838195075
 20
258.6963885832017
 10
568.9892533097033
 20
257.66352904848804
 10
567.8164843556914
 20
256.6685086919514
 10
566.6117871634099
 20
255.71239300631194
 10
565.3764517527867
 20
254.7962058241941
 10
564.1118009519213
 20
253.92092822178037
 10
562.8191889805673
 20
253.0874974682508
 10
561.5
 20
252.2968060221314
 10
560.1556466308219
 20
251.54970057562733
 10
558.7875684402931
 20
250.84698114796365
 10
557.3972304008065
 20
250.18940022870476
 10
555.9861213211592
 20
249.57766197196952
 10
554.555752252298
 20
249.0124214424057
 10
553.1076548692486
 20
248.49428391373004
 10
551.6433798309597
 20
248.0238042205862
 10
550.1644951198185
 20
247.60148616441379
 10
548.6725843626156
 20
247.2277819739653
 10
547.1692451347581
 20
246.90309182104818
 10
545.6560872495456
 20
246.62776339201068
 10
544.1347310343424
 20
246.40209151543093
 10
542.6068055954894
 20
246.22631784640674
 10
541.0739470738167
 20
246.10063060778563
 10
539.5377968926235
 20
246.02516438861082
 10
538.0
 20
246.0
 10
536.4622031073765
 20
246.02516438861082
 10
534.9260529261833
 20
246.10063060778563
 10
533.3931944045106
 20
246.22631784640674
 10
531.8652689656576
 20
246.40209151543093
 10
530.3439127504544
 20
246.62776339201068
 10
528.8307548652419
 20
246.90309182104818
 10
527.3274156373844
 20
247.2277819739653
 10
525.8355048801815
 20
247.60148616441379
 10
524.3566201690403
 20
248.0238042205862
 10
522.8923451307514
 20
248.49428391373004
 10
521.444247747702
 20
249.0124214424057
 10
520.0138786788408
 20
249.57766197196952
 10
518.6027695991935
 20
250.18940022870473
 10
517.2124315597069
 20
250.84698114796365
 10
515.8443533691781
 20
251.5497005756273
 10
514.5
 20
252.2968060221314
 10
513.1808110194327
 20
253.0874974682508
 10
511.8881990480787
 20
253.92092822178037
 10
510.6235482472133
 20
254.7962058241941
 10
509.3882128365901
 20
255.71239300631194
 10
508.18351564430867
 20
256.6685086919514
 10
507.01074669029674
 20
257.66352904848804
 10
505.87116180492507
 20
258.6963885832017
 10
504.7659812842323
 20
259.7659812842323
 10
498.0
 20
266.53196256846456
  0
CIRCLE
  5
A1
330
17
100
AcDbEntity
  8
CUT
 62
1
100
AcDbCircle
 10
520.0
 20
301.0
 30
0.0
 40
5.0
  0
CIRCLE
  5
A2
330
17
100
AcDbEntity
  8
CUT
 62
1
100
AcDbCircle
 10
556.0
 20
301.0
 30
0.0
 40
5.0
  0
CIRCLE
  5
A3
330
17
100
AcDbEntity
  8
CUT
 62
1
100
AcDbCircle
 10
520.0
 20
341.0
 30
0.0
 40
5.0
  0
CIRCLE
  5
A4
330
17
100
AcDbEntity
  8
CUT
 62
1
100
AcDbCircle
 10
556.0
 20
341.0
 30
0.0
 40
5.0
  0
LWPOLYLINE
  5
A5
330
17
100
AcDbEntity
  8
CUT
 62
1
100
AcDbPolyline
 90
53
 70
1
 10
581.0
 20
366.0
 10
661.0
 20
366.0
 10
661.0
 20
266.53196256846456
 10
654.2340187157678
 20
259.7659812842323
 10
653.128838195075
 20
258.6963885832017
 10
651.9892533097033
 20
257.66352904848804
 10
650.8164843556914
 20
256.6685086919514
 10
649.6117871634099
 20
255.71239300631194
 10
648.3764517527867
 20
254.7962058241941
 10
647.1118009519213
 20
253.92092822178037
 10
645.8191889805673
 20
253.0874974682508
 10
644.5
 20
252.2968060221314
 10
643.1556466308219
 20
251.54970057562733
 10
641.7875684402931
 20
250.84698114796365
 10
640.3972304008065
 20
250.18940022870476
 10
638.9861213211592
 20
249.57766197196952
 10
637.555752252298
 20
249.0124214424057
 10
636.1076548692486
 20
248.49428391373004
 10
634.6433798309597
 20
248.0238042205862
 10
633.1644951198185
 20
247.60148616441379
 10
631.6725843626156
 20
247.2277819739653
 10
630.1692451347581
 20
246.90309182104818
 10
628.6560872495456
 20
246.62776339201068
 10
627.1347310343424
 20
246.40209151543093
 10
625.6068055954894
 20
246.22631784640674
 10
624.0739470738167
 20
246.10063060778563
 10
622.5377968926235
 20
246.02516438861082
 10
621.0
 20
246.0
 10
619.4622031073765
 20
246.02516438861082
 10
617.9260529261833
 20
246.10063060778563
 10
616.3931944045106
 20
246.22631784640674
 10
614.8652689656576
 20
246.40209151543093
 10
613.3439127504544
 20
246.62776339201068
 10
611.8307548652419
 20
246.90309182104818
 10
610.3274156373844
 20
247.2277819739653
 10
608.8355048801815
 20
247.60148616441379
 10
607.3566201690403
 20
248.0238042205862
 10
605.8923451307514
 20
248.49428391373004
 10
604.444247747702
 20
249.0124214424057
 10
603.0138786788408
 20
249.57766197196952
 10
601.6027695991935
 20
250.18940022870473
 10
600.2124315597069
 20
250.84698114796365
 10
598.8443533691781
 20
251.5497005756273
 10
597.5
 20
252.2968060221314
 10
596.1808110194327
 20
253.0874974682508
 10
594.8881990480787
 20
253.92092822178037
 10
593.6235482472133
 20
254.7962058241941
 10
592.3882128365901
 20
255.71239300631194
 10
591.1835156443086
 20
256.6685086919514
 10
590.0107466902967
 20
257.66352904848804
 10
588.871161804925
 20
258.6963885832017
 10
587.7659812842322
 20
259.7659812842323
 10
581.0
 20
266.53196256846456
  0
CIRCLE
  5
A6
330
17
100
AcDbEntity
  8
CUT
 62
1
100
AcDbCircle
 10
603.0
 20
301.0
 30
0.0
 40
5.0
  0
CIRCLE
  5
A7
330
17
100
AcDbEntity
  8
CUT
 62
1
100
AcDbCircle
 10
639.0
 20
301.0
 30
0.0
 40
5.0
  0
CIRCLE
  5
A8
330
17
100
AcDbEntity
  8
CUT
 62
1
100
AcDbCircle
 10
603.0
 20
341.0
 30
0.0
 40
5.0
  0
CIRCLE
  5
A9
330
17
100
AcDbEntity
  8
CUT
 62
1
100
AcDbCircle
 10
639.0
 20
341.0
 30
0.0
 40
5.0
  0
LWPOLYLINE
  5
AA
330
17
100
AcDbEntity
  8
CUT
 62
1
100
AcDbPolyline
 90
53
 70
1
 10
0.0
 20
489.0
 10
80.0
 20
489.0
 10
80.0
 20
389.53196256846456
 10
73.23401871576773
 20
382.7659812842323
 10
72.12883819507496
 20
381.6963885832017
 10
70.98925330970323
 20
380.66352904848804
 10
69.81648435569133
 20
379.6685086919514
 10
68.61178716340987
 20
378.71239300631197
 10
67.37645175278669
 20
377.7962058241941
 10
66.11180095192131
 20
376.9209282217804
 10
64.8191889805673
 20
376.0874974682508
 10
63.5
 20
375.29680602213136
 10
62.1556466308219
 20
374.5497005756273
 10
60.78756844029306
 20
373.8469811479637
 10
59.39723040080655
 20
373.18940022870476
 10
57.98612132115922
 20
372.5776619719695
 10
56.55575225229798
 20
372.0124214424057
 10
55.1076548692486
 20
371.49428391373004
 10
53.64337983095973
 20
371.02380422058616
 10
52.16449511981848
 20
370.6014861644138
 10
50.67258436261554
 20
370.2277819739653
 10
49.16924513475803
 20
369.9030918210482
 10
47.65608724954568
 20
369.6277633920107
 10
46.13473103434242
 20
369.4020915154309
 10
44.606805595489355
 20
369.22631784640674
 10
43.073947073816726
 20
369.10063060778566
 10
41.53779689262348
 20
369.0251643886108
 10
40.0
 20
369.0
 10
38.46220310737652
 20
369.0251643886108
 10
36.92605292618328
 20
369.10063060778566
 10
35.39319440451065
 20
369.22631784640674
 10
33.86526896565758
 20
369.4020915154309
 10
32.34391275045433
 20
369.6277633920107
 10
30.830754865241975
 20
369.9030918210482
 10
29.327415637384462
 20
370.2277819739653
 10
27.83550488018153
 20
370.6014861644138
 10
26.356620169040276
 20
371.02380422058616
 10
24.892345130751405
 20
371.49428391373004
 10
23.444247747702025
 20
372.0124214424057
 10
22.013878678840783
 20
372.5776619719695
 10
20.602769599193454
 20
373.18940022870476
 10
19.212431559706946
 20
373.8469811479637
 10
17.84435336917811
 20
374.5497005756273
 10
16.49999999999999
 20
375.29680602213136
 10
15.180811019432703
 20
376.0874974682508
 10
13.888199048078707
 20
376.92092822178034
 10
12.623548247213304
 20
377.7962058241941
 10
11.388212836590128
 20
378.71239300631197
 10
10.183515644308667
 20
379.6685086919514
 10
9.010746690296763
 20
380.66352904848804
 10
7.871161804925059
 20
381.6963885832017
 10
6.765981284232268
 20
382.7659812842323
 10
0.0
 20
389.53196256846456
  0
CIRCLE
  5
AB
330
17
100
AcDbEntity
  8
CUT
 62
1
100
AcDbCircle
 10
22.0
 20
424.0
 30
0.0
 40
5.0
  0
CIRCLE
  5
AC
330
17
100
AcDbEntity
  8
CUT
 62
1
100
AcDbCircle
 10
58.0
 20
424.0
 30
0.0
 40
5.0
  0
CIRCLE
  5
AD
330
17
100
AcDbEntity
  8
CUT
 62
1
100
AcDbCircle
 10
22.0
 20
464.0
 30
0.0
 40
5.0
  0
CIRCLE
  5
AE
330
17
100
AcDbEntity
  8
CUT
 62
1
100
AcDbCircle
 10
58.0
 20
464.0
 30
0.0
 40
5.0
  0
LWPOLYLINE
  5
AF
330
17
100
AcDbEntity
  8
CUT
 62
1
100
AcDbPolyline
 90
53
 70
1
 10
83.0
 20
489.0
 10
163.0
 20
489.0
 10
163.0
 20
389.53196256846456
 10
156.23401871576772
 20
382.7659812842323
 10
155.12883819507496
 20
381.6963885832017
 10
153.98925330970323
 20
380.66352904848804
 10
152.81648435569133
 20
379.6685086919514
 10
151.61178716340987
 20
378.71239300631197
 10
150.3764517527867
 20
377.7962058241941
 10
149.1118009519213
 20
376.9209282217804
 10
147.8191889805673
 20
376.0874974682508
 10
146.5
 20
375.29680602213136
 10
145.1556466308219
 20
374.5497005756273
 10
143.78756844029306
 20
373.8469811479637
 10
142.39723040080656
 20
373.18940022870476
 10
140.98612132115923
 20
372.5776619719695
 10
139.55575225229796
 20
372.0124214424057
 10
138.1076548692486
 20
371.49428391373004
 10
136.64337983095973
 20
371.02380422058616
 10
135.1644951198185
 20
370.6014861644138
 10
133.67258436261554
 20
370.2277819739653
 10
132.16924513475803
 20
369.9030918210482
 10
130.65608724954566
 20
369.6277633920107
 10
129.13473103434242
 20
369.4020915154309
 10
127.60680559548936
 20
369.22631784640674
 10
126.07394707381673
 20
369.10063060778566
 10
124.53779689262348
 20
369.0251643886108
 10
123.0
 20
369.0
 10
121.46220310737651
 20
369.0251643886108
 10
119.92605292618329
 20
369.10063060778566
 10
118.39319440451065
 20
369.22631784640674
 10
116.86526896565758
 20
369.4020915154309
 10
115.34391275045434
 20
369.6277633920107
 10
113.83075486524197
 20
369.9030918210482
 10
112.32741563738446
 20
370.2277819739653
 10
110.83550488018153
 20
370.6014861644138
 10
109.35662016904028
 20
371.02380422058616
 10
107.89234513075141
 20
371.49428391373004
 10
106.44424774770202
 20
372.0124214424057
 10
105.01387867884078
 20
372.5776619719695
 10
103.60276959919345
 20
373.18940022870476
 10
102.21243155970694
 20
373.8469811479637
 10
100.84435336917811
 20
374.5497005756273
 10
99.49999999999999
 20
375.29680602213136
 10
98.1808110194327
 20
376.0874974682508
 10
96.8881990480787
 20
376.92092822178034
 10
95.62354824721331
 20
377.7962058241941
 10
94.38821283659013
 20
378.71239300631197
 10
93.18351564430867
 20
379.6685086919514
 10
92.01074669029677
 20
380.66352904848804
 10
90.87116180492507
 20
381.6963885832017
 10
89.76598128423227
 20
382.7659812842323
 10
83.0
 20
389.53196256846456
  0
CIRCLE
  5
B0
330
17
100
AcDbEntity
  8
CUT
 62
1
100
AcDbCircle
 10
105.0
 20
424.0
 30
0.0
 40
5.0
  0
CIRCLE
  5
B1
330
17
100
AcDbEntity
  8
CUT
 62
1
100
AcDbCircle
 10
141.0
 20
424.0
 30
0.0
 40
5.0
  0
CIRCLE
  5
B2
330
17
100
AcDbEntity
  8
CUT
 62
1
100
AcDbCircle
 10
105.0
 20
464.0
 30
0.0
 40
5.0
  0
CIRCLE
  5
B3
330
17
100
AcDbEntity
  8
CUT
 62
1
100
AcDbCircle
 10
141.0
 20
464.0
 30
0.0
 40
5.0
  0
LWPOLYLINE
  5
B4
330
17
100
AcDbEntity
  8
CUT
 62
1
100
AcDbPolyline
 90
53
 70
1
 10
166.0
 20
489.0
 10
246.0
 20
489.0
 10
246.0
 20
389.53196256846456
 10
239.23401871576772
 20
382.7659812842323
 10
238.12883819507496
 20
381.6963885832017
 10
236.98925330970323
 20
380.66352904848804
 10
235.81648435569133
 20
379.6685086919514
 10
234.61178716340987
 20
378.71239300631197
 10
233.3764517527867
 20
377.7962058241941
 10
232.1118009519213
 20
376.9209282217804
 10
230.8191889805673
 20
376.0874974682508
 10
229.5
 20
375.29680602213136
 10
228.1556466308219
 20
374.5497005756273
 10
226.78756844029306
 20
373.8469811479637
 10
225.39723040080656
 20
373.18940022870476
 10
223.98612132115923
 20
372.5776619719695
 10
222.55575225229796
 20
372.0124214424057
 10
221.1076548692486
 20
371.49428391373004
 10
219.64337983095973
 20
371.02380422058616
 10
218.1644951198185
 20
370.6014861644138
 10
216.67258436261554
 20
370.2277819739653
 10
215.16924513475803
 20
369.9030918210482
 10
213.65608724954566
 20
369.6277633920107
 10
212.13473103434242
 20
369.4020915154309
 10
210.60680559548936
 20
369.22631784640674
 10
209.07394707381673
 20
369.10063060778566
 10
207.53779689262348
 20
369.0251643886108
 10
206.0
 20
369.0
 10
204.46220310737652
 20
369.0251643886108
 10
202.92605292618327
 20
369.10063060778566
 10
201.39319440451064
 20
369.22631784640674
 10
199.86526896565758
 20
369.4020915154309
 10
198.34391275045434
 20
369.6277633920107
 10
196.83075486524197
 20
369.9030918210482
 10
195.32741563738446
 20
370.2277819739653
 10
193.83550488018153
 20
370.6014861644138
 10
192.35662016904027
 20
371.02380422058616
 10
190.8923451307514
 20
371.49428391373004
 10
189.44424774770204
 20
372.0124214424057
 10
188.0138786788408
 20
372.5776619719695
 10
186.60276959919346
 20
373.18940022870476
 10
185.21243155970694
 20
373.8469811479637
 10
183.84435336917812
 20
374.5497005756273
 10
182.5
 20
375.29680602213136
 10
181.1808110194327
 20
376.0874974682508
 10
179.88819904807872
 20
376.92092822178034
 10
178.6235482472133
 20
377.7962058241941
 10
177.38821283659013
 20
378.71239300631197
 10
176.18351564430867
 20
379.6685086919514
 10
175.01074669029677
 20
380.66352904848804
 10
173.87116180492507
 20
381.6963885832017
 10
172.76598128423228
 20
382.7659812842323
 10
166.0
 20
389.53196256846456
  0
CIRCLE
  5
B5
330
17
100
AcDbEntity
  8
CUT
 62
1
100
AcDbCircle
 10
188.0
 20
424.0
 30
0.0
 40
5.0
  0
CIRCLE
  5
B6
330
17
100
AcDbEntity
  8
CUT
 62
1
100
AcDbCircle
 10
224.0
 20
424.0
 30
0.0
 40
5.0
  0
CIRCLE
  5
B7
330
17
100
AcDbEntity
  8
CUT
 62
1
100
AcDbCircle
 10
188.0
 20
464.0
 30
0.0
 40
5.0
  0
CIRCLE
  5
B8
330
17
100
AcDbEntity
  8
CUT
 62
1
100
AcDbCircle
 10
224.0
 20
464.0
 30
0.0
 40
5.0
  0
LWPOLYLINE
  5
B9
330
17
100
AcDbEntity
  8
CUT
 62
1
100
AcDbPolyline
 90
53
 70
1
 10
249.0
 20
489.0
 10
329.0
 20
489.0
 10
329.0
 20
389.53196256846456
 10
322.2340187157677
 20
382.7659812842323
 10
321.12883819507493
 20
381.6963885832017
 10
319.98925330970326
 20
380.66352904848804
 10
318.81648435569133
 20
379.6685086919514
 10
317.6117871634099
 20
378.71239300631197
 10
316.3764517527867
 20
377.7962058241941
 10
315.1118009519213
 20
376.9209282217804
 10
313.8191889805673
 20
376.0874974682508
 10
312.5
 20
375.29680602213136
 10
311.1556466308219
 20
374.5497005756273
 10
309.78756844029306
 20
373.8469811479637
 10
308.39723040080656
 20
373.18940022870476
 10
306.9861213211592
 20
372.5776619719695
 10
305.55575225229796
 20
372.0124214424057
 10
304.1076548692486
 20
371.49428391373004
 10
302.6433798309597
 20
371.02380422058616
 10
301.16449511981847
 20
370.6014861644138
 10
299.67258436261557
 20
370.2277819739653
 10
298.16924513475806
 20
369.9030918210482
 10
296.6560872495457
 20
369.6277633920107
 10
295.1347310343424
 20
369.4020915154309
 10
293.60680559548933
 20
369.22631784640674
 10
292.0739470738167
 20
369.10063060778566
 10
290.5377968926235
 20
369.0251643886108
 10
289.0
 20
369.0
 10
287.4622031073765
 20
369.0251643886108
 10
285.9260529261833
 20
369.10063060778566
 10
284.39319440451067
 20
369.22631784640674
 10
282.86526896565755
 20
369.4020915154309
 10
281.3439127504543
 20
369.6277633920107
 10
279.830754865242
 20
369.9030918210482
 10
278.3274156373845
 20
370.2277819739653
 10
276.83550488018153
 20
370.6014861644138
 10
275.3566201690403
 20
371.02380422058616
 10
273.8923451307514
 20
371.49428391373004
 10
272.44424774770204
 20
372.0124214424057
 10
271.0138786788408
 20
372.5776619719695
 10
269.60276959919344
 20
373.18940022870476
 10
268.21243155970694
 20
373.8469811479637
 10
266.8443533691781
 20
374.5497005756273
 10
265.5
 20
375.29680602213136
 10
264.1808110194327
 20
376.0874974682508
 10
262.8881990480787
 20
376.92092822178034
 10
261.6235482472133
 20
377.7962058241941
 10
260.3882128365901
 20
378.71239300631197
 10
259.18351564430867
 20
379.6685086919514
 10
258.01074669029674
 20
380.66352904848804
 10
256.87116180492507
 20
381.6963885832017
 10
255.76598128423228
 20
382.7659812842323
 10
249.0
 20
389.53196256846456
  0
CIRCLE
  5
BA
330
17
100
AcDbEntity
  8
CUT
 62
1
100
AcDbCircle
 10
271.0
 20
424.0
 30
0.0
 40
5.0
  0
CIRCLE
  5
BB
330
17
100
AcDbEntity
  8
CUT
 62
1
100
AcDbCircle
 10
307.0
 20
424.0
 30
0.0
 40
5.0
  0
CIRCLE
  5
BC
330
17
100
AcDbEntity
  8
CUT
 62
1
100
AcDbCircle
 10
271.0
 20
464.0
 30
0.0
 40
5.0
  0
CIRCLE
  5
BD
330
17
100
AcDbEntity
  8
CUT
 62
1
100
AcDbCircle
 10
307.0
 20
464.0
 30
0.0
 40
5.0
  0
LWPOLYLINE
  5
BE
330
17
100
AcDbEntity
  8
CUT
 62
1
100
AcDbPolyline
 90
53
 70
1
 10
332.0
 20
489.0
 10
412.0
 20
489.0
 10
412.0
 20
389.53196256846456
 10
405.2340187157677
 20
382.7659812842323
 10
404.12883819507493
 20
381.6963885832017
 10
402.98925330970326
 20
380.66352904848804
 10
401.81648435569133
 20
379.6685086919514
 10
400.6117871634099
 20
378.71239300631197
 10
399.3764517527867
 20
377.7962058241941
 10
398.1118009519213
 20
376.9209282217804
 10
396.8191889805673
 20
376.0874974682508
 10
395.5
 20
375.29680602213136
 10
394.1556466308219
 20
374.5497005756273
 10
392.78756844029306
 20
373.8469811479637
 10
391.39723040080656
 20
373.18940022870476
 10
389.9861213211592
 20
372.5776619719695
 10
388.55575225229796
 20
372.0124214424057
 10
387.1076548692486
 20
371.49428391373004
 10
385.6433798309597
 20
371.02380422058616
 10
384.16449511981847
 20
370.6014861644138
 10
382.67258436261557
 20
370.2277819739653
 10
381.16924513475806
 20
369.9030918210482
 10
379.6560872495457
 20
369.6277633920107
 10
378.1347310343424
 20
369.4020915154309
 10
376.60680559548933
 20
369.22631784640674
 10
375.0739470738167
 20
369.10063060778566
 10
373.5377968926235
 20
369.0251643886108
 10
372.0
 20
369.0
 10
370.4622031073765
 20
369.0251643886108
 10
368.9260529261833
 20
369.10063060778566
 10
367.39319440451067
 20
369.22631784640674
 10
365.86526896565755
 20
369.4020915154309
 10
364.3439127504543
 20
369.6277633920107
 10
362.830754865242
 20
369.9030918210482
 10
361.3274156373845
 20
370.2277819739653
 10
359.83550488018153
 20
370.6014861644138
 10
358.3566201690403
 20
371.02380422058616
 10
356.8923451307514
 20
371.49428391373004
 10
355.44424774770204
 20
372.0124214424057
 10
354.0138786788408
 20
372.5776619719695
 10
352.60276959919344
 20
373.18940022870476
 10
351.21243155970694
 20
373.8469811479637
 10
349.8443533691781
 20
374.5497005756273
 10
348.5
 20
375.29680602213136
 10
347.1808110194327
 20
376.0874974682508
 10
345.8881990480787
 20
376.92092822178034
 10
344.6235482472133
 20
377.7962058241941
 10
343.3882128365901
 20
378.71239300631197
 10
342.18351564430867
 20
379.6685086919514
 10
341.01074669029674
 20
380.66352904848804
 10
339.87116180492507
 20
381.6963885832017
 10
338.7659812842323
 20
382.7659812842323
 10
332.0
 20
389.53196256846456
  0
CIRCLE
  5
BF
330
17
100
AcDbEntity
  8
CUT
 62
1
100
AcDbCircle
 10
354.0
 20
424.0
 30
0.0
 40
5.0
  0
CIRCLE
  5
C0
330
17
100
AcDbEntity
  8
CUT
 62
1
100
AcDbCircle
 10
390.0
 20
424.0
 30
0.0
 40
5.0
  0
CIRCLE
  5
C1
330
17
100
AcDbEntity
  8
CUT
 62
1
100
AcDbCircle
 10
354.0
 20
464.0
 30
0.0
 40
5.0
  0
CIRCLE
  5
C2
330
17
100
AcDbEntity
  8
CUT
 62
1
100
AcDbCircle
 10
390.0
 20
464.0
 30
0.0
 40
5.0
  0
LWPOLYLINE
  5
C3
330
17
100
AcDbEntity
  8
CUT
 62
1
100
AcDbPolyline
 90
53
 70
1
 10
415.0
 20
489.0
 10
495.0
 20
489.0
 10
495.0
 20
389.53196256846456
 10
488.2340187157677
 20
382.7659812842323
 10
487.12883819507493
 20
381.6963885832017
 10
485.98925330970326
 20
380.66352904848804
 10
484.81648435569133
 20
379.6685086919514
 10
483.6117871634099
 20
378.71239300631197
 10
482.3764517527867
 20
377.7962058241941
 10
481.1118009519213
 20
376.9209282217804
 10
479.8191889805673
 20
376.0874974682508
 10
478.5
 20
375.29680602213136
 10
477.1556466308219
 20
374.5497005756273
 10
475.78756844029306
 20
373.8469811479637
 10
474.39723040080656
 20
373.18940022870476
 10
472.9861213211592
 20
372.5776619719695
 10
471.55575225229796
 20
372.0124214424057
 10
470.1076548692486
 20
371.49428391373004
 10
468.6433798309597
 20
371.02380422058616
 10
467.16449511981847
 20
370.6014861644138
 10
465.67258436261557
 20
370.2277819739653
 10
464.16924513475806
 20
369.9030918210482
 10
462.6560872495457
 20
369.6277633920107
 10
461.1347310343424
 20
369.4020915154309
 10
459.60680559548933
 20
369.22631784640674
 10
458.0739470738167
 20
369.10063060778566
 10
456.5377968926235
 20
369.0251643886108
 10
455.0
 20
369.0
 10
453.4622031073765
 20
369.0251643886108
 10
451.9260529261833
 20
369.10063060778566
 10
450.39319440451067
 20
369.22631784640674
 10
448.86526896565755
 20
369.4020915154309
 10
447.3439127504543
 20
369.6277633920107
 10
445.830754865242
 20
369.9030918210482
 10
444.3274156373845
 20
370.2277819739653
 10
442.83550488018153
 20
370.6014861644138
 10
441.3566201690403
 20
371.02380422058616
 10
439.8923451307514
 20
371.49428391373004
 10
438.44424774770204
 20
372.0124214424057
 10
437.0138786788408
 20
372.5776619719695
 10
435.60276959919344
 20
373.18940022870476
 10
434.21243155970694
 20
373.8469811479637
 10
432.8443533691781
 20
374.5497005756273
 10
431.5
 20
375.29680602213136
 10
430.1808110194327
 20
376.0874974682508
 10
428.8881990480787
 20
376.92092822178034
 10
427.6235482472133
 20
377.7962058241941
 10
426.3882128365901
 20
378.71239300631197
 10
425.18351564430867
 20
379.6685086919514
 10
424.01074669029674
 20
380.66352904848804
 10
422.87116180492507
 20
381.6963885832017
 10
421.7659812842323
 20
382.7659812842323
 10
415.0
 20
389.53196256846456
  0
CIRCLE
  5
C4
330
17
100
AcDbEntity
  8
CUT
 62
1
100
AcDbCircle
 10
437.0
 20
424.0
 30
0.0
 40
5.0
  0
CIRCLE
  5
C5
330
17
100
AcDbEntity
  8
CUT
 62
1
100
AcDbCircle
 10
473.0
 20
424.0
 30
0.0
 40
5.0
  0
CIRCLE
  5
C6
330
17
100
AcDbEntity
  8
CUT
 62
1
100
AcDbCircle
 10
437.0
 20
464.0
 30
0.0
 40
5.0
  0
CIRCLE
  5
C7
330
17
100
AcDbEntity
  8
CUT
 62
1
100
AcDbCircle
 10
473.0
 20
464.0
 30
0.0
 40
5.0
  0
LWPOLYLINE
  5
C8
330
17
100
AcDbEntity
  8
CUT
 62
1
100
AcDbPolyline
 90
53
 70
1
 10
498.0
 20
489.0
 10
578.0
 20
489.0
 10
578.0
 20
389.53196256846456
 10
571.2340187157678
 20
382.7659812842323
 10
570.128838195075
 20
381.6963885832017
 10
568.9892533097033
 20
380.66352904848804
 10
567.8164843556914
 20
379.6685086919514
 10
566.6117871634099
 20
378.71239300631197
 10
565.3764517527867
 20
377.7962058241941
 10
564.1118009519213
 20
376.9209282217804
 10
562.8191889805673
 20
376.0874974682508
 10
561.5
 20
375.29680602213136
 10
560.1556466308219
 20
374.5497005756273
 10
558.7875684402931
 20
373.8469811479637
 10
557.3972304008065
 20
373.18940022870476
 10
555.9861213211592
 20
372.5776619719695
 10
554.555752252298
 20
372.0124214424057
 10
553.1076548692486
 20
371.49428391373004
 10
551.6433798309597
 20
371.02380422058616
 10
550.1644951198185
 20
370.6014861644138
 10
548.6725843626156
 20
370.2277819739653
 10
547.1692451347581
 20
369.9030918210482
 10
545.6560872495456
 20
369.6277633920107
 10
544.1347310343424
 20
369.4020915154309
 10
542.6068055954894
 20
369.22631784640674
 10
541.0739470738167
 20
369.10063060778566
 10
539.5377968926235
 20
369.0251643886108
 10
538.0
 20
369.0
 10
536.4622031073765
 20
369.0251643886108
 10
534.9260529261833
 20
369.10063060778566
 10
533.3931944045106
 20
369.22631784640674
 10
531.8652689656576
 20
369.4020915154309
 10
530.3439127504544
 20
369.6277633920107
 10
528.8307548652419
 20
369.9030918210482
 10
527.3274156373844
 20
370.2277819739653
 10
525.8355048801815
 20
370.6014861644138
 10
524.3566201690403
 20
371.02380422058616
 10
522.8923451307514
 20
371.49428391373004
 10
521.444247747702
 20
372.0124214424057
 10
520.0138786788408
 20
372.5776619719695
 10
518.6027695991935
 20
373.18940022870476
 10
517.2124315597069
 20
373.8469811479637
 10
515.8443533691781
 20
374.5497005756273
 10
514.5
 20
375.29680602213136
 10
513.1808110194327
 20
376.0874974682508
 10
511.8881990480787
 20
376.92092822178034
 10
510.6235482472133
 20
377.7962058241941
 10
509.3882128365901
 20
378.71239300631197
 10
508.18351564430867
 20
379.6685086919514
 10
507.01074669029674
 20
380.66352904848804
 10
505.87116180492507
 20
381.6963885832017
 10
504.7659812842323
 20
382.7659812842323
 10
498.0
 20
389.53196256846456
  0
CIRCLE
  5
C9
330
17
100
AcDbEntity
  8
CUT
 62
1
100
AcDbCircle
 10
520.0
 20
424.0
 30
0.0
 40
5.0
  0
CIRCLE
  5
CA
330
17
100
AcDbEntity
  8
CUT
 62
1
100
AcDbCircle
 10
556.0
 20
424.0
 30
0.0
 40
5.0
  0
CIRCLE
  5
CB
330
17
100
AcDbEntity
  8
CUT
 62
1
100
AcDbCircle
 10
520.0
 20
464.0
 30
0.0
 40
5.0
  0
CIRCLE
  5
CC
330
17
100
AcDbEntity
  8
CUT
 62
1
100
AcDbCircle
 10
556.0
 20
464.0
 30
0.0
 40
5.0
  0
LWPOLYLINE
  5
CD
330
17
100
AcDbEntity
  8
CUT
 62
1
100
AcDbPolyline
 90
53
 70
1
 10
581.0
 20
489.0
 10
661.0
 20
489.0
 10
661.0
 20
389.53196256846456
 10
654.2340187157678
 20
382.7659812842323
 10
653.128838195075
 20
381.6963885832017
 10
651.9892533097033
 20
380.66352904848804
 10
650.8164843556914
 20
379.6685086919514
 10
649.6117871634099
 20
378.71239300631197
 10
648.3764517527867
 20
377.7962058241941
 10
647.1118009519213
 20
376.9209282217804
 10
645.8191889805673
 20
376.0874974682508
 10
644.5
 20
375.29680602213136
 10
643.1556466308219
 20
374.5497005756273
 10
641.7875684402931
 20
373.8469811479637
 10
640.3972304008065
 20
373.18940022870476
 10
638.9861213211592
 20
372.5776619719695
 10
637.555752252298
 20
372.0124214424057
 10
636.1076548692486
 20
371.49428391373004
 10
634.6433798309597
 20
371.02380422058616
 10
633.1644951198185
 20
370.6014861644138
 10
631.6725843626156
 20
370.2277819739653
 10
630.1692451347581
 20
369.9030918210482
 10
628.6560872495456
 20
369.6277633920107
 10
627.1347310343424
 20
369.4020915154309
 10
625.6068055954894
 20
369.22631784640674
 10
624.0739470738167
 20
369.10063060778566
 10
622.5377968926235
 20
369.0251643886108
 10
621.0
 20
369.0
 10
619.4622031073765
 20
369.0251643886108
 10
617.9260529261833
 20
369.10063060778566
 10
616.3931944045106
 20
369.22631784640674
 10
614.8652689656576
 20
369.4020915154309
 10
613.3439127504544
 20
369.6277633920107
 10
611.8307548652419
 20
369.9030918210482
 10
610.3274156373844
 20
370.2277819739653
 10
608.8355048801815
 20
370.6014861644138
 10
607.3566201690403
 20
371.02380422058616
 10
605.8923451307514
 20
371.49428391373004
 10
604.444247747702
 20
372.0124214424057
 10
603.0138786788408
 20
372.5776619719695
 10
601.6027695991935
 20
373.18940022870476
 10
600.2124315597069
 20
373.8469811479637
 10
598.8443533691781
 20
374.5497005756273
 10
597.5
 20
375.29680602213136
 10
596.1808110194327
 20
376.0874974682508
 10
594.8881990480787
 20
376.92092822178034
 10
593.6235482472133
 20
377.7962058241941
 10
592.3882128365901
 20
378.71239300631197
 10
591.1835156443086
 20
379.6685086919514
 10
590.0107466902967
 20
380.66352904848804
 10
588.871161804925
 20
381.6963885832017
 10
587.7659812842322
 20
382.7659812842323
 10
581.0
 20
389.53196256846456
  0
CIRCLE
  5
CE
330
17
100
AcDbEntity
  8
CUT
 62
1
100
AcDbCircle
 10
603.0
 20
424.0
 30
0.0
 40
5.0
  0
CIRCLE
  5
CF
330
17
100
AcDbEntity
  8
CUT
 62
1
100
AcDbCircle
 10
639.0
 20
424.0
 30
0.0
 40
5.0
  0
CIRCLE
  5
D0
330
17
100
AcDbEntity
  8
CUT
 62
1
100
AcDbCircle
 10
603.0
 20
464.0
 30
0.0
 40
5.0
  0
CIRCLE
  5
D1
330
17
100
AcDbEntity
  8
CUT
 62
1
100
AcDbCircle
 10
639.0
 20
464.0
 30
0.0
 40
5.0
  0
LWPOLYLINE
  5
D2
330
17
100
AcDbEntity
  8
INFO
 62
8
100
AcDbPolyline
 90
4
 70
1
 10
0.0
 20
-10.0
 10
664.0
 20
-10.0
 10
664.0
 20
492.0
 10
0.0
 20
492.0
  0
TEXT
  5
D3
330
17
100
AcDbEntity
  8
INFO
 62
7
100
AcDbText
 10
332.0
 20
-25.0
 30
0.0
 40
5.0
  1
NEST R47 punch | 32 pcs x 5mm | stack L=160mm | sheet ~664x492
 72
1
 11
332.0
 21
-25.0
 31
0.0
100
AcDbText
 73
2
  0
ENDSEC
  0
SECTION
  2
OBJECTS
  0
DICTIONARY
  5
A
330
0
100
AcDbDictionary
281
1
  3
ACAD_COLOR
350
B
  3
ACAD_GROUP
350
C
  3
ACAD_LAYOUT
350
D
  3
ACAD_MATERIAL
350
E
  3
ACAD_MLEADERSTYLE
350
F
  3
ACAD_MLINESTYLE
350
10
  3
ACAD_PLOTSETTINGS
350
11
  3
ACAD_PLOTSTYLENAME
350
12
  3
ACAD_SCALELIST
350
14
  3
ACAD_TABLESTYLE
350
15
  3
ACAD_VISUALSTYLE
350
16
  3
EZDXF_META
350
2D
  0
DICTIONARY
  5
B
330
A
100
AcDbDictionary
281
1
  0
DICTIONARY
  5
C
330
A
100
AcDbDictionary
281
1
  0
DICTIONARY
  5
D
330
A
100
AcDbDictionary
281
1
  3
Model
350
1A
  3
Layout1
350
1E
  0
DICTIONARY
  5
E
330
A
100
AcDbDictionary
281
1
  3
ByBlock
350
1F
  3
ByLayer
350
20
  3
Global
350
21
  0
DICTIONARY
  5
F
330
A
100
AcDbDictionary
281
1
  3
Standard
350
2C
  0
DICTIONARY
  5
10
330
A
100
AcDbDictionary
281
1
  3
Standard
350
22
  0
DICTIONARY
  5
11
330
A
100
AcDbDictionary
281
1
  0
ACDBDICTIONARYWDFLT
  5
12
330
A
100
AcDbDictionary
281
1
  3
Normal
350
13
100
AcDbDictionaryWithDefault
340
13
  0
ACDBPLACEHOLDER
  5
13
330
12
  0
DICTIONARY
  5
14
330
A
100
AcDbDictionary
281
1
  0
DICTIONARY
  5
15
330
A
100
AcDbDictionary
281
1
  0
DICTIONARY
  5
16
330
A
100
AcDbDictionary
281
1
  0
LAYOUT
  5
1A
330
D
100
AcDbPlotSettings
  1

  4
A3
  6

 40
7.5
 41
20.0
 42
7.5
 43
20.0
 44
420.0
 45
297.0
 46
0.0
 47
0.0
 48
0.0
 49
0.0
140
0.0
141
0.0
142
1.0
143
1.0
 70
1024
 72
1
 73
0
 74
5
  7

 75
16
 76
0
 77
2
 78
300
147
1.0
148
0.0
149
0.0
100
AcDbLayout
  1
Model
 70
1
 71
0
 10
0.0
 20
0.0
 11
420.0
 21
297.0
 12
0.0
 22
0.0
 32
0.0
 14
1e+20
 24
1e+20
 34
1e+20
 15
-1e+20
 25
-1e+20
 35
-1e+20
146
0.0
 13
0.0
 23
0.0
 33
0.0
 16
1.0
 26
0.0
 36
0.0
 17
0.0
 27
1.0
 37
0.0
 76
1
330
17
  0
LAYOUT
  5
1E
330
D
100
AcDbPlotSettings
  1

  4
A3
  6

 40
7.5
 41
20.0
 42
7.5
 43
20.0
 44
420.0
 45
297.0
 46
0.0
 47
0.0
 48
0.0
 49
0.0
140
0.0
141
0.0
142
1.0
143
1.0
 70
0
 72
1
 73
0
 74
5
  7

 75
16
 76
0
 77
2
 78
300
147
1.0
148
0.0
149
0.0
100
AcDbLayout
  1
Layout1
 70
1
 71
1
 10
0.0
 20
0.0
 11
420.0
 21
297.0
 12
0.0
 22
0.0
 32
0.0
 14
1e+20
 24
1e+20
 34
1e+20
 15
-1e+20
 25
-1e+20
 35
-1e+20
146
0.0
 13
0.0
 23
0.0
 33
0.0
 16
1.0
 26
0.0
 36
0.0
 17
0.0
 27
1.0
 37
0.0
 76
1
330
1B
  0
MATERIAL
  5
1F
102
{ACAD_REACTORS
330
E
102
}
330
E
100
AcDbMaterial
  1
ByBlock
  2

 70
0
 40
1.0
 71
1
 41
1.0
 91
-1023410177
 42
1.0
 72
1
  3

 73
1
 74
1
 75
1
 44
0.5
 73
0
 45
1.0
 46
1.0
 77
1
  4

 78
1
 79
1
170
1
 48
1.0
171
1
  6

172
1
173
1
174
1
140
1.0
141
1.0
175
1
  7

176
1
177
1
178
1
143
1.0
179
1
  8

270
1
271
1
272
1
145
1.0
146
1.0
273
1
  9

274
1
275
1
276
1
 42
1.0
 72
1
  3

 73
1
 74
1
 75
1
 94
63
  0
MATERIAL
  5
20
102
{ACAD_REACTORS
330
E
102
}
330
E
100
AcDbMaterial
  1
ByLayer
  2

 70
0
 40
1.0
 71
1
 41
1.0
 91
-1023410177
 42
1.0
 72
1
  3

 73
1
 74
1
 75
1
 44
0.5
 73
0
 45
1.0
 46
1.0
 77
1
  4

 78
1
 79
1
170
1
 48
1.0
171
1
  6

172
1
173
1
174
1
140
1.0
141
1.0
175
1
  7

176
1
177
1
178
1
143
1.0
179
1
  8

270
1
271
1
272
1
145
1.0
146
1.0
273
1
  9

274
1
275
1
276
1
 42
1.0
 72
1
  3

 73
1
 74
1
 75
1
 94
63
  0
MATERIAL
  5
21
102
{ACAD_REACTORS
330
E
102
}
330
E
100
AcDbMaterial
  1
Global
  2

 70
0
 40
1.0
 71
1
 41
1.0
 91
-1023410177
 42
1.0
 72
1
  3

 73
1
 74
1
 75
1
 44
0.5
 73
0
 45
1.0
 46
1.0
 77
1
  4

 78
1
 79
1
170
1
 48
1.0
171
1
  6

172
1
173
1
174
1
140
1.0
141
1.0
175
1
  7

176
1
177
1
178
1
143
1.0
179
1
  8

270
1
271
1
272
1
145
1.0
146
1.0
273
1
  9

274
1
275
1
276
1
 42
1.0
 72
1
  3

 73
1
 74
1
 75
1
 94
63
  0
MLINESTYLE
  5
22
102
{ACAD_REACTORS
330
10
102
}
330
10
100
AcDbMlineStyle
  2
Standard
 70
0
  3

 62
256
 51
90.0
 52
90.0
 71
2
 49
0.5
 62
256
  6
BYLAYER
 49
-0.5
 62
256
  6
BYLAYER
  0
MLEADERSTYLE
  5
2C
102
{ACAD_REACTORS
330
F
102
}
330
F
100
AcDbMLeaderStyle
179
2
170
2
171
1
172
0
 90
2
 40
0.0
 41
0.0
173
1
 91
-1056964608
 92
-2
290
1
 42
2.0
291
1
 43
8.0
  3
Standard
 44
4.0
300

342
29
174
1
175
1
176
0
178
1
 93
-1056964608
 45
4.0
292
0
297
0
 46
4.0
 94
-1056964608
 47
1.0
 49
1.0
140
1.0
294
1
141
0.0
177
0
142
1.0
295
0
296
0
143
3.75
271
0
272
9
273
9
  0
DICTIONARY
  5
2D
330
A
100
AcDbDictionary
280
1
281
1
  3
CREATED_BY_EZDXF
350
2E
  3
WRITTEN_BY_EZDXF
350
D6
  0
DICTIONARYVAR
  5
2E
330
2D
100
DictionaryVariables
280
0
  1
1.4.4 @ 2026-07-30T12:56:01.070133+00:00
  0
DICTIONARYVAR
  5
D6
330
2D
100
DictionaryVariables
280
0
  1
1.4.4 @ 2026-07-30T12:56:01.076793+00:00
  0
ENDSEC
  0
EOF
