  0
SECTION
  2
HEADER
  9
$ACADVER
  1
AC1024
  9
$ACADMAINTVER
 70
6
  9
$DWGCODEPAGE
  3
ANSI_1252
  9
$LASTSAVEDBY
  1
ezdxf
  9
$INSBASE
 10
0.0
 20
0.0
 30
0.0
  9
$EXTMIN
 10
1e+20
 20
1e+20
 30
1e+20
  9
$EXTMAX
 10
-1e+20
 20
-1e+20
 30
-1e+20
  9
$LIMMIN
 10
0.0
 20
0.0
  9
$LIMMAX
 10
420.0
 20
297.0
  9
$ORTHOMODE
 70
0
  9
$REGENMODE
 70
1
  9
$FILLMODE
 70
1
  9
$QTEXTMODE
 70
0
  9
$MIRRTEXT
 70
1
  9
$LTSCALE
 40
1.0
  9
$ATTMODE
 70
1
  9
$TEXTSIZE
 40
2.5
  9
$TRACEWID
 40
1.0
  9
$TEXTSTYLE
  7
Standard
  9
$CLAYER
  8
0
  9
$CELTYPE
  6
ByLayer
  9
$CECOLOR
 62
256
  9
$CELTSCALE
 40
1.0
  9
$DISPSILH
 70
0
  9
$DIMSCALE
 40
1.0
  9
$DIMASZ
 40
2.5
  9
$DIMEXO
 40
0.625
  9
$DIMDLI
 40
3.75
  9
$DIMRND
 40
0.0
  9
$DIMDLE
 40
0.0
  9
$DIMEXE
 40
1.25
  9
$DIMTP
 40
0.0
  9
$DIMTM
 40
0.0
  9
$DIMTXT
 40
2.5
  9
$DIMCEN
 40
2.5
  9
$DIMTSZ
 40
0.0
  9
$DIMTOL
 70
0
  9
$DIMLIM
 70
0
  9
$DIMTIH
 70
0
  9
$DIMTOH
 70
0
  9
$DIMSE1
 70
0
  9
$DIMSE2
 70
0
  9
$DIMTAD
 70
1
  9
$DIMZIN
 70
8
  9
$DIMBLK
  1

  9
$DIMASO
 70
1
  9
$DIMSHO
 70
1
  9
$DIMPOST
  1

  9
$DIMAPOST
  1

  9
$DIMALT
 70
0
  9
$DIMALTD
 70
3
  9
$DIMALTF
 40
0.03937007874
  9
$DIMLFAC
 40
1.0
  9
$DIMTOFL
 70
1
  9
$DIMTVP
 40
0.0
  9
$DIMTIX
 70
0
  9
$DIMSOXD
 70
0
  9
$DIMSAH
 70
0
  9
$DIMBLK1
  1

  9
$DIMBLK2
  1

  9
$DIMSTYLE
  2
ISO-25
  9
$DIMCLRD
 70
0
  9
$DIMCLRE
 70
0
  9
$DIMCLRT
 70
0
  9
$DIMTFAC
 40
1.0
  9
$DIMGAP
 40
0.625
  9
$DIMJUST
 70
0
  9
$DIMSD1
 70
0
  9
$DIMSD2
 70
0
  9
$DIMTOLJ
 70
0
  9
$DIMTZIN
 70
8
  9
$DIMALTZ
 70
0
  9
$DIMALTTZ
 70
0
  9
$DIMUPT
 70
0
  9
$DIMDEC
 70
2
  9
$DIMTDEC
 70
2
  9
$DIMALTU
 70
2
  9
$DIMALTTD
 70
3
  9
$DIMTXSTY
  7
Standard
  9
$DIMAUNIT
 70
0
  9
$DIMADEC
 70
0
  9
$DIMALTRND
 40
0.0
  9
$DIMAZIN
 70
0
  9
$DIMDSEP
 70
44
  9
$DIMATFIT
 70
3
  9
$DIMFRAC
 70
0
  9
$DIMLDRBLK
  1

  9
$DIMLUNIT
 70
2
  9
$DIMLWD
 70
-2
  9
$DIMLWE
 70
-2
  9
$DIMTMOVE
 70
0
  9
$DIMFXL
 40
1.0
  9
$DIMFXLON
 70
0
  9
$DIMJOGANG
 40
0.785398163397
  9
$DIMTFILL
 70
0
  9
$DIMTFILLCLR
 70
0
  9
$DIMARCSYM
 70
0
  9
$DIMLTYPE
  6

  9
$DIMLTEX1
  6

  9
$DIMLTEX2
  6

  9
$DIMTXTDIRECTION
 70
0
  9
$LUNITS
 70
2
  9
$LUPREC
 70
4
  9
$SKETCHINC
 40
1.0
  9
$FILLETRAD
 40
10.0
  9
$AUNITS
 70
0
  9
$AUPREC
 70
2
  9
$MENU
  1
.
  9
$ELEVATION
 40
0.0
  9
$PELEVATION
 40
0.0
  9
$THICKNESS
 40
0.0
  9
$LIMCHECK
 70
0
  9
$CHAMFERA
 40
0.0
  9
$CHAMFERB
 40
0.0
  9
$CHAMFERC
 40
0.0
  9
$CHAMFERD
 40
0.0
  9
$SKPOLY
 70
0
  9
$TDCREATE
 40
2461252.5536574074
  9
$TDUCREATE
 40
2458532.153996898
  9
$TDUPDATE
 40
2461252.5536574074
  9
$TDUUPDATE
 40
2458532.1544311
  9
$TDINDWG
 40
0.0
  9
$TDUSRTIMER
 40
0.0
  9
$USRTIMER
 70
1
  9
$ANGBASE
 50
0.0
  9
$ANGDIR
 70
0
  9
$PDMODE
 70
0
  9
$PDSIZE
 40
0.0
  9
$PLINEWID
 40
0.0
  9
$SPLFRAME
 70
0
  9
$SPLINETYPE
 70
6
  9
$SPLINESEGS
 70
8
  9
$HANDSEED
  5
D7
  9
$SURFTAB1
 70
6
  9
$SURFTAB2
 70
6
  9
$SURFTYPE
 70
6
  9
$SURFU
 70
6
  9
$SURFV
 70
6
  9
$UCSBASE
  2

  9
$UCSNAME
  2

  9
$UCSORG
 10
0.0
 20
0.0
 30
0.0
  9
$UCSXDIR
 10
1.0
 20
0.0
 30
0.0
  9
$UCSYDIR
 10
0.0
 20
1.0
 30
0.0
  9
$UCSORTHOREF
  2

  9
$UCSORTHOVIEW
 70
0
  9
$UCSORGTOP
 10
0.0
 20
0.0
 30
0.0
  9
$UCSORGBOTTOM
 10
0.0
 20
0.0
 30
0.0
  9
$UCSORGLEFT
 10
0.0
 20
0.0
 30
0.0
  9
$UCSORGRIGHT
 10
0.0
 20
0.0
 30
0.0
  9
$UCSORGFRONT
 10
0.0
 20
0.0
 30
0.0
  9
$UCSORGBACK
 10
0.0
 20
0.0
 30
0.0
  9
$PUCSBASE
  2

  9
$PUCSNAME
  2

  9
$PUCSORG
 10
0.0
 20
0.0
 30
0.0
  9
$PUCSXDIR
 10
1.0
 20
0.0
 30
0.0
  9
$PUCSYDIR
 10
0.0
 20
1.0
 30
0.0
  9
$PUCSORTHOREF
  2

  9
$PUCSORTHOVIEW
 70
0
  9
$PUCSORGTOP
 10
0.0
 20
0.0
 30
0.0
  9
$PUCSORGBOTTOM
 10
0.0
 20
0.0
 30
0.0
  9
$PUCSORGLEFT
 10
0.0
 20
0.0
 30
0.0
  9
$PUCSORGRIGHT
 10
0.0
 20
0.0
 30
0.0
  9
$PUCSORGFRONT
 10
0.0
 20
0.0
 30
0.0
  9
$PUCSORGBACK
 10
0.0
 20
0.0
 30
0.0
  9
$USERI1
 70
0
  9
$USERI2
 70
0
  9
$USERI3
 70
0
  9
$USERI4
 70
0
  9
$USERI5
 70
0
  9
$USERR1
 40
0.0
  9
$USERR2
 40
0.0
  9
$USERR3
 40
0.0
  9
$USERR4
 40
0.0
  9
$USERR5
 40
0.0
  9
$WORLDVIEW
 70
1
  9
$SHADEDGE
 70
3
  9
$SHADEDIF
 70
70
  9
$TILEMODE
 70
1
  9
$MAXACTVP
 70
64
  9
$PINSBASE
 10
0.0
 20
0.0
 30
0.0
  9
$PLIMCHECK
 70
0
  9
$PEXTMIN
 10
1e+20
 20
1e+20
 30
1e+20
  9
$PEXTMAX
 10
-1e+20
 20
-1e+20
 30
-1e+20
  9
$PLIMMIN
 10
0.0
 20
0.0
  9
$PLIMMAX
 10
420.0
 20
297.0
  9
$UNITMODE
 70
0
  9
$VISRETAIN
 70
1
  9
$PLINEGEN
 70
0
  9
$PSLTSCALE
 70
1
  9
$TREEDEPTH
 70
3020
  9
$CMLSTYLE
  2
Standard
  9
$CMLJUST
 70
0
  9
$CMLSCALE
 40
20.0
  9
$PROXYGRAPHICS
 70
1
  9
$MEASUREMENT
 70
1
  9
$CELWEIGHT
370
-1
  9
$ENDCAPS
280
0
  9
$JOINSTYLE
280
0
  9
$LWDISPLAY
290
0
  9
$INSUNITS
 70
4
  9
$HYPERLINKBASE
  1

  9
$STYLESHEET
  1

  9
$XEDIT
290
1
  9
$CEPSNTYPE
380
0
  9
$PSTYLEMODE
290
1
  9
$FINGERPRINTGUID
  2
{72983B08-9092-4B60-85C7-BDF8A80A38EE}
  9
$VERSIONGUID
  2
{A6F6A07B-3FC7-405F-86E4-5FF85635824F}
  9
$EXTNAMES
290
1
  9
$PSVPSCALE
 40
0.0
  9
$OLESTARTUP
290
0
  9
$SORTENTS
280
127
  9
$INDEXCTL
280
0
  9
$HIDETEXT
280
1
  9
$XCLIPFRAME
280
1
  9
$HALOGAP
280
0
  9
$OBSCOLOR
 70
257
  9
$OBSLTYPE
280
0
  9
$INTERSECTIONDISPLAY
280
0
  9
$INTERSECTIONCOLOR
 70
257
  9
$DIMASSOC
280
2
  9
$PROJECTNAME
  1

  9
$CAMERADISPLAY
290
0
  9
$LENSLENGTH
 40
50.0
  9
$CAMERAHEIGHT
 40
0.0
  9
$STEPSPERSEC
 40
24.0
  9
$STEPSIZE
 40
100.0
  9
$3DDWFPREC
 40
2.0
  9
$PSOLWIDTH
 40
0.005
  9
$PSOLHEIGHT
 40
0.08
  9
$LOFTANG1
 40
1.570796326795
  9
$LOFTANG2
 40
1.570796326795
  9
$LOFTMAG1
 40
0.0
  9
$LOFTMAG2
 40
0.0
  9
$LOFTPARAM
 70
7
  9
$LOFTNORMALS
280
1
  9
$LATITUDE
 40
37.795
  9
$LONGITUDE
 40
-122.394
  9
$NORTHDIRECTION
 40
0.0
  9
$TIMEZONE
 70
-8000
  9
$LIGHTGLYPHDISPLAY
280
1
  9
$TILEMODELIGHTSYNCH
280
1
  9
$CMATERIAL
347
20
  9
$SOLIDHIST
280
0
  9
$SHOWHIST
280
1
  9
$DWFFRAME
280
2
  9
$DGNFRAME
280
2
  9
$REALWORLDSCALE
290
1
  9
$INTERFERECOLOR
 62
256
  9
$CSHADOW
280
0
  9
$SHADOWPLANELOCATION
 40
0.0
  0
ENDSEC
  0
SECTION
  2
CLASSES
  0
CLASS
  1
ACDBDICTIONARYWDFLT
  2
AcDbDictionaryWithDefault
  3
ObjectDBX Classes
 90
0
 91
0
280
0
281
0
  0
CLASS
  1
SUN
  2
AcDbSun
  3
SCENEOE
 90
1153
 91
0
280
0
281
0
  0
CLASS
  1
VISUALSTYLE
  2
AcDbVisualStyle
  3
ObjectDBX Classes
 90
4095
 91
0
280
0
281
0
  0
CLASS
  1
MATERIAL
  2
AcDbMaterial
  3
ObjectDBX Classes
 90
1153
 91
0
280
0
281
0
  0
CLASS
  1
SCALE
  2
AcDbScale
  3
ObjectDBX Classes
 90
1153
 91
0
280
0
281
0
  0
CLASS
  1
TABLESTYLE
  2
AcDbTableStyle
  3
ObjectDBX Classes
 90
4095
 91
0
280
0
281
0
  0
CLASS
  1
MLEADERSTYLE
  2
AcDbMLeaderStyle
  3
ACDB_MLEADERSTYLE_CLASS
 90
4095
 91
0
280
0
281
0
  0
CLASS
  1
DICTIONARYVAR
  2
AcDbDictionaryVar
  3
ObjectDBX Classes
 90
0
 91
0
280
0
281
0
  0
CLASS
  1
CELLSTYLEMAP
  2
AcDbCellStyleMap
  3
ObjectDBX Classes
 90
1152
 91
0
280
0
281
0
  0
CLASS
  1
MENTALRAYRENDERSETTINGS
  2
AcDbMentalRayRenderSettings
  3
SCENEOE
 90
1024
 91
0
280
0
281
0
  0
CLASS
  1
ACDBDETAILVIEWSTYLE
  2
AcDbDetailViewStyle
  3
ObjectDBX Classes
 90
1025
 91
0
280
0
281
0
  0
CLASS
  1
ACDBSECTIONVIEWSTYLE
  2
AcDbSectionViewStyle
  3
ObjectDBX Classes
 90
1025
 91
0
280
0
281
0
  0
CLASS
  1
RASTERVARIABLES
  2
AcDbRasterVariables
  3
ISM
 90
0
 91
0
280
0
281
0
  0
CLASS
  1
ACDBPLACEHOLDER
  2
AcDbPlaceHolder
  3
ObjectDBX Classes
 90
0
 91
0
280
0
281
0
  0
CLASS
  1
LAYOUT
  2
AcDbLayout
  3
ObjectDBX Classes
 90
0
 91
0
280
0
281
0
  0
ENDSEC
  0
SECTION
  2
TABLES
  0
TABLE
  2
VPORT
  5
8
330
0
100
AcDbSymbolTable
 70
1
  0
VPORT
  5
23
330
8
100
AcDbSymbolTableRecord
100
AcDbViewportTableRecord
  2
*Active
 70
0
 10
0.0
 20
0.0
 11
1.0
 21
1.0
 12
0.0
 22
0.0
 13
0.0
 23
0.0
 14
0.5
 24
0.5
 15
0.5
 25
0.5
 16
0.0
 26
0.0
 36
1.0
 17
0.0
 27
0.0
 37
0.0
 40
1000.0
 41
1.34
 42
50.0
 43
0.0
 44
0.0
 50
0.0
 51
0.0
 71
0
 72
1000
 73
1
 74
3
 75
0
 76
0
 77
0
 78
0
281
0
 65
0
146
0.0
  0
ENDTAB
  0
TABLE
  2
LTYPE
  5
2
330
0
100
AcDbSymbolTable
 70
3
  0
LTYPE
  5
24
330
2
100
AcDbSymbolTableRecord
100
AcDbLinetypeTableRecord
  2
ByBlock
 70
0
  3

 72
65
 73
0
 40
0.0
  0
LTYPE
  5
25
330
2
100
AcDbSymbolTableRecord
100
AcDbLinetypeTableRecord
  2
ByLayer
 70
0
  3

 72
65
 73
0
 40
0.0
  0
LTYPE
  5
26
330
2
100
AcDbSymbolTableRecord
100
AcDbLinetypeTableRecord
  2
Continuous
 70
0
  3

 72
65
 73
0
 40
0.0
  0
ENDTAB
  0
TABLE
  2
LAYER
  5
1
330
0
100
AcDbSymbolTable
 70
5
  0
LAYER
  5
27
330
1
100
AcDbSymbolTableRecord
100
AcDbLayerTableRecord
  2
0
 70
0
 62
7
  6
Continuous
370
-3
390
13
347
21
  0
LAYER
  5
28
330
1
100
AcDbSymbolTableRecord
100
AcDbLayerTableRecord
  2
Defpoints
 70
0
 62
7
  6
Continuous
290
0
370
-3
390
13
347
21
  0
LAYER
  5
2F
330
1
100
AcDbSymbolTableRecord
100
AcDbLayerTableRecord
  2
CUT
 70
0
 62
1
  6
Continuous
370
-3
390
13
347
21
  0
LAYER
  5
30
330
1
100
AcDbSymbolTableRecord
100
AcDbLayerTableRecord
  2
ENGRAVE
 70
0
 62
3
  6
Continuous
370
-3
390
13
347
21
  0
LAYER
  5
31
330
1
100
AcDbSymbolTableRecord
100
AcDbLayerTableRecord
  2
INFO
 70
0
 62
7
  6
Continuous
370
-3
390
13
347
21
  0
ENDTAB
  0
TABLE
  2
STYLE
  5
5
330
0
100
AcDbSymbolTable
 70
1
  0
STYLE
  5
29
330
5
100
AcDbSymbolTableRecord
100
AcDbTextStyleTableRecord
  2
Standard
 70
0
 40
0.0
 41
1.0
 50
0.0
 71
0
 42
2.5
  3
txt
  4

  0
ENDTAB
  0
TABLE
  2
VIEW
  5
7
330
0
100
AcDbSymbolTable
 70
0
  0
ENDTAB
  0
TABLE
  2
UCS
  5
6
330
0
100
AcDbSymbolTable
 70
0
  0
ENDTAB
  0
TABLE
  2
APPID
  5
3
330
0
100
AcDbSymbolTable
 70
3
  0
APPID
  5
2A
330
3
100
AcDbSymbolTableRecord
100
AcDbRegAppTableRecord
  2
ACAD
 70
0
  0
APPID
  5
D4
330
3
100
AcDbSymbolTableRecord
100
AcDbRegAppTableRecord
  2
HATCHBACKGROUNDCOLOR
 70
0
  0
APPID
  5
D5
330
3
100
AcDbSymbolTableRecord
100
AcDbRegAppTableRecord
  2
EZDXF
 70
0
  0
ENDTAB
  0
TABLE
  2
DIMSTYLE
  5
4
330
0
100
AcDbSymbolTable
 70
1
100
AcDbDimStyleTable
  0
DIMSTYLE
105
2B
330
4
100
AcDbSymbolTableRecord
100
AcDbDimStyleTableRecord
  2
Standard
 70
0
 40
1.0
 41
2.5
 42
0.625
 43
3.75
 44
1.25
 45
0.0
 46
0.0
 47
0.0
 48
0.0
 49
2.5
140
2.5
141
2.5
142
0.0
143
0.03937007874
144
1.0
145
0.0
146
1.0
147
0.625
148
0.0
 69
0
 70
0
 71
0
 72
0
 73
0
 74
0
 75
0
 76
0
 77
1
 78
8
 79
3
170
0
171
3
172
1
173
0
174
0
175
0
176
0
177
0
178
0
179
2
271
2
272
2
273
2
274
3
275
0
276
0
277
2
278
44
279
0
280
0
281
0
282
0
283
0
284
8
285
0
286
0
288
0
289
3
290
0
371
-2
372
-2
  0
ENDTAB
  0
TABLE
  2
BLOCK_RECORD
  5
9
330
0
100
AcDbSymbolTable
 70
2
  0
BLOCK_RECORD
  5
17
330
9
100
AcDbSymbolTableRecord
100
AcDbBlockTableRecord
  2
*Model_Space
340
1A
 70
0
280
1
281
0
  0
BLOCK_RECORD
  5
1B
330
9
100
AcDbSymbolTableRecord
100
AcDbBlockTableRecord
  2
*Paper_Space
340
1E
 70
0
280
1
281
0
  0
ENDTAB
  0
ENDSEC
  0
SECTION
  2
BLOCKS
  0
BLOCK
  5
18
330
17
100
AcDbEntity
  8
0
100
AcDbBlockBegin
  2
*Model_Space
 70
0
 10
0.0
 20
0.0
 30
0.0
  3
*Model_Space
  1

  0
ENDBLK
  5
19
330
17
100
AcDbEntity
  8
0
100
AcDbBlockEnd
  0
BLOCK
  5
1C
330
1B
100
AcDbEntity
  8
0
100
AcDbBlockBegin
  2
*Paper_Space
 70
0
 10
0.0
 20
0.0
 30
0.0
  3
*Paper_Space
  1

  0
ENDBLK
  5
1D
330
1B
100
AcDbEntity
  8
0
100
AcDbBlockEnd
  0
ENDSEC
  0
SECTION
  2
ENTITIES
  0
LWPOLYLINE
  5
32
330
17
100
AcDbEntity
  8
CUT
 62
1
100
AcDbPolyline
 90
69
 70
1
 10
23.5
 20
150.0
 10
36.5
 20
150.0
 10
36.5
 20
143.5
 10
31.0
 20
143.5
 10
31.0
 20
136.5
 10
36.5
 20
136.5
 10
36.5
 20
105.0
 10
60.0
 20
105.0
 10
60.0
 20
10.531962568464532
 10
63.23401871576773
 20
13.765981284232264
 10
62.28885552364038
 20
12.846964864400732
 10
61.31828916374418
 20
11.954818250491215
 10
60.32308322647812
 20
11.090243336384447
 10
59.30402068736048
 20
10.2539203240026
 10
58.26190329102508
 20
9.446507188162293
 10
57.197550920450865
 20
8.668639158914772
 10
56.11180095192131
 20
7.920928221780372
 10
55.00550759622082
 20
7.203962636270646
 10
53.87954122658689
 20
6.518306473076777
 10
52.734787693946274
 20
5.864499170288575
 10
51.57214762997427
 20
5.243055108993005
 10
50.39253573852523
 20
4.6544632085863
 10
49.19688007599182
 20
4.099186542118012
 10
47.98612132115922
 20
3.577661971969526
 10
46.761212035128715
 20
3.0902998061538085
 10
45.52311591189286
 20
2.637483475506727
 10
44.272807020151895
 20
2.219569232023872
 10
43.011269036967924
 20
1.8368858685803247
 10
41.739494473859665
 20
1.4897344602537146
 10
40.45848389594678
 20
1.1783881274542907
 10
39.16924513475803
 20
0.9030918210481715
 10
37.872792495322614
 20
0.6640621296429146
 10
36.570145958168474
 20
0.46148710918706115
 10
35.26233037685547
 20
0.29552613501759595
 10
33.95037467167464
 20
0.16630977647189837
 10
32.635311020148016
 20
0.07393969416261825
 10
31.318174044965843
 20
0.018488559996512777
 10
30.000000000000004
 20
0.0
 10
28.681825955034153
 20
0.018488559996512777
 10
27.36468897985199
 20
0.07393969416261825
 10
26.04962532832537
 20
0.16630977647189837
 10
24.737669623144534
 20
0.29552613501759595
 10
23.42985404183153
 20
0.46148710918705405
 10
22.127207504677394
 20
0.6640621296429146
 10
20.830754865241975
 20
0.9030918210481715
 10
19.541516104053226
 20
1.1783881274542907
 10
18.260505526140342
 20
1.4897344602537146
 10
16.988730963032083
 20
1.8368858685803175
 10
15.72719297984811
 20
2.219569232023872
 10
14.476884088107152
 20
2.637483475506727
 10
13.238787964871293
 20
3.0902998061538014
 10
12.013878678840783
 20
3.577661971969526
 10
10.803119924008186
 20
4.099186542118012
 10
9.607464261474771
 20
4.6544632085863
 10
8.427852370025743
 20
5.243055108992998
 10
7.2652123060537335
 20
5.864499170288575
 10
6.120458773413112
 20
6.518306473076784
 10
4.994492403779187
 20
7.203962636270639
 10
3.8881990480787074
 20
7.920928221780365
 10
2.802449079549131
 20
8.668639158914772
 10
1.738096708974922
 20
9.4465071881623
 10
0.6959793126395262
 20
10.253920324002593
 10
-0.32308322647810783
 20
11.09024333638444
 10
-1.3182891637441827
 20
11.954818250491215
 10
-2.288855523640379
 20
12.846964864400732
 10
-3.234018715767732
 20
13.765981284232264
 10
0.0
 20
10.531962568464532
 10
0.0
 20
105.0
 10
23.5
 20
105.0
  0
CIRCLE
  5
33
330
17
100
AcDbEntity
  8
CUT
 62
1
100
AcDbCircle
 10
15.0
 20
55.0
 30
0.0
 40
5.0
  0
CIRCLE
  5
34
330
17
100
AcDbEntity
  8
CUT
 62
1
100
AcDbCircle
 10
45.0
 20
55.0
 30
0.0
 40
5.0
  0
CIRCLE
  5
35
330
17
100
AcDbEntity
  8
CUT
 62
1
100
AcDbCircle
 10
15.0
 20
90.0
 30
0.0
 40
5.0
  0
CIRCLE
  5
36
330
17
100
AcDbEntity
  8
CUT
 62
1
100
AcDbCircle
 10
45.0
 20
90.0
 30
0.0
 40
5.0
  0
LWPOLYLINE
  5
37
330
17
100
AcDbEntity
  8
CUT
 62
1
100
AcDbPolyline
 90
69
 70
1
 10
90.5
 20
150.0
 10
103.5
 20
150.0
 10
103.5
 20
143.5
 10
98.0
 20
143.5
 10
98.0
 20
136.5
 10
103.5
 20
136.5
 10
103.5
 20
105.0
 10
127.0
 20
105.0
 10
127.0
 20
10.531962568464532
 10
130.23401871576772
 20
13.765981284232264
 10
129.2888555236404
 20
12.846964864400732
 10
128.31828916374417
 20
11.954818250491215
 10
127.32308322647812
 20
11.090243336384447
 10
126.30402068736048
 20
10.2539203240026
 10
125.26190329102508
 20
9.446507188162293
 10
124.19755092045087
 20
8.668639158914772
 10
123.11180095192131
 20
7.920928221780372
 10
122.00550759622082
 20
7.203962636270646
 10
120.8795412265869
 20
6.518306473076777
 10
119.73478769394627
 20
5.864499170288575
 10
118.57214762997427
 20
5.243055108993005
 10
117.39253573852523
 20
4.6544632085863
 10
116.19688007599183
 20
4.099186542118012
 10
114.98612132115922
 20
3.577661971969526
 10
113.76121203512872
 20
3.0902998061538085
 10
112.52311591189286
 20
2.637483475506727
 10
111.2728070201519
 20
2.219569232023872
 10
110.01126903696792
 20
1.8368858685803247
 10
108.73949447385966
 20
1.4897344602537146
 10
107.45848389594678
 20
1.1783881274542907
 10
106.16924513475803
 20
0.9030918210481715
 10
104.87279249532261
 20
0.6640621296429146
 10
103.57014595816848
 20
0.46148710918706115
 10
102.26233037685547
 20
0.29552613501759595
 10
100.95037467167464
 20
0.16630977647189837
 10
99.63531102014802
 20
0.07393969416261825
 10
98.31817404496584
 20
0.018488559996512777
 10
97.0
 20
0.0
 10
95.68182595503416
 20
0.018488559996512777
 10
94.36468897985199
 20
0.07393969416261825
 10
93.04962532832536
 20
0.16630977647189837
 10
91.73766962314454
 20
0.29552613501759595
 10
90.42985404183153
 20
0.46148710918705405
 10
89.12720750467739
 20
0.6640621296429146
 10
87.83075486524197
 20
0.9030918210481715
 10
86.54151610405323
 20
1.1783881274542907
 10
85.26050552614034
 20
1.4897344602537146
 10
83.98873096303208
 20
1.8368858685803175
 10
82.72719297984811
 20
2.219569232023872
 10
81.47688408810716
 20
2.637483475506727
 10
80.23878796487129
 20
3.0902998061538014
 10
79.01387867884078
 20
3.577661971969526
 10
77.80311992400819
 20
4.099186542118012
 10
76.60746426147477
 20
4.6544632085863
 10
75.42785237002575
 20
5.243055108992998
 10
74.26521230605374
 20
5.864499170288575
 10
73.1204587734131
 20
6.518306473076784
 10
71.99449240377919
 20
7.203962636270639
 10
70.8881990480787
 20
7.920928221780365
 10
69.80244907954913
 20
8.668639158914772
 10
68.73809670897492
 20
9.4465071881623
 10
67.69597931263952
 20
10.253920324002593
 10
66.6769167735219
 20
11.09024333638444
 10
65.68171083625582
 20
11.954818250491215
 10
64.71114447635962
 20
12.846964864400732
 10
63.76598128423227
 20
13.765981284232264
 10
67.0
 20
10.531962568464532
 10
67.0
 20
105.0
 10
90.5
 20
105.0
  0
CIRCLE
  5
38
330
17
100
AcDbEntity
  8
CUT
 62
1
100
AcDbCircle
 10
82.0
 20
55.0
 30
0.0
 40
5.0
  0
CIRCLE
  5
39
330
17
100
AcDbEntity
  8
CUT
 62
1
100
AcDbCircle
 10
112.0
 20
55.0
 30
0.0
 40
5.0
  0
CIRCLE
  5
3A
330
17
100
AcDbEntity
  8
CUT
 62
1
100
AcDbCircle
 10
82.0
 20
90.0
 30
0.0
 40
5.0
  0
CIRCLE
  5
3B
330
17
100
AcDbEntity
  8
CUT
 62
1
100
AcDbCircle
 10
112.0
 20
90.0
 30
0.0
 40
5.0
  0
LWPOLYLINE
  5
3C
330
17
100
AcDbEntity
  8
CUT
 62
1
100
AcDbPolyline
 90
69
 70
1
 10
157.5
 20
150.0
 10
170.5
 20
150.0
 10
170.5
 20
143.5
 10
165.0
 20
143.5
 10
165.0
 20
136.5
 10
170.5
 20
136.5
 10
170.5
 20
105.0
 10
194.0
 20
105.0
 10
194.0
 20
10.531962568464532
 10
197.23401871576772
 20
13.765981284232264
 10
196.2888555236404
 20
12.846964864400732
 10
195.31828916374417
 20
11.954818250491215
 10
194.32308322647813
 20
11.090243336384447
 10
193.3040206873605
 20
10.2539203240026
 10
192.26190329102508
 20
9.446507188162293
 10
191.19755092045088
 20
8.668639158914772
 10
190.1118009519213
 20
7.920928221780372
 10
189.0055075962208
 20
7.203962636270646
 10
187.8795412265869
 20
6.518306473076777
 10
186.73478769394626
 20
5.864499170288575
 10
185.57214762997427
 20
5.243055108993005
 10
184.39253573852523
 20
4.6544632085863
 10
183.19688007599183
 20
4.099186542118012
 10
181.98612132115923
 20
3.577661971969526
 10
180.76121203512872
 20
3.0902998061538085
 10
179.52311591189286
 20
2.637483475506727
 10
178.2728070201519
 20
2.219569232023872
 10
177.01126903696792
 20
1.8368858685803247
 10
175.73949447385968
 20
1.4897344602537146
 10
174.45848389594678
 20
1.1783881274542907
 10
173.16924513475803
 20
0.9030918210481715
 10
171.8727924953226
 20
0.6640621296429146
 10
170.57014595816847
 20
0.46148710918706115
 10
169.26233037685546
 20
0.29552613501759595
 10
167.95037467167464
 20
0.16630977647189837
 10
166.635311020148
 20
0.07393969416261825
 10
165.31817404496584
 20
0.018488559996512777
 10
164.0
 20
0.0
 10
162.68182595503416
 20
0.018488559996512777
 10
161.364688979852
 20
0.07393969416261825
 10
160.04962532832536
 20
0.16630977647189837
 10
158.73766962314454
 20
0.29552613501759595
 10
157.42985404183153
 20
0.46148710918705405
 10
156.1272075046774
 20
0.6640621296429146
 10
154.83075486524197
 20
0.9030918210481715
 10
153.54151610405322
 20
1.1783881274542907
 10
152.26050552614035
 20
1.4897344602537146
 10
150.98873096303208
 20
1.8368858685803175
 10
149.7271929798481
 20
2.219569232023872
 10
148.47688408810714
 20
2.637483475506727
 10
147.23878796487128
 20
3.0902998061538014
 10
146.0138786788408
 20
3.577661971969526
 10
144.80311992400817
 20
4.099186542118012
 10
143.60746426147477
 20
4.6544632085863
 10
142.42785237002573
 20
5.243055108992998
 10
141.26521230605374
 20
5.864499170288575
 10
140.1204587734131
 20
6.518306473076784
 10
138.9944924037792
 20
7.203962636270639
 10
137.88819904807872
 20
7.920928221780365
 10
136.80244907954912
 20
8.668639158914772
 10
135.73809670897492
 20
9.4465071881623
 10
134.69597931263954
 20
10.253920324002593
 10
133.6769167735219
 20
11.09024333638444
 10
132.68171083625583
 20
11.954818250491215
 10
131.7111444763596
 20
12.846964864400732
 10
130.76598128423228
 20
13.765981284232264
 10
134.0
 20
10.531962568464532
 10
134.0
 20
105.0
 10
157.5
 20
105.0
  0
CIRCLE
  5
3D
330
17
100
AcDbEntity
  8
CUT
 62
1
100
AcDbCircle
 10
149.0
 20
55.0
 30
0.0
 40
5.0
  0
CIRCLE
  5
3E
330
17
100
AcDbEntity
  8
CUT
 62
1
100
AcDbCircle
 10
179.0
 20
55.0
 30
0.0
 40
5.0
  0
CIRCLE
  5
3F
330
17
100
AcDbEntity
  8
CUT
 62
1
100
AcDbCircle
 10
149.0
 20
90.0
 30
0.0
 40
5.0
  0
CIRCLE
  5
40
330
17
100
AcDbEntity
  8
CUT
 62
1
100
AcDbCircle
 10
179.0
 20
90.0
 30
0.0
 40
5.0
  0
LWPOLYLINE
  5
41
330
17
100
AcDbEntity
  8
CUT
 62
1
100
AcDbPolyline
 90
69
 70
1
 10
224.5
 20
150.0
 10
237.5
 20
150.0
 10
237.5
 20
143.5
 10
232.0
 20
143.5
 10
232.0
 20
136.5
 10
237.5
 20
136.5
 10
237.5
 20
105.0
 10
261.0
 20
105.0
 10
261.0
 20
10.531962568464532
 10
264.2340187157677
 20
13.765981284232264
 10
263.2888555236404
 20
12.846964864400732
 10
262.31828916374417
 20
11.954818250491215
 10
261.3230832264781
 20
11.090243336384447
 10
260.3040206873605
 20
10.2539203240026
 10
259.2619032910251
 20
9.446507188162293
 10
258.19755092045085
 20
8.668639158914772
 10
257.1118009519213
 20
7.920928221780372
 10
256.0055075962208
 20
7.203962636270646
 10
254.8795412265869
 20
6.518306473076777
 10
253.73478769394626
 20
5.864499170288575
 10
252.57214762997427
 20
5.243055108993005
 10
251.39253573852523
 20
4.6544632085863
 10
250.19688007599183
 20
4.099186542118012
 10
248.98612132115923
 20
3.577661971969526
 10
247.76121203512872
 20
3.0902998061538085
 10
246.52311591189286
 20
2.637483475506727
 10
245.2728070201519
 20
2.219569232023872
 10
244.01126903696792
 20
1.8368858685803247
 10
242.73949447385968
 20
1.4897344602537146
 10
241.45848389594678
 20
1.1783881274542907
 10
240.16924513475803
 20
0.9030918210481715
 10
238.8727924953226
 20
0.6640621296429146
 10
237.57014595816847
 20
0.46148710918706115
 10
236.26233037685546
 20
0.29552613501759595
 10
234.95037467167464
 20
0.16630977647189837
 10
233.635311020148
 20
0.07393969416261825
 10
232.31817404496584
 20
0.018488559996512777
 10
231.0
 20
0.0
 10
229.68182595503416
 20
0.018488559996512777
 10
228.364688979852
 20
0.07393969416261825
 10
227.04962532832536
 20
0.16630977647189837
 10
225.73766962314454
 20
0.29552613501759595
 10
224.42985404183153
 20
0.46148710918705405
 10
223.1272075046774
 20
0.6640621296429146
 10
221.83075486524197
 20
0.9030918210481715
 10
220.54151610405322
 20
1.1783881274542907
 10
219.26050552614035
 20
1.4897344602537146
 10
217.98873096303208
 20
1.8368858685803175
 10
216.7271929798481
 20
2.219569232023872
 10
215.47688408810714
 20
2.637483475506727
 10
214.23878796487128
 20
3.0902998061538014
 10
213.0138786788408
 20
3.577661971969526
 10
211.80311992400817
 20
4.099186542118012
 10
210.60746426147477
 20
4.6544632085863
 10
209.42785237002573
 20
5.243055108992998
 10
208.26521230605374
 20
5.864499170288575
 10
207.1204587734131
 20
6.518306473076784
 10
205.9944924037792
 20
7.203962636270639
 10
204.88819904807872
 20
7.920928221780365
 10
203.80244907954912
 20
8.668639158914772
 10
202.73809670897492
 20
9.4465071881623
 10
201.69597931263954
 20
10.253920324002593
 10
200.6769167735219
 20
11.09024333638444
 10
199.68171083625583
 20
11.954818250491215
 10
198.7111444763596
 20
12.846964864400732
 10
197.76598128423228
 20
13.765981284232264
 10
201.0
 20
10.531962568464532
 10
201.0
 20
105.0
 10
224.5
 20
105.0
  0
CIRCLE
  5
42
330
17
100
AcDbEntity
  8
CUT
 62
1
100
AcDbCircle
 10
216.0
 20
55.0
 30
0.0
 40
5.0
  0
CIRCLE
  5
43
330
17
100
AcDbEntity
  8
CUT
 62
1
100
AcDbCircle
 10
246.0
 20
55.0
 30
0.0
 40
5.0
  0
CIRCLE
  5
44
330
17
100
AcDbEntity
  8
CUT
 62
1
100
AcDbCircle
 10
216.0
 20
90.0
 30
0.0
 40
5.0
  0
CIRCLE
  5
45
330
17
100
AcDbEntity
  8
CUT
 62
1
100
AcDbCircle
 10
246.0
 20
90.0
 30
0.0
 40
5.0
  0
LWPOLYLINE
  5
46
330
17
100
AcDbEntity
  8
CUT
 62
1
100
AcDbPolyline
 90
69
 70
1
 10
291.5
 20
150.0
 10
304.5
 20
150.0
 10
304.5
 20
143.5
 10
299.0
 20
143.5
 10
299.0
 20
136.5
 10
304.5
 20
136.5
 10
304.5
 20
105.0
 10
328.0
 20
105.0
 10
328.0
 20
10.531962568464532
 10
331.2340187157677
 20
13.765981284232264
 10
330.2888555236404
 20
12.846964864400732
 10
329.31828916374417
 20
11.954818250491215
 10
328.3230832264781
 20
11.090243336384447
 10
327.3040206873605
 20
10.2539203240026
 10
326.2619032910251
 20
9.446507188162293
 10
325.19755092045085
 20
8.668639158914772
 10
324.1118009519213
 20
7.920928221780372
 10
323.0055075962208
 20
7.203962636270646
 10
321.87954122658687
 20
6.518306473076777
 10
320.73478769394626
 20
5.864499170288575
 10
319.57214762997427
 20
5.243055108993005
 10
318.3925357385252
 20
4.6544632085863
 10
317.1968800759918
 20
4.099186542118012
 10
315.9861213211592
 20
3.577661971969526
 10
314.7612120351287
 20
3.0902998061538085
 10
313.52311591189283
 20
2.637483475506727
 10
312.2728070201519
 20
2.219569232023872
 10
311.0112690369679
 20
1.8368858685803247
 10
309.7394944738597
 20
1.4897344602537146
 10
308.45848389594676
 20
1.1783881274542907
 10
307.16924513475806
 20
0.9030918210481715
 10
305.87279249532264
 20
0.6640621296429146
 10
304.5701459581685
 20
0.46148710918706115
 10
303.26233037685546
 20
0.29552613501759595
 10
301.95037467167464
 20
0.16630977647189837
 10
300.63531102014804
 20
0.07393969416261825
 10
299.3181740449659
 20
0.018488559996512777
 10
298.0
 20
0.0
 10
296.6818259550341
 20
0.018488559996512777
 10
295.36468897985196
 20
0.07393969416261825
 10
294.04962532832536
 20
0.16630977647189837
 10
292.73766962314454
 20
0.29552613501759595
 10
291.4298540418315
 20
0.46148710918705405
 10
290.1272075046774
 20
0.6640621296429146
 10
288.830754865242
 20
0.9030918210481715
 10
287.54151610405324
 20
1.1783881274542907
 10
286.2605055261403
 20
1.4897344602537146
 10
284.9887309630321
 20
1.8368858685803175
 10
283.7271929798481
 20
2.219569232023872
 10
282.47688408810717
 20
2.637483475506727
 10
281.2387879648713
 20
3.0902998061538014
 10
280.0138786788408
 20
3.577661971969526
 10
278.8031199240082
 20
4.099186542118012
 10
277.6074642614748
 20
4.6544632085863
 10
276.42785237002573
 20
5.243055108992998
 10
275.26521230605374
 20
5.864499170288575
 10
274.12045877341313
 20
6.518306473076784
 10
272.9944924037792
 20
7.203962636270639
 10
271.8881990480787
 20
7.920928221780365
 10
270.80244907954915
 20
8.668639158914772
 10
269.7380967089749
 20
9.4465071881623
 10
268.6959793126395
 20
10.253920324002593
 10
267.6769167735219
 20
11.09024333638444
 10
266.68171083625583
 20
11.954818250491215
 10
265.7111444763596
 20
12.846964864400732
 10
264.7659812842323
 20
13.765981284232264
 10
268.0
 20
10.531962568464532
 10
268.0
 20
105.0
 10
291.5
 20
105.0
  0
CIRCLE
  5
47
330
17
100
AcDbEntity
  8
CUT
 62
1
100
AcDbCircle
 10
283.0
 20
55.0
 30
0.0
 40
5.0
  0
CIRCLE
  5
48
330
17
100
AcDbEntity
  8
CUT
 62
1
100
AcDbCircle
 10
313.0
 20
55.0
 30
0.0
 40
5.0
  0
CIRCLE
  5
49
330
17
100
AcDbEntity
  8
CUT
 62
1
100
AcDbCircle
 10
283.0
 20
90.0
 30
0.0
 40
5.0
  0
CIRCLE
  5
4A
330
17
100
AcDbEntity
  8
CUT
 62
1
100
AcDbCircle
 10
313.0
 20
90.0
 30
0.0
 40
5.0
  0
LWPOLYLINE
  5
4B
330
17
100
AcDbEntity
  8
CUT
 62
1
100
AcDbPolyline
 90
69
 70
1
 10
358.5
 20
150.0
 10
371.5
 20
150.0
 10
371.5
 20
143.5
 10
366.0
 20
143.5
 10
366.0
 20
136.5
 10
371.5
 20
136.5
 10
371.5
 20
105.0
 10
395.0
 20
105.0
 10
395.0
 20
10.531962568464532
 10
398.2340187157677
 20
13.765981284232264
 10
397.2888555236404
 20
12.846964864400732
 10
396.31828916374417
 20
11.954818250491215
 10
395.3230832264781
 20
11.090243336384447
 10
394.3040206873605
 20
10.2539203240026
 10
393.2619032910251
 20
9.446507188162293
 10
392.19755092045085
 20
8.668639158914772
 10
391.1118009519213
 20
7.920928221780372
 10
390.0055075962208
 20
7.203962636270646
 10
388.87954122658687
 20
6.518306473076777
 10
387.73478769394626
 20
5.864499170288575
 10
386.57214762997427
 20
5.243055108993005
 10
385.3925357385252
 20
4.6544632085863
 10
384.1968800759918
 20
4.099186542118012
 10
382.9861213211592
 20
3.577661971969526
 10
381.7612120351287
 20
3.0902998061538085
 10
380.52311591189283
 20
2.637483475506727
 10
379.2728070201519
 20
2.219569232023872
 10
378.0112690369679
 20
1.8368858685803247
 10
376.7394944738597
 20
1.4897344602537146
 10
375.45848389594676
 20
1.1783881274542907
 10
374.16924513475806
 20
0.9030918210481715
 10
372.87279249532264
 20
0.6640621296429146
 10
371.5701459581685
 20
0.46148710918706115
 10
370.26233037685546
 20
0.29552613501759595
 10
368.95037467167464
 20
0.16630977647189837
 10
367.63531102014804
 20
0.07393969416261825
 10
366.3181740449659
 20
0.018488559996512777
 10
365.0
 20
0.0
 10
363.6818259550341
 20
0.018488559996512777
 10
362.36468897985196
 20
0.07393969416261825
 10
361.04962532832536
 20
0.16630977647189837
 10
359.73766962314454
 20
0.29552613501759595
 10
358.4298540418315
 20
0.46148710918705405
 10
357.1272075046774
 20
0.6640621296429146
 10
355.830754865242
 20
0.9030918210481715
 10
354.54151610405324
 20
1.1783881274542907
 10
353.2605055261403
 20
1.4897344602537146
 10
351.9887309630321
 20
1.8368858685803175
 10
350.7271929798481
 20
2.219569232023872
 10
349.47688408810717
 20
2.637483475506727
 10
348.2387879648713
 20
3.0902998061538014
 10
347.0138786788408
 20
3.577661971969526
 10
345.8031199240082
 20
4.099186542118012
 10
344.6074642614748
 20
4.6544632085863
 10
343.42785237002573
 20
5.243055108992998
 10
342.26521230605374
 20
5.864499170288575
 10
341.12045877341313
 20
6.518306473076784
 10
339.9944924037792
 20
7.203962636270639
 10
338.8881990480787
 20
7.920928221780365
 10
337.80244907954915
 20
8.668639158914772
 10
336.7380967089749
 20
9.4465071881623
 10
335.6959793126395
 20
10.253920324002593
 10
334.6769167735219
 20
11.09024333638444
 10
333.68171083625583
 20
11.954818250491215
 10
332.7111444763596
 20
12.846964864400732
 10
331.7659812842323
 20
13.765981284232264
 10
335.0
 20
10.531962568464532
 10
335.0
 20
105.0
 10
358.5
 20
105.0
  0
CIRCLE
  5
4C
330
17
100
AcDbEntity
  8
CUT
 62
1
100
AcDbCircle
 10
350.0
 20
55.0
 30
0.0
 40
5.0
  0
CIRCLE
  5
4D
330
17
100
AcDbEntity
  8
CUT
 62
1
100
AcDbCircle
 10
380.0
 20
55.0
 30
0.0
 40
5.0
  0
CIRCLE
  5
4E
330
17
100
AcDbEntity
  8
CUT
 62
1
100
AcDbCircle
 10
350.0
 20
90.0
 30
0.0
 40
5.0
  0
CIRCLE
  5
4F
330
17
100
AcDbEntity
  8
CUT
 62
1
100
AcDbCircle
 10
380.0
 20
90.0
 30
0.0
 40
5.0
  0
LWPOLYLINE
  5
50
330
17
100
AcDbEntity
  8
CUT
 62
1
100
AcDbPolyline
 90
69
 70
1
 10
425.5
 20
150.0
 10
438.5
 20
150.0
 10
438.5
 20
143.5
 10
433.0
 20
143.5
 10
433.0
 20
136.5
 10
438.5
 20
136.5
 10
438.5
 20
105.0
 10
462.0
 20
105.0
 10
462.0
 20
10.531962568464532
 10
465.2340187157677
 20
13.765981284232264
 10
464.2888555236404
 20
12.846964864400732
 10
463.31828916374417
 20
11.954818250491215
 10
462.3230832264781
 20
11.090243336384447
 10
461.3040206873605
 20
10.2539203240026
 10
460.2619032910251
 20
9.446507188162293
 10
459.19755092045085
 20
8.668639158914772
 10
458.1118009519213
 20
7.920928221780372
 10
457.0055075962208
 20
7.203962636270646
 10
455.87954122658687
 20
6.518306473076777
 10
454.73478769394626
 20
5.864499170288575
 10
453.57214762997427
 20
5.243055108993005
 10
452.3925357385252
 20
4.6544632085863
 10
451.1968800759918
 20
4.099186542118012
 10
449.9861213211592
 20
3.577661971969526
 10
448.7612120351287
 20
3.0902998061538085
 10
447.52311591189283
 20
2.637483475506727
 10
446.2728070201519
 20
2.219569232023872
 10
445.0112690369679
 20
1.8368858685803247
 10
443.7394944738597
 20
1.4897344602537146
 10
442.45848389594676
 20
1.1783881274542907
 10
441.16924513475806
 20
0.9030918210481715
 10
439.87279249532264
 20
0.6640621296429146
 10
438.5701459581685
 20
0.46148710918706115
 10
437.26233037685546
 20
0.29552613501759595
 10
435.95037467167464
 20
0.16630977647189837
 10
434.63531102014804
 20
0.07393969416261825
 10
433.3181740449659
 20
0.018488559996512777
 10
432.0
 20
0.0
 10
430.6818259550341
 20
0.018488559996512777
 10
429.36468897985196
 20
0.07393969416261825
 10
428.04962532832536
 20
0.16630977647189837
 10
426.73766962314454
 20
0.29552613501759595
 10
425.4298540418315
 20
0.46148710918705405
 10
424.1272075046774
 20
0.6640621296429146
 10
422.830754865242
 20
0.9030918210481715
 10
421.54151610405324
 20
1.1783881274542907
 10
420.2605055261403
 20
1.4897344602537146
 10
418.9887309630321
 20
1.8368858685803175
 10
417.7271929798481
 20
2.219569232023872
 10
416.47688408810717
 20
2.637483475506727
 10
415.2387879648713
 20
3.0902998061538014
 10
414.0138786788408
 20
3.577661971969526
 10
412.8031199240082
 20
4.099186542118012
 10
411.6074642614748
 20
4.6544632085863
 10
410.42785237002573
 20
5.243055108992998
 10
409.26521230605374
 20
5.864499170288575
 10
408.12045877341313
 20
6.518306473076784
 10
406.9944924037792
 20
7.203962636270639
 10
405.8881990480787
 20
7.920928221780365
 10
404.80244907954915
 20
8.668639158914772
 10
403.7380967089749
 20
9.4465071881623
 10
402.6959793126395
 20
10.253920324002593
 10
401.6769167735219
 20
11.09024333638444
 10
400.68171083625583
 20
11.954818250491215
 10
399.7111444763596
 20
12.846964864400732
 10
398.7659812842323
 20
13.765981284232264
 10
402.0
 20
10.531962568464532
 10
402.0
 20
105.0
 10
425.5
 20
105.0
  0
CIRCLE
  5
51
330
17
100
AcDbEntity
  8
CUT
 62
1
100
AcDbCircle
 10
417.0
 20
55.0
 30
0.0
 40
5.0
  0
CIRCLE
  5
52
330
17
100
AcDbEntity
  8
CUT
 62
1
100
AcDbCircle
 10
447.0
 20
55.0
 30
0.0
 40
5.0
  0
CIRCLE
  5
53
330
17
100
AcDbEntity
  8
CUT
 62
1
100
AcDbCircle
 10
417.0
 20
90.0
 30
0.0
 40
5.0
  0
CIRCLE
  5
54
330
17
100
AcDbEntity
  8
CUT
 62
1
100
AcDbCircle
 10
447.0
 20
90.0
 30
0.0
 40
5.0
  0
LWPOLYLINE
  5
55
330
17
100
AcDbEntity
  8
CUT
 62
1
100
AcDbPolyline
 90
69
 70
1
 10
492.5
 20
150.0
 10
505.5
 20
150.0
 10
505.5
 20
143.5
 10
500.0
 20
143.5
 10
500.0
 20
136.5
 10
505.5
 20
136.5
 10
505.5
 20
105.0
 10
529.0
 20
105.0
 10
529.0
 20
10.531962568464532
 10
532.2340187157678
 20
13.765981284232264
 10
531.2888555236403
 20
12.846964864400732
 10
530.3182891637442
 20
11.954818250491215
 10
529.3230832264782
 20
11.090243336384447
 10
528.3040206873604
 20
10.2539203240026
 10
527.2619032910251
 20
9.446507188162293
 10
526.1975509204509
 20
8.668639158914772
 10
525.1118009519213
 20
7.920928221780372
 10
524.0055075962208
 20
7.203962636270646
 10
522.8795412265869
 20
6.518306473076777
 10
521.7347876939463
 20
5.864499170288575
 10
520.5721476299743
 20
5.243055108993005
 10
519.3925357385252
 20
4.6544632085863
 10
518.1968800759918
 20
4.099186542118012
 10
516.9861213211592
 20
3.577661971969526
 10
515.7612120351287
 20
3.0902998061538085
 10
514.5231159118929
 20
2.637483475506727
 10
513.2728070201518
 20
2.219569232023872
 10
512.011269036968
 20
1.8368858685803247
 10
510.7394944738597
 20
1.4897344602537146
 10
509.45848389594676
 20
1.1783881274542907
 10
508.16924513475806
 20
0.9030918210481715
 10
506.87279249532264
 20
0.6640621296429146
 10
505.5701459581685
 20
0.46148710918706115
 10
504.26233037685546
 20
0.29552613501759595
 10
502.95037467167464
 20
0.16630977647189837
 10
501.63531102014804
 20
0.07393969416261825
 10
500.3181740449659
 20
0.018488559996512777
 10
499.0
 20
0.0
 10
497.6818259550341
 20
0.018488559996512777
 10
496.36468897985196
 20
0.07393969416261825
 10
495.04962532832536
 20
0.16630977647189837
 10
493.73766962314454
 20
0.29552613501759595
 10
492.4298540418315
 20
0.46148710918705405
 10
491.1272075046774
 20
0.6640621296429146
 10
489.830754865242
 20
0.9030918210481715
 10
488.54151610405324
 20
1.1783881274542907
 10
487.2605055261403
 20
1.4897344602537146
 10
485.9887309630321
 20
1.8368858685803175
 10
484.7271929798481
 20
2.219569232023872
 10
483.47688408810717
 20
2.637483475506727
 10
482.2387879648713
 20
3.0902998061538014
 10
481.0138786788408
 20
3.577661971969526
 10
479.8031199240082
 20
4.099186542118012
 10
478.6074642614748
 20
4.6544632085863
 10
477.42785237002573
 20
5.243055108992998
 10
476.26521230605374
 20
5.864499170288575
 10
475.12045877341313
 20
6.518306473076784
 10
473.9944924037792
 20
7.203962636270639
 10
472.8881990480787
 20
7.920928221780365
 10
471.80244907954915
 20
8.668639158914772
 10
470.7380967089749
 20
9.4465071881623
 10
469.6959793126395
 20
10.253920324002593
 10
468.6769167735219
 20
11.09024333638444
 10
467.68171083625583
 20
11.954818250491215
 10
466.7111444763596
 20
12.846964864400732
 10
465.7659812842323
 20
13.765981284232264
 10
469.0
 20
10.531962568464532
 10
469.0
 20
105.0
 10
492.5
 20
105.0
  0
CIRCLE
  5
56
330
17
100
AcDbEntity
  8
CUT
 62
1
100
AcDbCircle
 10
484.0
 20
55.0
 30
0.0
 40
5.0
  0
CIRCLE
  5
57
330
17
100
AcDbEntity
  8
CUT
 62
1
100
AcDbCircle
 10
514.0
 20
55.0
 30
0.0
 40
5.0
  0
CIRCLE
  5
58
330
17
100
AcDbEntity
  8
CUT
 62
1
100
AcDbCircle
 10
484.0
 20
90.0
 30
0.0
 40
5.0
  0
CIRCLE
  5
59
330
17
100
AcDbEntity
  8
CUT
 62
1
100
AcDbCircle
 10
514.0
 20
90.0
 30
0.0
 40
5.0
  0
LWPOLYLINE
  5
5A
330
17
100
AcDbEntity
  8
CUT
 62
1
100
AcDbPolyline
 90
69
 70
1
 10
23.5
 20
303.0
 10
36.5
 20
303.0
 10
36.5
 20
296.5
 10
31.0
 20
296.5
 10
31.0
 20
289.5
 10
36.5
 20
289.5
 10
36.5
 20
258.0
 10
60.0
 20
258.0
 10
60.0
 20
163.53196256846454
 10
63.23401871576773
 20
166.76598128423225
 10
62.28885552364038
 20
165.84696486440072
 10
61.31828916374418
 20
164.9548182504912
 10
60.32308322647812
 20
164.09024333638445
 10
59.30402068736048
 20
163.2539203240026
 10
58.26190329102508
 20
162.4465071881623
 10
57.197550920450865
 20
161.66863915891477
 10
56.11180095192131
 20
160.92092822178037
 10
55.00550759622082
 20
160.20396263627066
 10
53.87954122658689
 20
159.5183064730768
 10
52.734787693946274
 20
158.86449917028858
 10
51.57214762997427
 20
158.24305510899302
 10
50.39253573852523
 20
157.6544632085863
 10
49.19688007599182
 20
157.09918654211802
 10
47.98612132115922
 20
156.57766197196952
 10
46.761212035128715
 20
156.0902998061538
 10
45.52311591189286
 20
155.6374834755067
 10
44.272807020151895
 20
155.21956923202387
 10
43.011269036967924
 20
154.83688586858034
 10
41.739494473859665
 20
154.48973446025371
 10
40.45848389594678
 20
154.1783881274543
 10
39.16924513475803
 20
153.90309182104818
 10
37.872792495322614
 20
153.6640621296429
 10
36.570145958168474
 20
153.46148710918706
 10
35.26233037685547
 20
153.2955261350176
 10
33.95037467167464
 20
153.1663097764719
 10
32.635311020148016
 20
153.07393969416262
 10
31.318174044965843
 20
153.0184885599965
 10
30.000000000000004
 20
153.0
 10
28.681825955034153
 20
153.0184885599965
 10
27.36468897985199
 20
153.07393969416262
 10
26.04962532832537
 20
153.1663097764719
 10
24.737669623144534
 20
153.2955261350176
 10
23.42985404183153
 20
153.46148710918706
 10
22.127207504677394
 20
153.6640621296429
 10
20.830754865241975
 20
153.90309182104818
 10
19.541516104053226
 20
154.1783881274543
 10
18.260505526140342
 20
154.48973446025371
 10
16.988730963032083
 20
154.8368858685803
 10
15.72719297984811
 20
155.21956923202387
 10
14.476884088107152
 20
155.6374834755067
 10
13.238787964871293
 20
156.0902998061538
 10
12.013878678840783
 20
156.57766197196952
 10
10.803119924008186
 20
157.09918654211802
 10
9.607464261474771
 20
157.6544632085863
 10
8.427852370025743
 20
158.243055108993
 10
7.2652123060537335
 20
158.86449917028858
 10
6.120458773413112
 20
159.5183064730768
 10
4.994492403779187
 20
160.20396263627063
 10
3.8881990480787074
 20
160.92092822178037
 10
2.802449079549131
 20
161.66863915891477
 10
1.738096708974922
 20
162.4465071881623
 10
0.6959793126395262
 20
163.2539203240026
 10
-0.32308322647810783
 20
164.09024333638445
 10
-1.3182891637441827
 20
164.9548182504912
 10
-2.288855523640379
 20
165.84696486440072
 10
-3.234018715767732
 20
166.76598128423225
 10
0.0
 20
163.53196256846454
 10
0.0
 20
258.0
 10
23.5
 20
258.0
  0
CIRCLE
  5
5B
330
17
100
AcDbEntity
  8
CUT
 62
1
100
AcDbCircle
 10
15.0
 20
208.0
 30
0.0
 40
5.0
  0
CIRCLE
  5
5C
330
17
100
AcDbEntity
  8
CUT
 62
1
100
AcDbCircle
 10
45.0
 20
208.0
 30
0.0
 40
5.0
  0
CIRCLE
  5
5D
330
17
100
AcDbEntity
  8
CUT
 62
1
100
AcDbCircle
 10
15.0
 20
243.0
 30
0.0
 40
5.0
  0
CIRCLE
  5
5E
330
17
100
AcDbEntity
  8
CUT
 62
1
100
AcDbCircle
 10
45.0
 20
243.0
 30
0.0
 40
5.0
  0
LWPOLYLINE
  5
5F
330
17
100
AcDbEntity
  8
CUT
 62
1
100
AcDbPolyline
 90
69
 70
1
 10
90.5
 20
303.0
 10
103.5
 20
303.0
 10
103.5
 20
296.5
 10
98.0
 20
296.5
 10
98.0
 20
289.5
 10
103.5
 20
289.5
 10
103.5
 20
258.0
 10
127.0
 20
258.0
 10
127.0
 20
163.53196256846454
 10
130.23401871576772
 20
166.76598128423225
 10
129.2888555236404
 20
165.84696486440072
 10
128.31828916374417
 20
164.9548182504912
 10
127.32308322647812
 20
164.09024333638445
 10
126.30402068736048
 20
163.2539203240026
 10
125.26190329102508
 20
162.4465071881623
 10
124.19755092045087
 20
161.66863915891477
 10
123.11180095192131
 20
160.92092822178037
 10
122.00550759622082
 20
160.20396263627066
 10
120.8795412265869
 20
159.5183064730768
 10
119.73478769394627
 20
158.86449917028858
 10
118.57214762997427
 20
158.24305510899302
 10
117.39253573852523
 20
157.6544632085863
 10
116.19688007599183
 20
157.09918654211802
 10
114.98612132115922
 20
156.57766197196952
 10
113.76121203512872
 20
156.0902998061538
 10
112.52311591189286
 20
155.6374834755067
 10
111.2728070201519
 20
155.21956923202387
 10
110.01126903696792
 20
154.83688586858034
 10
108.73949447385966
 20
154.48973446025371
 10
107.45848389594678
 20
154.1783881274543
 10
106.16924513475803
 20
153.90309182104818
 10
104.87279249532261
 20
153.6640621296429
 10
103.57014595816848
 20
153.46148710918706
 10
102.26233037685547
 20
153.2955261350176
 10
100.95037467167464
 20
153.1663097764719
 10
99.63531102014802
 20
153.07393969416262
 10
98.31817404496584
 20
153.0184885599965
 10
97.0
 20
153.0
 10
95.68182595503416
 20
153.0184885599965
 10
94.36468897985199
 20
153.07393969416262
 10
93.04962532832536
 20
153.1663097764719
 10
91.73766962314454
 20
153.2955261350176
 10
90.42985404183153
 20
153.46148710918706
 10
89.12720750467739
 20
153.6640621296429
 10
87.83075486524197
 20
153.90309182104818
 10
86.54151610405323
 20
154.1783881274543
 10
85.26050552614034
 20
154.48973446025371
 10
83.98873096303208
 20
154.8368858685803
 10
82.72719297984811
 20
155.21956923202387
 10
81.47688408810716
 20
155.6374834755067
 10
80.23878796487129
 20
156.0902998061538
 10
79.01387867884078
 20
156.57766197196952
 10
77.80311992400819
 20
157.09918654211802
 10
76.60746426147477
 20
157.6544632085863
 10
75.42785237002575
 20
158.243055108993
 10
74.26521230605374
 20
158.86449917028858
 10
73.1204587734131
 20
159.5183064730768
 10
71.99449240377919
 20
160.20396263627063
 10
70.8881990480787
 20
160.92092822178037
 10
69.80244907954913
 20
161.66863915891477
 10
68.73809670897492
 20
162.4465071881623
 10
67.69597931263952
 20
163.2539203240026
 10
66.6769167735219
 20
164.09024333638445
 10
65.68171083625582
 20
164.9548182504912
 10
64.71114447635962
 20
165.84696486440072
 10
63.76598128423227
 20
166.76598128423225
 10
67.0
 20
163.53196256846454
 10
67.0
 20
258.0
 10
90.5
 20
258.0
  0
CIRCLE
  5
60
330
17
100
AcDbEntity
  8
CUT
 62
1
100
AcDbCircle
 10
82.0
 20
208.0
 30
0.0
 40
5.0
  0
CIRCLE
  5
61
330
17
100
AcDbEntity
  8
CUT
 62
1
100
AcDbCircle
 10
112.0
 20
208.0
 30
0.0
 40
5.0
  0
CIRCLE
  5
62
330
17
100
AcDbEntity
  8
CUT
 62
1
100
AcDbCircle
 10
82.0
 20
243.0
 30
0.0
 40
5.0
  0
CIRCLE
  5
63
330
17
100
AcDbEntity
  8
CUT
 62
1
100
AcDbCircle
 10
112.0
 20
243.0
 30
0.0
 40
5.0
  0
LWPOLYLINE
  5
64
330
17
100
AcDbEntity
  8
CUT
 62
1
100
AcDbPolyline
 90
69
 70
1
 10
157.5
 20
303.0
 10
170.5
 20
303.0
 10
170.5
 20
296.5
 10
165.0
 20
296.5
 10
165.0
 20
289.5
 10
170.5
 20
289.5
 10
170.5
 20
258.0
 10
194.0
 20
258.0
 10
194.0
 20
163.53196256846454
 10
197.23401871576772
 20
166.76598128423225
 10
196.2888555236404
 20
165.84696486440072
 10
195.31828916374417
 20
164.9548182504912
 10
194.32308322647813
 20
164.09024333638445
 10
193.3040206873605
 20
163.2539203240026
 10
192.26190329102508
 20
162.4465071881623
 10
191.19755092045088
 20
161.66863915891477
 10
190.1118009519213
 20
160.92092822178037
 10
189.0055075962208
 20
160.20396263627066
 10
187.8795412265869
 20
159.5183064730768
 10
186.73478769394626
 20
158.86449917028858
 10
185.57214762997427
 20
158.24305510899302
 10
184.39253573852523
 20
157.6544632085863
 10
183.19688007599183
 20
157.09918654211802
 10
181.98612132115923
 20
156.57766197196952
 10
180.76121203512872
 20
156.0902998061538
 10
179.52311591189286
 20
155.6374834755067
 10
178.2728070201519
 20
155.21956923202387
 10
177.01126903696792
 20
154.83688586858034
 10
175.73949447385968
 20
154.48973446025371
 10
174.45848389594678
 20
154.1783881274543
 10
173.16924513475803
 20
153.90309182104818
 10
171.8727924953226
 20
153.6640621296429
 10
170.57014595816847
 20
153.46148710918706
 10
169.26233037685546
 20
153.2955261350176
 10
167.95037467167464
 20
153.1663097764719
 10
166.635311020148
 20
153.07393969416262
 10
165.31817404496584
 20
153.0184885599965
 10
164.0
 20
153.0
 10
162.68182595503416
 20
153.0184885599965
 10
161.364688979852
 20
153.07393969416262
 10
160.04962532832536
 20
153.1663097764719
 10
158.73766962314454
 20
153.2955261350176
 10
157.42985404183153
 20
153.46148710918706
 10
156.1272075046774
 20
153.6640621296429
 10
154.83075486524197
 20
153.90309182104818
 10
153.54151610405322
 20
154.1783881274543
 10
152.26050552614035
 20
154.48973446025371
 10
150.98873096303208
 20
154.8368858685803
 10
149.7271929798481
 20
155.21956923202387
 10
148.47688408810714
 20
155.6374834755067
 10
147.23878796487128
 20
156.0902998061538
 10
146.0138786788408
 20
156.57766197196952
 10
144.80311992400817
 20
157.09918654211802
 10
143.60746426147477
 20
157.6544632085863
 10
142.42785237002573
 20
158.243055108993
 10
141.26521230605374
 20
158.86449917028858
 10
140.1204587734131
 20
159.5183064730768
 10
138.9944924037792
 20
160.20396263627063
 10
137.88819904807872
 20
160.92092822178037
 10
136.80244907954912
 20
161.66863915891477
 10
135.73809670897492
 20
162.4465071881623
 10
134.69597931263954
 20
163.2539203240026
 10
133.6769167735219
 20
164.09024333638445
 10
132.68171083625583
 20
164.9548182504912
 10
131.7111444763596
 20
165.84696486440072
 10
130.76598128423228
 20
166.76598128423225
 10
134.0
 20
163.53196256846454
 10
134.0
 20
258.0
 10
157.5
 20
258.0
  0
CIRCLE
  5
65
330
17
100
AcDbEntity
  8
CUT
 62
1
100
AcDbCircle
 10
149.0
 20
208.0
 30
0.0
 40
5.0
  0
CIRCLE
  5
66
330
17
100
AcDbEntity
  8
CUT
 62
1
100
AcDbCircle
 10
179.0
 20
208.0
 30
0.0
 40
5.0
  0
CIRCLE
  5
67
330
17
100
AcDbEntity
  8
CUT
 62
1
100
AcDbCircle
 10
149.0
 20
243.0
 30
0.0
 40
5.0
  0
CIRCLE
  5
68
330
17
100
AcDbEntity
  8
CUT
 62
1
100
AcDbCircle
 10
179.0
 20
243.0
 30
0.0
 40
5.0
  0
LWPOLYLINE
  5
69
330
17
100
AcDbEntity
  8
CUT
 62
1
100
AcDbPolyline
 90
69
 70
1
 10
224.5
 20
303.0
 10
237.5
 20
303.0
 10
237.5
 20
296.5
 10
232.0
 20
296.5
 10
232.0
 20
289.5
 10
237.5
 20
289.5
 10
237.5
 20
258.0
 10
261.0
 20
258.0
 10
261.0
 20
163.53196256846454
 10
264.2340187157677
 20
166.76598128423225
 10
263.2888555236404
 20
165.84696486440072
 10
262.31828916374417
 20
164.9548182504912
 10
261.3230832264781
 20
164.09024333638445
 10
260.3040206873605
 20
163.2539203240026
 10
259.2619032910251
 20
162.4465071881623
 10
258.19755092045085
 20
161.66863915891477
 10
257.1118009519213
 20
160.92092822178037
 10
256.0055075962208
 20
160.20396263627066
 10
254.8795412265869
 20
159.5183064730768
 10
253.73478769394626
 20
158.86449917028858
 10
252.57214762997427
 20
158.24305510899302
 10
251.39253573852523
 20
157.6544632085863
 10
250.19688007599183
 20
157.09918654211802
 10
248.98612132115923
 20
156.57766197196952
 10
247.76121203512872
 20
156.0902998061538
 10
246.52311591189286
 20
155.6374834755067
 10
245.2728070201519
 20
155.21956923202387
 10
244.01126903696792
 20
154.83688586858034
 10
242.73949447385968
 20
154.48973446025371
 10
241.45848389594678
 20
154.1783881274543
 10
240.16924513475803
 20
153.90309182104818
 10
238.8727924953226
 20
153.6640621296429
 10
237.57014595816847
 20
153.46148710918706
 10
236.26233037685546
 20
153.2955261350176
 10
234.95037467167464
 20
153.1663097764719
 10
233.635311020148
 20
153.07393969416262
 10
232.31817404496584
 20
153.0184885599965
 10
231.0
 20
153.0
 10
229.68182595503416
 20
153.0184885599965
 10
228.364688979852
 20
153.07393969416262
 10
227.04962532832536
 20
153.1663097764719
 10
225.73766962314454
 20
153.2955261350176
 10
224.42985404183153
 20
153.46148710918706
 10
223.1272075046774
 20
153.6640621296429
 10
221.83075486524197
 20
153.90309182104818
 10
220.54151610405322
 20
154.1783881274543
 10
219.26050552614035
 20
154.48973446025371
 10
217.98873096303208
 20
154.8368858685803
 10
216.7271929798481
 20
155.21956923202387
 10
215.47688408810714
 20
155.6374834755067
 10
214.23878796487128
 20
156.0902998061538
 10
213.0138786788408
 20
156.57766197196952
 10
211.80311992400817
 20
157.09918654211802
 10
210.60746426147477
 20
157.6544632085863
 10
209.42785237002573
 20
158.243055108993
 10
208.26521230605374
 20
158.86449917028858
 10
207.1204587734131
 20
159.5183064730768
 10
205.9944924037792
 20
160.20396263627063
 10
204.88819904807872
 20
160.92092822178037
 10
203.80244907954912
 20
161.66863915891477
 10
202.73809670897492
 20
162.4465071881623
 10
201.69597931263954
 20
163.2539203240026
 10
200.6769167735219
 20
164.09024333638445
 10
199.68171083625583
 20
164.9548182504912
 10
198.7111444763596
 20
165.84696486440072
 10
197.76598128423228
 20
166.76598128423225
 10
201.0
 20
163.53196256846454
 10
201.0
 20
258.0
 10
224.5
 20
258.0
  0
CIRCLE
  5
6A
330
17
100
AcDbEntity
  8
CUT
 62
1
100
AcDbCircle
 10
216.0
 20
208.0
 30
0.0
 40
5.0
  0
CIRCLE
  5
6B
330
17
100
AcDbEntity
  8
CUT
 62
1
100
AcDbCircle
 10
246.0
 20
208.0
 30
0.0
 40
5.0
  0
CIRCLE
  5
6C
330
17
100
AcDbEntity
  8
CUT
 62
1
100
AcDbCircle
 10
216.0
 20
243.0
 30
0.0
 40
5.0
  0
CIRCLE
  5
6D
330
17
100
AcDbEntity
  8
CUT
 62
1
100
AcDbCircle
 10
246.0
 20
243.0
 30
0.0
 40
5.0
  0
LWPOLYLINE
  5
6E
330
17
100
AcDbEntity
  8
CUT
 62
1
100
AcDbPolyline
 90
69
 70
1
 10
291.5
 20
303.0
 10
304.5
 20
303.0
 10
304.5
 20
296.5
 10
299.0
 20
296.5
 10
299.0
 20
289.5
 10
304.5
 20
289.5
 10
304.5
 20
258.0
 10
328.0
 20
258.0
 10
328.0
 20
163.53196256846454
 10
331.2340187157677
 20
166.76598128423225
 10
330.2888555236404
 20
165.84696486440072
 10
329.31828916374417
 20
164.9548182504912
 10
328.3230832264781
 20
164.09024333638445
 10
327.3040206873605
 20
163.2539203240026
 10
326.2619032910251
 20
162.4465071881623
 10
325.19755092045085
 20
161.66863915891477
 10
324.1118009519213
 20
160.92092822178037
 10
323.0055075962208
 20
160.20396263627066
 10
321.87954122658687
 20
159.5183064730768
 10
320.73478769394626
 20
158.86449917028858
 10
319.57214762997427
 20
158.24305510899302
 10
318.3925357385252
 20
157.6544632085863
 10
317.1968800759918
 20
157.09918654211802
 10
315.9861213211592
 20
156.57766197196952
 10
314.7612120351287
 20
156.0902998061538
 10
313.52311591189283
 20
155.6374834755067
 10
312.2728070201519
 20
155.21956923202387
 10
311.0112690369679
 20
154.83688586858034
 10
309.7394944738597
 20
154.48973446025371
 10
308.45848389594676
 20
154.1783881274543
 10
307.16924513475806
 20
153.90309182104818
 10
305.87279249532264
 20
153.6640621296429
 10
304.5701459581685
 20
153.46148710918706
 10
303.26233037685546
 20
153.2955261350176
 10
301.95037467167464
 20
153.1663097764719
 10
300.63531102014804
 20
153.07393969416262
 10
299.3181740449659
 20
153.0184885599965
 10
298.0
 20
153.0
 10
296.6818259550341
 20
153.0184885599965
 10
295.36468897985196
 20
153.07393969416262
 10
294.04962532832536
 20
153.1663097764719
 10
292.73766962314454
 20
153.2955261350176
 10
291.4298540418315
 20
153.46148710918706
 10
290.1272075046774
 20
153.6640621296429
 10
288.830754865242
 20
153.90309182104818
 10
287.54151610405324
 20
154.1783881274543
 10
286.2605055261403
 20
154.48973446025371
 10
284.9887309630321
 20
154.8368858685803
 10
283.7271929798481
 20
155.21956923202387
 10
282.47688408810717
 20
155.6374834755067
 10
281.2387879648713
 20
156.0902998061538
 10
280.0138786788408
 20
156.57766197196952
 10
278.8031199240082
 20
157.09918654211802
 10
277.6074642614748
 20
157.6544632085863
 10
276.42785237002573
 20
158.243055108993
 10
275.26521230605374
 20
158.86449917028858
 10
274.12045877341313
 20
159.5183064730768
 10
272.9944924037792
 20
160.20396263627063
 10
271.8881990480787
 20
160.92092822178037
 10
270.80244907954915
 20
161.66863915891477
 10
269.7380967089749
 20
162.4465071881623
 10
268.6959793126395
 20
163.2539203240026
 10
267.6769167735219
 20
164.09024333638445
 10
266.68171083625583
 20
164.9548182504912
 10
265.7111444763596
 20
165.84696486440072
 10
264.7659812842323
 20
166.76598128423225
 10
268.0
 20
163.53196256846454
 10
268.0
 20
258.0
 10
291.5
 20
258.0
  0
CIRCLE
  5
6F
330
17
100
AcDbEntity
  8
CUT
 62
1
100
AcDbCircle
 10
283.0
 20
208.0
 30
0.0
 40
5.0
  0
CIRCLE
  5
70
330
17
100
AcDbEntity
  8
CUT
 62
1
100
AcDbCircle
 10
313.0
 20
208.0
 30
0.0
 40
5.0
  0
CIRCLE
  5
71
330
17
100
AcDbEntity
  8
CUT
 62
1
100
AcDbCircle
 10
283.0
 20
243.0
 30
0.0
 40
5.0
  0
CIRCLE
  5
72
330
17
100
AcDbEntity
  8
CUT
 62
1
100
AcDbCircle
 10
313.0
 20
243.0
 30
0.0
 40
5.0
  0
LWPOLYLINE
  5
73
330
17
100
AcDbEntity
  8
CUT
 62
1
100
AcDbPolyline
 90
69
 70
1
 10
358.5
 20
303.0
 10
371.5
 20
303.0
 10
371.5
 20
296.5
 10
366.0
 20
296.5
 10
366.0
 20
289.5
 10
371.5
 20
289.5
 10
371.5
 20
258.0
 10
395.0
 20
258.0
 10
395.0
 20
163.53196256846454
 10
398.2340187157677
 20
166.76598128423225
 10
397.2888555236404
 20
165.84696486440072
 10
396.31828916374417
 20
164.9548182504912
 10
395.3230832264781
 20
164.09024333638445
 10
394.3040206873605
 20
163.2539203240026
 10
393.2619032910251
 20
162.4465071881623
 10
392.19755092045085
 20
161.66863915891477
 10
391.1118009519213
 20
160.92092822178037
 10
390.0055075962208
 20
160.20396263627066
 10
388.87954122658687
 20
159.5183064730768
 10
387.73478769394626
 20
158.86449917028858
 10
386.57214762997427
 20
158.24305510899302
 10
385.3925357385252
 20
157.6544632085863
 10
384.1968800759918
 20
157.09918654211802
 10
382.9861213211592
 20
156.57766197196952
 10
381.7612120351287
 20
156.0902998061538
 10
380.52311591189283
 20
155.6374834755067
 10
379.2728070201519
 20
155.21956923202387
 10
378.0112690369679
 20
154.83688586858034
 10
376.7394944738597
 20
154.48973446025371
 10
375.45848389594676
 20
154.1783881274543
 10
374.16924513475806
 20
153.90309182104818
 10
372.87279249532264
 20
153.6640621296429
 10
371.5701459581685
 20
153.46148710918706
 10
370.26233037685546
 20
153.2955261350176
 10
368.95037467167464
 20
153.1663097764719
 10
367.63531102014804
 20
153.07393969416262
 10
366.3181740449659
 20
153.0184885599965
 10
365.0
 20
153.0
 10
363.6818259550341
 20
153.0184885599965
 10
362.36468897985196
 20
153.07393969416262
 10
361.04962532832536
 20
153.1663097764719
 10
359.73766962314454
 20
153.2955261350176
 10
358.4298540418315
 20
153.46148710918706
 10
357.1272075046774
 20
153.6640621296429
 10
355.830754865242
 20
153.90309182104818
 10
354.54151610405324
 20
154.1783881274543
 10
353.2605055261403
 20
154.48973446025371
 10
351.9887309630321
 20
154.8368858685803
 10
350.7271929798481
 20
155.21956923202387
 10
349.47688408810717
 20
155.6374834755067
 10
348.2387879648713
 20
156.0902998061538
 10
347.0138786788408
 20
156.57766197196952
 10
345.8031199240082
 20
157.09918654211802
 10
344.6074642614748
 20
157.6544632085863
 10
343.42785237002573
 20
158.243055108993
 10
342.26521230605374
 20
158.86449917028858
 10
341.12045877341313
 20
159.5183064730768
 10
339.9944924037792
 20
160.20396263627063
 10
338.8881990480787
 20
160.92092822178037
 10
337.80244907954915
 20
161.66863915891477
 10
336.7380967089749
 20
162.4465071881623
 10
335.6959793126395
 20
163.2539203240026
 10
334.6769167735219
 20
164.09024333638445
 10
333.68171083625583
 20
164.9548182504912
 10
332.7111444763596
 20
165.84696486440072
 10
331.7659812842323
 20
166.76598128423225
 10
335.0
 20
163.53196256846454
 10
335.0
 20
258.0
 10
358.5
 20
258.0
  0
CIRCLE
  5
74
330
17
100
AcDbEntity
  8
CUT
 62
1
100
AcDbCircle
 10
350.0
 20
208.0
 30
0.0
 40
5.0
  0
CIRCLE
  5
75
330
17
100
AcDbEntity
  8
CUT
 62
1
100
AcDbCircle
 10
380.0
 20
208.0
 30
0.0
 40
5.0
  0
CIRCLE
  5
76
330
17
100
AcDbEntity
  8
CUT
 62
1
100
AcDbCircle
 10
350.0
 20
243.0
 30
0.0
 40
5.0
  0
CIRCLE
  5
77
330
17
100
AcDbEntity
  8
CUT
 62
1
100
AcDbCircle
 10
380.0
 20
243.0
 30
0.0
 40
5.0
  0
LWPOLYLINE
  5
78
330
17
100
AcDbEntity
  8
CUT
 62
1
100
AcDbPolyline
 90
69
 70
1
 10
425.5
 20
303.0
 10
438.5
 20
303.0
 10
438.5
 20
296.5
 10
433.0
 20
296.5
 10
433.0
 20
289.5
 10
438.5
 20
289.5
 10
438.5
 20
258.0
 10
462.0
 20
258.0
 10
462.0
 20
163.53196256846454
 10
465.2340187157677
 20
166.76598128423225
 10
464.2888555236404
 20
165.84696486440072
 10
463.31828916374417
 20
164.9548182504912
 10
462.3230832264781
 20
164.09024333638445
 10
461.3040206873605
 20
163.2539203240026
 10
460.2619032910251
 20
162.4465071881623
 10
459.19755092045085
 20
161.66863915891477
 10
458.1118009519213
 20
160.92092822178037
 10
457.0055075962208
 20
160.20396263627066
 10
455.87954122658687
 20
159.5183064730768
 10
454.73478769394626
 20
158.86449917028858
 10
453.57214762997427
 20
158.24305510899302
 10
452.3925357385252
 20
157.6544632085863
 10
451.1968800759918
 20
157.09918654211802
 10
449.9861213211592
 20
156.57766197196952
 10
448.7612120351287
 20
156.0902998061538
 10
447.52311591189283
 20
155.6374834755067
 10
446.2728070201519
 20
155.21956923202387
 10
445.0112690369679
 20
154.83688586858034
 10
443.7394944738597
 20
154.48973446025371
 10
442.45848389594676
 20
154.1783881274543
 10
441.16924513475806
 20
153.90309182104818
 10
439.87279249532264
 20
153.6640621296429
 10
438.5701459581685
 20
153.46148710918706
 10
437.26233037685546
 20
153.2955261350176
 10
435.95037467167464
 20
153.1663097764719
 10
434.63531102014804
 20
153.07393969416262
 10
433.3181740449659
 20
153.0184885599965
 10
432.0
 20
153.0
 10
430.6818259550341
 20
153.0184885599965
 10
429.36468897985196
 20
153.07393969416262
 10
428.04962532832536
 20
153.1663097764719
 10
426.73766962314454
 20
153.2955261350176
 10
425.4298540418315
 20
153.46148710918706
 10
424.1272075046774
 20
153.6640621296429
 10
422.830754865242
 20
153.90309182104818
 10
421.54151610405324
 20
154.1783881274543
 10
420.2605055261403
 20
154.48973446025371
 10
418.9887309630321
 20
154.8368858685803
 10
417.7271929798481
 20
155.21956923202387
 10
416.47688408810717
 20
155.6374834755067
 10
415.2387879648713
 20
156.0902998061538
 10
414.0138786788408
 20
156.57766197196952
 10
412.8031199240082
 20
157.09918654211802
 10
411.6074642614748
 20
157.6544632085863
 10
410.42785237002573
 20
158.243055108993
 10
409.26521230605374
 20
158.86449917028858
 10
408.12045877341313
 20
159.5183064730768
 10
406.9944924037792
 20
160.20396263627063
 10
405.8881990480787
 20
160.92092822178037
 10
404.80244907954915
 20
161.66863915891477
 10
403.7380967089749
 20
162.4465071881623
 10
402.6959793126395
 20
163.2539203240026
 10
401.6769167735219
 20
164.09024333638445
 10
400.68171083625583
 20
164.9548182504912
 10
399.7111444763596
 20
165.84696486440072
 10
398.7659812842323
 20
166.76598128423225
 10
402.0
 20
163.53196256846454
 10
402.0
 20
258.0
 10
425.5
 20
258.0
  0
CIRCLE
  5
79
330
17
100
AcDbEntity
  8
CUT
 62
1
100
AcDbCircle
 10
417.0
 20
208.0
 30
0.0
 40
5.0
  0
CIRCLE
  5
7A
330
17
100
AcDbEntity
  8
CUT
 62
1
100
AcDbCircle
 10
447.0
 20
208.0
 30
0.0
 40
5.0
  0
CIRCLE
  5
7B
330
17
100
AcDbEntity
  8
CUT
 62
1
100
AcDbCircle
 10
417.0
 20
243.0
 30
0.0
 40
5.0
  0
CIRCLE
  5
7C
330
17
100
AcDbEntity
  8
CUT
 62
1
100
AcDbCircle
 10
447.0
 20
243.0
 30
0.0
 40
5.0
  0
LWPOLYLINE
  5
7D
330
17
100
AcDbEntity
  8
CUT
 62
1
100
AcDbPolyline
 90
69
 70
1
 10
492.5
 20
303.0
 10
505.5
 20
303.0
 10
505.5
 20
296.5
 10
500.0
 20
296.5
 10
500.0
 20
289.5
 10
505.5
 20
289.5
 10
505.5
 20
258.0
 10
529.0
 20
258.0
 10
529.0
 20
163.53196256846454
 10
532.2340187157678
 20
166.76598128423225
 10
531.2888555236403
 20
165.84696486440072
 10
530.3182891637442
 20
164.9548182504912
 10
529.3230832264782
 20
164.09024333638445
 10
528.3040206873604
 20
163.2539203240026
 10
527.2619032910251
 20
162.4465071881623
 10
526.1975509204509
 20
161.66863915891477
 10
525.1118009519213
 20
160.92092822178037
 10
524.0055075962208
 20
160.20396263627066
 10
522.8795412265869
 20
159.5183064730768
 10
521.7347876939463
 20
158.86449917028858
 10
520.5721476299743
 20
158.24305510899302
 10
519.3925357385252
 20
157.6544632085863
 10
518.1968800759918
 20
157.09918654211802
 10
516.9861213211592
 20
156.57766197196952
 10
515.7612120351287
 20
156.0902998061538
 10
514.5231159118929
 20
155.6374834755067
 10
513.2728070201518
 20
155.21956923202387
 10
512.011269036968
 20
154.83688586858034
 10
510.7394944738597
 20
154.48973446025371
 10
509.45848389594676
 20
154.1783881274543
 10
508.16924513475806
 20
153.90309182104818
 10
506.87279249532264
 20
153.6640621296429
 10
505.5701459581685
 20
153.46148710918706
 10
504.26233037685546
 20
153.2955261350176
 10
502.95037467167464
 20
153.1663097764719
 10
501.63531102014804
 20
153.07393969416262
 10
500.3181740449659
 20
153.0184885599965
 10
499.0
 20
153.0
 10
497.6818259550341
 20
153.0184885599965
 10
496.36468897985196
 20
153.07393969416262
 10
495.04962532832536
 20
153.1663097764719
 10
493.73766962314454
 20
153.2955261350176
 10
492.4298540418315
 20
153.46148710918706
 10
491.1272075046774
 20
153.6640621296429
 10
489.830754865242
 20
153.90309182104818
 10
488.54151610405324
 20
154.1783881274543
 10
487.2605055261403
 20
154.48973446025371
 10
485.9887309630321
 20
154.8368858685803
 10
484.7271929798481
 20
155.21956923202387
 10
483.47688408810717
 20
155.6374834755067
 10
482.2387879648713
 20
156.0902998061538
 10
481.0138786788408
 20
156.57766197196952
 10
479.8031199240082
 20
157.09918654211802
 10
478.6074642614748
 20
157.6544632085863
 10
477.42785237002573
 20
158.243055108993
 10
476.26521230605374
 20
158.86449917028858
 10
475.12045877341313
 20
159.5183064730768
 10
473.9944924037792
 20
160.20396263627063
 10
472.8881990480787
 20
160.92092822178037
 10
471.80244907954915
 20
161.66863915891477
 10
470.7380967089749
 20
162.4465071881623
 10
469.6959793126395
 20
163.2539203240026
 10
468.6769167735219
 20
164.09024333638445
 10
467.68171083625583
 20
164.9548182504912
 10
466.7111444763596
 20
165.84696486440072
 10
465.7659812842323
 20
166.76598128423225
 10
469.0
 20
163.53196256846454
 10
469.0
 20
258.0
 10
492.5
 20
258.0
  0
CIRCLE
  5
7E
330
17
100
AcDbEntity
  8
CUT
 62
1
100
AcDbCircle
 10
484.0
 20
208.0
 30
0.0
 40
5.0
  0
CIRCLE
  5
7F
330
17
100
AcDbEntity
  8
CUT
 62
1
100
AcDbCircle
 10
514.0
 20
208.0
 30
0.0
 40
5.0
  0
CIRCLE
  5
80
330
17
100
AcDbEntity
  8
CUT
 62
1
100
AcDbCircle
 10
484.0
 20
243.0
 30
0.0
 40
5.0
  0
CIRCLE
  5
81
330
17
100
AcDbEntity
  8
CUT
 62
1
100
AcDbCircle
 10
514.0
 20
243.0
 30
0.0
 40
5.0
  0
LWPOLYLINE
  5
82
330
17
100
AcDbEntity
  8
CUT
 62
1
100
AcDbPolyline
 90
69
 70
1
 10
23.5
 20
456.0
 10
36.5
 20
456.0
 10
36.5
 20
449.5
 10
31.0
 20
449.5
 10
31.0
 20
442.5
 10
36.5
 20
442.5
 10
36.5
 20
411.0
 10
60.0
 20
411.0
 10
60.0
 20
316.5319625684645
 10
63.23401871576773
 20
319.7659812842323
 10
62.28885552364038
 20
318.8469648644007
 10
61.31828916374418
 20
317.9548182504912
 10
60.32308322647812
 20
317.09024333638445
 10
59.30402068736048
 20
316.2539203240026
 10
58.26190329102508
 20
315.4465071881623
 10
57.197550920450865
 20
314.66863915891474
 10
56.11180095192131
 20
313.9209282217804
 10
55.00550759622082
 20
313.20396263627066
 10
53.87954122658689
 20
312.5183064730768
 10
52.734787693946274
 20
311.8644991702886
 10
51.57214762997427
 20
311.243055108993
 10
50.39253573852523
 20
310.6544632085863
 10
49.19688007599182
 20
310.099186542118
 10
47.98612132115922
 20
309.5776619719695
 10
46.761212035128715
 20
309.0902998061538
 10
45.52311591189286
 20
308.6374834755067
 10
44.272807020151895
 20
308.2195692320239
 10
43.011269036967924
 20
307.83688586858034
 10
41.739494473859665
 20
307.4897344602537
 10
40.45848389594678
 20
307.1783881274543
 10
39.16924513475803
 20
306.9030918210482
 10
37.872792495322614
 20
306.6640621296429
 10
36.570145958168474
 20
306.46148710918703
 10
35.26233037685547
 20
306.2955261350176
 10
33.95037467167464
 20
306.1663097764719
 10
32.635311020148016
 20
306.0739396941626
 10
31.318174044965843
 20
306.0184885599965
 10
30.000000000000004
 20
306.0
 10
28.681825955034153
 20
306.0184885599965
 10
27.36468897985199
 20
306.0739396941626
 10
26.04962532832537
 20
306.1663097764719
 10
24.737669623144534
 20
306.2955261350176
 10
23.42985404183153
 20
306.46148710918703
 10
22.127207504677394
 20
306.6640621296429
 10
20.830754865241975
 20
306.9030918210482
 10
19.541516104053226
 20
307.1783881274543
 10
18.260505526140342
 20
307.4897344602537
 10
16.988730963032083
 20
307.83688586858034
 10
15.72719297984811
 20
308.2195692320239
 10
14.476884088107152
 20
308.6374834755067
 10
13.238787964871293
 20
309.0902998061538
 10
12.013878678840783
 20
309.5776619719695
 10
10.803119924008186
 20
310.099186542118
 10
9.607464261474771
 20
310.6544632085863
 10
8.427852370025743
 20
311.243055108993
 10
7.2652123060537335
 20
311.8644991702886
 10
6.120458773413112
 20
312.5183064730768
 10
4.994492403779187
 20
313.20396263627066
 10
3.8881990480787074
 20
313.92092822178034
 10
2.802449079549131
 20
314.66863915891474
 10
1.738096708974922
 20
315.4465071881623
 10
0.6959793126395262
 20
316.2539203240026
 10
-0.32308322647810783
 20
317.09024333638445
 10
-1.3182891637441827
 20
317.9548182504912
 10
-2.288855523640379
 20
318.8469648644007
 10
-3.234018715767732
 20
319.7659812842323
 10
0.0
 20
316.5319625684645
 10
0.0
 20
411.0
 10
23.5
 20
411.0
  0
CIRCLE
  5
83
330
17
100
AcDbEntity
  8
CUT
 62
1
100
AcDbCircle
 10
15.0
 20
361.0
 30
0.0
 40
5.0
  0
CIRCLE
  5
84
330
17
100
AcDbEntity
  8
CUT
 62
1
100
AcDbCircle
 10
45.0
 20
361.0
 30
0.0
 40
5.0
  0
CIRCLE
  5
85
330
17
100
AcDbEntity
  8
CUT
 62
1
100
AcDbCircle
 10
15.0
 20
396.0
 30
0.0
 40
5.0
  0
CIRCLE
  5
86
330
17
100
AcDbEntity
  8
CUT
 62
1
100
AcDbCircle
 10
45.0
 20
396.0
 30
0.0
 40
5.0
  0
LWPOLYLINE
  5
87
330
17
100
AcDbEntity
  8
CUT
 62
1
100
AcDbPolyline
 90
69
 70
1
 10
90.5
 20
456.0
 10
103.5
 20
456.0
 10
103.5
 20
449.5
 10
98.0
 20
449.5
 10
98.0
 20
442.5
 10
103.5
 20
442.5
 10
103.5
 20
411.0
 10
127.0
 20
411.0
 10
127.0
 20
316.5319625684645
 10
130.23401871576772
 20
319.7659812842323
 10
129.2888555236404
 20
318.8469648644007
 10
128.31828916374417
 20
317.9548182504912
 10
127.32308322647812
 20
317.09024333638445
 10
126.30402068736048
 20
316.2539203240026
 10
125.26190329102508
 20
315.4465071881623
 10
124.19755092045087
 20
314.66863915891474
 10
123.11180095192131
 20
313.9209282217804
 10
122.00550759622082
 20
313.20396263627066
 10
120.8795412265869
 20
312.5183064730768
 10
119.73478769394627
 20
311.8644991702886
 10
118.57214762997427
 20
311.243055108993
 10
117.39253573852523
 20
310.6544632085863
 10
116.19688007599183
 20
310.099186542118
 10
114.98612132115922
 20
309.5776619719695
 10
113.76121203512872
 20
309.0902998061538
 10
112.52311591189286
 20
308.6374834755067
 10
111.2728070201519
 20
308.2195692320239
 10
110.01126903696792
 20
307.83688586858034
 10
108.73949447385966
 20
307.4897344602537
 10
107.45848389594678
 20
307.1783881274543
 10
106.16924513475803
 20
306.9030918210482
 10
104.87279249532261
 20
306.6640621296429
 10
103.57014595816848
 20
306.46148710918703
 10
102.26233037685547
 20
306.2955261350176
 10
100.95037467167464
 20
306.1663097764719
 10
99.63531102014802
 20
306.0739396941626
 10
98.31817404496584
 20
306.0184885599965
 10
97.0
 20
306.0
 10
95.68182595503416
 20
306.0184885599965
 10
94.36468897985199
 20
306.0739396941626
 10
93.04962532832536
 20
306.1663097764719
 10
91.73766962314454
 20
306.2955261350176
 10
90.42985404183153
 20
306.46148710918703
 10
89.12720750467739
 20
306.6640621296429
 10
87.83075486524197
 20
306.9030918210482
 10
86.54151610405323
 20
307.1783881274543
 10
85.26050552614034
 20
307.4897344602537
 10
83.98873096303208
 20
307.83688586858034
 10
82.72719297984811
 20
308.2195692320239
 10
81.47688408810716
 20
308.6374834755067
 10
80.23878796487129
 20
309.0902998061538
 10
79.01387867884078
 20
309.5776619719695
 10
77.80311992400819
 20
310.099186542118
 10
76.60746426147477
 20
310.6544632085863
 10
75.42785237002575
 20
311.243055108993
 10
74.26521230605374
 20
311.8644991702886
 10
73.1204587734131
 20
312.5183064730768
 10
71.99449240377919
 20
313.20396263627066
 10
70.8881990480787
 20
313.92092822178034
 10
69.80244907954913
 20
314.66863915891474
 10
68.73809670897492
 20
315.4465071881623
 10
67.69597931263952
 20
316.2539203240026
 10
66.6769167735219
 20
317.09024333638445
 10
65.68171083625582
 20
317.9548182504912
 10
64.71114447635962
 20
318.8469648644007
 10
63.76598128423227
 20
319.7659812842323
 10
67.0
 20
316.5319625684645
 10
67.0
 20
411.0
 10
90.5
 20
411.0
  0
CIRCLE
  5
88
330
17
100
AcDbEntity
  8
CUT
 62
1
100
AcDbCircle
 10
82.0
 20
361.0
 30
0.0
 40
5.0
  0
CIRCLE
  5
89
330
17
100
AcDbEntity
  8
CUT
 62
1
100
AcDbCircle
 10
112.0
 20
361.0
 30
0.0
 40
5.0
  0
CIRCLE
  5
8A
330
17
100
AcDbEntity
  8
CUT
 62
1
100
AcDbCircle
 10
82.0
 20
396.0
 30
0.0
 40
5.0
  0
CIRCLE
  5
8B
330
17
100
AcDbEntity
  8
CUT
 62
1
100
AcDbCircle
 10
112.0
 20
396.0
 30
0.0
 40
5.0
  0
LWPOLYLINE
  5
8C
330
17
100
AcDbEntity
  8
CUT
 62
1
100
AcDbPolyline
 90
69
 70
1
 10
157.5
 20
456.0
 10
170.5
 20
456.0
 10
170.5
 20
449.5
 10
165.0
 20
449.5
 10
165.0
 20
442.5
 10
170.5
 20
442.5
 10
170.5
 20
411.0
 10
194.0
 20
411.0
 10
194.0
 20
316.5319625684645
 10
197.23401871576772
 20
319.7659812842323
 10
196.2888555236404
 20
318.8469648644007
 10
195.31828916374417
 20
317.9548182504912
 10
194.32308322647813
 20
317.09024333638445
 10
193.3040206873605
 20
316.2539203240026
 10
192.26190329102508
 20
315.4465071881623
 10
191.19755092045088
 20
314.66863915891474
 10
190.1118009519213
 20
313.9209282217804
 10
189.0055075962208
 20
313.20396263627066
 10
187.8795412265869
 20
312.5183064730768
 10
186.73478769394626
 20
311.8644991702886
 10
185.57214762997427
 20
311.243055108993
 10
184.39253573852523
 20
310.6544632085863
 10
183.19688007599183
 20
310.099186542118
 10
181.98612132115923
 20
309.5776619719695
 10
180.76121203512872
 20
309.0902998061538
 10
179.52311591189286
 20
308.6374834755067
 10
178.2728070201519
 20
308.2195692320239
 10
177.01126903696792
 20
307.83688586858034
 10
175.73949447385968
 20
307.4897344602537
 10
174.45848389594678
 20
307.1783881274543
 10
173.16924513475803
 20
306.9030918210482
 10
171.8727924953226
 20
306.6640621296429
 10
170.57014595816847
 20
306.46148710918703
 10
169.26233037685546
 20
306.2955261350176
 10
167.95037467167464
 20
306.1663097764719
 10
166.635311020148
 20
306.0739396941626
 10
165.31817404496584
 20
306.0184885599965
 10
164.0
 20
306.0
 10
162.68182595503416
 20
306.0184885599965
 10
161.364688979852
 20
306.0739396941626
 10
160.04962532832536
 20
306.1663097764719
 10
158.73766962314454
 20
306.2955261350176
 10
157.42985404183153
 20
306.46148710918703
 10
156.1272075046774
 20
306.6640621296429
 10
154.83075486524197
 20
306.9030918210482
 10
153.54151610405322
 20
307.1783881274543
 10
152.26050552614035
 20
307.4897344602537
 10
150.98873096303208
 20
307.83688586858034
 10
149.7271929798481
 20
308.2195692320239
 10
148.47688408810714
 20
308.6374834755067
 10
147.23878796487128
 20
309.0902998061538
 10
146.0138786788408
 20
309.5776619719695
 10
144.80311992400817
 20
310.099186542118
 10
143.60746426147477
 20
310.6544632085863
 10
142.42785237002573
 20
311.243055108993
 10
141.26521230605374
 20
311.8644991702886
 10
140.1204587734131
 20
312.5183064730768
 10
138.9944924037792
 20
313.20396263627066
 10
137.88819904807872
 20
313.92092822178034
 10
136.80244907954912
 20
314.66863915891474
 10
135.73809670897492
 20
315.4465071881623
 10
134.69597931263954
 20
316.2539203240026
 10
133.6769167735219
 20
317.09024333638445
 10
132.68171083625583
 20
317.9548182504912
 10
131.7111444763596
 20
318.8469648644007
 10
130.76598128423228
 20
319.7659812842323
 10
134.0
 20
316.5319625684645
 10
134.0
 20
411.0
 10
157.5
 20
411.0
  0
CIRCLE
  5
8D
330
17
100
AcDbEntity
  8
CUT
 62
1
100
AcDbCircle
 10
149.0
 20
361.0
 30
0.0
 40
5.0
  0
CIRCLE
  5
8E
330
17
100
AcDbEntity
  8
CUT
 62
1
100
AcDbCircle
 10
179.0
 20
361.0
 30
0.0
 40
5.0
  0
CIRCLE
  5
8F
330
17
100
AcDbEntity
  8
CUT
 62
1
100
AcDbCircle
 10
149.0
 20
396.0
 30
0.0
 40
5.0
  0
CIRCLE
  5
90
330
17
100
AcDbEntity
  8
CUT
 62
1
100
AcDbCircle
 10
179.0
 20
396.0
 30
0.0
 40
5.0
  0
LWPOLYLINE
  5
91
330
17
100
AcDbEntity
  8
CUT
 62
1
100
AcDbPolyline
 90
69
 70
1
 10
224.5
 20
456.0
 10
237.5
 20
456.0
 10
237.5
 20
449.5
 10
232.0
 20
449.5
 10
232.0
 20
442.5
 10
237.5
 20
442.5
 10
237.5
 20
411.0
 10
261.0
 20
411.0
 10
261.0
 20
316.5319625684645
 10
264.2340187157677
 20
319.7659812842323
 10
263.2888555236404
 20
318.8469648644007
 10
262.31828916374417
 20
317.9548182504912
 10
261.3230832264781
 20
317.09024333638445
 10
260.3040206873605
 20
316.2539203240026
 10
259.2619032910251
 20
315.4465071881623
 10
258.19755092045085
 20
314.66863915891474
 10
257.1118009519213
 20
313.9209282217804
 10
256.0055075962208
 20
313.20396263627066
 10
254.8795412265869
 20
312.5183064730768
 10
253.73478769394626
 20
311.8644991702886
 10
252.57214762997427
 20
311.243055108993
 10
251.39253573852523
 20
310.6544632085863
 10
250.19688007599183
 20
310.099186542118
 10
248.98612132115923
 20
309.5776619719695
 10
247.76121203512872
 20
309.0902998061538
 10
246.52311591189286
 20
308.6374834755067
 10
245.2728070201519
 20
308.2195692320239
 10
244.01126903696792
 20
307.83688586858034
 10
242.73949447385968
 20
307.4897344602537
 10
241.45848389594678
 20
307.1783881274543
 10
240.16924513475803
 20
306.9030918210482
 10
238.8727924953226
 20
306.6640621296429
 10
237.57014595816847
 20
306.46148710918703
 10
236.26233037685546
 20
306.2955261350176
 10
234.95037467167464
 20
306.1663097764719
 10
233.635311020148
 20
306.0739396941626
 10
232.31817404496584
 20
306.0184885599965
 10
231.0
 20
306.0
 10
229.68182595503416
 20
306.0184885599965
 10
228.364688979852
 20
306.0739396941626
 10
227.04962532832536
 20
306.1663097764719
 10
225.73766962314454
 20
306.2955261350176
 10
224.42985404183153
 20
306.46148710918703
 10
223.1272075046774
 20
306.6640621296429
 10
221.83075486524197
 20
306.9030918210482
 10
220.54151610405322
 20
307.1783881274543
 10
219.26050552614035
 20
307.4897344602537
 10
217.98873096303208
 20
307.83688586858034
 10
216.7271929798481
 20
308.2195692320239
 10
215.47688408810714
 20
308.6374834755067
 10
214.23878796487128
 20
309.0902998061538
 10
213.0138786788408
 20
309.5776619719695
 10
211.80311992400817
 20
310.099186542118
 10
210.60746426147477
 20
310.6544632085863
 10
209.42785237002573
 20
311.243055108993
 10
208.26521230605374
 20
311.8644991702886
 10
207.1204587734131
 20
312.5183064730768
 10
205.9944924037792
 20
313.20396263627066
 10
204.88819904807872
 20
313.92092822178034
 10
203.80244907954912
 20
314.66863915891474
 10
202.73809670897492
 20
315.4465071881623
 10
201.69597931263954
 20
316.2539203240026
 10
200.6769167735219
 20
317.09024333638445
 10
199.68171083625583
 20
317.9548182504912
 10
198.7111444763596
 20
318.8469648644007
 10
197.76598128423228
 20
319.7659812842323
 10
201.0
 20
316.5319625684645
 10
201.0
 20
411.0
 10
224.5
 20
411.0
  0
CIRCLE
  5
92
330
17
100
AcDbEntity
  8
CUT
 62
1
100
AcDbCircle
 10
216.0
 20
361.0
 30
0.0
 40
5.0
  0
CIRCLE
  5
93
330
17
100
AcDbEntity
  8
CUT
 62
1
100
AcDbCircle
 10
246.0
 20
361.0
 30
0.0
 40
5.0
  0
CIRCLE
  5
94
330
17
100
AcDbEntity
  8
CUT
 62
1
100
AcDbCircle
 10
216.0
 20
396.0
 30
0.0
 40
5.0
  0
CIRCLE
  5
95
330
17
100
AcDbEntity
  8
CUT
 62
1
100
AcDbCircle
 10
246.0
 20
396.0
 30
0.0
 40
5.0
  0
LWPOLYLINE
  5
96
330
17
100
AcDbEntity
  8
CUT
 62
1
100
AcDbPolyline
 90
69
 70
1
 10
291.5
 20
456.0
 10
304.5
 20
456.0
 10
304.5
 20
449.5
 10
299.0
 20
449.5
 10
299.0
 20
442.5
 10
304.5
 20
442.5
 10
304.5
 20
411.0
 10
328.0
 20
411.0
 10
328.0
 20
316.5319625684645
 10
331.2340187157677
 20
319.7659812842323
 10
330.2888555236404
 20
318.8469648644007
 10
329.31828916374417
 20
317.9548182504912
 10
328.3230832264781
 20
317.09024333638445
 10
327.3040206873605
 20
316.2539203240026
 10
326.2619032910251
 20
315.4465071881623
 10
325.19755092045085
 20
314.66863915891474
 10
324.1118009519213
 20
313.9209282217804
 10
323.0055075962208
 20
313.20396263627066
 10
321.87954122658687
 20
312.5183064730768
 10
320.73478769394626
 20
311.8644991702886
 10
319.57214762997427
 20
311.243055108993
 10
318.3925357385252
 20
310.6544632085863
 10
317.1968800759918
 20
310.099186542118
 10
315.9861213211592
 20
309.5776619719695
 10
314.7612120351287
 20
309.0902998061538
 10
313.52311591189283
 20
308.6374834755067
 10
312.2728070201519
 20
308.2195692320239
 10
311.0112690369679
 20
307.83688586858034
 10
309.7394944738597
 20
307.4897344602537
 10
308.45848389594676
 20
307.1783881274543
 10
307.16924513475806
 20
306.9030918210482
 10
305.87279249532264
 20
306.6640621296429
 10
304.5701459581685
 20
306.46148710918703
 10
303.26233037685546
 20
306.2955261350176
 10
301.95037467167464
 20
306.1663097764719
 10
300.63531102014804
 20
306.0739396941626
 10
299.3181740449659
 20
306.0184885599965
 10
298.0
 20
306.0
 10
296.6818259550341
 20
306.0184885599965
 10
295.36468897985196
 20
306.0739396941626
 10
294.04962532832536
 20
306.1663097764719
 10
292.73766962314454
 20
306.2955261350176
 10
291.4298540418315
 20
306.46148710918703
 10
290.1272075046774
 20
306.6640621296429
 10
288.830754865242
 20
306.9030918210482
 10
287.54151610405324
 20
307.1783881274543
 10
286.2605055261403
 20
307.4897344602537
 10
284.9887309630321
 20
307.83688586858034
 10
283.7271929798481
 20
308.2195692320239
 10
282.47688408810717
 20
308.6374834755067
 10
281.2387879648713
 20
309.0902998061538
 10
280.0138786788408
 20
309.5776619719695
 10
278.8031199240082
 20
310.099186542118
 10
277.6074642614748
 20
310.6544632085863
 10
276.42785237002573
 20
311.243055108993
 10
275.26521230605374
 20
311.8644991702886
 10
274.12045877341313
 20
312.5183064730768
 10
272.9944924037792
 20
313.20396263627066
 10
271.8881990480787
 20
313.92092822178034
 10
270.80244907954915
 20
314.66863915891474
 10
269.7380967089749
 20
315.4465071881623
 10
268.6959793126395
 20
316.2539203240026
 10
267.6769167735219
 20
317.09024333638445
 10
266.68171083625583
 20
317.9548182504912
 10
265.7111444763596
 20
318.8469648644007
 10
264.7659812842323
 20
319.7659812842323
 10
268.0
 20
316.5319625684645
 10
268.0
 20
411.0
 10
291.5
 20
411.0
  0
CIRCLE
  5
97
330
17
100
AcDbEntity
  8
CUT
 62
1
100
AcDbCircle
 10
283.0
 20
361.0
 30
0.0
 40
5.0
  0
CIRCLE
  5
98
330
17
100
AcDbEntity
  8
CUT
 62
1
100
AcDbCircle
 10
313.0
 20
361.0
 30
0.0
 40
5.0
  0
CIRCLE
  5
99
330
17
100
AcDbEntity
  8
CUT
 62
1
100
AcDbCircle
 10
283.0
 20
396.0
 30
0.0
 40
5.0
  0
CIRCLE
  5
9A
330
17
100
AcDbEntity
  8
CUT
 62
1
100
AcDbCircle
 10
313.0
 20
396.0
 30
0.0
 40
5.0
  0
LWPOLYLINE
  5
9B
330
17
100
AcDbEntity
  8
CUT
 62
1
100
AcDbPolyline
 90
69
 70
1
 10
358.5
 20
456.0
 10
371.5
 20
456.0
 10
371.5
 20
449.5
 10
366.0
 20
449.5
 10
366.0
 20
442.5
 10
371.5
 20
442.5
 10
371.5
 20
411.0
 10
395.0
 20
411.0
 10
395.0
 20
316.5319625684645
 10
398.2340187157677
 20
319.7659812842323
 10
397.2888555236404
 20
318.8469648644007
 10
396.31828916374417
 20
317.9548182504912
 10
395.3230832264781
 20
317.09024333638445
 10
394.3040206873605
 20
316.2539203240026
 10
393.2619032910251
 20
315.4465071881623
 10
392.19755092045085
 20
314.66863915891474
 10
391.1118009519213
 20
313.9209282217804
 10
390.0055075962208
 20
313.20396263627066
 10
388.87954122658687
 20
312.5183064730768
 10
387.73478769394626
 20
311.8644991702886
 10
386.57214762997427
 20
311.243055108993
 10
385.3925357385252
 20
310.6544632085863
 10
384.1968800759918
 20
310.099186542118
 10
382.9861213211592
 20
309.5776619719695
 10
381.7612120351287
 20
309.0902998061538
 10
380.52311591189283
 20
308.6374834755067
 10
379.2728070201519
 20
308.2195692320239
 10
378.0112690369679
 20
307.83688586858034
 10
376.7394944738597
 20
307.4897344602537
 10
375.45848389594676
 20
307.1783881274543
 10
374.16924513475806
 20
306.9030918210482
 10
372.87279249532264
 20
306.6640621296429
 10
371.5701459581685
 20
306.46148710918703
 10
370.26233037685546
 20
306.2955261350176
 10
368.95037467167464
 20
306.1663097764719
 10
367.63531102014804
 20
306.0739396941626
 10
366.3181740449659
 20
306.0184885599965
 10
365.0
 20
306.0
 10
363.6818259550341
 20
306.0184885599965
 10
362.36468897985196
 20
306.0739396941626
 10
361.04962532832536
 20
306.1663097764719
 10
359.73766962314454
 20
306.2955261350176
 10
358.4298540418315
 20
306.46148710918703
 10
357.1272075046774
 20
306.6640621296429
 10
355.830754865242
 20
306.9030918210482
 10
354.54151610405324
 20
307.1783881274543
 10
353.2605055261403
 20
307.4897344602537
 10
351.9887309630321
 20
307.83688586858034
 10
350.7271929798481
 20
308.2195692320239
 10
349.47688408810717
 20
308.6374834755067
 10
348.2387879648713
 20
309.0902998061538
 10
347.0138786788408
 20
309.5776619719695
 10
345.8031199240082
 20
310.099186542118
 10
344.6074642614748
 20
310.6544632085863
 10
343.42785237002573
 20
311.243055108993
 10
342.26521230605374
 20
311.8644991702886
 10
341.12045877341313
 20
312.5183064730768
 10
339.9944924037792
 20
313.20396263627066
 10
338.8881990480787
 20
313.92092822178034
 10
337.80244907954915
 20
314.66863915891474
 10
336.7380967089749
 20
315.4465071881623
 10
335.6959793126395
 20
316.2539203240026
 10
334.6769167735219
 20
317.09024333638445
 10
333.68171083625583
 20
317.9548182504912
 10
332.7111444763596
 20
318.8469648644007
 10
331.7659812842323
 20
319.7659812842323
 10
335.0
 20
316.5319625684645
 10
335.0
 20
411.0
 10
358.5
 20
411.0
  0
CIRCLE
  5
9C
330
17
100
AcDbEntity
  8
CUT
 62
1
100
AcDbCircle
 10
350.0
 20
361.0
 30
0.0
 40
5.0
  0
CIRCLE
  5
9D
330
17
100
AcDbEntity
  8
CUT
 62
1
100
AcDbCircle
 10
380.0
 20
361.0
 30
0.0
 40
5.0
  0
CIRCLE
  5
9E
330
17
100
AcDbEntity
  8
CUT
 62
1
100
AcDbCircle
 10
350.0
 20
396.0
 30
0.0
 40
5.0
  0
CIRCLE
  5
9F
330
17
100
AcDbEntity
  8
CUT
 62
1
100
AcDbCircle
 10
380.0
 20
396.0
 30
0.0
 40
5.0
  0
LWPOLYLINE
  5
A0
330
17
100
AcDbEntity
  8
CUT
 62
1
100
AcDbPolyline
 90
69
 70
1
 10
425.5
 20
456.0
 10
438.5
 20
456.0
 10
438.5
 20
449.5
 10
433.0
 20
449.5
 10
433.0
 20
442.5
 10
438.5
 20
442.5
 10
438.5
 20
411.0
 10
462.0
 20
411.0
 10
462.0
 20
316.5319625684645
 10
465.2340187157677
 20
319.7659812842323
 10
464.2888555236404
 20
318.8469648644007
 10
463.31828916374417
 20
317.9548182504912
 10
462.3230832264781
 20
317.09024333638445
 10
461.3040206873605
 20
316.2539203240026
 10
460.2619032910251
 20
315.4465071881623
 10
459.19755092045085
 20
314.66863915891474
 10
458.1118009519213
 20
313.9209282217804
 10
457.0055075962208
 20
313.20396263627066
 10
455.87954122658687
 20
312.5183064730768
 10
454.73478769394626
 20
311.8644991702886
 10
453.57214762997427
 20
311.243055108993
 10
452.3925357385252
 20
310.6544632085863
 10
451.1968800759918
 20
310.099186542118
 10
449.9861213211592
 20
309.5776619719695
 10
448.7612120351287
 20
309.0902998061538
 10
447.52311591189283
 20
308.6374834755067
 10
446.2728070201519
 20
308.2195692320239
 10
445.0112690369679
 20
307.83688586858034
 10
443.7394944738597
 20
307.4897344602537
 10
442.45848389594676
 20
307.1783881274543
 10
441.16924513475806
 20
306.9030918210482
 10
439.87279249532264
 20
306.6640621296429
 10
438.5701459581685
 20
306.46148710918703
 10
437.26233037685546
 20
306.2955261350176
 10
435.95037467167464
 20
306.1663097764719
 10
434.63531102014804
 20
306.0739396941626
 10
433.3181740449659
 20
306.0184885599965
 10
432.0
 20
306.0
 10
430.6818259550341
 20
306.0184885599965
 10
429.36468897985196
 20
306.0739396941626
 10
428.04962532832536
 20
306.1663097764719
 10
426.73766962314454
 20
306.2955261350176
 10
425.4298540418315
 20
306.46148710918703
 10
424.1272075046774
 20
306.6640621296429
 10
422.830754865242
 20
306.9030918210482
 10
421.54151610405324
 20
307.1783881274543
 10
420.2605055261403
 20
307.4897344602537
 10
418.9887309630321
 20
307.83688586858034
 10
417.7271929798481
 20
308.2195692320239
 10
416.47688408810717
 20
308.6374834755067
 10
415.2387879648713
 20
309.0902998061538
 10
414.0138786788408
 20
309.5776619719695
 10
412.8031199240082
 20
310.099186542118
 10
411.6074642614748
 20
310.6544632085863
 10
410.42785237002573
 20
311.243055108993
 10
409.26521230605374
 20
311.8644991702886
 10
408.12045877341313
 20
312.5183064730768
 10
406.9944924037792
 20
313.20396263627066
 10
405.8881990480787
 20
313.92092822178034
 10
404.80244907954915
 20
314.66863915891474
 10
403.7380967089749
 20
315.4465071881623
 10
402.6959793126395
 20
316.2539203240026
 10
401.6769167735219
 20
317.09024333638445
 10
400.68171083625583
 20
317.9548182504912
 10
399.7111444763596
 20
318.8469648644007
 10
398.7659812842323
 20
319.7659812842323
 10
402.0
 20
316.5319625684645
 10
402.0
 20
411.0
 10
425.5
 20
411.0
  0
CIRCLE
  5
A1
330
17
100
AcDbEntity
  8
CUT
 62
1
100
AcDbCircle
 10
417.0
 20
361.0
 30
0.0
 40
5.0
  0
CIRCLE
  5
A2
330
17
100
AcDbEntity
  8
CUT
 62
1
100
AcDbCircle
 10
447.0
 20
361.0
 30
0.0
 40
5.0
  0
CIRCLE
  5
A3
330
17
100
AcDbEntity
  8
CUT
 62
1
100
AcDbCircle
 10
417.0
 20
396.0
 30
0.0
 40
5.0
  0
CIRCLE
  5
A4
330
17
100
AcDbEntity
  8
CUT
 62
1
100
AcDbCircle
 10
447.0
 20
396.0
 30
0.0
 40
5.0
  0
LWPOLYLINE
  5
A5
330
17
100
AcDbEntity
  8
CUT
 62
1
100
AcDbPolyline
 90
69
 70
1
 10
492.5
 20
456.0
 10
505.5
 20
456.0
 10
505.5
 20
449.5
 10
500.0
 20
449.5
 10
500.0
 20
442.5
 10
505.5
 20
442.5
 10
505.5
 20
411.0
 10
529.0
 20
411.0
 10
529.0
 20
316.5319625684645
 10
532.2340187157678
 20
319.7659812842323
 10
531.2888555236403
 20
318.8469648644007
 10
530.3182891637442
 20
317.9548182504912
 10
529.3230832264782
 20
317.09024333638445
 10
528.3040206873604
 20
316.2539203240026
 10
527.2619032910251
 20
315.4465071881623
 10
526.1975509204509
 20
314.66863915891474
 10
525.1118009519213
 20
313.9209282217804
 10
524.0055075962208
 20
313.20396263627066
 10
522.8795412265869
 20
312.5183064730768
 10
521.7347876939463
 20
311.8644991702886
 10
520.5721476299743
 20
311.243055108993
 10
519.3925357385252
 20
310.6544632085863
 10
518.1968800759918
 20
310.099186542118
 10
516.9861213211592
 20
309.5776619719695
 10
515.7612120351287
 20
309.0902998061538
 10
514.5231159118929
 20
308.6374834755067
 10
513.2728070201518
 20
308.2195692320239
 10
512.011269036968
 20
307.83688586858034
 10
510.7394944738597
 20
307.4897344602537
 10
509.45848389594676
 20
307.1783881274543
 10
508.16924513475806
 20
306.9030918210482
 10
506.87279249532264
 20
306.6640621296429
 10
505.5701459581685
 20
306.46148710918703
 10
504.26233037685546
 20
306.2955261350176
 10
502.95037467167464
 20
306.1663097764719
 10
501.63531102014804
 20
306.0739396941626
 10
500.3181740449659
 20
306.0184885599965
 10
499.0
 20
306.0
 10
497.6818259550341
 20
306.0184885599965
 10
496.36468897985196
 20
306.0739396941626
 10
495.04962532832536
 20
306.1663097764719
 10
493.73766962314454
 20
306.2955261350176
 10
492.4298540418315
 20
306.46148710918703
 10
491.1272075046774
 20
306.6640621296429
 10
489.830754865242
 20
306.9030918210482
 10
488.54151610405324
 20
307.1783881274543
 10
487.2605055261403
 20
307.4897344602537
 10
485.9887309630321
 20
307.83688586858034
 10
484.7271929798481
 20
308.2195692320239
 10
483.47688408810717
 20
308.6374834755067
 10
482.2387879648713
 20
309.0902998061538
 10
481.0138786788408
 20
309.5776619719695
 10
479.8031199240082
 20
310.099186542118
 10
478.6074642614748
 20
310.6544632085863
 10
477.42785237002573
 20
311.243055108993
 10
476.26521230605374
 20
311.8644991702886
 10
475.12045877341313
 20
312.5183064730768
 10
473.9944924037792
 20
313.20396263627066
 10
472.8881990480787
 20
313.92092822178034
 10
471.80244907954915
 20
314.66863915891474
 10
470.7380967089749
 20
315.4465071881623
 10
469.6959793126395
 20
316.2539203240026
 10
468.6769167735219
 20
317.09024333638445
 10
467.68171083625583
 20
317.9548182504912
 10
466.7111444763596
 20
318.8469648644007
 10
465.7659812842323
 20
319.7659812842323
 10
469.0
 20
316.5319625684645
 10
469.0
 20
411.0
 10
492.5
 20
411.0
  0
CIRCLE
  5
A6
330
17
100
AcDbEntity
  8
CUT
 62
1
100
AcDbCircle
 10
484.0
 20
361.0
 30
0.0
 40
5.0
  0
CIRCLE
  5
A7
330
17
100
AcDbEntity
  8
CUT
 62
1
100
AcDbCircle
 10
514.0
 20
361.0
 30
0.0
 40
5.0
  0
CIRCLE
  5
A8
330
17
100
AcDbEntity
  8
CUT
 62
1
100
AcDbCircle
 10
484.0
 20
396.0
 30
0.0
 40
5.0
  0
CIRCLE
  5
A9
330
17
100
AcDbEntity
  8
CUT
 62
1
100
AcDbCircle
 10
514.0
 20
396.0
 30
0.0
 40
5.0
  0
LWPOLYLINE
  5
AA
330
17
100
AcDbEntity
  8
CUT
 62
1
100
AcDbPolyline
 90
69
 70
1
 10
23.5
 20
609.0
 10
36.5
 20
609.0
 10
36.5
 20
602.5
 10
31.0
 20
602.5
 10
31.0
 20
595.5
 10
36.5
 20
595.5
 10
36.5
 20
564.0
 10
60.0
 20
564.0
 10
60.0
 20
469.5319625684645
 10
63.23401871576773
 20
472.7659812842323
 10
62.28885552364038
 20
471.8469648644007
 10
61.31828916374418
 20
470.9548182504912
 10
60.32308322647812
 20
470.09024333638445
 10
59.30402068736048
 20
469.2539203240026
 10
58.26190329102508
 20
468.4465071881623
 10
57.197550920450865
 20
467.66863915891474
 10
56.11180095192131
 20
466.9209282217804
 10
55.00550759622082
 20
466.20396263627066
 10
53.87954122658689
 20
465.5183064730768
 10
52.734787693946274
 20
464.8644991702886
 10
51.57214762997427
 20
464.243055108993
 10
50.39253573852523
 20
463.6544632085863
 10
49.19688007599182
 20
463.099186542118
 10
47.98612132115922
 20
462.5776619719695
 10
46.761212035128715
 20
462.0902998061538
 10
45.52311591189286
 20
461.6374834755067
 10
44.272807020151895
 20
461.2195692320239
 10
43.011269036967924
 20
460.83688586858034
 10
41.739494473859665
 20
460.4897344602537
 10
40.45848389594678
 20
460.1783881274543
 10
39.16924513475803
 20
459.9030918210482
 10
37.872792495322614
 20
459.6640621296429
 10
36.570145958168474
 20
459.46148710918703
 10
35.26233037685547
 20
459.2955261350176
 10
33.95037467167464
 20
459.1663097764719
 10
32.635311020148016
 20
459.0739396941626
 10
31.318174044965843
 20
459.0184885599965
 10
30.000000000000004
 20
459.0
 10
28.681825955034153
 20
459.0184885599965
 10
27.36468897985199
 20
459.0739396941626
 10
26.04962532832537
 20
459.1663097764719
 10
24.737669623144534
 20
459.2955261350176
 10
23.42985404183153
 20
459.46148710918703
 10
22.127207504677394
 20
459.6640621296429
 10
20.830754865241975
 20
459.9030918210482
 10
19.541516104053226
 20
460.1783881274543
 10
18.260505526140342
 20
460.4897344602537
 10
16.988730963032083
 20
460.83688586858034
 10
15.72719297984811
 20
461.2195692320239
 10
14.476884088107152
 20
461.6374834755067
 10
13.238787964871293
 20
462.0902998061538
 10
12.013878678840783
 20
462.5776619719695
 10
10.803119924008186
 20
463.099186542118
 10
9.607464261474771
 20
463.6544632085863
 10
8.427852370025743
 20
464.243055108993
 10
7.2652123060537335
 20
464.8644991702886
 10
6.120458773413112
 20
465.5183064730768
 10
4.994492403779187
 20
466.20396263627066
 10
3.8881990480787074
 20
466.92092822178034
 10
2.802449079549131
 20
467.66863915891474
 10
1.738096708974922
 20
468.4465071881623
 10
0.6959793126395262
 20
469.2539203240026
 10
-0.32308322647810783
 20
470.09024333638445
 10
-1.3182891637441827
 20
470.9548182504912
 10
-2.288855523640379
 20
471.8469648644007
 10
-3.234018715767732
 20
472.7659812842323
 10
0.0
 20
469.5319625684645
 10
0.0
 20
564.0
 10
23.5
 20
564.0
  0
CIRCLE
  5
AB
330
17
100
AcDbEntity
  8
CUT
 62
1
100
AcDbCircle
 10
15.0
 20
514.0
 30
0.0
 40
5.0
  0
CIRCLE
  5
AC
330
17
100
AcDbEntity
  8
CUT
 62
1
100
AcDbCircle
 10
45.0
 20
514.0
 30
0.0
 40
5.0
  0
CIRCLE
  5
AD
330
17
100
AcDbEntity
  8
CUT
 62
1
100
AcDbCircle
 10
15.0
 20
549.0
 30
0.0
 40
5.0
  0
CIRCLE
  5
AE
330
17
100
AcDbEntity
  8
CUT
 62
1
100
AcDbCircle
 10
45.0
 20
549.0
 30
0.0
 40
5.0
  0
LWPOLYLINE
  5
AF
330
17
100
AcDbEntity
  8
CUT
 62
1
100
AcDbPolyline
 90
69
 70
1
 10
90.5
 20
609.0
 10
103.5
 20
609.0
 10
103.5
 20
602.5
 10
98.0
 20
602.5
 10
98.0
 20
595.5
 10
103.5
 20
595.5
 10
103.5
 20
564.0
 10
127.0
 20
564.0
 10
127.0
 20
469.5319625684645
 10
130.23401871576772
 20
472.7659812842323
 10
129.2888555236404
 20
471.8469648644007
 10
128.31828916374417
 20
470.9548182504912
 10
127.32308322647812
 20
470.09024333638445
 10
126.30402068736048
 20
469.2539203240026
 10
125.26190329102508
 20
468.4465071881623
 10
124.19755092045087
 20
467.66863915891474
 10
123.11180095192131
 20
466.9209282217804
 10
122.00550759622082
 20
466.20396263627066
 10
120.8795412265869
 20
465.5183064730768
 10
119.73478769394627
 20
464.8644991702886
 10
118.57214762997427
 20
464.243055108993
 10
117.39253573852523
 20
463.6544632085863
 10
116.19688007599183
 20
463.099186542118
 10
114.98612132115922
 20
462.5776619719695
 10
113.76121203512872
 20
462.0902998061538
 10
112.52311591189286
 20
461.6374834755067
 10
111.2728070201519
 20
461.2195692320239
 10
110.01126903696792
 20
460.83688586858034
 10
108.73949447385966
 20
460.4897344602537
 10
107.45848389594678
 20
460.1783881274543
 10
106.16924513475803
 20
459.9030918210482
 10
104.87279249532261
 20
459.6640621296429
 10
103.57014595816848
 20
459.46148710918703
 10
102.26233037685547
 20
459.2955261350176
 10
100.95037467167464
 20
459.1663097764719
 10
99.63531102014802
 20
459.0739396941626
 10
98.31817404496584
 20
459.0184885599965
 10
97.0
 20
459.0
 10
95.68182595503416
 20
459.0184885599965
 10
94.36468897985199
 20
459.0739396941626
 10
93.04962532832536
 20
459.1663097764719
 10
91.73766962314454
 20
459.2955261350176
 10
90.42985404183153
 20
459.46148710918703
 10
89.12720750467739
 20
459.6640621296429
 10
87.83075486524197
 20
459.9030918210482
 10
86.54151610405323
 20
460.1783881274543
 10
85.26050552614034
 20
460.4897344602537
 10
83.98873096303208
 20
460.83688586858034
 10
82.72719297984811
 20
461.2195692320239
 10
81.47688408810716
 20
461.6374834755067
 10
80.23878796487129
 20
462.0902998061538
 10
79.01387867884078
 20
462.5776619719695
 10
77.80311992400819
 20
463.099186542118
 10
76.60746426147477
 20
463.6544632085863
 10
75.42785237002575
 20
464.243055108993
 10
74.26521230605374
 20
464.8644991702886
 10
73.1204587734131
 20
465.5183064730768
 10
71.99449240377919
 20
466.20396263627066
 10
70.8881990480787
 20
466.92092822178034
 10
69.80244907954913
 20
467.66863915891474
 10
68.73809670897492
 20
468.4465071881623
 10
67.69597931263952
 20
469.2539203240026
 10
66.6769167735219
 20
470.09024333638445
 10
65.68171083625582
 20
470.9548182504912
 10
64.71114447635962
 20
471.8469648644007
 10
63.76598128423227
 20
472.7659812842323
 10
67.0
 20
469.5319625684645
 10
67.0
 20
564.0
 10
90.5
 20
564.0
  0
CIRCLE
  5
B0
330
17
100
AcDbEntity
  8
CUT
 62
1
100
AcDbCircle
 10
82.0
 20
514.0
 30
0.0
 40
5.0
  0
CIRCLE
  5
B1
330
17
100
AcDbEntity
  8
CUT
 62
1
100
AcDbCircle
 10
112.0
 20
514.0
 30
0.0
 40
5.0
  0
CIRCLE
  5
B2
330
17
100
AcDbEntity
  8
CUT
 62
1
100
AcDbCircle
 10
82.0
 20
549.0
 30
0.0
 40
5.0
  0
CIRCLE
  5
B3
330
17
100
AcDbEntity
  8
CUT
 62
1
100
AcDbCircle
 10
112.0
 20
549.0
 30
0.0
 40
5.0
  0
LWPOLYLINE
  5
B4
330
17
100
AcDbEntity
  8
CUT
 62
1
100
AcDbPolyline
 90
69
 70
1
 10
157.5
 20
609.0
 10
170.5
 20
609.0
 10
170.5
 20
602.5
 10
165.0
 20
602.5
 10
165.0
 20
595.5
 10
170.5
 20
595.5
 10
170.5
 20
564.0
 10
194.0
 20
564.0
 10
194.0
 20
469.5319625684645
 10
197.23401871576772
 20
472.7659812842323
 10
196.2888555236404
 20
471.8469648644007
 10
195.31828916374417
 20
470.9548182504912
 10
194.32308322647813
 20
470.09024333638445
 10
193.3040206873605
 20
469.2539203240026
 10
192.26190329102508
 20
468.4465071881623
 10
191.19755092045088
 20
467.66863915891474
 10
190.1118009519213
 20
466.9209282217804
 10
189.0055075962208
 20
466.20396263627066
 10
187.8795412265869
 20
465.5183064730768
 10
186.73478769394626
 20
464.8644991702886
 10
185.57214762997427
 20
464.243055108993
 10
184.39253573852523
 20
463.6544632085863
 10
183.19688007599183
 20
463.099186542118
 10
181.98612132115923
 20
462.5776619719695
 10
180.76121203512872
 20
462.0902998061538
 10
179.52311591189286
 20
461.6374834755067
 10
178.2728070201519
 20
461.2195692320239
 10
177.01126903696792
 20
460.83688586858034
 10
175.73949447385968
 20
460.4897344602537
 10
174.45848389594678
 20
460.1783881274543
 10
173.16924513475803
 20
459.9030918210482
 10
171.8727924953226
 20
459.6640621296429
 10
170.57014595816847
 20
459.46148710918703
 10
169.26233037685546
 20
459.2955261350176
 10
167.95037467167464
 20
459.1663097764719
 10
166.635311020148
 20
459.0739396941626
 10
165.31817404496584
 20
459.0184885599965
 10
164.0
 20
459.0
 10
162.68182595503416
 20
459.0184885599965
 10
161.364688979852
 20
459.0739396941626
 10
160.04962532832536
 20
459.1663097764719
 10
158.73766962314454
 20
459.2955261350176
 10
157.42985404183153
 20
459.46148710918703
 10
156.1272075046774
 20
459.6640621296429
 10
154.83075486524197
 20
459.9030918210482
 10
153.54151610405322
 20
460.1783881274543
 10
152.26050552614035
 20
460.4897344602537
 10
150.98873096303208
 20
460.83688586858034
 10
149.7271929798481
 20
461.2195692320239
 10
148.47688408810714
 20
461.6374834755067
 10
147.23878796487128
 20
462.0902998061538
 10
146.0138786788408
 20
462.5776619719695
 10
144.80311992400817
 20
463.099186542118
 10
143.60746426147477
 20
463.6544632085863
 10
142.42785237002573
 20
464.243055108993
 10
141.26521230605374
 20
464.8644991702886
 10
140.1204587734131
 20
465.5183064730768
 10
138.9944924037792
 20
466.20396263627066
 10
137.88819904807872
 20
466.92092822178034
 10
136.80244907954912
 20
467.66863915891474
 10
135.73809670897492
 20
468.4465071881623
 10
134.69597931263954
 20
469.2539203240026
 10
133.6769167735219
 20
470.09024333638445
 10
132.68171083625583
 20
470.9548182504912
 10
131.7111444763596
 20
471.8469648644007
 10
130.76598128423228
 20
472.7659812842323
 10
134.0
 20
469.5319625684645
 10
134.0
 20
564.0
 10
157.5
 20
564.0
  0
CIRCLE
  5
B5
330
17
100
AcDbEntity
  8
CUT
 62
1
100
AcDbCircle
 10
149.0
 20
514.0
 30
0.0
 40
5.0
  0
CIRCLE
  5
B6
330
17
100
AcDbEntity
  8
CUT
 62
1
100
AcDbCircle
 10
179.0
 20
514.0
 30
0.0
 40
5.0
  0
CIRCLE
  5
B7
330
17
100
AcDbEntity
  8
CUT
 62
1
100
AcDbCircle
 10
149.0
 20
549.0
 30
0.0
 40
5.0
  0
CIRCLE
  5
B8
330
17
100
AcDbEntity
  8
CUT
 62
1
100
AcDbCircle
 10
179.0
 20
549.0
 30
0.0
 40
5.0
  0
LWPOLYLINE
  5
B9
330
17
100
AcDbEntity
  8
CUT
 62
1
100
AcDbPolyline
 90
69
 70
1
 10
224.5
 20
609.0
 10
237.5
 20
609.0
 10
237.5
 20
602.5
 10
232.0
 20
602.5
 10
232.0
 20
595.5
 10
237.5
 20
595.5
 10
237.5
 20
564.0
 10
261.0
 20
564.0
 10
261.0
 20
469.5319625684645
 10
264.2340187157677
 20
472.7659812842323
 10
263.2888555236404
 20
471.8469648644007
 10
262.31828916374417
 20
470.9548182504912
 10
261.3230832264781
 20
470.09024333638445
 10
260.3040206873605
 20
469.2539203240026
 10
259.2619032910251
 20
468.4465071881623
 10
258.19755092045085
 20
467.66863915891474
 10
257.1118009519213
 20
466.9209282217804
 10
256.0055075962208
 20
466.20396263627066
 10
254.8795412265869
 20
465.5183064730768
 10
253.73478769394626
 20
464.8644991702886
 10
252.57214762997427
 20
464.243055108993
 10
251.39253573852523
 20
463.6544632085863
 10
250.19688007599183
 20
463.099186542118
 10
248.98612132115923
 20
462.5776619719695
 10
247.76121203512872
 20
462.0902998061538
 10
246.52311591189286
 20
461.6374834755067
 10
245.2728070201519
 20
461.2195692320239
 10
244.01126903696792
 20
460.83688586858034
 10
242.73949447385968
 20
460.4897344602537
 10
241.45848389594678
 20
460.1783881274543
 10
240.16924513475803
 20
459.9030918210482
 10
238.8727924953226
 20
459.6640621296429
 10
237.57014595816847
 20
459.46148710918703
 10
236.26233037685546
 20
459.2955261350176
 10
234.95037467167464
 20
459.1663097764719
 10
233.635311020148
 20
459.0739396941626
 10
232.31817404496584
 20
459.0184885599965
 10
231.0
 20
459.0
 10
229.68182595503416
 20
459.0184885599965
 10
228.364688979852
 20
459.0739396941626
 10
227.04962532832536
 20
459.1663097764719
 10
225.73766962314454
 20
459.2955261350176
 10
224.42985404183153
 20
459.46148710918703
 10
223.1272075046774
 20
459.6640621296429
 10
221.83075486524197
 20
459.9030918210482
 10
220.54151610405322
 20
460.1783881274543
 10
219.26050552614035
 20
460.4897344602537
 10
217.98873096303208
 20
460.83688586858034
 10
216.7271929798481
 20
461.2195692320239
 10
215.47688408810714
 20
461.6374834755067
 10
214.23878796487128
 20
462.0902998061538
 10
213.0138786788408
 20
462.5776619719695
 10
211.80311992400817
 20
463.099186542118
 10
210.60746426147477
 20
463.6544632085863
 10
209.42785237002573
 20
464.243055108993
 10
208.26521230605374
 20
464.8644991702886
 10
207.1204587734131
 20
465.5183064730768
 10
205.9944924037792
 20
466.20396263627066
 10
204.88819904807872
 20
466.92092822178034
 10
203.80244907954912
 20
467.66863915891474
 10
202.73809670897492
 20
468.4465071881623
 10
201.69597931263954
 20
469.2539203240026
 10
200.6769167735219
 20
470.09024333638445
 10
199.68171083625583
 20
470.9548182504912
 10
198.7111444763596
 20
471.8469648644007
 10
197.76598128423228
 20
472.7659812842323
 10
201.0
 20
469.5319625684645
 10
201.0
 20
564.0
 10
224.5
 20
564.0
  0
CIRCLE
  5
BA
330
17
100
AcDbEntity
  8
CUT
 62
1
100
AcDbCircle
 10
216.0
 20
514.0
 30
0.0
 40
5.0
  0
CIRCLE
  5
BB
330
17
100
AcDbEntity
  8
CUT
 62
1
100
AcDbCircle
 10
246.0
 20
514.0
 30
0.0
 40
5.0
  0
CIRCLE
  5
BC
330
17
100
AcDbEntity
  8
CUT
 62
1
100
AcDbCircle
 10
216.0
 20
549.0
 30
0.0
 40
5.0
  0
CIRCLE
  5
BD
330
17
100
AcDbEntity
  8
CUT
 62
1
100
AcDbCircle
 10
246.0
 20
549.0
 30
0.0
 40
5.0
  0
LWPOLYLINE
  5
BE
330
17
100
AcDbEntity
  8
CUT
 62
1
100
AcDbPolyline
 90
69
 70
1
 10
291.5
 20
609.0
 10
304.5
 20
609.0
 10
304.5
 20
602.5
 10
299.0
 20
602.5
 10
299.0
 20
595.5
 10
304.5
 20
595.5
 10
304.5
 20
564.0
 10
328.0
 20
564.0
 10
328.0
 20
469.5319625684645
 10
331.2340187157677
 20
472.7659812842323
 10
330.2888555236404
 20
471.8469648644007
 10
329.31828916374417
 20
470.9548182504912
 10
328.3230832264781
 20
470.09024333638445
 10
327.3040206873605
 20
469.2539203240026
 10
326.2619032910251
 20
468.4465071881623
 10
325.19755092045085
 20
467.66863915891474
 10
324.1118009519213
 20
466.9209282217804
 10
323.0055075962208
 20
466.20396263627066
 10
321.87954122658687
 20
465.5183064730768
 10
320.73478769394626
 20
464.8644991702886
 10
319.57214762997427
 20
464.243055108993
 10
318.3925357385252
 20
463.6544632085863
 10
317.1968800759918
 20
463.099186542118
 10
315.9861213211592
 20
462.5776619719695
 10
314.7612120351287
 20
462.0902998061538
 10
313.52311591189283
 20
461.6374834755067
 10
312.2728070201519
 20
461.2195692320239
 10
311.0112690369679
 20
460.83688586858034
 10
309.7394944738597
 20
460.4897344602537
 10
308.45848389594676
 20
460.1783881274543
 10
307.16924513475806
 20
459.9030918210482
 10
305.87279249532264
 20
459.6640621296429
 10
304.5701459581685
 20
459.46148710918703
 10
303.26233037685546
 20
459.2955261350176
 10
301.95037467167464
 20
459.1663097764719
 10
300.63531102014804
 20
459.0739396941626
 10
299.3181740449659
 20
459.0184885599965
 10
298.0
 20
459.0
 10
296.6818259550341
 20
459.0184885599965
 10
295.36468897985196
 20
459.0739396941626
 10
294.04962532832536
 20
459.1663097764719
 10
292.73766962314454
 20
459.2955261350176
 10
291.4298540418315
 20
459.46148710918703
 10
290.1272075046774
 20
459.6640621296429
 10
288.830754865242
 20
459.9030918210482
 10
287.54151610405324
 20
460.1783881274543
 10
286.2605055261403
 20
460.4897344602537
 10
284.9887309630321
 20
460.83688586858034
 10
283.7271929798481
 20
461.2195692320239
 10
282.47688408810717
 20
461.6374834755067
 10
281.2387879648713
 20
462.0902998061538
 10
280.0138786788408
 20
462.5776619719695
 10
278.8031199240082
 20
463.099186542118
 10
277.6074642614748
 20
463.6544632085863
 10
276.42785237002573
 20
464.243055108993
 10
275.26521230605374
 20
464.8644991702886
 10
274.12045877341313
 20
465.5183064730768
 10
272.9944924037792
 20
466.20396263627066
 10
271.8881990480787
 20
466.92092822178034
 10
270.80244907954915
 20
467.66863915891474
 10
269.7380967089749
 20
468.4465071881623
 10
268.6959793126395
 20
469.2539203240026
 10
267.6769167735219
 20
470.09024333638445
 10
266.68171083625583
 20
470.9548182504912
 10
265.7111444763596
 20
471.8469648644007
 10
264.7659812842323
 20
472.7659812842323
 10
268.0
 20
469.5319625684645
 10
268.0
 20
564.0
 10
291.5
 20
564.0
  0
CIRCLE
  5
BF
330
17
100
AcDbEntity
  8
CUT
 62
1
100
AcDbCircle
 10
283.0
 20
514.0
 30
0.0
 40
5.0
  0
CIRCLE
  5
C0
330
17
100
AcDbEntity
  8
CUT
 62
1
100
AcDbCircle
 10
313.0
 20
514.0
 30
0.0
 40
5.0
  0
CIRCLE
  5
C1
330
17
100
AcDbEntity
  8
CUT
 62
1
100
AcDbCircle
 10
283.0
 20
549.0
 30
0.0
 40
5.0
  0
CIRCLE
  5
C2
330
17
100
AcDbEntity
  8
CUT
 62
1
100
AcDbCircle
 10
313.0
 20
549.0
 30
0.0
 40
5.0
  0
LWPOLYLINE
  5
C3
330
17
100
AcDbEntity
  8
CUT
 62
1
100
AcDbPolyline
 90
69
 70
1
 10
358.5
 20
609.0
 10
371.5
 20
609.0
 10
371.5
 20
602.5
 10
366.0
 20
602.5
 10
366.0
 20
595.5
 10
371.5
 20
595.5
 10
371.5
 20
564.0
 10
395.0
 20
564.0
 10
395.0
 20
469.5319625684645
 10
398.2340187157677
 20
472.7659812842323
 10
397.2888555236404
 20
471.8469648644007
 10
396.31828916374417
 20
470.9548182504912
 10
395.3230832264781
 20
470.09024333638445
 10
394.3040206873605
 20
469.2539203240026
 10
393.2619032910251
 20
468.4465071881623
 10
392.19755092045085
 20
467.66863915891474
 10
391.1118009519213
 20
466.9209282217804
 10
390.0055075962208
 20
466.20396263627066
 10
388.87954122658687
 20
465.5183064730768
 10
387.73478769394626
 20
464.8644991702886
 10
386.57214762997427
 20
464.243055108993
 10
385.3925357385252
 20
463.6544632085863
 10
384.1968800759918
 20
463.099186542118
 10
382.9861213211592
 20
462.5776619719695
 10
381.7612120351287
 20
462.0902998061538
 10
380.52311591189283
 20
461.6374834755067
 10
379.2728070201519
 20
461.2195692320239
 10
378.0112690369679
 20
460.83688586858034
 10
376.7394944738597
 20
460.4897344602537
 10
375.45848389594676
 20
460.1783881274543
 10
374.16924513475806
 20
459.9030918210482
 10
372.87279249532264
 20
459.6640621296429
 10
371.5701459581685
 20
459.46148710918703
 10
370.26233037685546
 20
459.2955261350176
 10
368.95037467167464
 20
459.1663097764719
 10
367.63531102014804
 20
459.0739396941626
 10
366.3181740449659
 20
459.0184885599965
 10
365.0
 20
459.0
 10
363.6818259550341
 20
459.0184885599965
 10
362.36468897985196
 20
459.0739396941626
 10
361.04962532832536
 20
459.1663097764719
 10
359.73766962314454
 20
459.2955261350176
 10
358.4298540418315
 20
459.46148710918703
 10
357.1272075046774
 20
459.6640621296429
 10
355.830754865242
 20
459.9030918210482
 10
354.54151610405324
 20
460.1783881274543
 10
353.2605055261403
 20
460.4897344602537
 10
351.9887309630321
 20
460.83688586858034
 10
350.7271929798481
 20
461.2195692320239
 10
349.47688408810717
 20
461.6374834755067
 10
348.2387879648713
 20
462.0902998061538
 10
347.0138786788408
 20
462.5776619719695
 10
345.8031199240082
 20
463.099186542118
 10
344.6074642614748
 20
463.6544632085863
 10
343.42785237002573
 20
464.243055108993
 10
342.26521230605374
 20
464.8644991702886
 10
341.12045877341313
 20
465.5183064730768
 10
339.9944924037792
 20
466.20396263627066
 10
338.8881990480787
 20
466.92092822178034
 10
337.80244907954915
 20
467.66863915891474
 10
336.7380967089749
 20
468.4465071881623
 10
335.6959793126395
 20
469.2539203240026
 10
334.6769167735219
 20
470.09024333638445
 10
333.68171083625583
 20
470.9548182504912
 10
332.7111444763596
 20
471.8469648644007
 10
331.7659812842323
 20
472.7659812842323
 10
335.0
 20
469.5319625684645
 10
335.0
 20
564.0
 10
358.5
 20
564.0
  0
CIRCLE
  5
C4
330
17
100
AcDbEntity
  8
CUT
 62
1
100
AcDbCircle
 10
350.0
 20
514.0
 30
0.0
 40
5.0
  0
CIRCLE
  5
C5
330
17
100
AcDbEntity
  8
CUT
 62
1
100
AcDbCircle
 10
380.0
 20
514.0
 30
0.0
 40
5.0
  0
CIRCLE
  5
C6
330
17
100
AcDbEntity
  8
CUT
 62
1
100
AcDbCircle
 10
350.0
 20
549.0
 30
0.0
 40
5.0
  0
CIRCLE
  5
C7
330
17
100
AcDbEntity
  8
CUT
 62
1
100
AcDbCircle
 10
380.0
 20
549.0
 30
0.0
 40
5.0
  0
LWPOLYLINE
  5
C8
330
17
100
AcDbEntity
  8
CUT
 62
1
100
AcDbPolyline
 90
69
 70
1
 10
425.5
 20
609.0
 10
438.5
 20
609.0
 10
438.5
 20
602.5
 10
433.0
 20
602.5
 10
433.0
 20
595.5
 10
438.5
 20
595.5
 10
438.5
 20
564.0
 10
462.0
 20
564.0
 10
462.0
 20
469.5319625684645
 10
465.2340187157677
 20
472.7659812842323
 10
464.2888555236404
 20
471.8469648644007
 10
463.31828916374417
 20
470.9548182504912
 10
462.3230832264781
 20
470.09024333638445
 10
461.3040206873605
 20
469.2539203240026
 10
460.2619032910251
 20
468.4465071881623
 10
459.19755092045085
 20
467.66863915891474
 10
458.1118009519213
 20
466.9209282217804
 10
457.0055075962208
 20
466.20396263627066
 10
455.87954122658687
 20
465.5183064730768
 10
454.73478769394626
 20
464.8644991702886
 10
453.57214762997427
 20
464.243055108993
 10
452.3925357385252
 20
463.6544632085863
 10
451.1968800759918
 20
463.099186542118
 10
449.9861213211592
 20
462.5776619719695
 10
448.7612120351287
 20
462.0902998061538
 10
447.52311591189283
 20
461.6374834755067
 10
446.2728070201519
 20
461.2195692320239
 10
445.0112690369679
 20
460.83688586858034
 10
443.7394944738597
 20
460.4897344602537
 10
442.45848389594676
 20
460.1783881274543
 10
441.16924513475806
 20
459.9030918210482
 10
439.87279249532264
 20
459.6640621296429
 10
438.5701459581685
 20
459.46148710918703
 10
437.26233037685546
 20
459.2955261350176
 10
435.95037467167464
 20
459.1663097764719
 10
434.63531102014804
 20
459.0739396941626
 10
433.3181740449659
 20
459.0184885599965
 10
432.0
 20
459.0
 10
430.6818259550341
 20
459.0184885599965
 10
429.36468897985196
 20
459.0739396941626
 10
428.04962532832536
 20
459.1663097764719
 10
426.73766962314454
 20
459.2955261350176
 10
425.4298540418315
 20
459.46148710918703
 10
424.1272075046774
 20
459.6640621296429
 10
422.830754865242
 20
459.9030918210482
 10
421.54151610405324
 20
460.1783881274543
 10
420.2605055261403
 20
460.4897344602537
 10
418.9887309630321
 20
460.83688586858034
 10
417.7271929798481
 20
461.2195692320239
 10
416.47688408810717
 20
461.6374834755067
 10
415.2387879648713
 20
462.0902998061538
 10
414.0138786788408
 20
462.5776619719695
 10
412.8031199240082
 20
463.099186542118
 10
411.6074642614748
 20
463.6544632085863
 10
410.42785237002573
 20
464.243055108993
 10
409.26521230605374
 20
464.8644991702886
 10
408.12045877341313
 20
465.5183064730768
 10
406.9944924037792
 20
466.20396263627066
 10
405.8881990480787
 20
466.92092822178034
 10
404.80244907954915
 20
467.66863915891474
 10
403.7380967089749
 20
468.4465071881623
 10
402.6959793126395
 20
469.2539203240026
 10
401.6769167735219
 20
470.09024333638445
 10
400.68171083625583
 20
470.9548182504912
 10
399.7111444763596
 20
471.8469648644007
 10
398.7659812842323
 20
472.7659812842323
 10
402.0
 20
469.5319625684645
 10
402.0
 20
564.0
 10
425.5
 20
564.0
  0
CIRCLE
  5
C9
330
17
100
AcDbEntity
  8
CUT
 62
1
100
AcDbCircle
 10
417.0
 20
514.0
 30
0.0
 40
5.0
  0
CIRCLE
  5
CA
330
17
100
AcDbEntity
  8
CUT
 62
1
100
AcDbCircle
 10
447.0
 20
514.0
 30
0.0
 40
5.0
  0
CIRCLE
  5
CB
330
17
100
AcDbEntity
  8
CUT
 62
1
100
AcDbCircle
 10
417.0
 20
549.0
 30
0.0
 40
5.0
  0
CIRCLE
  5
CC
330
17
100
AcDbEntity
  8
CUT
 62
1
100
AcDbCircle
 10
447.0
 20
549.0
 30
0.0
 40
5.0
  0
LWPOLYLINE
  5
CD
330
17
100
AcDbEntity
  8
CUT
 62
1
100
AcDbPolyline
 90
69
 70
1
 10
492.5
 20
609.0
 10
505.5
 20
609.0
 10
505.5
 20
602.5
 10
500.0
 20
602.5
 10
500.0
 20
595.5
 10
505.5
 20
595.5
 10
505.5
 20
564.0
 10
529.0
 20
564.0
 10
529.0
 20
469.5319625684645
 10
532.2340187157678
 20
472.7659812842323
 10
531.2888555236403
 20
471.8469648644007
 10
530.3182891637442
 20
470.9548182504912
 10
529.3230832264782
 20
470.09024333638445
 10
528.3040206873604
 20
469.2539203240026
 10
527.2619032910251
 20
468.4465071881623
 10
526.1975509204509
 20
467.66863915891474
 10
525.1118009519213
 20
466.9209282217804
 10
524.0055075962208
 20
466.20396263627066
 10
522.8795412265869
 20
465.5183064730768
 10
521.7347876939463
 20
464.8644991702886
 10
520.5721476299743
 20
464.243055108993
 10
519.3925357385252
 20
463.6544632085863
 10
518.1968800759918
 20
463.099186542118
 10
516.9861213211592
 20
462.5776619719695
 10
515.7612120351287
 20
462.0902998061538
 10
514.5231159118929
 20
461.6374834755067
 10
513.2728070201518
 20
461.2195692320239
 10
512.011269036968
 20
460.83688586858034
 10
510.7394944738597
 20
460.4897344602537
 10
509.45848389594676
 20
460.1783881274543
 10
508.16924513475806
 20
459.9030918210482
 10
506.87279249532264
 20
459.6640621296429
 10
505.5701459581685
 20
459.46148710918703
 10
504.26233037685546
 20
459.2955261350176
 10
502.95037467167464
 20
459.1663097764719
 10
501.63531102014804
 20
459.0739396941626
 10
500.3181740449659
 20
459.0184885599965
 10
499.0
 20
459.0
 10
497.6818259550341
 20
459.0184885599965
 10
496.36468897985196
 20
459.0739396941626
 10
495.04962532832536
 20
459.1663097764719
 10
493.73766962314454
 20
459.2955261350176
 10
492.4298540418315
 20
459.46148710918703
 10
491.1272075046774
 20
459.6640621296429
 10
489.830754865242
 20
459.9030918210482
 10
488.54151610405324
 20
460.1783881274543
 10
487.2605055261403
 20
460.4897344602537
 10
485.9887309630321
 20
460.83688586858034
 10
484.7271929798481
 20
461.2195692320239
 10
483.47688408810717
 20
461.6374834755067
 10
482.2387879648713
 20
462.0902998061538
 10
481.0138786788408
 20
462.5776619719695
 10
479.8031199240082
 20
463.099186542118
 10
478.6074642614748
 20
463.6544632085863
 10
477.42785237002573
 20
464.243055108993
 10
476.26521230605374
 20
464.8644991702886
 10
475.12045877341313
 20
465.5183064730768
 10
473.9944924037792
 20
466.20396263627066
 10
472.8881990480787
 20
466.92092822178034
 10
471.80244907954915
 20
467.66863915891474
 10
470.7380967089749
 20
468.4465071881623
 10
469.6959793126395
 20
469.2539203240026
 10
468.6769167735219
 20
470.09024333638445
 10
467.68171083625583
 20
470.9548182504912
 10
466.7111444763596
 20
471.8469648644007
 10
465.7659812842323
 20
472.7659812842323
 10
469.0
 20
469.5319625684645
 10
469.0
 20
564.0
 10
492.5
 20
564.0
  0
CIRCLE
  5
CE
330
17
100
AcDbEntity
  8
CUT
 62
1
100
AcDbCircle
 10
484.0
 20
514.0
 30
0.0
 40
5.0
  0
CIRCLE
  5
CF
330
17
100
AcDbEntity
  8
CUT
 62
1
100
AcDbCircle
 10
514.0
 20
514.0
 30
0.0
 40
5.0
  0
CIRCLE
  5
D0
330
17
100
AcDbEntity
  8
CUT
 62
1
100
AcDbCircle
 10
484.0
 20
549.0
 30
0.0
 40
5.0
  0
CIRCLE
  5
D1
330
17
100
AcDbEntity
  8
CUT
 62
1
100
AcDbCircle
 10
514.0
 20
549.0
 30
0.0
 40
5.0
  0
LWPOLYLINE
  5
D2
330
17
100
AcDbEntity
  8
INFO
 62
8
100
AcDbPolyline
 90
4
 70
1
 10
0.0
 20
-12.0
 10
536.0
 20
-12.0
 10
536.0
 20
612.0
 10
0.0
 20
612.0
  0
TEXT
  5
D3
330
17
100
AcDbEntity
  8
INFO
 62
7
100
AcDbText
 10
268.0
 20
-28.0
 30
0.0
 40
4.5
  1
NEST R47 Amada/Promecam | 32x5mm | L=160 | ~536x612
 72
1
 11
268.0
 21
-28.0
 31
0.0
100
AcDbText
 73
2
  0
ENDSEC
  0
SECTION
  2
OBJECTS
  0
DICTIONARY
  5
A
330
0
100
AcDbDictionary
281
1
  3
ACAD_COLOR
350
B
  3
ACAD_GROUP
350
C
  3
ACAD_LAYOUT
350
D
  3
ACAD_MATERIAL
350
E
  3
ACAD_MLEADERSTYLE
350
F
  3
ACAD_MLINESTYLE
350
10
  3
ACAD_PLOTSETTINGS
350
11
  3
ACAD_PLOTSTYLENAME
350
12
  3
ACAD_SCALELIST
350
14
  3
ACAD_TABLESTYLE
350
15
  3
ACAD_VISUALSTYLE
350
16
  3
EZDXF_META
350
2D
  0
DICTIONARY
  5
B
330
A
100
AcDbDictionary
281
1
  0
DICTIONARY
  5
C
330
A
100
AcDbDictionary
281
1
  0
DICTIONARY
  5
D
330
A
100
AcDbDictionary
281
1
  3
Model
350
1A
  3
Layout1
350
1E
  0
DICTIONARY
  5
E
330
A
100
AcDbDictionary
281
1
  3
ByBlock
350
1F
  3
ByLayer
350
20
  3
Global
350
21
  0
DICTIONARY
  5
F
330
A
100
AcDbDictionary
281
1
  3
Standard
350
2C
  0
DICTIONARY
  5
10
330
A
100
AcDbDictionary
281
1
  3
Standard
350
22
  0
DICTIONARY
  5
11
330
A
100
AcDbDictionary
281
1
  0
ACDBDICTIONARYWDFLT
  5
12
330
A
100
AcDbDictionary
281
1
  3
Normal
350
13
100
AcDbDictionaryWithDefault
340
13
  0
ACDBPLACEHOLDER
  5
13
330
12
  0
DICTIONARY
  5
14
330
A
100
AcDbDictionary
281
1
  0
DICTIONARY
  5
15
330
A
100
AcDbDictionary
281
1
  0
DICTIONARY
  5
16
330
A
100
AcDbDictionary
281
1
  0
LAYOUT
  5
1A
330
D
100
AcDbPlotSettings
  1

  4
A3
  6

 40
7.5
 41
20.0
 42
7.5
 43
20.0
 44
420.0
 45
297.0
 46
0.0
 47
0.0
 48
0.0
 49
0.0
140
0.0
141
0.0
142
1.0
143
1.0
 70
1024
 72
1
 73
0
 74
5
  7

 75
16
 76
0
 77
2
 78
300
147
1.0
148
0.0
149
0.0
100
AcDbLayout
  1
Model
 70
1
 71
0
 10
0.0
 20
0.0
 11
420.0
 21
297.0
 12
0.0
 22
0.0
 32
0.0
 14
1e+20
 24
1e+20
 34
1e+20
 15
-1e+20
 25
-1e+20
 35
-1e+20
146
0.0
 13
0.0
 23
0.0
 33
0.0
 16
1.0
 26
0.0
 36
0.0
 17
0.0
 27
1.0
 37
0.0
 76
1
330
17
  0
LAYOUT
  5
1E
330
D
100
AcDbPlotSettings
  1

  4
A3
  6

 40
7.5
 41
20.0
 42
7.5
 43
20.0
 44
420.0
 45
297.0
 46
0.0
 47
0.0
 48
0.0
 49
0.0
140
0.0
141
0.0
142
1.0
143
1.0
 70
0
 72
1
 73
0
 74
5
  7

 75
16
 76
0
 77
2
 78
300
147
1.0
148
0.0
149
0.0
100
AcDbLayout
  1
Layout1
 70
1
 71
1
 10
0.0
 20
0.0
 11
420.0
 21
297.0
 12
0.0
 22
0.0
 32
0.0
 14
1e+20
 24
1e+20
 34
1e+20
 15
-1e+20
 25
-1e+20
 35
-1e+20
146
0.0
 13
0.0
 23
0.0
 33
0.0
 16
1.0
 26
0.0
 36
0.0
 17
0.0
 27
1.0
 37
0.0
 76
1
330
1B
  0
MATERIAL
  5
1F
102
{ACAD_REACTORS
330
E
102
}
330
E
100
AcDbMaterial
  1
ByBlock
  2

 70
0
 40
1.0
 71
1
 41
1.0
 91
-1023410177
 42
1.0
 72
1
  3

 73
1
 74
1
 75
1
 44
0.5
 73
0
 45
1.0
 46
1.0
 77
1
  4

 78
1
 79
1
170
1
 48
1.0
171
1
  6

172
1
173
1
174
1
140
1.0
141
1.0
175
1
  7

176
1
177
1
178
1
143
1.0
179
1
  8

270
1
271
1
272
1
145
1.0
146
1.0
273
1
  9

274
1
275
1
276
1
 42
1.0
 72
1
  3

 73
1
 74
1
 75
1
 94
63
  0
MATERIAL
  5
20
102
{ACAD_REACTORS
330
E
102
}
330
E
100
AcDbMaterial
  1
ByLayer
  2

 70
0
 40
1.0
 71
1
 41
1.0
 91
-1023410177
 42
1.0
 72
1
  3

 73
1
 74
1
 75
1
 44
0.5
 73
0
 45
1.0
 46
1.0
 77
1
  4

 78
1
 79
1
170
1
 48
1.0
171
1
  6

172
1
173
1
174
1
140
1.0
141
1.0
175
1
  7

176
1
177
1
178
1
143
1.0
179
1
  8

270
1
271
1
272
1
145
1.0
146
1.0
273
1
  9

274
1
275
1
276
1
 42
1.0
 72
1
  3

 73
1
 74
1
 75
1
 94
63
  0
MATERIAL
  5
21
102
{ACAD_REACTORS
330
E
102
}
330
E
100
AcDbMaterial
  1
Global
  2

 70
0
 40
1.0
 71
1
 41
1.0
 91
-1023410177
 42
1.0
 72
1
  3

 73
1
 74
1
 75
1
 44
0.5
 73
0
 45
1.0
 46
1.0
 77
1
  4

 78
1
 79
1
170
1
 48
1.0
171
1
  6

172
1
173
1
174
1
140
1.0
141
1.0
175
1
  7

176
1
177
1
178
1
143
1.0
179
1
  8

270
1
271
1
272
1
145
1.0
146
1.0
273
1
  9

274
1
275
1
276
1
 42
1.0
 72
1
  3

 73
1
 74
1
 75
1
 94
63
  0
MLINESTYLE
  5
22
102
{ACAD_REACTORS
330
10
102
}
330
10
100
AcDbMlineStyle
  2
Standard
 70
0
  3

 62
256
 51
90.0
 52
90.0
 71
2
 49
0.5
 62
256
  6
BYLAYER
 49
-0.5
 62
256
  6
BYLAYER
  0
MLEADERSTYLE
  5
2C
102
{ACAD_REACTORS
330
F
102
}
330
F
100
AcDbMLeaderStyle
179
2
170
2
171
1
172
0
 90
2
 40
0.0
 41
0.0
173
1
 91
-1056964608
 92
-2
290
1
 42
2.0
291
1
 43
8.0
  3
Standard
 44
4.0
300

342
29
174
1
175
1
176
0
178
1
 93
-1056964608
 45
4.0
292
0
297
0
 46
4.0
 94
-1056964608
 47
1.0
 49
1.0
140
1.0
294
1
141
0.0
177
0
142
1.0
295
0
296
0
143
3.75
271
0
272
9
273
9
  0
DICTIONARY
  5
2D
330
A
100
AcDbDictionary
280
1
281
1
  3
CREATED_BY_EZDXF
350
2E
  3
WRITTEN_BY_EZDXF
350
D6
  0
DICTIONARYVAR
  5
2E
330
2D
100
DictionaryVariables
280
0
  1
1.4.4 @ 2026-07-30T13:17:16.879315+00:00
  0
DICTIONARYVAR
  5
D6
330
2D
100
DictionaryVariables
280
0
  1
1.4.4 @ 2026-07-30T13:17:16.887277+00:00
  0
ENDSEC
  0
EOF
